<?xml version="1.0" standalone="no"?>
<!DOCTYPE svg PUBLIC "-//W3C//DTD SVG 20010904//EN"
 "http://www.w3.org/TR/2001/REC-SVG-20010904/DTD/svg10.dtd">
<svg version="1.0" xmlns="http://www.w3.org/2000/svg"
 width="700.000000pt" height="700.000000pt" viewBox="0 0 700.000000 700.000000"
 preserveAspectRatio="xMidYMid meet">
<metadata>
Created by potrace 1.11, written by Peter Selinger 2001-2013
</metadata>
<g transform="translate(0.000000,700.000000) scale(0.100000,-0.100000)"
fill="#000000" stroke="none">
<path d="M5375 6993 c-46 -12 -104 -63 -130 -112 -34 -67 -20 -169 32 -227 15
-17 37 -41 47 -53 l20 -22 -321 -322 -322 -322 618 -617 617 -617 320 320
c175 175 322 319 326 319 5 0 23 -15 41 -34 48 -51 111 -80 171 -79 153 1 251
167 180 304 -20 39 -1405 1424 -1444 1444 -32 16 -121 27 -155 18z"/>
<path d="M1798 6772 c-60 -29 -97 -71 -114 -130 -19 -63 -13 -110 21 -167 34
-58 471 -488 522 -514 36 -18 53 -20 135 -15 198 12 280 6 397 -31 349 -111
586 -439 582 -808 l0 -88 194 195 195 195 -31 93 c-108 331 -340 598 -649 746
-171 82 -330 118 -529 121 l-135 2 -190 191 c-119 118 -206 198 -231 209 -50
23 -119 24 -167 1z"/>
<path d="M3665 4900 l-740 -740 618 -617 617 -618 740 740 741 741 -613 612
c-337 336 -615 614 -618 617 -3 2 -339 -329 -745 -735z"/>
<path d="M1643 2878 c-694 -694 -987 -994 -998 -1020 -19 -48 -19 -118 0 -166
22 -50 984 -1015 1041 -1042 52 -26 126 -26 178 0 28 13 360 338 1021 1000
l980 980 -615 615 c-338 338 -617 615 -620 615 -3 0 -447 -442 -987 -982z"/>
<path d="M487 1349 c-18 -30 -54 -94 -102 -184 -21 -38 -66 -119 -100 -180
-34 -60 -79 -141 -100 -180 -21 -38 -66 -119 -100 -180 -34 -60 -68 -127 -75
-148 -13 -43 -6 -115 15 -157 7 -14 71 -84 142 -154 132 -133 182 -166 247
-166 60 0 60 0 576 288 25 13 86 47 135 75 50 28 115 64 146 81 31 17 66 38
78 46 21 15 10 27 -413 449 -429 428 -434 433 -449 410z"/>
</g>
</svg>
