<?xml version="1.0" encoding="iso-8859-1"?>
<!-- Generator: Adobe Illustrator 19.0.0, SVG Export Plug-In . SVG Version: 6.00 Build 0)  -->
<svg version="1.1" id="Layer_1" xmlns="http://www.w3.org/2000/svg" xmlns:xlink="http://www.w3.org/1999/xlink" x="0px" y="0px"
	 viewBox="0 0 469.998 469.998" style="enable-background:new 0 0 469.998 469.998;" xml:space="preserve">
<g>
	<g>
		<path d="M467.8,44.624L425.373,2.197C423.967,0.79,422.06,0,420.07,0s-3.897,0.79-5.303,2.197L311.529,105.435l-1.768-1.768
			c-2.929-2.929-7.678-2.929-10.606,0c-2.929,2.929-2.929,7.678,0,10.606l1.768,1.768l-10.606,10.606l-1.768-1.768
			c-2.929-2.929-7.678-2.929-10.606,0c-2.929,2.929-2.929,7.678,0,10.606l1.768,1.768l-42.427,42.427l-1.768-1.768
			c-2.929-2.929-7.678-2.929-10.606,0c-2.929,2.929-2.929,7.678,0,10.606l1.768,1.768l-63.64,63.64l-1.768-1.768
			c-2.929-2.929-7.678-2.929-10.606,0c-2.929,2.929-2.929,7.678,0,10.606l1.768,1.768l-22.979,22.979
			c-0.004,0.004-106.039,106.04-106.039,106.04c-0.009,0.009-21.217,21.218-21.217,21.218c-2.929,2.929-2.929,7.678,0,10.606
			l42.426,42.426c1.406,1.407,3.314,2.197,5.303,2.197c1.989,0,3.897-0.79,5.303-2.197l79.526-79.526l1.768,1.768
			c1.464,1.464,3.384,2.197,5.303,2.197s3.839-0.732,5.303-2.197c2.929-2.929,2.929-7.678,0-10.606l-1.768-1.768l10.607-10.607
			l1.768,1.768c2.929,2.929,7.678,2.929,10.606,0c2.929-2.929,2.929-7.678,0-10.606l-1.768-1.768l67.175-67.175l1.768,1.768
			c1.464,1.464,3.384,2.197,5.303,2.197c1.919,0,3.839-0.732,5.303-2.197c2.929-2.929,2.929-7.678,0-10.606l-1.768-1.768
			l10.607-10.607l1.768,1.768c1.464,1.464,3.384,2.197,5.303,2.197s3.839-0.732,5.303-2.197c2.929-2.929,2.929-7.678,0-10.606
			l-1.768-1.768l114.9-114.9c0.01-0.01,21.218-21.219,21.218-21.219c1.407-1.406,2.197-3.314,2.197-5.303s-0.79-3.897-2.197-5.303
			l-5.303-5.303l1.768-1.768c2.827-2.826,6.593-4.383,10.607-4.383c4.014,0,7.78,1.557,10.607,4.383
			c5.848,5.849,5.848,15.365,0,21.213l-42.917,42.916c-9.917,9.916-15.378,23.1-15.378,37.124c0,14.023,5.46,27.207,15.376,37.123
			l42.427,42.427c1.464,1.464,3.384,2.197,5.303,2.197s3.839-0.732,5.303-2.197c2.929-2.929,2.929-7.678,0-10.606l-42.427-42.427
			c-7.083-7.083-10.983-16.5-10.983-26.516c0-10.017,3.901-19.434,10.984-26.517l42.917-42.917c5.66-5.66,8.776-13.193,8.777-21.213
			c0-8.02-3.117-15.554-8.776-21.213c-5.659-5.66-13.193-8.776-21.213-8.776s-15.554,3.117-21.213,8.776l-1.769,1.769l-5.303-5.303
			c-2.929-2.93-7.678-2.929-10.606,0l-21.209,21.209c-0.009,0.009-15.914,15.915-15.914,15.915l-10.607-10.607l97.935-97.935
			l31.82,31.82l-16.616,16.616c-2.929,2.929-2.929,7.678,0,10.606c2.929,2.929,7.678,2.929,10.606,0l21.919-21.919
			C470.729,52.301,470.729,47.552,467.8,44.624z M290.316,147.86l1.768,1.768c1.464,1.464,3.384,2.197,5.303,2.197
			s3.839-0.732,5.303-2.197c2.929-2.929,2.929-7.678,0-10.606l-1.768-1.768l10.606-10.606l10.608,10.607l-63.64,63.639
			l-10.607-10.607L290.316,147.86z M237.283,200.894l10.607,10.607l-63.64,63.64l-10.607-10.607L237.283,200.894z M49.923,451.894
			l-31.819-31.82l10.607-10.607l31.82,31.82L49.923,451.894z M71.137,430.68l-10.606-10.606l53.009-53.009l10.607,10.606
			L71.137,430.68z M134.752,367.064l-10.607-10.606l10.607-10.607l10.607,10.607L134.752,367.064z M155.965,345.852l-15.909-15.911
			c-1.406-1.407-3.314-2.197-5.303-2.197c-1.989,0-3.897,0.79-5.303,2.197l-21.212,21.212c-0.002,0.002-58.313,58.314-58.313,58.314
			l-10.608-10.606l95.435-95.436l31.82,31.82L155.965,345.852z M375.169,105.435l10.606,10.606l-10.607,10.607l-10.606-10.606
			L375.169,105.435z M353.955,126.648l10.606,10.606L177.179,324.638l-31.82-31.82l17.678-17.678l10.606,10.607l-1.768,1.768
			c-2.929,2.929-2.929,7.678,0,10.606c2.929,2.93,7.678,2.929,10.606,0L353.955,126.648z"/>
	</g>
</g>
<g>
</g>
<g>
</g>
<g>
</g>
<g>
</g>
<g>
</g>
<g>
</g>
<g>
</g>
<g>
</g>
<g>
</g>
<g>
</g>
<g>
</g>
<g>
</g>
<g>
</g>
<g>
</g>
<g>
</g>
</svg>
