<svg height="480pt" viewBox="0 0 480 480" width="480pt" xmlns="http://www.w3.org/2000/svg"><path d="m376 192v-24c0-75.113281-60.886719-136-136-136s-136 60.886719-136 136v24h-32v-24c0-92.785156 75.214844-168 168-168s168 75.214844 168 168v24zm0 0" fill="#bab8b9"/><path d="m464 320h-32v-96h32c8.839844 0 16 7.160156 16 16v64c0 8.839844-7.160156 16-16 16zm0 0" fill="#575c61"/><path d="m456 304v-64c0-8.839844-7.160156-16-16-16h-8v96h8c8.839844 0 16-7.160156 16-16zm0 0" fill="#5b6673"/><path d="m368 192h48c8.839844 0 16 7.160156 16 16v128c0 8.839844-7.160156 16-16 16h-48c-8.839844 0-16-7.160156-16-16v-128c0-8.839844 7.160156-16 16-16zm0 0" fill="#85b6cf"/><path d="m408 336v-128c0-8.839844-7.160156-16-16-16h-24c-8.839844 0-16 7.160156-16 16v128c0 8.839844 7.160156 16 16 16h24c8.839844 0 16-7.160156 16-16zm0 0" fill="#94cce7"/><path d="m16 320h32v-96h-32c-8.839844 0-16 7.160156-16 16v64c0 8.839844 7.160156 16 16 16zm0 0" fill="#575c61"/><path d="m24 304v-64c0-8.839844 7.160156-16 16-16h8v96h-8c-8.839844 0-16-7.160156-16-16zm0 0" fill="#5b6673"/><path d="m112 192h-48c-8.839844 0-16 7.160156-16 16v128c0 8.839844 7.160156 16 16 16h48c8.839844 0 16-7.160156 16-16v-128c0-8.839844-7.160156-16-16-16zm0 0" fill="#85b6cf"/><path d="m72 336v-128c0-8.839844 7.160156-16 16-16h24c8.839844 0 16 7.160156 16 16v128c0 8.839844-7.160156 16-16 16h-24c-8.839844 0-16-7.160156-16-16zm0 0" fill="#94cce7"/><path d="m256 264h64v216h-64zm0 0" fill="#eebc5a"/><path d="m256 312h64v32h-64zm0 0" fill="#f8cf6a"/><path d="m160 176h64v304h-64zm0 0" fill="#dc6068"/><path d="m160 224h64v32h-64zm0 0" fill="#ca5057"/><path d="m160 440h64v16h-64zm0 0" fill="#ca5057"/><path d="m256 440h64v16h-64zm0 0" fill="#f8cf6a"/></svg>