<svg id="Capa_1" enable-background="new 0 0 497 497" height="512" viewBox="0 0 497 497" width="512" xmlns="http://www.w3.org/2000/svg"><g><g><g><path d="m436.712 421.142-188.212-30-188.212 30v50.567c0 13.968 11.323 25.291 25.291 25.291h325.842c13.968 0 25.291-11.323 25.291-25.291z" fill="#8c818f"/></g></g><g><g><path d="m406.712 421.142v50.567c0 13.968-11.323 25.291-25.291 25.291h30c13.968 0 25.291-11.323 25.291-25.291v-50.567z" fill="#766d78"/></g></g><g><g><path d="m118.053 455.528c-4.142 0-7.5-3.358-7.5-7.5v-26.886c0-4.142 3.358-7.5 7.5-7.5s7.5 3.358 7.5 7.5v26.886c0 4.142-3.358 7.5-7.5 7.5z" fill="#766d78"/></g></g><g><g><path d="m182.896 455.528c-4.142 0-7.5-3.358-7.5-7.5v-26.886c0-4.142 3.358-7.5 7.5-7.5s7.5 3.358 7.5 7.5v26.886c0 4.142-3.358 7.5-7.5 7.5z" fill="#766d78"/></g></g><g><g><path d="m247.739 455.528c-4.142 0-7.5-3.358-7.5-7.5v-26.886c0-4.142 3.358-7.5 7.5-7.5s7.5 3.358 7.5 7.5v26.886c0 4.142-3.358 7.5-7.5 7.5z" fill="#766d78"/></g></g><g><g><path d="m312.581 455.528c-4.142 0-7.5-3.358-7.5-7.5v-26.886c0-4.142 3.358-7.5 7.5-7.5s7.5 3.358 7.5 7.5v26.886c0 4.142-3.358 7.5-7.5 7.5z" fill="#766d78"/></g></g><g><g><path d="m377.424 455.528c-4.142 0-7.5-3.358-7.5-7.5v-26.886c0-4.142 3.358-7.5 7.5-7.5s7.5 3.358 7.5 7.5v26.886c0 4.142-3.358 7.5-7.5 7.5z" fill="#766d78"/></g></g><g><g><path d="m426.644 352.104-37.572 10-37.572-10v-22.569c0-5.505 4.462-9.967 9.967-9.967h55.209c5.505 0 9.967 4.462 9.967 9.967v22.569z" fill="#dc4955"/></g></g><g><g><path d="m148.798 352.104-37.572 10-37.572-10v-22.569c0-5.505 4.463-9.967 9.967-9.967h55.209c5.505 0 9.967 4.462 9.967 9.967v22.569z" fill="#faf063"/></g></g><g><g><path d="m227.858 110.811h39.761v253.793h-39.761z" fill="#8c818f"/></g></g><g><g><ellipse cx="247.739" cy="76.933" fill="#dc4955" rx="76.933" ry="76.933" transform="matrix(.707 -.707 .707 .707 18.161 197.711)"/></g></g><g><g><path d="m247.739 0c-5.134 0-10.147.513-15 1.473 35.306 6.98 61.933 38.105 61.933 75.46s-26.626 68.481-61.933 75.46c4.853.959 9.866 1.473 15 1.473 42.489 0 76.933-34.444 76.933-76.933s-34.445-76.933-76.933-76.933z" fill="#d82f3c"/></g></g><g><g><path d="m444.319 421.142h-391.638c-6.455 0-11.687-5.233-11.687-11.687v-41.87c0-8.55 6.931-15.481 15.481-15.481h384.051c8.55 0 15.481 6.931 15.481 15.481v41.87c-.001 6.454-5.233 11.687-11.688 11.687z" fill="#c8c3ca"/></g></g><g><g><path d="m440.525 352.104h-30c8.55 0 15.481 6.931 15.481 15.481v53.557h18.313c6.455 0 11.687-5.233 11.687-11.687v-41.87c0-8.55-6.931-15.481-15.481-15.481z" fill="#b1abb4"/></g></g></g></svg>