<?xml version="1.0" encoding="UTF-8"?>
<svg
   xmlns="http://www.w3.org/2000/svg"
   version="1.1"
   id="svg2278"
   xml:space="preserve"
   width="226.78639"
   height="243.8463"><g
     id="g2286"
     transform="matrix(1.3333333,0,0,-1.3333333,0,243.8463)"><g
       id="g2288"
       transform="scale(0.1)"><path
         d="m 610.754,284.809 -168.055,208.363 14.637,11.789 168.055,-208.352 -14.637,-11.8"
         style="fill:#2b658e;fill-opacity:1;fill-rule:nonzero;stroke:none"
         id="path2300" /><path
         d="m 609.203,270.328 -180.976,224.391 30.66,24.722 180.976,-224.382 -30.66,-24.731"
         style="fill:#2c658f;fill-opacity:1;fill-rule:nonzero;stroke:none"
         id="path2302" /><path
         d="m 1437.11,1434.07 c -65.61,36.34 -148.53,12.54 -184.85,-53.05 -36.34,-65.6 -12.52,-148.53 53.08,-184.86 65.59,-36.33 148.54,-12.53 184.87,53.07 36.33,65.59 12.5,148.52 -53.1,184.84 z m -145.56,-262.83 c -79.35,43.95 -108.15,144.24 -64.21,223.57 43.93,79.32 144.22,108.12 223.56,64.19 79.34,-43.95 108.15,-144.24 64.22,-223.57 -43.94,-79.32 -144.25,-108.13 -223.57,-64.19"
         style="fill:#494248;fill-opacity:1;fill-rule:nonzero;stroke:none"
         id="path2304" /><path
         d="m 1423.09,1413.43 c 0,0 -87.97,10.19 -154.34,-63.19 0,0 44.32,96.64 154.34,63.19"
         style="fill:#2b658e;fill-opacity:1;fill-rule:nonzero;stroke:none"
         id="path2306" /><path
         d="m 1425.62,1380.03 c 0,0 -65.76,7.58 -115.44,-47.24 0,0 33.16,72.24 115.44,47.24"
         style="fill:#2b658e;fill-opacity:1;fill-rule:nonzero;stroke:none"
         id="path2308" /><path
         d="m 222.406,151.52 h 362.692 v 39.378 H 222.406 V 151.52"
         style="fill:#2c658f;fill-opacity:1;fill-rule:nonzero;stroke:none"
         id="path2310" /><path
         d="M 874.988,190.898 V 151.52 h 514.992 v 39.378 H 874.988"
         style="fill:#2c658f;fill-opacity:1;fill-rule:nonzero;stroke:none"
         id="path2312" /><path
         d="m 888.523,221.512 198.487,358.379 -188.217,104.25 -198.48,-358.379 33.21,-18.391 179.653,324.348 121.784,-67.438 -179.647,-324.359 33.21,-18.41"
         style="fill:#2c658f;fill-opacity:1;fill-rule:nonzero;stroke:none"
         id="path2314" /><path
         d="m 127.051,78.3398 c -51.2033,0 -92.8557,41.6602 -92.8557,92.8592 0,51.211 41.6524,92.871 92.8557,92.871 51.207,0 92.867,-41.66 92.867,-92.871 0,-51.199 -41.66,-92.8592 -92.867,-92.8592 z m 0,219.9222 C 56.9961,298.262 0,241.262 0,171.199 0,101.141 56.9961,44.1484 127.051,44.1484 c 70.058,0 127.058,56.9926 127.058,127.0506 0,70.063 -57,127.063 -127.058,127.063"
         style="fill:#4a4248;fill-opacity:1;fill-rule:nonzero;stroke:none"
         id="path2316" /><path
         d="m 1496.46,78.3398 c -51.21,0 -92.87,41.6602 -92.87,92.8592 0,51.211 41.66,92.871 92.87,92.871 51.2,0 92.85,-41.66 92.85,-92.871 0,-51.199 -41.65,-92.8592 -92.85,-92.8592 z m 0,219.9222 c -70.06,0 -127.07,-57 -127.07,-127.063 0,-70.058 57.01,-127.0506 127.07,-127.0506 70.05,0 127.05,56.9926 127.05,127.0506 0,70.063 -57,127.063 -127.05,127.063"
         style="fill:#4a4248;fill-opacity:1;fill-rule:nonzero;stroke:none"
         id="path2318" /><path
         d="m 380.59,489.141 c -41.699,0 -78.535,28.078 -89.578,68.257 -13.571,49.391 15.558,100.602 64.929,114.172 8.043,2.211 16.309,3.328 24.579,3.328 41.699,0 78.539,-28.07 89.585,-68.269 6.567,-23.867 3.411,-48.91 -8.871,-70.5 -12.281,-21.598 -32.191,-37.09 -56.066,-43.66 -8.051,-2.199 -16.316,-3.328 -24.578,-3.328 z m -0.078,219.937 c -11.317,0 -22.629,-1.519 -33.625,-4.547 -67.551,-18.562 -107.407,-88.621 -88.84,-156.179 15.113,-55 65.508,-93.403 122.551,-93.403 11.316,0 22.629,1.531 33.632,4.551 67.547,18.578 107.403,88.648 88.84,156.191 -15.117,55 -65.515,93.387 -122.558,93.387"
         style="fill:#4a4248;fill-opacity:1;fill-rule:nonzero;stroke:none"
         id="path2320" /><path
         d="m 609.184,135.301 c -9.926,34.558 -5.825,70.859 11.543,102.219 23.671,42.75 68.839,69.3 117.867,69.3 22.597,0 45.035,-5.808 64.886,-16.808 64.856,-35.934 88.395,-117.91 52.473,-182.762 -23.664,-42.7383 -68.82,-69.2812 -117.84,-69.2812 -0.004,0 -0.008,0 -0.008,0 -22.609,0 -45.046,5.8125 -64.902,16.8125 -31.363,17.3593 -54.098,45.9487 -64.019,80.5197 z m 212.695,187.918 c -25.469,14.113 -54.262,21.562 -83.262,21.562 -62.851,0 -120.746,-34.062 -151.097,-88.859 C 565.234,215.699 559.973,169.141 572.695,124.832 585.422,80.5195 614.586,43.8398 654.809,21.5586 680.273,7.44922 709.066,0 738.07,0 c 62.852,0 120.754,34.0508 151.106,88.8516 22.273,40.2184 27.539,86.7894 14.812,131.0974 -12.722,44.321 -41.883,80.992 -82.109,103.27"
         style="fill:#4a4248;fill-opacity:1;fill-rule:nonzero;stroke:none"
         id="path2322" /><path
         d="m 851.227,732.379 297.943,-165.02 c 589.13,636.731 496.78,1117.971 477.65,1192.461 l -18.21,10.09 C 1574.92,1759.22 1459.94,1716.2 1324.96,1593 1178.65,1459.46 978.73,1202.14 851.227,732.379 Z m 289.833,-225.43 -336.747,186.5 c -11.368,6.289 -17.016,19.5 -13.711,32.071 131.425,499.41 344.188,771.91 499.518,912.55 170.57,154.46 309.57,188.64 315.4,190.02 6.88,1.62 14.11,0.62 20.3,-2.8 l 38.83,-21.51 c 6.18,-3.42 10.86,-9.03 13.13,-15.72 1.93,-5.67 46.7,-141.63 6.26,-368.15 -36.8,-206.3 -154.91,-531.207 -508.53,-907.57 -8.89,-9.469 -23.08,-11.68 -34.45,-5.391"
         style="fill:#2b658e;fill-opacity:1;fill-rule:nonzero;stroke:none"
         id="path2324" /><path
         d="m 604.164,577.391 c -0.551,0.32 -1.101,0.64 -1.641,0.98 -8.953,5.789 -13.929,16.109 -12.859,26.719 l 24.281,240.508 c 0.071,0.625 0.153,1.25 0.258,1.867 47.274,280.455 333.551,280.475 336.438,280.455 15.668,-0.19 28.246,-13.03 28.074,-28.71 -0.176,-15.66 -12.996,-28.22 -28.649,-28.07 v 0 c -9.796,0.06 -240.148,-1.03 -279.699,-232.202 L 651.742,654.68 803.816,742.852 c 13.567,7.867 30.93,3.257 38.813,-10.321 7.859,-13.562 3.246,-30.941 -10.328,-38.812 L 632.156,577.672 c -8.672,-5.031 -19.304,-5.082 -27.992,-0.281"
         style="fill:#2b658e;fill-opacity:1;fill-rule:nonzero;stroke:none"
         id="path2326" /><path
         d="m 1148.88,275.719 c -8.69,4.812 -14.29,13.851 -14.62,23.871 l -7.82,231.219 c -0.52,15.691 11.75,28.812 27.42,29.351 15.67,0.539 28.81,-11.75 29.34,-27.422 l 5.95,-175.699 146.31,113.539 c 174.93,156.192 53.68,352.024 48.43,360.293 -8.4,13.215 -4.53,30.762 8.67,39.18 13.19,8.437 30.71,4.621 39.15,-8.563 1.57,-2.433 153.41,-245.117 -59.24,-433.976 -0.47,-0.422 -0.94,-0.821 -1.44,-1.211 l -190.99,-148.18 c -8.42,-6.551 -19.81,-7.801 -29.46,-3.269 -0.58,0.269 -1.15,0.558 -1.7,0.867"
         style="fill:#2b658e;fill-opacity:1;fill-rule:nonzero;stroke:none"
         id="path2328" /><path
         d="m 1369.48,1450.63 c 22.6,0 45.04,-5.81 64.9,-16.81 31.36,-17.36 54.1,-45.96 64.02,-80.52 9.92,-34.55 5.82,-70.86 -11.55,-102.22 -23.67,-42.74 -68.82,-69.29 -117.85,-69.29 -22.6,0 -45.04,5.82 -64.9,16.82 -31.36,17.36 -54.1,45.95 -64.02,80.52 -9.92,34.55 -5.82,70.86 11.55,102.22 23.66,42.74 68.82,69.28 117.85,69.28 z m 165.4,-86.85 c -12.72,44.31 -41.88,80.99 -82.11,103.27 -25.46,14.1 -54.25,21.56 -83.25,21.56 -62.85,0 -120.75,-34.05 -151.11,-88.86 -46.06,-83.16 -15.87,-188.3 67.29,-234.37 25.47,-14.1 54.26,-21.56 83.26,-21.56 62.86,0 120.76,34.05 151.11,88.86 22.28,40.22 27.54,86.78 14.81,131.1"
         style="fill:#4a4248;fill-opacity:1;fill-rule:nonzero;stroke:none"
         id="path2330" /></g></g></svg>
