<?xml version="1.0" encoding="utf-8" standalone="no"?>
<!DOCTYPE svg PUBLIC "-//W3C//DTD SVG 1.1//EN"
  "http://www.w3.org/Graphics/SVG/1.1/DTD/svg11.dtd">
<!-- Created with matplotlib (https://matplotlib.org/) -->
<svg height="345.6pt" version="1.1" viewBox="0 0 460.8 345.6" width="460.8pt" xmlns="http://www.w3.org/2000/svg" xmlns:xlink="http://www.w3.org/1999/xlink">
 <defs>
  <style type="text/css">
*{stroke-linecap:butt;stroke-linejoin:round;}
  </style>
 </defs>
 <g id="figure_1">
  <g id="patch_1">
   <path d="M 0 345.6 
L 460.8 345.6 
L 460.8 0 
L 0 0 
z
" style="fill:none;"/>
  </g>
  <g id="axes_1">
   <g id="patch_2">
    <path d="M 3.5 256.575 
L 460.8 256.575 
L 460.8 85.525 
L 3.5 85.525 
z
" style="fill:none;"/>
   </g>
   <g id="line2d_1">
    <path clip-path="url(#p4b6a604920)" d="M 76.668 171.05 
L 81.241 163.386278 
L 85.814 138.685108 
L 90.387 153.802729 
L 94.96 163.620992 
L 99.533 181.241127 
L 104.106 183.190336 
L 108.679 193.621592 
L 113.252 151.618501 
L 117.825 192.627659 
L 122.398 171.303767 
L 126.971 188.152607 
L 131.544 190.314858 
L 136.117 141.590541 
L 140.69 167.269969 
L 145.263 162.846693 
L 149.836 186.63655 
L 154.409 158.193837 
L 158.982 177.799142 
L 163.555 152.46394 
L 168.128 158.623393 
L 172.701 106.872137 
L 177.274 159.428292 
L 181.847 96.414685 
L 186.42 79.095 
" style="fill:none;stroke:#1f77b4;stroke-linecap:square;stroke-opacity:0.25;stroke-width:1.5;"/>
   </g>
   <g id="line2d_2">
    <path clip-path="url(#p4b6a604920)" d="M 76.668 171.05 
L 81.241 197.652816 
L 85.814 196.88989 
L 90.387 176.311488 
L 94.96 190.259374 
L 99.533 165.147436 
L 104.106 176.130571 
L 108.679 213.691109 
L 113.252 212.97376 
L 117.825 239.170186 
L 122.398 225.745586 
L 126.971 247.428342 
L 131.544 256.080496 
L 136.117 272.838774 
" style="fill:none;stroke:#d62728;stroke-linecap:square;stroke-opacity:0.25;stroke-width:1.5;"/>
   </g>
   <g id="matplotlib.axis_1"/>
   <g id="matplotlib.axis_2"/>
   <g id="patch_3">
    <path d="M 3.5 256.575 
L 3.5 85.525 
" style="fill:none;stroke:#000000;stroke-linecap:square;stroke-linejoin:miter;stroke-width:0.8;"/>
   </g>
   <g id="patch_4">
    <path d="M 460.8 256.575 
L 460.8 85.525 
" style="fill:none;stroke:#000000;stroke-linecap:square;stroke-linejoin:miter;stroke-width:0.8;"/>
   </g>
   <g id="patch_5">
    <path d="M 3.5 256.575 
L 460.8 256.575 
" style="fill:none;stroke:#000000;stroke-linecap:square;stroke-linejoin:miter;stroke-width:0.8;"/>
   </g>
   <g id="patch_6">
    <path d="M 3.5 85.525 
L 460.8 85.525 
" style="fill:none;stroke:#000000;stroke-linecap:square;stroke-linejoin:miter;stroke-width:0.8;"/>
   </g>
  </g>
  <g id="axes_2">
   <g id="patch_7">
    <path d="M 3.5 85.525 
L 460.8 85.525 
L 460.8 0 
L 3.5 0 
z
" style="fill:none;"/>
   </g>
   <g id="PolyCollection_1">
    <path clip-path="url(#p2034e0cc33)" d="M 24.286364 85.525 
L 24.286364 85.525 
L 25.119484 85.525 
L 25.952605 85.525 
L 26.785726 85.525 
L 27.618847 85.525 
L 28.451968 85.525 
L 29.285088 85.525 
L 30.118209 85.525 
L 30.95133 85.525 
L 31.784451 85.525 
L 32.617572 85.525 
L 33.450692 85.525 
L 34.283813 85.525 
L 35.116934 85.525 
L 35.950055 85.525 
L 36.783175 85.525 
L 37.616296 85.525 
L 38.449417 85.525 
L 39.282538 85.525 
L 40.115659 85.525 
L 40.948779 85.525 
L 41.7819 85.525 
L 42.615021 85.525 
L 43.448142 85.525 
L 44.281263 85.525 
L 45.114383 85.525 
L 45.947504 85.525 
L 46.780625 85.525 
L 47.613746 85.525 
L 48.446866 85.525 
L 49.279987 85.525 
L 50.113108 85.525 
L 50.946229 85.525 
L 51.77935 85.525 
L 52.61247 85.525 
L 53.445591 85.525 
L 54.278712 85.525 
L 55.111833 85.525 
L 55.944954 85.525 
L 56.778074 85.525 
L 57.611195 85.525 
L 58.444316 85.525 
L 59.277437 85.525 
L 60.110557 85.525 
L 60.943678 85.525 
L 61.776799 85.525 
L 62.60992 85.525 
L 63.443041 85.525 
L 64.276161 85.525 
L 65.109282 85.525 
L 65.942403 85.525 
L 66.775524 85.525 
L 67.608645 85.525 
L 68.441765 85.525 
L 69.274886 85.525 
L 70.108007 85.525 
L 70.941128 85.525 
L 71.774248 85.525 
L 72.607369 85.525 
L 73.44049 85.525 
L 74.273611 85.525 
L 75.106732 85.525 
L 75.939852 85.525 
L 76.772973 85.525 
L 77.606094 85.525 
L 78.439215 85.525 
L 79.272336 85.525 
L 80.105456 85.525 
L 80.938577 85.525 
L 81.771698 85.525 
L 82.604819 85.525 
L 83.43794 85.525 
L 84.27106 85.525 
L 85.104181 85.525 
L 85.937302 85.525 
L 86.770423 85.525 
L 87.603543 85.525 
L 88.436664 85.525 
L 89.269785 85.525 
L 90.102906 85.525 
L 90.936027 85.525 
L 91.769147 85.525 
L 92.602268 85.525 
L 93.435389 85.525 
L 94.26851 85.525 
L 95.101631 85.525 
L 95.934751 85.525 
L 96.767872 85.525 
L 97.600993 85.525 
L 98.434114 85.525 
L 99.267234 85.525 
L 100.100355 85.525 
L 100.933476 85.525 
L 101.766597 85.525 
L 102.599718 85.525 
L 103.432838 85.525 
L 104.265959 85.525 
L 105.09908 85.525 
L 105.932201 85.525 
L 106.765322 85.525 
L 107.598442 85.525 
L 108.431563 85.525 
L 109.264684 85.525 
L 110.097805 85.525 
L 110.930925 85.525 
L 111.764046 85.525 
L 112.597167 85.525 
L 113.430288 85.525 
L 114.263409 85.525 
L 115.096529 85.525 
L 115.92965 85.525 
L 116.762771 85.525 
L 117.595892 85.525 
L 118.429013 85.525 
L 119.262133 85.525 
L 120.095254 85.525 
L 120.928375 85.525 
L 121.761496 85.525 
L 122.594617 85.525 
L 123.427737 85.525 
L 124.260858 85.525 
L 125.093979 85.525 
L 125.9271 85.525 
L 126.76022 85.525 
L 127.593341 85.525 
L 128.426462 85.525 
L 129.259583 85.525 
L 130.092704 85.525 
L 130.925824 85.525 
L 131.758945 85.525 
L 132.592066 85.525 
L 133.425187 85.525 
L 134.258308 85.525 
L 135.091428 85.525 
L 135.924549 85.525 
L 136.75767 85.525 
L 137.590791 85.525 
L 138.423911 85.525 
L 139.257032 85.525 
L 140.090153 85.525 
L 140.923274 85.525 
L 141.756395 85.525 
L 142.589515 85.525 
L 143.422636 85.525 
L 144.255757 85.525 
L 145.088878 85.525 
L 145.921999 85.525 
L 146.755119 85.525 
L 147.58824 85.525 
L 148.421361 85.525 
L 149.254482 85.525 
L 150.087602 85.525 
L 150.920723 85.525 
L 151.753844 85.525 
L 152.586965 85.525 
L 153.420086 85.525 
L 154.253206 85.525 
L 155.086327 85.525 
L 155.919448 85.525 
L 156.752569 85.525 
L 157.58569 85.525 
L 158.41881 85.525 
L 159.251931 85.525 
L 160.085052 85.525 
L 160.918173 85.525 
L 161.751293 85.525 
L 162.584414 85.525 
L 163.417535 85.525 
L 164.250656 85.525 
L 165.083777 85.525 
L 165.916897 85.525 
L 166.750018 85.525 
L 167.583139 85.525 
L 168.41626 85.525 
L 169.249381 85.525 
L 170.082501 85.525 
L 170.915622 85.525 
L 171.748743 85.525 
L 172.581864 85.525 
L 173.414985 85.525 
L 174.248105 85.525 
L 175.081226 85.525 
L 175.914347 85.525 
L 176.747468 85.525 
L 177.580588 85.525 
L 178.413709 85.525 
L 179.24683 85.525 
L 180.079951 85.525 
L 180.913072 85.525 
L 181.746192 85.525 
L 182.579313 85.525 
L 183.412434 85.525 
L 184.245555 85.525 
L 185.078676 85.525 
L 185.911796 85.525 
L 186.744917 85.525 
L 187.578038 85.525 
L 188.411159 85.525 
L 189.244279 85.525 
L 190.0774 85.525 
L 190.910521 85.525 
L 191.743642 85.525 
L 192.576763 85.525 
L 193.409883 85.525 
L 194.243004 85.525 
L 195.076125 85.525 
L 195.909246 85.525 
L 196.742367 85.525 
L 197.575487 85.525 
L 198.408608 85.525 
L 199.241729 85.525 
L 200.07485 85.525 
L 200.90797 85.525 
L 201.741091 85.525 
L 202.574212 85.525 
L 203.407333 85.525 
L 204.240454 85.525 
L 205.073574 85.525 
L 205.906695 85.525 
L 206.739816 85.525 
L 207.572937 85.525 
L 208.406058 85.525 
L 209.239178 85.525 
L 210.072299 85.525 
L 210.90542 85.525 
L 211.738541 85.525 
L 212.571662 85.525 
L 213.404782 85.525 
L 214.237903 85.525 
L 215.071024 85.525 
L 215.904145 85.525 
L 216.737265 85.525 
L 217.570386 85.525 
L 218.403507 85.525 
L 219.236628 85.525 
L 220.069749 85.525 
L 220.902869 85.525 
L 221.73599 85.525 
L 222.569111 85.525 
L 223.402232 85.525 
L 224.235353 85.525 
L 225.068473 85.525 
L 225.901594 85.525 
L 226.734715 85.525 
L 227.567836 85.525 
L 228.400956 85.525 
L 229.234077 85.525 
L 230.067198 85.525 
L 230.900319 85.525 
L 231.73344 85.525 
L 232.56656 85.525 
L 233.399681 85.525 
L 234.232802 85.525 
L 235.065923 85.525 
L 235.899044 85.525 
L 236.732164 85.525 
L 237.565285 85.525 
L 238.398406 85.525 
L 239.231527 85.525 
L 240.064647 85.525 
L 240.897768 85.525 
L 241.730889 85.525 
L 242.56401 85.525 
L 243.397131 85.525 
L 244.230251 85.525 
L 245.063372 85.525 
L 245.896493 85.525 
L 246.729614 85.525 
L 247.562735 85.525 
L 248.395855 85.525 
L 249.228976 85.525 
L 250.062097 85.525 
L 250.895218 85.525 
L 251.728338 85.525 
L 252.561459 85.525 
L 253.39458 85.525 
L 254.227701 85.525 
L 255.060822 85.525 
L 255.893942 85.525 
L 256.727063 85.525 
L 257.560184 85.525 
L 258.393305 85.525 
L 259.226426 85.525 
L 260.059546 85.525 
L 260.892667 85.525 
L 261.725788 85.525 
L 262.558909 85.525 
L 263.39203 85.525 
L 264.22515 85.525 
L 265.058271 85.525 
L 265.891392 85.525 
L 266.724513 85.525 
L 267.557633 85.525 
L 268.390754 85.525 
L 269.223875 85.525 
L 270.056996 85.525 
L 270.890117 85.525 
L 271.723237 85.525 
L 272.556358 85.525 
L 273.389479 85.525 
L 274.2226 85.525 
L 275.055721 85.525 
L 275.888841 85.525 
L 276.721962 85.525 
L 277.555083 85.525 
L 278.388204 85.525 
L 279.221324 85.525 
L 280.054445 85.525 
L 280.887566 85.525 
L 281.720687 85.525 
L 282.553808 85.525 
L 283.386928 85.525 
L 284.220049 85.525 
L 285.05317 85.525 
L 285.886291 85.525 
L 286.719412 85.525 
L 287.552532 85.525 
L 288.385653 85.525 
L 289.218774 85.525 
L 290.051895 85.525 
L 290.885015 85.525 
L 291.718136 85.525 
L 292.551257 85.525 
L 293.384378 85.525 
L 294.217499 85.525 
L 295.050619 85.525 
L 295.88374 85.525 
L 296.716861 85.525 
L 297.549982 85.525 
L 298.383103 85.525 
L 299.216223 85.525 
L 300.049344 85.525 
L 300.882465 85.525 
L 301.715586 85.525 
L 302.548707 85.525 
L 303.381827 85.525 
L 304.214948 85.525 
L 305.048069 85.525 
L 305.88119 85.525 
L 306.71431 85.525 
L 307.547431 85.525 
L 308.380552 85.525 
L 309.213673 85.525 
L 310.046794 85.525 
L 310.879914 85.525 
L 311.713035 85.525 
L 312.546156 85.525 
L 313.379277 85.525 
L 314.212398 85.525 
L 315.045518 85.525 
L 315.878639 85.525 
L 316.71176 85.525 
L 317.544881 85.525 
L 318.378001 85.525 
L 319.211122 85.525 
L 320.044243 85.525 
L 320.877364 85.525 
L 321.710485 85.525 
L 322.543605 85.525 
L 323.376726 85.525 
L 324.209847 85.525 
L 325.042968 85.525 
L 325.876089 85.525 
L 326.709209 85.525 
L 327.54233 85.525 
L 328.375451 85.525 
L 329.208572 85.525 
L 330.041692 85.525 
L 330.874813 85.525 
L 331.707934 85.525 
L 332.541055 85.525 
L 333.374176 85.525 
L 334.207296 85.525 
L 335.040417 85.525 
L 335.873538 85.525 
L 336.706659 85.525 
L 337.53978 85.525 
L 338.3729 85.525 
L 339.206021 85.525 
L 340.039142 85.525 
L 340.872263 85.525 
L 341.705383 85.525 
L 342.538504 85.525 
L 343.371625 85.525 
L 344.204746 85.525 
L 345.037867 85.525 
L 345.870987 85.525 
L 346.704108 85.525 
L 347.537229 85.525 
L 348.37035 85.525 
L 349.203471 85.525 
L 350.036591 85.525 
L 350.869712 85.525 
L 351.702833 85.525 
L 352.535954 85.525 
L 353.369075 85.525 
L 354.202195 85.525 
L 355.035316 85.525 
L 355.868437 85.525 
L 356.701558 85.525 
L 357.534678 85.525 
L 358.367799 85.525 
L 359.20092 85.525 
L 360.034041 85.525 
L 360.867162 85.525 
L 361.700282 85.525 
L 362.533403 85.525 
L 363.366524 85.525 
L 364.199645 85.525 
L 365.032766 85.525 
L 365.865886 85.525 
L 366.699007 85.525 
L 367.532128 85.525 
L 368.365249 85.525 
L 369.198369 85.525 
L 370.03149 85.525 
L 370.864611 85.525 
L 371.697732 85.525 
L 372.530853 85.525 
L 373.363973 85.525 
L 374.197094 85.525 
L 375.030215 85.525 
L 375.863336 85.525 
L 376.696457 85.525 
L 377.529577 85.525 
L 378.362698 85.525 
L 379.195819 85.525 
L 380.02894 85.525 
L 380.86206 85.525 
L 381.695181 85.525 
L 382.528302 85.525 
L 383.361423 85.525 
L 384.194544 85.525 
L 385.027664 85.525 
L 385.860785 85.525 
L 386.693906 85.525 
L 387.527027 85.525 
L 388.360148 85.525 
L 389.193268 85.525 
L 390.026389 85.525 
L 390.85951 85.525 
L 391.692631 85.525 
L 392.525752 85.525 
L 393.358872 85.525 
L 394.191993 85.525 
L 395.025114 85.525 
L 395.858235 85.525 
L 396.691355 85.525 
L 397.524476 85.525 
L 398.357597 85.525 
L 399.190718 85.525 
L 400.023839 85.525 
L 400.856959 85.525 
L 401.69008 85.525 
L 402.523201 85.525 
L 403.356322 85.525 
L 404.189443 85.525 
L 405.022563 85.525 
L 405.855684 85.525 
L 406.688805 85.525 
L 407.521926 85.525 
L 408.355046 85.525 
L 409.188167 85.525 
L 410.021288 85.525 
L 410.854409 85.525 
L 411.68753 85.525 
L 412.52065 85.525 
L 413.353771 85.525 
L 414.186892 85.525 
L 415.020013 85.525 
L 415.853134 85.525 
L 416.686254 85.525 
L 417.519375 85.525 
L 418.352496 85.525 
L 419.185617 85.525 
L 420.018737 85.525 
L 420.851858 85.525 
L 421.684979 85.525 
L 422.5181 85.525 
L 423.351221 85.525 
L 424.184341 85.525 
L 425.017462 85.525 
L 425.850583 85.525 
L 426.683704 85.525 
L 427.516825 85.525 
L 428.349945 85.525 
L 429.183066 85.525 
L 430.016187 85.525 
L 430.849308 85.525 
L 431.682428 85.525 
L 432.515549 85.525 
L 433.34867 85.525 
L 434.181791 85.525 
L 435.014912 85.525 
L 435.848032 85.525 
L 436.681153 85.525 
L 437.514274 85.525 
L 438.347395 85.525 
L 439.180516 85.525 
L 440.013636 85.525 
L 440.013636 85.299135 
L 440.013636 85.299135 
L 439.180516 85.279059 
L 438.347395 85.258891 
L 437.514274 85.238882 
L 436.681153 85.219292 
L 435.848032 85.200391 
L 435.014912 85.182447 
L 434.181791 85.16572 
L 433.34867 85.150455 
L 432.515549 85.136871 
L 431.682428 85.125153 
L 430.849308 85.115447 
L 430.016187 85.107853 
L 429.183066 85.102417 
L 428.349945 85.099127 
L 427.516825 85.097911 
L 426.683704 85.098636 
L 425.850583 85.101107 
L 425.017462 85.105072 
L 424.184341 85.11022 
L 423.351221 85.116194 
L 422.5181 85.122594 
L 421.684979 85.128985 
L 420.851858 85.134913 
L 420.018737 85.139906 
L 419.185617 85.143498 
L 418.352496 85.145231 
L 417.519375 85.144673 
L 416.686254 85.14143 
L 415.853134 85.135156 
L 415.020013 85.125565 
L 414.186892 85.112444 
L 413.353771 85.095657 
L 412.52065 85.075153 
L 411.68753 85.050976 
L 410.854409 85.02326 
L 410.021288 84.992236 
L 409.188167 84.958227 
L 408.355046 84.921643 
L 407.521926 84.882975 
L 406.688805 84.842786 
L 405.855684 84.801695 
L 405.022563 84.760368 
L 404.189443 84.719499 
L 403.356322 84.679791 
L 402.523201 84.641943 
L 401.69008 84.606628 
L 400.856959 84.574474 
L 400.023839 84.54605 
L 399.190718 84.521847 
L 398.357597 84.502269 
L 397.524476 84.487615 
L 396.691355 84.478077 
L 395.858235 84.473732 
L 395.025114 84.474543 
L 394.191993 84.480357 
L 393.358872 84.490914 
L 392.525752 84.505853 
L 391.692631 84.524726 
L 390.85951 84.547008 
L 390.026389 84.572117 
L 389.193268 84.599424 
L 388.360148 84.628278 
L 387.527027 84.658017 
L 386.693906 84.687988 
L 385.860785 84.717559 
L 385.027664 84.746137 
L 384.194544 84.773179 
L 383.361423 84.7982 
L 382.528302 84.820783 
L 381.695181 84.840586 
L 380.86206 84.857343 
L 380.02894 84.870869 
L 379.195819 84.881058 
L 378.362698 84.887885 
L 377.529577 84.891401 
L 376.696457 84.89173 
L 375.863336 84.889066 
L 375.030215 84.883666 
L 374.197094 84.875845 
L 373.363973 84.865966 
L 372.530853 84.854437 
L 371.697732 84.841698 
L 370.864611 84.828209 
L 370.03149 84.814444 
L 369.198369 84.800877 
L 368.365249 84.787967 
L 367.532128 84.776144 
L 366.699007 84.765802 
L 365.865886 84.757275 
L 365.032766 84.750835 
L 364.199645 84.746671 
L 363.366524 84.744886 
L 362.533403 84.745485 
L 361.700282 84.748372 
L 360.867162 84.75335 
L 360.034041 84.76012 
L 359.20092 84.768287 
L 358.367799 84.777373 
L 357.534678 84.786825 
L 356.701558 84.796033 
L 355.868437 84.80435 
L 355.035316 84.811108 
L 354.202195 84.815646 
L 353.369075 84.817326 
L 352.535954 84.815561 
L 351.702833 84.809829 
L 350.869712 84.799697 
L 350.036591 84.784833 
L 349.203471 84.76502 
L 348.37035 84.740162 
L 347.537229 84.710292 
L 346.704108 84.675568 
L 345.870987 84.636266 
L 345.037867 84.592779 
L 344.204746 84.545593 
L 343.371625 84.495281 
L 342.538504 84.442476 
L 341.705383 84.387856 
L 340.872263 84.332119 
L 340.039142 84.27596 
L 339.206021 84.220055 
L 338.3729 84.165035 
L 337.53978 84.111474 
L 336.706659 84.059871 
L 335.873538 84.010642 
L 335.040417 83.964112 
L 334.207296 83.920512 
L 333.374176 83.879981 
L 332.541055 83.84257 
L 331.707934 83.80825 
L 330.874813 83.776925 
L 330.041692 83.748442 
L 329.208572 83.722608 
L 328.375451 83.699206 
L 327.54233 83.678006 
L 326.709209 83.658786 
L 325.876089 83.641336 
L 325.042968 83.625478 
L 324.209847 83.611067 
L 323.376726 83.597999 
L 322.543605 83.586217 
L 321.710485 83.575704 
L 320.877364 83.566486 
L 320.044243 83.558625 
L 319.211122 83.55221 
L 318.378001 83.547353 
L 317.544881 83.544172 
L 316.71176 83.542789 
L 315.878639 83.543312 
L 315.045518 83.545832 
L 314.212398 83.550406 
L 313.379277 83.557055 
L 312.546156 83.565751 
L 311.713035 83.576415 
L 310.879914 83.588912 
L 310.046794 83.603043 
L 309.213673 83.618549 
L 308.380552 83.635108 
L 307.547431 83.652332 
L 306.71431 83.669775 
L 305.88119 83.686931 
L 305.048069 83.703241 
L 304.214948 83.718092 
L 303.381827 83.73083 
L 302.548707 83.740757 
L 301.715586 83.747144 
L 300.882465 83.749237 
L 300.049344 83.746259 
L 299.216223 83.737427 
L 298.383103 83.721951 
L 297.549982 83.699054 
L 296.716861 83.667972 
L 295.88374 83.627974 
L 295.050619 83.578371 
L 294.217499 83.518531 
L 293.384378 83.447891 
L 292.551257 83.365979 
L 291.718136 83.272428 
L 290.885015 83.166994 
L 290.051895 83.049576 
L 289.218774 82.920233 
L 288.385653 82.7792 
L 287.552532 82.626906 
L 286.719412 82.463979 
L 285.886291 82.291262 
L 285.05317 82.109807 
L 284.220049 81.920874 
L 283.386928 81.725918 
L 282.553808 81.526573 
L 281.720687 81.324619 
L 280.887566 81.121952 
L 280.054445 80.92054 
L 279.221324 80.722377 
L 278.388204 80.529425 
L 277.555083 80.343567 
L 276.721962 80.166548 
L 275.888841 79.999922 
L 275.055721 79.845003 
L 274.2226 79.702828 
L 273.389479 79.574121 
L 272.556358 79.459273 
L 271.723237 79.358334 
L 270.890117 79.271017 
L 270.056996 79.196715 
L 269.223875 79.134529 
L 268.390754 79.083312 
L 267.557633 79.041712 
L 266.724513 79.008234 
L 265.891392 78.981293 
L 265.058271 78.959279 
L 264.22515 78.940613 
L 263.39203 78.923797 
L 262.558909 78.907463 
L 261.725788 78.890404 
L 260.892667 78.871606 
L 260.059546 78.850253 
L 259.226426 78.825734 
L 258.393305 78.797637 
L 257.560184 78.765722 
L 256.727063 78.729907 
L 255.893942 78.690227 
L 255.060822 78.646809 
L 254.227701 78.59983 
L 253.39458 78.549492 
L 252.561459 78.495988 
L 251.728338 78.439484 
L 250.895218 78.380097 
L 250.062097 78.317891 
L 249.228976 78.252874 
L 248.395855 78.185 
L 247.562735 78.114182 
L 246.729614 78.040309 
L 245.896493 77.963259 
L 245.063372 77.882918 
L 244.230251 77.799203 
L 243.397131 77.712072 
L 242.56401 77.621538 
L 241.730889 77.527676 
L 240.897768 77.430623 
L 240.064647 77.330577 
L 239.231527 77.227786 
L 238.398406 77.122533 
L 237.565285 77.015117 
L 236.732164 76.905838 
L 235.899044 76.794967 
L 235.065923 76.682726 
L 234.232802 76.569268 
L 233.399681 76.454654 
L 232.56656 76.33884 
L 231.73344 76.22166 
L 230.900319 76.10282 
L 230.067198 75.981895 
L 229.234077 75.85833 
L 228.400956 75.731442 
L 227.567836 75.600437 
L 226.734715 75.464417 
L 225.901594 75.322404 
L 225.068473 75.173357 
L 224.235353 75.016197 
L 223.402232 74.849831 
L 222.569111 74.67318 
L 221.73599 74.485203 
L 220.902869 74.284927 
L 220.069749 74.071473 
L 219.236628 73.844076 
L 218.403507 73.602114 
L 217.570386 73.345121 
L 216.737265 73.072804 
L 215.904145 72.785055 
L 215.071024 72.481953 
L 214.237903 72.163767 
L 213.404782 71.830946 
L 212.571662 71.484108 
L 211.738541 71.124023 
L 210.90542 70.751587 
L 210.072299 70.367797 
L 209.239178 69.973722 
L 208.406058 69.570465 
L 207.572937 69.159138 
L 206.739816 68.740825 
L 205.906695 68.316554 
L 205.073574 67.887277 
L 204.240454 67.453845 
L 203.407333 67.016997 
L 202.574212 66.577353 
L 201.741091 66.135415 
L 200.90797 65.691574 
L 200.07485 65.246119 
L 199.241729 64.799261 
L 198.408608 64.351153 
L 197.575487 63.901916 
L 196.742367 63.451665 
L 195.909246 63.000538 
L 195.076125 62.548719 
L 194.243004 62.096463 
L 193.409883 61.644107 
L 192.576763 61.192089 
L 191.743642 60.740945 
L 190.910521 60.29131 
L 190.0774 59.843906 
L 189.244279 59.399526 
L 188.411159 58.959007 
L 187.578038 58.523195 
L 186.744917 58.092919 
L 185.911796 57.66894 
L 185.078676 57.251918 
L 184.245555 56.842366 
L 183.412434 56.440609 
L 182.579313 56.046752 
L 181.746192 55.660643 
L 180.913072 55.281847 
L 180.079951 54.909629 
L 179.24683 54.542942 
L 178.413709 54.18042 
L 177.580588 53.820385 
L 176.747468 53.460856 
L 175.914347 53.09957 
L 175.081226 52.734004 
L 174.248105 52.361406 
L 173.414985 51.978831 
L 172.581864 51.58318 
L 171.748743 51.171237 
L 170.915622 50.739723 
L 170.082501 50.285335 
L 169.249381 49.804801 
L 168.41626 49.294932 
L 167.583139 48.752674 
L 166.750018 48.175173 
L 165.916897 47.559827 
L 165.083777 46.904354 
L 164.250656 46.206853 
L 163.417535 45.465866 
L 162.584414 44.680444 
L 161.751293 43.8502 
L 160.918173 42.97536 
L 160.085052 42.056807 
L 159.251931 41.096103 
L 158.41881 40.095506 
L 157.58569 39.057953 
L 156.752569 37.987038 
L 155.919448 36.88695 
L 155.086327 35.762398 
L 154.253206 34.618504 
L 153.420086 33.460681 
L 152.586965 32.294483 
L 151.753844 31.125456 
L 150.920723 29.958964 
L 150.087602 28.800028 
L 149.254482 27.653168 
L 148.421361 26.522262 
L 147.58824 25.410431 
L 146.755119 24.31995 
L 145.921999 23.252212 
L 145.088878 22.207716 
L 144.255757 21.186117 
L 143.422636 20.186317 
L 142.589515 19.206598 
L 141.756395 18.244798 
L 140.923274 17.298522 
L 140.090153 16.365372 
L 139.257032 15.443194 
L 138.423911 14.530332 
L 137.590791 13.625863 
L 136.75767 12.729822 
L 135.924549 11.843383 
L 135.091428 10.969011 
L 134.258308 10.11056 
L 133.425187 9.27331 
L 132.592066 8.463964 
L 131.758945 7.690569 
L 130.925824 6.962401 
L 130.092704 6.28979 
L 129.259583 5.683905 
L 128.426462 5.156512 
L 127.593341 4.719701 
L 126.76022 4.385605 
L 125.9271 4.166119 
L 125.093979 4.072619 
L 124.260858 4.115702 
L 123.427737 4.304952 
L 122.594617 4.648727 
L 121.761496 5.153986 
L 120.928375 5.826149 
L 120.095254 6.668992 
L 119.262133 7.684574 
L 118.429013 8.8732 
L 117.595892 10.233411 
L 116.762771 11.762 
L 115.92965 13.454048 
L 115.096529 15.302985 
L 114.263409 17.300661 
L 113.430288 19.437435 
L 112.597167 21.702274 
L 111.764046 24.082871 
L 110.930925 26.56577 
L 110.097805 29.136506 
L 109.264684 31.779761 
L 108.431563 34.47953 
L 107.598442 37.21931 
L 106.765322 39.982291 
L 105.932201 42.751568 
L 105.09908 45.510359 
L 104.265959 48.242231 
L 103.432838 50.93132 
L 102.599718 53.562559 
L 101.766597 56.12188 
L 100.933476 58.596416 
L 100.100355 60.974666 
L 99.267234 63.246643 
L 98.434114 65.403983 
L 97.600993 67.440019 
L 96.767872 69.349819 
L 95.934751 71.130185 
L 95.101631 72.779609 
L 94.26851 74.298196 
L 93.435389 75.68756 
L 92.602268 76.95068 
L 91.769147 78.091748 
L 90.936027 79.115989 
L 90.102906 80.029477 
L 89.269785 80.838949 
L 88.436664 81.551617 
L 87.603543 82.174992 
L 86.770423 82.716713 
L 85.937302 83.184406 
L 85.104181 83.585543 
L 84.27106 83.927339 
L 83.43794 84.216656 
L 82.604819 84.459938 
L 81.771698 84.663157 
L 80.938577 84.831788 
L 80.105456 84.97079 
L 79.272336 85.084609 
L 78.439215 85.177186 
L 77.606094 85.251984 
L 76.772973 85.312016 
L 75.939852 85.359874 
L 75.106732 85.397772 
L 74.273611 85.427583 
L 73.44049 85.450874 
L 72.607369 85.468951 
L 71.774248 85.482886 
L 70.941128 85.493556 
L 70.108007 85.501671 
L 69.274886 85.507802 
L 68.441765 85.512402 
L 67.608645 85.515831 
L 66.775524 85.518369 
L 65.942403 85.520235 
L 65.109282 85.521598 
L 64.276161 85.522587 
L 63.443041 85.5233 
L 62.60992 85.523809 
L 61.776799 85.524172 
L 60.943678 85.524428 
L 60.110557 85.524607 
L 59.277437 85.524732 
L 58.444316 85.524818 
L 57.611195 85.524878 
L 56.778074 85.524918 
L 55.944954 85.524946 
L 55.111833 85.524964 
L 54.278712 85.524976 
L 53.445591 85.524985 
L 52.61247 85.52499 
L 51.77935 85.524994 
L 50.946229 85.524996 
L 50.113108 85.524997 
L 49.279987 85.524998 
L 48.446866 85.524999 
L 47.613746 85.524999 
L 46.780625 85.525 
L 45.947504 85.525 
L 45.114383 85.525 
L 44.281263 85.525 
L 43.448142 85.525 
L 42.615021 85.525 
L 41.7819 85.525 
L 40.948779 85.525 
L 40.115659 85.525 
L 39.282538 85.525 
L 38.449417 85.525 
L 37.616296 85.525 
L 36.783175 85.525 
L 35.950055 85.525 
L 35.116934 85.525 
L 34.283813 85.525 
L 33.450692 85.525 
L 32.617572 85.525 
L 31.784451 85.525 
L 30.95133 85.525 
L 30.118209 85.525 
L 29.285088 85.525 
L 28.451968 85.525 
L 27.618847 85.525 
L 26.785726 85.525 
L 25.952605 85.525 
L 25.119484 85.525 
L 24.286364 85.525 
z
" style="fill:#1f77b4;fill-opacity:0.5;"/>
   </g>
   <g id="matplotlib.axis_3"/>
   <g id="matplotlib.axis_4"/>
   <g id="line2d_3">
    <path clip-path="url(#p2034e0cc33)" d="M 24.286364 85.525 
L 74.273611 85.427583 
L 78.439215 85.177186 
L 80.938577 84.831788 
L 83.43794 84.216656 
L 85.104181 83.585543 
L 86.770423 82.716713 
L 88.436664 81.551617 
L 90.102906 80.029477 
L 91.769147 78.091748 
L 93.435389 75.68756 
L 95.101631 72.779609 
L 96.767872 69.349819 
L 98.434114 65.403983 
L 100.100355 60.974666 
L 102.599718 53.562559 
L 105.932201 42.751568 
L 110.097805 29.136506 
L 112.597167 21.702274 
L 114.263409 17.300661 
L 115.92965 13.454048 
L 117.595892 10.233411 
L 119.262133 7.684574 
L 120.928375 5.826149 
L 121.761496 5.153986 
L 122.594617 4.648727 
L 123.427737 4.304952 
L 124.260858 4.115702 
L 125.093979 4.072619 
L 125.9271 4.166119 
L 127.593341 4.719701 
L 129.259583 5.683905 
L 130.925824 6.962401 
L 133.425187 9.27331 
L 136.75767 12.729822 
L 141.756395 18.244798 
L 145.088878 22.207716 
L 148.421361 26.522262 
L 154.253206 34.618504 
L 157.58569 39.057953 
L 160.085052 42.056807 
L 162.584414 44.680444 
L 165.083777 46.904354 
L 167.583139 48.752674 
L 170.082501 50.285335 
L 173.414985 51.978831 
L 179.24683 54.542942 
L 184.245555 56.842366 
L 189.244279 59.399526 
L 209.239178 69.973722 
L 213.404782 71.830946 
L 216.737265 73.072804 
L 220.069749 74.071473 
L 223.402232 74.849831 
L 227.567836 75.600437 
L 235.065923 76.682726 
L 243.397131 77.712072 
L 250.062097 78.317891 
L 256.727063 78.729907 
L 263.39203 78.923797 
L 269.223875 79.134529 
L 272.556358 79.459273 
L 275.888841 79.999922 
L 280.054445 80.92054 
L 287.552532 82.626906 
L 290.885015 83.166994 
L 294.217499 83.518531 
L 298.383103 83.721951 
L 303.381827 83.73083 
L 320.877364 83.566486 
L 330.874813 83.776925 
L 338.3729 84.165035 
L 348.37035 84.740162 
L 354.202195 84.815646 
L 370.864611 84.828209 
L 380.02894 84.870869 
L 388.360148 84.628278 
L 395.858235 84.473732 
L 401.69008 84.606628 
L 416.686254 85.14143 
L 440.013636 85.299135 
L 440.013636 85.299135 
" style="fill:none;stroke:#1f77b4;stroke-linecap:square;stroke-width:1.5;"/>
   </g>
   <g id="patch_8">
    <path d="M 3.5 85.525 
L 3.5 -0 
" style="fill:none;stroke:#000000;stroke-linecap:square;stroke-linejoin:miter;stroke-width:0.8;"/>
   </g>
   <g id="patch_9">
    <path d="M 460.8 85.525 
L 460.8 -0 
" style="fill:none;stroke:#000000;stroke-linecap:square;stroke-linejoin:miter;stroke-width:0.8;"/>
   </g>
   <g id="patch_10">
    <path d="M 3.5 85.525 
L 460.8 85.525 
" style="fill:none;stroke:#000000;stroke-linecap:square;stroke-linejoin:miter;stroke-width:0.8;"/>
   </g>
   <g id="patch_11">
    <path d="M 3.5 0 
L 460.8 0 
" style="fill:none;stroke:#000000;stroke-linecap:square;stroke-linejoin:miter;stroke-width:0.8;"/>
   </g>
  </g>
  <g id="axes_3">
   <g id="patch_12">
    <path d="M 3.5 342.1 
L 460.8 342.1 
L 460.8 256.575 
L 3.5 256.575 
z
" style="fill:none;"/>
   </g>
   <g id="PolyCollection_2">
    <path clip-path="url(#pbb38c2c3c4)" d="M 24.286364 256.575 
L 24.286364 256.575 
L 25.119484 256.575 
L 25.952605 256.575 
L 26.785726 256.575 
L 27.618847 256.575 
L 28.451968 256.575 
L 29.285088 256.575 
L 30.118209 256.575 
L 30.95133 256.575 
L 31.784451 256.575 
L 32.617572 256.575 
L 33.450692 256.575 
L 34.283813 256.575 
L 35.116934 256.575 
L 35.950055 256.575 
L 36.783175 256.575 
L 37.616296 256.575 
L 38.449417 256.575 
L 39.282538 256.575 
L 40.115659 256.575 
L 40.948779 256.575 
L 41.7819 256.575 
L 42.615021 256.575 
L 43.448142 256.575 
L 44.281263 256.575 
L 45.114383 256.575 
L 45.947504 256.575 
L 46.780625 256.575 
L 47.613746 256.575 
L 48.446866 256.575 
L 49.279987 256.575 
L 50.113108 256.575 
L 50.946229 256.575 
L 51.77935 256.575 
L 52.61247 256.575 
L 53.445591 256.575 
L 54.278712 256.575 
L 55.111833 256.575 
L 55.944954 256.575 
L 56.778074 256.575 
L 57.611195 256.575 
L 58.444316 256.575 
L 59.277437 256.575 
L 60.110557 256.575 
L 60.943678 256.575 
L 61.776799 256.575 
L 62.60992 256.575 
L 63.443041 256.575 
L 64.276161 256.575 
L 65.109282 256.575 
L 65.942403 256.575 
L 66.775524 256.575 
L 67.608645 256.575 
L 68.441765 256.575 
L 69.274886 256.575 
L 70.108007 256.575 
L 70.941128 256.575 
L 71.774248 256.575 
L 72.607369 256.575 
L 73.44049 256.575 
L 74.273611 256.575 
L 75.106732 256.575 
L 75.939852 256.575 
L 76.772973 256.575 
L 77.606094 256.575 
L 78.439215 256.575 
L 79.272336 256.575 
L 80.105456 256.575 
L 80.938577 256.575 
L 81.771698 256.575 
L 82.604819 256.575 
L 83.43794 256.575 
L 84.27106 256.575 
L 85.104181 256.575 
L 85.937302 256.575 
L 86.770423 256.575 
L 87.603543 256.575 
L 88.436664 256.575 
L 89.269785 256.575 
L 90.102906 256.575 
L 90.936027 256.575 
L 91.769147 256.575 
L 92.602268 256.575 
L 93.435389 256.575 
L 94.26851 256.575 
L 95.101631 256.575 
L 95.934751 256.575 
L 96.767872 256.575 
L 97.600993 256.575 
L 98.434114 256.575 
L 99.267234 256.575 
L 100.100355 256.575 
L 100.933476 256.575 
L 101.766597 256.575 
L 102.599718 256.575 
L 103.432838 256.575 
L 104.265959 256.575 
L 105.09908 256.575 
L 105.932201 256.575 
L 106.765322 256.575 
L 107.598442 256.575 
L 108.431563 256.575 
L 109.264684 256.575 
L 110.097805 256.575 
L 110.930925 256.575 
L 111.764046 256.575 
L 112.597167 256.575 
L 113.430288 256.575 
L 114.263409 256.575 
L 115.096529 256.575 
L 115.92965 256.575 
L 116.762771 256.575 
L 117.595892 256.575 
L 118.429013 256.575 
L 119.262133 256.575 
L 120.095254 256.575 
L 120.928375 256.575 
L 121.761496 256.575 
L 122.594617 256.575 
L 123.427737 256.575 
L 124.260858 256.575 
L 125.093979 256.575 
L 125.9271 256.575 
L 126.76022 256.575 
L 127.593341 256.575 
L 128.426462 256.575 
L 129.259583 256.575 
L 130.092704 256.575 
L 130.925824 256.575 
L 131.758945 256.575 
L 132.592066 256.575 
L 133.425187 256.575 
L 134.258308 256.575 
L 135.091428 256.575 
L 135.924549 256.575 
L 136.75767 256.575 
L 137.590791 256.575 
L 138.423911 256.575 
L 139.257032 256.575 
L 140.090153 256.575 
L 140.923274 256.575 
L 141.756395 256.575 
L 142.589515 256.575 
L 143.422636 256.575 
L 144.255757 256.575 
L 145.088878 256.575 
L 145.921999 256.575 
L 146.755119 256.575 
L 147.58824 256.575 
L 148.421361 256.575 
L 149.254482 256.575 
L 150.087602 256.575 
L 150.920723 256.575 
L 151.753844 256.575 
L 152.586965 256.575 
L 153.420086 256.575 
L 154.253206 256.575 
L 155.086327 256.575 
L 155.919448 256.575 
L 156.752569 256.575 
L 157.58569 256.575 
L 158.41881 256.575 
L 159.251931 256.575 
L 160.085052 256.575 
L 160.918173 256.575 
L 161.751293 256.575 
L 162.584414 256.575 
L 163.417535 256.575 
L 164.250656 256.575 
L 165.083777 256.575 
L 165.916897 256.575 
L 166.750018 256.575 
L 167.583139 256.575 
L 168.41626 256.575 
L 169.249381 256.575 
L 170.082501 256.575 
L 170.915622 256.575 
L 171.748743 256.575 
L 172.581864 256.575 
L 173.414985 256.575 
L 174.248105 256.575 
L 175.081226 256.575 
L 175.914347 256.575 
L 176.747468 256.575 
L 177.580588 256.575 
L 178.413709 256.575 
L 179.24683 256.575 
L 180.079951 256.575 
L 180.913072 256.575 
L 181.746192 256.575 
L 182.579313 256.575 
L 183.412434 256.575 
L 184.245555 256.575 
L 185.078676 256.575 
L 185.911796 256.575 
L 186.744917 256.575 
L 187.578038 256.575 
L 188.411159 256.575 
L 189.244279 256.575 
L 190.0774 256.575 
L 190.910521 256.575 
L 191.743642 256.575 
L 192.576763 256.575 
L 193.409883 256.575 
L 194.243004 256.575 
L 195.076125 256.575 
L 195.909246 256.575 
L 196.742367 256.575 
L 197.575487 256.575 
L 198.408608 256.575 
L 199.241729 256.575 
L 200.07485 256.575 
L 200.90797 256.575 
L 201.741091 256.575 
L 202.574212 256.575 
L 203.407333 256.575 
L 204.240454 256.575 
L 205.073574 256.575 
L 205.906695 256.575 
L 206.739816 256.575 
L 207.572937 256.575 
L 208.406058 256.575 
L 209.239178 256.575 
L 210.072299 256.575 
L 210.90542 256.575 
L 211.738541 256.575 
L 212.571662 256.575 
L 213.404782 256.575 
L 214.237903 256.575 
L 215.071024 256.575 
L 215.904145 256.575 
L 216.737265 256.575 
L 217.570386 256.575 
L 218.403507 256.575 
L 219.236628 256.575 
L 220.069749 256.575 
L 220.902869 256.575 
L 221.73599 256.575 
L 222.569111 256.575 
L 223.402232 256.575 
L 224.235353 256.575 
L 225.068473 256.575 
L 225.901594 256.575 
L 226.734715 256.575 
L 227.567836 256.575 
L 228.400956 256.575 
L 229.234077 256.575 
L 230.067198 256.575 
L 230.900319 256.575 
L 231.73344 256.575 
L 232.56656 256.575 
L 233.399681 256.575 
L 234.232802 256.575 
L 235.065923 256.575 
L 235.899044 256.575 
L 236.732164 256.575 
L 237.565285 256.575 
L 238.398406 256.575 
L 239.231527 256.575 
L 240.064647 256.575 
L 240.897768 256.575 
L 241.730889 256.575 
L 242.56401 256.575 
L 243.397131 256.575 
L 244.230251 256.575 
L 245.063372 256.575 
L 245.896493 256.575 
L 246.729614 256.575 
L 247.562735 256.575 
L 248.395855 256.575 
L 249.228976 256.575 
L 250.062097 256.575 
L 250.895218 256.575 
L 251.728338 256.575 
L 252.561459 256.575 
L 253.39458 256.575 
L 254.227701 256.575 
L 255.060822 256.575 
L 255.893942 256.575 
L 256.727063 256.575 
L 257.560184 256.575 
L 258.393305 256.575 
L 259.226426 256.575 
L 260.059546 256.575 
L 260.892667 256.575 
L 261.725788 256.575 
L 262.558909 256.575 
L 263.39203 256.575 
L 264.22515 256.575 
L 265.058271 256.575 
L 265.891392 256.575 
L 266.724513 256.575 
L 267.557633 256.575 
L 268.390754 256.575 
L 269.223875 256.575 
L 270.056996 256.575 
L 270.890117 256.575 
L 271.723237 256.575 
L 272.556358 256.575 
L 273.389479 256.575 
L 274.2226 256.575 
L 275.055721 256.575 
L 275.888841 256.575 
L 276.721962 256.575 
L 277.555083 256.575 
L 278.388204 256.575 
L 279.221324 256.575 
L 280.054445 256.575 
L 280.887566 256.575 
L 281.720687 256.575 
L 282.553808 256.575 
L 283.386928 256.575 
L 284.220049 256.575 
L 285.05317 256.575 
L 285.886291 256.575 
L 286.719412 256.575 
L 287.552532 256.575 
L 288.385653 256.575 
L 289.218774 256.575 
L 290.051895 256.575 
L 290.885015 256.575 
L 291.718136 256.575 
L 292.551257 256.575 
L 293.384378 256.575 
L 294.217499 256.575 
L 295.050619 256.575 
L 295.88374 256.575 
L 296.716861 256.575 
L 297.549982 256.575 
L 298.383103 256.575 
L 299.216223 256.575 
L 300.049344 256.575 
L 300.882465 256.575 
L 301.715586 256.575 
L 302.548707 256.575 
L 303.381827 256.575 
L 304.214948 256.575 
L 305.048069 256.575 
L 305.88119 256.575 
L 306.71431 256.575 
L 307.547431 256.575 
L 308.380552 256.575 
L 309.213673 256.575 
L 310.046794 256.575 
L 310.879914 256.575 
L 311.713035 256.575 
L 312.546156 256.575 
L 313.379277 256.575 
L 314.212398 256.575 
L 315.045518 256.575 
L 315.878639 256.575 
L 316.71176 256.575 
L 317.544881 256.575 
L 318.378001 256.575 
L 319.211122 256.575 
L 320.044243 256.575 
L 320.877364 256.575 
L 321.710485 256.575 
L 322.543605 256.575 
L 323.376726 256.575 
L 324.209847 256.575 
L 325.042968 256.575 
L 325.876089 256.575 
L 326.709209 256.575 
L 327.54233 256.575 
L 328.375451 256.575 
L 329.208572 256.575 
L 330.041692 256.575 
L 330.874813 256.575 
L 331.707934 256.575 
L 332.541055 256.575 
L 333.374176 256.575 
L 334.207296 256.575 
L 335.040417 256.575 
L 335.873538 256.575 
L 336.706659 256.575 
L 337.53978 256.575 
L 338.3729 256.575 
L 339.206021 256.575 
L 340.039142 256.575 
L 340.872263 256.575 
L 341.705383 256.575 
L 342.538504 256.575 
L 343.371625 256.575 
L 344.204746 256.575 
L 345.037867 256.575 
L 345.870987 256.575 
L 346.704108 256.575 
L 347.537229 256.575 
L 348.37035 256.575 
L 349.203471 256.575 
L 350.036591 256.575 
L 350.869712 256.575 
L 351.702833 256.575 
L 352.535954 256.575 
L 353.369075 256.575 
L 354.202195 256.575 
L 355.035316 256.575 
L 355.868437 256.575 
L 356.701558 256.575 
L 357.534678 256.575 
L 358.367799 256.575 
L 359.20092 256.575 
L 360.034041 256.575 
L 360.867162 256.575 
L 361.700282 256.575 
L 362.533403 256.575 
L 363.366524 256.575 
L 364.199645 256.575 
L 365.032766 256.575 
L 365.865886 256.575 
L 366.699007 256.575 
L 367.532128 256.575 
L 368.365249 256.575 
L 369.198369 256.575 
L 370.03149 256.575 
L 370.864611 256.575 
L 371.697732 256.575 
L 372.530853 256.575 
L 373.363973 256.575 
L 374.197094 256.575 
L 375.030215 256.575 
L 375.863336 256.575 
L 376.696457 256.575 
L 377.529577 256.575 
L 378.362698 256.575 
L 379.195819 256.575 
L 380.02894 256.575 
L 380.86206 256.575 
L 381.695181 256.575 
L 382.528302 256.575 
L 383.361423 256.575 
L 384.194544 256.575 
L 385.027664 256.575 
L 385.860785 256.575 
L 386.693906 256.575 
L 387.527027 256.575 
L 388.360148 256.575 
L 389.193268 256.575 
L 390.026389 256.575 
L 390.85951 256.575 
L 391.692631 256.575 
L 392.525752 256.575 
L 393.358872 256.575 
L 394.191993 256.575 
L 395.025114 256.575 
L 395.858235 256.575 
L 396.691355 256.575 
L 397.524476 256.575 
L 398.357597 256.575 
L 399.190718 256.575 
L 400.023839 256.575 
L 400.856959 256.575 
L 401.69008 256.575 
L 402.523201 256.575 
L 403.356322 256.575 
L 404.189443 256.575 
L 405.022563 256.575 
L 405.855684 256.575 
L 406.688805 256.575 
L 407.521926 256.575 
L 408.355046 256.575 
L 409.188167 256.575 
L 410.021288 256.575 
L 410.854409 256.575 
L 411.68753 256.575 
L 412.52065 256.575 
L 413.353771 256.575 
L 414.186892 256.575 
L 415.020013 256.575 
L 415.853134 256.575 
L 416.686254 256.575 
L 417.519375 256.575 
L 418.352496 256.575 
L 419.185617 256.575 
L 420.018737 256.575 
L 420.851858 256.575 
L 421.684979 256.575 
L 422.5181 256.575 
L 423.351221 256.575 
L 424.184341 256.575 
L 425.017462 256.575 
L 425.850583 256.575 
L 426.683704 256.575 
L 427.516825 256.575 
L 428.349945 256.575 
L 429.183066 256.575 
L 430.016187 256.575 
L 430.849308 256.575 
L 431.682428 256.575 
L 432.515549 256.575 
L 433.34867 256.575 
L 434.181791 256.575 
L 435.014912 256.575 
L 435.848032 256.575 
L 436.681153 256.575 
L 437.514274 256.575 
L 438.347395 256.575 
L 439.180516 256.575 
L 440.013636 256.575 
L 440.013636 256.575468 
L 440.013636 256.575468 
L 439.180516 256.575598 
L 438.347395 256.575761 
L 437.514274 256.575962 
L 436.681153 256.576212 
L 435.848032 256.576518 
L 435.014912 256.576892 
L 434.181791 256.577347 
L 433.34867 256.577897 
L 432.515549 256.578557 
L 431.682428 256.579346 
L 430.849308 256.580284 
L 430.016187 256.581392 
L 429.183066 256.582695 
L 428.349945 256.584218 
L 427.516825 256.585987 
L 426.683704 256.588033 
L 425.850583 256.590383 
L 425.017462 256.59307 
L 424.184341 256.596123 
L 423.351221 256.599572 
L 422.5181 256.603447 
L 421.684979 256.607776 
L 420.851858 256.612585 
L 420.018737 256.617895 
L 419.185617 256.623726 
L 418.352496 256.630091 
L 417.519375 256.636998 
L 416.686254 256.644451 
L 415.853134 256.652444 
L 415.020013 256.660967 
L 414.186892 256.67 
L 413.353771 256.679516 
L 412.52065 256.689479 
L 411.68753 256.699847 
L 410.854409 256.710569 
L 410.021288 256.721587 
L 409.188167 256.732835 
L 408.355046 256.744243 
L 407.521926 256.755734 
L 406.688805 256.767229 
L 405.855684 256.778644 
L 405.022563 256.789894 
L 404.189443 256.800893 
L 403.356322 256.811555 
L 402.523201 256.821796 
L 401.69008 256.831534 
L 400.856959 256.840692 
L 400.023839 256.849195 
L 399.190718 256.856976 
L 398.357597 256.863973 
L 397.524476 256.870129 
L 396.691355 256.875395 
L 395.858235 256.879732 
L 395.025114 256.883104 
L 394.191993 256.885488 
L 393.358872 256.886865 
L 392.525752 256.887227 
L 391.692631 256.886574 
L 390.85951 256.884914 
L 390.026389 256.882264 
L 389.193268 256.878649 
L 388.360148 256.874104 
L 387.527027 256.868672 
L 386.693906 256.862405 
L 385.860785 256.855361 
L 385.027664 256.84761 
L 384.194544 256.839226 
L 383.361423 256.830292 
L 382.528302 256.820898 
L 381.695181 256.811139 
L 380.86206 256.801114 
L 380.02894 256.790927 
L 379.195819 256.780686 
L 378.362698 256.770498 
L 377.529577 256.760471 
L 376.696457 256.750715 
L 375.863336 256.741333 
L 375.030215 256.732428 
L 374.197094 256.724094 
L 373.363973 256.716423 
L 372.530853 256.709495 
L 371.697732 256.703385 
L 370.864611 256.698156 
L 370.03149 256.69386 
L 369.198369 256.690539 
L 368.365249 256.688224 
L 367.532128 256.686931 
L 366.699007 256.686667 
L 365.865886 256.687425 
L 365.032766 256.689188 
L 364.199645 256.691926 
L 363.366524 256.695602 
L 362.533403 256.700166 
L 361.700282 256.705564 
L 360.867162 256.711733 
L 360.034041 256.718607 
L 359.20092 256.726117 
L 358.367799 256.734191 
L 357.534678 256.742761 
L 356.701558 256.751758 
L 355.868437 256.761122 
L 355.035316 256.770796 
L 354.202195 256.780732 
L 353.369075 256.790891 
L 352.535954 256.801243 
L 351.702833 256.811771 
L 350.869712 256.822467 
L 350.036591 256.833333 
L 349.203471 256.844383 
L 348.37035 256.855638 
L 347.537229 256.867126 
L 346.704108 256.878882 
L 345.870987 256.890942 
L 345.037867 256.903344 
L 344.204746 256.916125 
L 343.371625 256.929314 
L 342.538504 256.942937 
L 341.705383 256.957009 
L 340.872263 256.971534 
L 340.039142 256.986503 
L 339.206021 257.001896 
L 338.3729 257.017675 
L 337.53978 257.033791 
L 336.706659 257.050183 
L 335.873538 257.066778 
L 335.040417 257.083492 
L 334.207296 257.100238 
L 333.374176 257.116925 
L 332.541055 257.13346 
L 331.707934 257.149758 
L 330.874813 257.165737 
L 330.041692 257.18133 
L 329.208572 257.196481 
L 328.375451 257.211153 
L 327.54233 257.225328 
L 326.709209 257.239006 
L 325.876089 257.25221 
L 325.042968 257.264984 
L 324.209847 257.277391 
L 323.376726 257.289512 
L 322.543605 257.301443 
L 321.710485 257.313293 
L 320.877364 257.325177 
L 320.044243 257.337215 
L 319.211122 257.349527 
L 318.378001 257.362226 
L 317.544881 257.375415 
L 316.71176 257.389182 
L 315.878639 257.403599 
L 315.045518 257.418714 
L 314.212398 257.434553 
L 313.379277 257.451113 
L 312.546156 257.468366 
L 311.713035 257.486258 
L 310.879914 257.504705 
L 310.046794 257.5236 
L 309.213673 257.542813 
L 308.380552 257.562194 
L 307.547431 257.581574 
L 306.71431 257.600772 
L 305.88119 257.619597 
L 305.048069 257.637851 
L 304.214948 257.655338 
L 303.381827 257.671858 
L 302.548707 257.687221 
L 301.715586 257.701244 
L 300.882465 257.713754 
L 300.049344 257.724594 
L 299.216223 257.733622 
L 298.383103 257.740714 
L 297.549982 257.745763 
L 296.716861 257.748686 
L 295.88374 257.749419 
L 295.050619 257.747919 
L 294.217499 257.744166 
L 293.384378 257.738165 
L 292.551257 257.72994 
L 291.718136 257.719542 
L 290.885015 257.707046 
L 290.051895 257.692548 
L 289.218774 257.676171 
L 288.385653 257.658063 
L 287.552532 257.638395 
L 286.719412 257.617364 
L 285.886291 257.595188 
L 285.05317 257.572112 
L 284.220049 257.548398 
L 283.386928 257.524333 
L 282.553808 257.500219 
L 281.720687 257.476372 
L 280.887566 257.453123 
L 280.054445 257.430809 
L 279.221324 257.409774 
L 278.388204 257.39036 
L 277.555083 257.372905 
L 276.721962 257.357736 
L 275.888841 257.345167 
L 275.055721 257.335492 
L 274.2226 257.32898 
L 273.389479 257.325871 
L 272.556358 257.326372 
L 271.723237 257.330654 
L 270.890117 257.338846 
L 270.056996 257.351038 
L 269.223875 257.367274 
L 268.390754 257.387557 
L 267.557633 257.411845 
L 266.724513 257.440053 
L 265.891392 257.472059 
L 265.058271 257.507702 
L 264.22515 257.546788 
L 263.39203 257.589097 
L 262.558909 257.634386 
L 261.725788 257.682393 
L 260.892667 257.732847 
L 260.059546 257.785472 
L 259.226426 257.839993 
L 258.393305 257.896143 
L 257.560184 257.953669 
L 256.727063 258.012335 
L 255.893942 258.071928 
L 255.060822 258.132262 
L 254.227701 258.193178 
L 253.39458 258.254548 
L 252.561459 258.316275 
L 251.728338 258.37829 
L 250.895218 258.440553 
L 250.062097 258.503048 
L 249.228976 258.565782 
L 248.395855 258.628774 
L 247.562735 258.692061 
L 246.729614 258.755681 
L 245.896493 258.819677 
L 245.063372 258.884087 
L 244.230251 258.94894 
L 243.397131 259.014254 
L 242.56401 259.080033 
L 241.730889 259.146262 
L 240.897768 259.212911 
L 240.064647 259.27993 
L 239.231527 259.347256 
L 238.398406 259.414814 
L 237.565285 259.482517 
L 236.732164 259.550279 
L 235.899044 259.61801 
L 235.065923 259.685633 
L 234.232802 259.753077 
L 233.399681 259.820296 
L 232.56656 259.887263 
L 231.73344 259.95398 
L 230.900319 260.020481 
L 230.067198 260.086832 
L 229.234077 260.153135 
L 228.400956 260.219528 
L 227.567836 260.28618 
L 226.734715 260.353294 
L 225.901594 260.421099 
L 225.068473 260.48985 
L 224.235353 260.55982 
L 223.402232 260.631298 
L 222.569111 260.70458 
L 221.73599 260.779969 
L 220.902869 260.857764 
L 220.069749 260.93826 
L 219.236628 261.021746 
L 218.403507 261.108493 
L 217.570386 261.198763 
L 216.737265 261.292798 
L 215.904145 261.390824 
L 215.071024 261.493046 
L 214.237903 261.599654 
L 213.404782 261.710816 
L 212.571662 261.826683 
L 211.738541 261.947387 
L 210.90542 262.073041 
L 210.072299 262.20374 
L 209.239178 262.339558 
L 208.406058 262.480549 
L 207.572937 262.626747 
L 206.739816 262.778158 
L 205.906695 262.934765 
L 205.073574 263.096524 
L 204.240454 263.263359 
L 203.407333 263.435161 
L 202.574212 263.611789 
L 201.741091 263.793065 
L 200.90797 263.978775 
L 200.07485 264.168666 
L 199.241729 264.36245 
L 198.408608 264.559803 
L 197.575487 264.760368 
L 196.742367 264.963757 
L 195.909246 265.169554 
L 195.076125 265.377323 
L 194.243004 265.586609 
L 193.409883 265.796948 
L 192.576763 266.007868 
L 191.743642 266.218901 
L 190.910521 266.429583 
L 190.0774 266.639466 
L 189.244279 266.848119 
L 188.411159 267.055135 
L 187.578038 267.260135 
L 186.744917 267.462772 
L 185.911796 267.662733 
L 185.078676 267.859739 
L 184.245555 268.053549 
L 183.412434 268.243956 
L 182.579313 268.430789 
L 181.746192 268.613909 
L 180.913072 268.79321 
L 180.079951 268.968612 
L 179.24683 269.140062 
L 178.413709 269.307531 
L 177.580588 269.471011 
L 176.747468 269.630517 
L 175.914347 269.78608 
L 175.081226 269.937756 
L 174.248105 270.085621 
L 173.414985 270.229776 
L 172.581864 270.370349 
L 171.748743 270.507501 
L 170.915622 270.641429 
L 170.082501 270.772372 
L 169.249381 270.900614 
L 168.41626 271.026494 
L 167.583139 271.150405 
L 166.750018 271.272799 
L 165.916897 271.394193 
L 165.083777 271.515164 
L 164.250656 271.63635 
L 163.417535 271.758451 
L 162.584414 271.882217 
L 161.751293 272.008445 
L 160.918173 272.137969 
L 160.085052 272.271646 
L 159.251931 272.410345 
L 158.41881 272.554933 
L 157.58569 272.706252 
L 156.752569 272.865111 
L 155.919448 273.032261 
L 155.086327 273.208379 
L 154.253206 273.394053 
L 153.420086 273.589762 
L 152.586965 273.795864 
L 151.753844 274.012579 
L 150.920723 274.239982 
L 150.087602 274.477991 
L 149.254482 274.72636 
L 148.421361 274.984677 
L 147.58824 275.252365 
L 146.755119 275.528681 
L 145.921999 275.812722 
L 145.088878 276.103431 
L 144.255757 276.399611 
L 143.422636 276.699932 
L 142.589515 277.002947 
L 141.756395 277.307107 
L 140.923274 277.610776 
L 140.090153 277.912245 
L 139.257032 278.209753 
L 138.423911 278.501497 
L 137.590791 278.785653 
L 136.75767 279.060382 
L 135.924549 279.323851 
L 135.091428 279.574235 
L 134.258308 279.809734 
L 133.425187 280.028574 
L 132.592066 280.229019 
L 131.758945 280.409368 
L 130.925824 280.567968 
L 130.092704 280.703208 
L 129.259583 280.813527 
L 128.426462 280.897413 
L 127.593341 280.953412 
L 126.76022 280.980124 
L 125.9271 280.976217 
L 125.093979 280.940428 
L 124.260858 280.871578 
L 123.427737 280.768579 
L 122.594617 280.630451 
L 121.761496 280.45634 
L 120.928375 280.24553 
L 120.095254 279.997471 
L 119.262133 279.711792 
L 118.429013 279.388328 
L 117.595892 279.02714 
L 116.762771 278.628532 
L 115.92965 278.193072 
L 115.096529 277.721608 
L 114.263409 277.21528 
L 113.430288 276.675524 
L 112.597167 276.10408 
L 111.764046 275.502989 
L 110.930925 274.87458 
L 110.097805 274.221462 
L 109.264684 273.546501 
L 108.431563 272.852793 
L 107.598442 272.143633 
L 106.765322 271.422479 
L 105.932201 270.692911 
L 105.09908 269.958588 
L 104.265959 269.223197 
L 103.432838 268.490411 
L 102.599718 267.763835 
L 101.766597 267.046963 
L 100.933476 266.343133 
L 100.100355 265.655481 
L 99.267234 264.986906 
L 98.434114 264.340038 
L 97.600993 263.717209 
L 96.767872 263.120432 
L 95.934751 262.551387 
L 95.101631 262.011413 
L 94.26851 261.501504 
L 93.435389 261.022318 
L 92.602268 260.574185 
L 91.769147 260.157123 
L 90.936027 259.770859 
L 90.102906 259.414854 
L 89.269785 259.088331 
L 88.436664 258.790303 
L 87.603543 258.519604 
L 86.770423 258.274926 
L 85.937302 258.054843 
L 85.104181 257.857849 
L 84.27106 257.682379 
L 83.43794 257.526846 
L 82.604819 257.389657 
L 81.771698 257.269241 
L 80.938577 257.164063 
L 80.105456 257.072644 
L 79.272336 256.993575 
L 78.439215 256.925522 
L 77.606094 256.867237 
L 76.772973 256.817563 
L 75.939852 256.775437 
L 75.106732 256.739886 
L 74.273611 256.710032 
L 73.44049 256.685085 
L 72.607369 256.664341 
L 71.774248 256.647178 
L 70.941128 256.633046 
L 70.108007 256.621468 
L 69.274886 256.612029 
L 68.441765 256.604373 
L 67.608645 256.598192 
L 66.775524 256.593227 
L 65.942403 256.589259 
L 65.109282 256.586103 
L 64.276161 256.583605 
L 63.443041 256.581638 
L 62.60992 256.580097 
L 61.776799 256.578895 
L 60.943678 256.577963 
L 60.110557 256.577243 
L 59.277437 256.57669 
L 58.444316 256.576268 
L 57.611195 256.575946 
L 56.778074 256.575703 
L 55.944954 256.57552 
L 55.111833 256.575383 
L 54.278712 256.57528 
L 53.445591 256.575204 
L 52.61247 256.575148 
L 51.77935 256.575107 
L 50.946229 256.575077 
L 50.113108 256.575055 
L 49.279987 256.575039 
L 48.446866 256.575028 
L 47.613746 256.57502 
L 46.780625 256.575014 
L 45.947504 256.57501 
L 45.114383 256.575007 
L 44.281263 256.575005 
L 43.448142 256.575003 
L 42.615021 256.575002 
L 41.7819 256.575001 
L 40.948779 256.575001 
L 40.115659 256.575001 
L 39.282538 256.575 
L 38.449417 256.575 
L 37.616296 256.575 
L 36.783175 256.575 
L 35.950055 256.575 
L 35.116934 256.575 
L 34.283813 256.575 
L 33.450692 256.575 
L 32.617572 256.575 
L 31.784451 256.575 
L 30.95133 256.575 
L 30.118209 256.575 
L 29.285088 256.575 
L 28.451968 256.575 
L 27.618847 256.575 
L 26.785726 256.575 
L 25.952605 256.575 
L 25.119484 256.575 
L 24.286364 256.575 
z
" style="fill:#d62728;fill-opacity:0.5;"/>
   </g>
   <g id="matplotlib.axis_5"/>
   <g id="matplotlib.axis_6"/>
   <g id="line2d_4">
    <path clip-path="url(#pbb38c2c3c4)" d="M 24.286364 256.575 
L 73.44049 256.685085 
L 78.439215 256.925522 
L 81.771698 257.269241 
L 85.104181 257.857849 
L 87.603543 258.519604 
L 90.102906 259.414854 
L 92.602268 260.574185 
L 95.101631 262.011413 
L 97.600993 263.717209 
L 100.933476 266.343133 
L 105.932201 270.692911 
L 110.097805 274.221462 
L 112.597167 276.10408 
L 115.096529 277.721608 
L 117.595892 279.02714 
L 120.095254 279.997471 
L 122.594617 280.630451 
L 125.093979 280.940428 
L 127.593341 280.953412 
L 130.092704 280.703208 
L 132.592066 280.229019 
L 135.924549 279.323851 
L 140.090153 277.912245 
L 148.421361 274.984677 
L 152.586965 273.795864 
L 156.752569 272.865111 
L 161.751293 272.008445 
L 176.747468 269.630517 
L 183.412434 268.243956 
L 190.910521 266.429583 
L 201.741091 263.793065 
L 207.572937 262.626747 
L 213.404782 261.710816 
L 219.236628 261.021746 
L 227.567836 260.28618 
L 260.059546 257.785472 
L 267.557633 257.411845 
L 273.389479 257.325871 
L 280.887566 257.453123 
L 295.050619 257.747919 
L 304.214948 257.655338 
L 345.870987 256.890942 
L 367.532128 256.686931 
L 382.528302 256.820898 
L 396.691355 256.875395 
L 440.013636 256.575468 
L 440.013636 256.575468 
" style="fill:none;stroke:#d62728;stroke-linecap:square;stroke-width:1.5;"/>
   </g>
   <g id="patch_13">
    <path d="M 3.5 342.1 
L 3.5 256.575 
" style="fill:none;stroke:#000000;stroke-linecap:square;stroke-linejoin:miter;stroke-width:0.8;"/>
   </g>
   <g id="patch_14">
    <path d="M 460.8 342.1 
L 460.8 256.575 
" style="fill:none;stroke:#000000;stroke-linecap:square;stroke-linejoin:miter;stroke-width:0.8;"/>
   </g>
   <g id="patch_15">
    <path d="M 3.5 342.1 
L 460.8 342.1 
" style="fill:none;stroke:#000000;stroke-linecap:square;stroke-linejoin:miter;stroke-width:0.8;"/>
   </g>
   <g id="patch_16">
    <path d="M 3.5 256.575 
L 460.8 256.575 
" style="fill:none;stroke:#000000;stroke-linecap:square;stroke-linejoin:miter;stroke-width:0.8;"/>
   </g>
  </g>
 </g>
 <defs>
  <clipPath id="p4b6a604920">
   <rect height="171.05" width="457.3" x="3.5" y="85.525"/>
  </clipPath>
  <clipPath id="p2034e0cc33">
   <rect height="85.525" width="457.3" x="3.5" y="0"/>
  </clipPath>
  <clipPath id="pbb38c2c3c4">
   <rect height="85.525" width="457.3" x="3.5" y="256.575"/>
  </clipPath>
 </defs>
</svg>
