<?xml version="1.0" encoding="utf-8" standalone="no"?>
<!DOCTYPE svg PUBLIC "-//W3C//DTD SVG 1.1//EN"
  "http://www.w3.org/Graphics/SVG/1.1/DTD/svg11.dtd">
<!-- Created with matplotlib (https://matplotlib.org/) -->
<svg height="345.6pt" version="1.1" viewBox="0 0 460.8 345.6" width="460.8pt" xmlns="http://www.w3.org/2000/svg" xmlns:xlink="http://www.w3.org/1999/xlink">
 <defs>
  <style type="text/css">
*{stroke-linecap:butt;stroke-linejoin:round;white-space:pre;}
  </style>
 </defs>
 <g id="figure_1">
  <g id="patch_1">
   <path d="M 0 345.6 
L 460.8 345.6 
L 460.8 0 
L 0 0 
z
" style="fill:none;"/>
  </g>
  <g id="axes_1">
   <g id="patch_2">
    <path d="M 54.272115 304.50101 
L 457.79976 304.50101 
L 457.79976 3.00024 
L 54.272115 3.00024 
z
" style="fill:none;"/>
   </g>
   <g id="matplotlib.axis_1">
    <g id="xtick_1">
     <g id="line2d_1">
      <defs>
       <path d="M 0 0 
L 0 3.5 
" id="mefab42f37a" style="stroke:#000000;stroke-width:0.8;"/>
      </defs>
      <g>
       <use style="stroke:#000000;stroke-width:0.8;" x="164.325109" xlink:href="#mefab42f37a" y="304.50101"/>
      </g>
     </g>
     <g id="text_1">
      <!-- $\mathdefault{10^{2}}$ -->
      <defs>
       <path d="M 12.40625 8.296875 
L 28.515625 8.296875 
L 28.515625 63.921875 
L 10.984375 60.40625 
L 10.984375 69.390625 
L 28.421875 72.90625 
L 38.28125 72.90625 
L 38.28125 8.296875 
L 54.390625 8.296875 
L 54.390625 0 
L 12.40625 0 
z
" id="DejaVuSans-49"/>
       <path d="M 31.78125 66.40625 
Q 24.171875 66.40625 20.328125 58.90625 
Q 16.5 51.421875 16.5 36.375 
Q 16.5 21.390625 20.328125 13.890625 
Q 24.171875 6.390625 31.78125 6.390625 
Q 39.453125 6.390625 43.28125 13.890625 
Q 47.125 21.390625 47.125 36.375 
Q 47.125 51.421875 43.28125 58.90625 
Q 39.453125 66.40625 31.78125 66.40625 
z
M 31.78125 74.21875 
Q 44.046875 74.21875 50.515625 64.515625 
Q 56.984375 54.828125 56.984375 36.375 
Q 56.984375 17.96875 50.515625 8.265625 
Q 44.046875 -1.421875 31.78125 -1.421875 
Q 19.53125 -1.421875 13.0625 8.265625 
Q 6.59375 17.96875 6.59375 36.375 
Q 6.59375 54.828125 13.0625 64.515625 
Q 19.53125 74.21875 31.78125 74.21875 
z
" id="DejaVuSans-48"/>
       <path d="M 19.1875 8.296875 
L 53.609375 8.296875 
L 53.609375 0 
L 7.328125 0 
L 7.328125 8.296875 
Q 12.9375 14.109375 22.625 23.890625 
Q 32.328125 33.6875 34.8125 36.53125 
Q 39.546875 41.84375 41.421875 45.53125 
Q 43.3125 49.21875 43.3125 52.78125 
Q 43.3125 58.59375 39.234375 62.25 
Q 35.15625 65.921875 28.609375 65.921875 
Q 23.96875 65.921875 18.8125 64.3125 
Q 13.671875 62.703125 7.8125 59.421875 
L 7.8125 69.390625 
Q 13.765625 71.78125 18.9375 73 
Q 24.125 74.21875 28.421875 74.21875 
Q 39.75 74.21875 46.484375 68.546875 
Q 53.21875 62.890625 53.21875 53.421875 
Q 53.21875 48.921875 51.53125 44.890625 
Q 49.859375 40.875 45.40625 35.40625 
Q 44.1875 33.984375 37.640625 27.21875 
Q 31.109375 20.453125 19.1875 8.296875 
z
" id="DejaVuSans-50"/>
      </defs>
      <g transform="translate(152.005109 322.138822)scale(0.14 -0.14)">
       <use transform="translate(0 0.765625)" xlink:href="#DejaVuSans-49"/>
       <use transform="translate(63.623047 0.765625)" xlink:href="#DejaVuSans-48"/>
       <use transform="translate(128.203125 39.046875)scale(0.7)" xlink:href="#DejaVuSans-50"/>
      </g>
     </g>
    </g>
    <g id="xtick_2">
     <g id="line2d_2">
      <g>
       <use style="stroke:#000000;stroke-width:0.8;" x="295.533641" xlink:href="#mefab42f37a" y="304.50101"/>
      </g>
     </g>
     <g id="text_2">
      <!-- $\mathdefault{10^{3}}$ -->
      <defs>
       <path d="M 40.578125 39.3125 
Q 47.65625 37.796875 51.625 33 
Q 55.609375 28.21875 55.609375 21.1875 
Q 55.609375 10.40625 48.1875 4.484375 
Q 40.765625 -1.421875 27.09375 -1.421875 
Q 22.515625 -1.421875 17.65625 -0.515625 
Q 12.796875 0.390625 7.625 2.203125 
L 7.625 11.71875 
Q 11.71875 9.328125 16.59375 8.109375 
Q 21.484375 6.890625 26.8125 6.890625 
Q 36.078125 6.890625 40.9375 10.546875 
Q 45.796875 14.203125 45.796875 21.1875 
Q 45.796875 27.640625 41.28125 31.265625 
Q 36.765625 34.90625 28.71875 34.90625 
L 20.21875 34.90625 
L 20.21875 43.015625 
L 29.109375 43.015625 
Q 36.375 43.015625 40.234375 45.921875 
Q 44.09375 48.828125 44.09375 54.296875 
Q 44.09375 59.90625 40.109375 62.90625 
Q 36.140625 65.921875 28.71875 65.921875 
Q 24.65625 65.921875 20.015625 65.03125 
Q 15.375 64.15625 9.8125 62.3125 
L 9.8125 71.09375 
Q 15.4375 72.65625 20.34375 73.4375 
Q 25.25 74.21875 29.59375 74.21875 
Q 40.828125 74.21875 47.359375 69.109375 
Q 53.90625 64.015625 53.90625 55.328125 
Q 53.90625 49.265625 50.4375 45.09375 
Q 46.96875 40.921875 40.578125 39.3125 
z
" id="DejaVuSans-51"/>
      </defs>
      <g transform="translate(283.213641 322.138822)scale(0.14 -0.14)">
       <use transform="translate(0 0.765625)" xlink:href="#DejaVuSans-49"/>
       <use transform="translate(63.623047 0.765625)" xlink:href="#DejaVuSans-48"/>
       <use transform="translate(128.203125 39.046875)scale(0.7)" xlink:href="#DejaVuSans-51"/>
      </g>
     </g>
    </g>
    <g id="xtick_3">
     <g id="line2d_3">
      <g>
       <use style="stroke:#000000;stroke-width:0.8;" x="426.742174" xlink:href="#mefab42f37a" y="304.50101"/>
      </g>
     </g>
     <g id="text_3">
      <!-- $\mathdefault{10^{4}}$ -->
      <defs>
       <path d="M 37.796875 64.3125 
L 12.890625 25.390625 
L 37.796875 25.390625 
z
M 35.203125 72.90625 
L 47.609375 72.90625 
L 47.609375 25.390625 
L 58.015625 25.390625 
L 58.015625 17.1875 
L 47.609375 17.1875 
L 47.609375 0 
L 37.796875 0 
L 37.796875 17.1875 
L 4.890625 17.1875 
L 4.890625 26.703125 
z
" id="DejaVuSans-52"/>
      </defs>
      <g transform="translate(414.422174 322.138822)scale(0.14 -0.14)">
       <use transform="translate(0 0.684375)" xlink:href="#DejaVuSans-49"/>
       <use transform="translate(63.623047 0.684375)" xlink:href="#DejaVuSans-48"/>
       <use transform="translate(128.203125 38.965625)scale(0.7)" xlink:href="#DejaVuSans-52"/>
      </g>
     </g>
    </g>
    <g id="xtick_4">
     <g id="line2d_4">
      <defs>
       <path d="M 0 0 
L 0 2 
" id="m2d5fb62b0b" style="stroke:#000000;stroke-width:0.6;"/>
      </defs>
      <g>
       <use style="stroke:#000000;stroke-width:0.6;" x="72.614281" xlink:href="#m2d5fb62b0b" y="304.50101"/>
      </g>
     </g>
    </g>
    <g id="xtick_5">
     <g id="line2d_5">
      <g>
       <use style="stroke:#000000;stroke-width:0.6;" x="95.718956" xlink:href="#m2d5fb62b0b" y="304.50101"/>
      </g>
     </g>
    </g>
    <g id="xtick_6">
     <g id="line2d_6">
      <g>
       <use style="stroke:#000000;stroke-width:0.6;" x="112.111985" xlink:href="#m2d5fb62b0b" y="304.50101"/>
      </g>
     </g>
    </g>
    <g id="xtick_7">
     <g id="line2d_7">
      <g>
       <use style="stroke:#000000;stroke-width:0.6;" x="124.827405" xlink:href="#m2d5fb62b0b" y="304.50101"/>
      </g>
     </g>
    </g>
    <g id="xtick_8">
     <g id="line2d_8">
      <g>
       <use style="stroke:#000000;stroke-width:0.6;" x="135.21666" xlink:href="#m2d5fb62b0b" y="304.50101"/>
      </g>
     </g>
    </g>
    <g id="xtick_9">
     <g id="line2d_9">
      <g>
       <use style="stroke:#000000;stroke-width:0.6;" x="144.00065" xlink:href="#m2d5fb62b0b" y="304.50101"/>
      </g>
     </g>
    </g>
    <g id="xtick_10">
     <g id="line2d_10">
      <g>
       <use style="stroke:#000000;stroke-width:0.6;" x="151.609689" xlink:href="#m2d5fb62b0b" y="304.50101"/>
      </g>
     </g>
    </g>
    <g id="xtick_11">
     <g id="line2d_11">
      <g>
       <use style="stroke:#000000;stroke-width:0.6;" x="158.321336" xlink:href="#m2d5fb62b0b" y="304.50101"/>
      </g>
     </g>
    </g>
    <g id="xtick_12">
     <g id="line2d_12">
      <g>
       <use style="stroke:#000000;stroke-width:0.6;" x="203.822813" xlink:href="#m2d5fb62b0b" y="304.50101"/>
      </g>
     </g>
    </g>
    <g id="xtick_13">
     <g id="line2d_13">
      <g>
       <use style="stroke:#000000;stroke-width:0.6;" x="226.927489" xlink:href="#m2d5fb62b0b" y="304.50101"/>
      </g>
     </g>
    </g>
    <g id="xtick_14">
     <g id="line2d_14">
      <g>
       <use style="stroke:#000000;stroke-width:0.6;" x="243.320517" xlink:href="#m2d5fb62b0b" y="304.50101"/>
      </g>
     </g>
    </g>
    <g id="xtick_15">
     <g id="line2d_15">
      <g>
       <use style="stroke:#000000;stroke-width:0.6;" x="256.035937" xlink:href="#m2d5fb62b0b" y="304.50101"/>
      </g>
     </g>
    </g>
    <g id="xtick_16">
     <g id="line2d_16">
      <g>
       <use style="stroke:#000000;stroke-width:0.6;" x="266.425193" xlink:href="#m2d5fb62b0b" y="304.50101"/>
      </g>
     </g>
    </g>
    <g id="xtick_17">
     <g id="line2d_17">
      <g>
       <use style="stroke:#000000;stroke-width:0.6;" x="275.209183" xlink:href="#m2d5fb62b0b" y="304.50101"/>
      </g>
     </g>
    </g>
    <g id="xtick_18">
     <g id="line2d_18">
      <g>
       <use style="stroke:#000000;stroke-width:0.6;" x="282.818221" xlink:href="#m2d5fb62b0b" y="304.50101"/>
      </g>
     </g>
    </g>
    <g id="xtick_19">
     <g id="line2d_19">
      <g>
       <use style="stroke:#000000;stroke-width:0.6;" x="289.529868" xlink:href="#m2d5fb62b0b" y="304.50101"/>
      </g>
     </g>
    </g>
    <g id="xtick_20">
     <g id="line2d_20">
      <g>
       <use style="stroke:#000000;stroke-width:0.6;" x="335.031345" xlink:href="#m2d5fb62b0b" y="304.50101"/>
      </g>
     </g>
    </g>
    <g id="xtick_21">
     <g id="line2d_21">
      <g>
       <use style="stroke:#000000;stroke-width:0.6;" x="358.136021" xlink:href="#m2d5fb62b0b" y="304.50101"/>
      </g>
     </g>
    </g>
    <g id="xtick_22">
     <g id="line2d_22">
      <g>
       <use style="stroke:#000000;stroke-width:0.6;" x="374.529049" xlink:href="#m2d5fb62b0b" y="304.50101"/>
      </g>
     </g>
    </g>
    <g id="xtick_23">
     <g id="line2d_23">
      <g>
       <use style="stroke:#000000;stroke-width:0.6;" x="387.24447" xlink:href="#m2d5fb62b0b" y="304.50101"/>
      </g>
     </g>
    </g>
    <g id="xtick_24">
     <g id="line2d_24">
      <g>
       <use style="stroke:#000000;stroke-width:0.6;" x="397.633725" xlink:href="#m2d5fb62b0b" y="304.50101"/>
      </g>
     </g>
    </g>
    <g id="xtick_25">
     <g id="line2d_25">
      <g>
       <use style="stroke:#000000;stroke-width:0.6;" x="406.417715" xlink:href="#m2d5fb62b0b" y="304.50101"/>
      </g>
     </g>
    </g>
    <g id="xtick_26">
     <g id="line2d_26">
      <g>
       <use style="stroke:#000000;stroke-width:0.6;" x="414.026753" xlink:href="#m2d5fb62b0b" y="304.50101"/>
      </g>
     </g>
    </g>
    <g id="xtick_27">
     <g id="line2d_27">
      <g>
       <use style="stroke:#000000;stroke-width:0.6;" x="420.738401" xlink:href="#m2d5fb62b0b" y="304.50101"/>
      </g>
     </g>
    </g>
    <g id="text_4">
     <!-- Frequency (Hz) -->
     <defs>
      <path d="M 9.8125 72.90625 
L 51.703125 72.90625 
L 51.703125 64.59375 
L 19.671875 64.59375 
L 19.671875 43.109375 
L 48.578125 43.109375 
L 48.578125 34.8125 
L 19.671875 34.8125 
L 19.671875 0 
L 9.8125 0 
z
" id="DejaVuSans-70"/>
      <path d="M 41.109375 46.296875 
Q 39.59375 47.171875 37.8125 47.578125 
Q 36.03125 48 33.890625 48 
Q 26.265625 48 22.1875 43.046875 
Q 18.109375 38.09375 18.109375 28.8125 
L 18.109375 0 
L 9.078125 0 
L 9.078125 54.6875 
L 18.109375 54.6875 
L 18.109375 46.1875 
Q 20.953125 51.171875 25.484375 53.578125 
Q 30.03125 56 36.53125 56 
Q 37.453125 56 38.578125 55.875 
Q 39.703125 55.765625 41.0625 55.515625 
z
" id="DejaVuSans-114"/>
      <path d="M 56.203125 29.59375 
L 56.203125 25.203125 
L 14.890625 25.203125 
Q 15.484375 15.921875 20.484375 11.0625 
Q 25.484375 6.203125 34.421875 6.203125 
Q 39.59375 6.203125 44.453125 7.46875 
Q 49.3125 8.734375 54.109375 11.28125 
L 54.109375 2.78125 
Q 49.265625 0.734375 44.1875 -0.34375 
Q 39.109375 -1.421875 33.890625 -1.421875 
Q 20.796875 -1.421875 13.15625 6.1875 
Q 5.515625 13.8125 5.515625 26.8125 
Q 5.515625 40.234375 12.765625 48.109375 
Q 20.015625 56 32.328125 56 
Q 43.359375 56 49.78125 48.890625 
Q 56.203125 41.796875 56.203125 29.59375 
z
M 47.21875 32.234375 
Q 47.125 39.59375 43.09375 43.984375 
Q 39.0625 48.390625 32.421875 48.390625 
Q 24.90625 48.390625 20.390625 44.140625 
Q 15.875 39.890625 15.1875 32.171875 
z
" id="DejaVuSans-101"/>
      <path d="M 14.796875 27.296875 
Q 14.796875 17.390625 18.875 11.75 
Q 22.953125 6.109375 30.078125 6.109375 
Q 37.203125 6.109375 41.296875 11.75 
Q 45.40625 17.390625 45.40625 27.296875 
Q 45.40625 37.203125 41.296875 42.84375 
Q 37.203125 48.484375 30.078125 48.484375 
Q 22.953125 48.484375 18.875 42.84375 
Q 14.796875 37.203125 14.796875 27.296875 
z
M 45.40625 8.203125 
Q 42.578125 3.328125 38.25 0.953125 
Q 33.9375 -1.421875 27.875 -1.421875 
Q 17.96875 -1.421875 11.734375 6.484375 
Q 5.515625 14.40625 5.515625 27.296875 
Q 5.515625 40.1875 11.734375 48.09375 
Q 17.96875 56 27.875 56 
Q 33.9375 56 38.25 53.625 
Q 42.578125 51.265625 45.40625 46.390625 
L 45.40625 54.6875 
L 54.390625 54.6875 
L 54.390625 -20.796875 
L 45.40625 -20.796875 
z
" id="DejaVuSans-113"/>
      <path d="M 8.5 21.578125 
L 8.5 54.6875 
L 17.484375 54.6875 
L 17.484375 21.921875 
Q 17.484375 14.15625 20.5 10.265625 
Q 23.53125 6.390625 29.59375 6.390625 
Q 36.859375 6.390625 41.078125 11.03125 
Q 45.3125 15.671875 45.3125 23.6875 
L 45.3125 54.6875 
L 54.296875 54.6875 
L 54.296875 0 
L 45.3125 0 
L 45.3125 8.40625 
Q 42.046875 3.421875 37.71875 1 
Q 33.40625 -1.421875 27.6875 -1.421875 
Q 18.265625 -1.421875 13.375 4.4375 
Q 8.5 10.296875 8.5 21.578125 
z
M 31.109375 56 
z
" id="DejaVuSans-117"/>
      <path d="M 54.890625 33.015625 
L 54.890625 0 
L 45.90625 0 
L 45.90625 32.71875 
Q 45.90625 40.484375 42.875 44.328125 
Q 39.84375 48.1875 33.796875 48.1875 
Q 26.515625 48.1875 22.3125 43.546875 
Q 18.109375 38.921875 18.109375 30.90625 
L 18.109375 0 
L 9.078125 0 
L 9.078125 54.6875 
L 18.109375 54.6875 
L 18.109375 46.1875 
Q 21.34375 51.125 25.703125 53.5625 
Q 30.078125 56 35.796875 56 
Q 45.21875 56 50.046875 50.171875 
Q 54.890625 44.34375 54.890625 33.015625 
z
" id="DejaVuSans-110"/>
      <path d="M 48.78125 52.59375 
L 48.78125 44.1875 
Q 44.96875 46.296875 41.140625 47.34375 
Q 37.3125 48.390625 33.40625 48.390625 
Q 24.65625 48.390625 19.8125 42.84375 
Q 14.984375 37.3125 14.984375 27.296875 
Q 14.984375 17.28125 19.8125 11.734375 
Q 24.65625 6.203125 33.40625 6.203125 
Q 37.3125 6.203125 41.140625 7.25 
Q 44.96875 8.296875 48.78125 10.40625 
L 48.78125 2.09375 
Q 45.015625 0.34375 40.984375 -0.53125 
Q 36.96875 -1.421875 32.421875 -1.421875 
Q 20.0625 -1.421875 12.78125 6.34375 
Q 5.515625 14.109375 5.515625 27.296875 
Q 5.515625 40.671875 12.859375 48.328125 
Q 20.21875 56 33.015625 56 
Q 37.15625 56 41.109375 55.140625 
Q 45.0625 54.296875 48.78125 52.59375 
z
" id="DejaVuSans-99"/>
      <path d="M 32.171875 -5.078125 
Q 28.375 -14.84375 24.75 -17.8125 
Q 21.140625 -20.796875 15.09375 -20.796875 
L 7.90625 -20.796875 
L 7.90625 -13.28125 
L 13.1875 -13.28125 
Q 16.890625 -13.28125 18.9375 -11.515625 
Q 21 -9.765625 23.484375 -3.21875 
L 25.09375 0.875 
L 2.984375 54.6875 
L 12.5 54.6875 
L 29.59375 11.921875 
L 46.6875 54.6875 
L 56.203125 54.6875 
z
" id="DejaVuSans-121"/>
      <path id="DejaVuSans-32"/>
      <path d="M 31 75.875 
Q 24.46875 64.65625 21.28125 53.65625 
Q 18.109375 42.671875 18.109375 31.390625 
Q 18.109375 20.125 21.3125 9.0625 
Q 24.515625 -2 31 -13.1875 
L 23.1875 -13.1875 
Q 15.875 -1.703125 12.234375 9.375 
Q 8.59375 20.453125 8.59375 31.390625 
Q 8.59375 42.28125 12.203125 53.3125 
Q 15.828125 64.359375 23.1875 75.875 
z
" id="DejaVuSans-40"/>
      <path d="M 9.8125 72.90625 
L 19.671875 72.90625 
L 19.671875 43.015625 
L 55.515625 43.015625 
L 55.515625 72.90625 
L 65.375 72.90625 
L 65.375 0 
L 55.515625 0 
L 55.515625 34.71875 
L 19.671875 34.71875 
L 19.671875 0 
L 9.8125 0 
z
" id="DejaVuSans-72"/>
      <path d="M 5.515625 54.6875 
L 48.1875 54.6875 
L 48.1875 46.484375 
L 14.40625 7.171875 
L 48.1875 7.171875 
L 48.1875 0 
L 4.296875 0 
L 4.296875 8.203125 
L 38.09375 47.515625 
L 5.515625 47.515625 
z
" id="DejaVuSans-122"/>
      <path d="M 8.015625 75.875 
L 15.828125 75.875 
Q 23.140625 64.359375 26.78125 53.3125 
Q 30.421875 42.28125 30.421875 31.390625 
Q 30.421875 20.453125 26.78125 9.375 
Q 23.140625 -1.703125 15.828125 -13.1875 
L 8.015625 -13.1875 
Q 14.5 -2 17.703125 9.0625 
Q 20.90625 20.125 20.90625 31.390625 
Q 20.90625 42.671875 17.703125 53.65625 
Q 14.5 64.65625 8.015625 75.875 
z
" id="DejaVuSans-41"/>
     </defs>
     <g transform="translate(202.594219 339.688197)scale(0.14 -0.14)">
      <use xlink:href="#DejaVuSans-70"/>
      <use x="57.410156" xlink:href="#DejaVuSans-114"/>
      <use x="98.492188" xlink:href="#DejaVuSans-101"/>
      <use x="160.015625" xlink:href="#DejaVuSans-113"/>
      <use x="223.492188" xlink:href="#DejaVuSans-117"/>
      <use x="286.871094" xlink:href="#DejaVuSans-101"/>
      <use x="348.394531" xlink:href="#DejaVuSans-110"/>
      <use x="411.773438" xlink:href="#DejaVuSans-99"/>
      <use x="466.753906" xlink:href="#DejaVuSans-121"/>
      <use x="525.933594" xlink:href="#DejaVuSans-32"/>
      <use x="557.720703" xlink:href="#DejaVuSans-40"/>
      <use x="596.734375" xlink:href="#DejaVuSans-72"/>
      <use x="671.929688" xlink:href="#DejaVuSans-122"/>
      <use x="724.419922" xlink:href="#DejaVuSans-41"/>
     </g>
    </g>
   </g>
   <g id="matplotlib.axis_2">
    <g id="ytick_1">
     <g id="line2d_28">
      <defs>
       <path d="M 0 0 
L -3.5 0 
" id="m1f8213a474" style="stroke:#000000;stroke-width:0.8;"/>
      </defs>
      <g>
       <use style="stroke:#000000;stroke-width:0.8;" x="54.272115" xlink:href="#m1f8213a474" y="271.810988"/>
      </g>
     </g>
     <g id="text_5">
      <!-- 0 -->
      <g transform="translate(38.364615 277.129894)scale(0.14 -0.14)">
       <use xlink:href="#DejaVuSans-48"/>
      </g>
     </g>
    </g>
    <g id="ytick_2">
     <g id="line2d_29">
      <g>
       <use style="stroke:#000000;stroke-width:0.8;" x="54.272115" xlink:href="#m1f8213a474" y="230.566842"/>
      </g>
     </g>
     <g id="text_6">
      <!-- 20 -->
      <g transform="translate(29.457115 235.885748)scale(0.14 -0.14)">
       <use xlink:href="#DejaVuSans-50"/>
       <use x="63.623047" xlink:href="#DejaVuSans-48"/>
      </g>
     </g>
    </g>
    <g id="ytick_3">
     <g id="line2d_30">
      <g>
       <use style="stroke:#000000;stroke-width:0.8;" x="54.272115" xlink:href="#m1f8213a474" y="189.322696"/>
      </g>
     </g>
     <g id="text_7">
      <!-- 40 -->
      <g transform="translate(29.457115 194.641603)scale(0.14 -0.14)">
       <use xlink:href="#DejaVuSans-52"/>
       <use x="63.623047" xlink:href="#DejaVuSans-48"/>
      </g>
     </g>
    </g>
    <g id="ytick_4">
     <g id="line2d_31">
      <g>
       <use style="stroke:#000000;stroke-width:0.8;" x="54.272115" xlink:href="#m1f8213a474" y="148.078551"/>
      </g>
     </g>
     <g id="text_8">
      <!-- 60 -->
      <defs>
       <path d="M 33.015625 40.375 
Q 26.375 40.375 22.484375 35.828125 
Q 18.609375 31.296875 18.609375 23.390625 
Q 18.609375 15.53125 22.484375 10.953125 
Q 26.375 6.390625 33.015625 6.390625 
Q 39.65625 6.390625 43.53125 10.953125 
Q 47.40625 15.53125 47.40625 23.390625 
Q 47.40625 31.296875 43.53125 35.828125 
Q 39.65625 40.375 33.015625 40.375 
z
M 52.59375 71.296875 
L 52.59375 62.3125 
Q 48.875 64.0625 45.09375 64.984375 
Q 41.3125 65.921875 37.59375 65.921875 
Q 27.828125 65.921875 22.671875 59.328125 
Q 17.53125 52.734375 16.796875 39.40625 
Q 19.671875 43.65625 24.015625 45.921875 
Q 28.375 48.1875 33.59375 48.1875 
Q 44.578125 48.1875 50.953125 41.515625 
Q 57.328125 34.859375 57.328125 23.390625 
Q 57.328125 12.15625 50.6875 5.359375 
Q 44.046875 -1.421875 33.015625 -1.421875 
Q 20.359375 -1.421875 13.671875 8.265625 
Q 6.984375 17.96875 6.984375 36.375 
Q 6.984375 53.65625 15.1875 63.9375 
Q 23.390625 74.21875 37.203125 74.21875 
Q 40.921875 74.21875 44.703125 73.484375 
Q 48.484375 72.75 52.59375 71.296875 
z
" id="DejaVuSans-54"/>
      </defs>
      <g transform="translate(29.457115 153.397457)scale(0.14 -0.14)">
       <use xlink:href="#DejaVuSans-54"/>
       <use x="63.623047" xlink:href="#DejaVuSans-48"/>
      </g>
     </g>
    </g>
    <g id="ytick_5">
     <g id="line2d_32">
      <g>
       <use style="stroke:#000000;stroke-width:0.8;" x="54.272115" xlink:href="#m1f8213a474" y="106.834405"/>
      </g>
     </g>
     <g id="text_9">
      <!-- 80 -->
      <defs>
       <path d="M 31.78125 34.625 
Q 24.75 34.625 20.71875 30.859375 
Q 16.703125 27.09375 16.703125 20.515625 
Q 16.703125 13.921875 20.71875 10.15625 
Q 24.75 6.390625 31.78125 6.390625 
Q 38.8125 6.390625 42.859375 10.171875 
Q 46.921875 13.96875 46.921875 20.515625 
Q 46.921875 27.09375 42.890625 30.859375 
Q 38.875 34.625 31.78125 34.625 
z
M 21.921875 38.8125 
Q 15.578125 40.375 12.03125 44.71875 
Q 8.5 49.078125 8.5 55.328125 
Q 8.5 64.0625 14.71875 69.140625 
Q 20.953125 74.21875 31.78125 74.21875 
Q 42.671875 74.21875 48.875 69.140625 
Q 55.078125 64.0625 55.078125 55.328125 
Q 55.078125 49.078125 51.53125 44.71875 
Q 48 40.375 41.703125 38.8125 
Q 48.828125 37.15625 52.796875 32.3125 
Q 56.78125 27.484375 56.78125 20.515625 
Q 56.78125 9.90625 50.3125 4.234375 
Q 43.84375 -1.421875 31.78125 -1.421875 
Q 19.734375 -1.421875 13.25 4.234375 
Q 6.78125 9.90625 6.78125 20.515625 
Q 6.78125 27.484375 10.78125 32.3125 
Q 14.796875 37.15625 21.921875 38.8125 
z
M 18.3125 54.390625 
Q 18.3125 48.734375 21.84375 45.5625 
Q 25.390625 42.390625 31.78125 42.390625 
Q 38.140625 42.390625 41.71875 45.5625 
Q 45.3125 48.734375 45.3125 54.390625 
Q 45.3125 60.0625 41.71875 63.234375 
Q 38.140625 66.40625 31.78125 66.40625 
Q 25.390625 66.40625 21.84375 63.234375 
Q 18.3125 60.0625 18.3125 54.390625 
z
" id="DejaVuSans-56"/>
      </defs>
      <g transform="translate(29.457115 112.153311)scale(0.14 -0.14)">
       <use xlink:href="#DejaVuSans-56"/>
       <use x="63.623047" xlink:href="#DejaVuSans-48"/>
      </g>
     </g>
    </g>
    <g id="ytick_6">
     <g id="line2d_33">
      <g>
       <use style="stroke:#000000;stroke-width:0.8;" x="54.272115" xlink:href="#m1f8213a474" y="65.590259"/>
      </g>
     </g>
     <g id="text_10">
      <!-- 100 -->
      <g transform="translate(20.549615 70.909165)scale(0.14 -0.14)">
       <use xlink:href="#DejaVuSans-49"/>
       <use x="63.623047" xlink:href="#DejaVuSans-48"/>
       <use x="127.246094" xlink:href="#DejaVuSans-48"/>
      </g>
     </g>
    </g>
    <g id="ytick_7">
     <g id="line2d_34">
      <g>
       <use style="stroke:#000000;stroke-width:0.8;" x="54.272115" xlink:href="#m1f8213a474" y="24.346113"/>
      </g>
     </g>
     <g id="text_11">
      <!-- 120 -->
      <g transform="translate(20.549615 29.665019)scale(0.14 -0.14)">
       <use xlink:href="#DejaVuSans-49"/>
       <use x="63.623047" xlink:href="#DejaVuSans-50"/>
       <use x="127.246094" xlink:href="#DejaVuSans-48"/>
      </g>
     </g>
    </g>
    <g id="text_12">
     <!-- Sound pressure level (dB) -->
     <defs>
      <path d="M 53.515625 70.515625 
L 53.515625 60.890625 
Q 47.90625 63.578125 42.921875 64.890625 
Q 37.9375 66.21875 33.296875 66.21875 
Q 25.25 66.21875 20.875 63.09375 
Q 16.5 59.96875 16.5 54.203125 
Q 16.5 49.359375 19.40625 46.890625 
Q 22.3125 44.4375 30.421875 42.921875 
L 36.375 41.703125 
Q 47.40625 39.59375 52.65625 34.296875 
Q 57.90625 29 57.90625 20.125 
Q 57.90625 9.515625 50.796875 4.046875 
Q 43.703125 -1.421875 29.984375 -1.421875 
Q 24.8125 -1.421875 18.96875 -0.25 
Q 13.140625 0.921875 6.890625 3.21875 
L 6.890625 13.375 
Q 12.890625 10.015625 18.65625 8.296875 
Q 24.421875 6.59375 29.984375 6.59375 
Q 38.421875 6.59375 43.015625 9.90625 
Q 47.609375 13.234375 47.609375 19.390625 
Q 47.609375 24.75 44.3125 27.78125 
Q 41.015625 30.8125 33.5 32.328125 
L 27.484375 33.5 
Q 16.453125 35.6875 11.515625 40.375 
Q 6.59375 45.0625 6.59375 53.421875 
Q 6.59375 63.09375 13.40625 68.65625 
Q 20.21875 74.21875 32.171875 74.21875 
Q 37.3125 74.21875 42.625 73.28125 
Q 47.953125 72.359375 53.515625 70.515625 
z
" id="DejaVuSans-83"/>
      <path d="M 30.609375 48.390625 
Q 23.390625 48.390625 19.1875 42.75 
Q 14.984375 37.109375 14.984375 27.296875 
Q 14.984375 17.484375 19.15625 11.84375 
Q 23.34375 6.203125 30.609375 6.203125 
Q 37.796875 6.203125 41.984375 11.859375 
Q 46.1875 17.53125 46.1875 27.296875 
Q 46.1875 37.015625 41.984375 42.703125 
Q 37.796875 48.390625 30.609375 48.390625 
z
M 30.609375 56 
Q 42.328125 56 49.015625 48.375 
Q 55.71875 40.765625 55.71875 27.296875 
Q 55.71875 13.875 49.015625 6.21875 
Q 42.328125 -1.421875 30.609375 -1.421875 
Q 18.84375 -1.421875 12.171875 6.21875 
Q 5.515625 13.875 5.515625 27.296875 
Q 5.515625 40.765625 12.171875 48.375 
Q 18.84375 56 30.609375 56 
z
" id="DejaVuSans-111"/>
      <path d="M 45.40625 46.390625 
L 45.40625 75.984375 
L 54.390625 75.984375 
L 54.390625 0 
L 45.40625 0 
L 45.40625 8.203125 
Q 42.578125 3.328125 38.25 0.953125 
Q 33.9375 -1.421875 27.875 -1.421875 
Q 17.96875 -1.421875 11.734375 6.484375 
Q 5.515625 14.40625 5.515625 27.296875 
Q 5.515625 40.1875 11.734375 48.09375 
Q 17.96875 56 27.875 56 
Q 33.9375 56 38.25 53.625 
Q 42.578125 51.265625 45.40625 46.390625 
z
M 14.796875 27.296875 
Q 14.796875 17.390625 18.875 11.75 
Q 22.953125 6.109375 30.078125 6.109375 
Q 37.203125 6.109375 41.296875 11.75 
Q 45.40625 17.390625 45.40625 27.296875 
Q 45.40625 37.203125 41.296875 42.84375 
Q 37.203125 48.484375 30.078125 48.484375 
Q 22.953125 48.484375 18.875 42.84375 
Q 14.796875 37.203125 14.796875 27.296875 
z
" id="DejaVuSans-100"/>
      <path d="M 18.109375 8.203125 
L 18.109375 -20.796875 
L 9.078125 -20.796875 
L 9.078125 54.6875 
L 18.109375 54.6875 
L 18.109375 46.390625 
Q 20.953125 51.265625 25.265625 53.625 
Q 29.59375 56 35.59375 56 
Q 45.5625 56 51.78125 48.09375 
Q 58.015625 40.1875 58.015625 27.296875 
Q 58.015625 14.40625 51.78125 6.484375 
Q 45.5625 -1.421875 35.59375 -1.421875 
Q 29.59375 -1.421875 25.265625 0.953125 
Q 20.953125 3.328125 18.109375 8.203125 
z
M 48.6875 27.296875 
Q 48.6875 37.203125 44.609375 42.84375 
Q 40.53125 48.484375 33.40625 48.484375 
Q 26.265625 48.484375 22.1875 42.84375 
Q 18.109375 37.203125 18.109375 27.296875 
Q 18.109375 17.390625 22.1875 11.75 
Q 26.265625 6.109375 33.40625 6.109375 
Q 40.53125 6.109375 44.609375 11.75 
Q 48.6875 17.390625 48.6875 27.296875 
z
" id="DejaVuSans-112"/>
      <path d="M 44.28125 53.078125 
L 44.28125 44.578125 
Q 40.484375 46.53125 36.375 47.5 
Q 32.28125 48.484375 27.875 48.484375 
Q 21.1875 48.484375 17.84375 46.4375 
Q 14.5 44.390625 14.5 40.28125 
Q 14.5 37.15625 16.890625 35.375 
Q 19.28125 33.59375 26.515625 31.984375 
L 29.59375 31.296875 
Q 39.15625 29.25 43.1875 25.515625 
Q 47.21875 21.78125 47.21875 15.09375 
Q 47.21875 7.46875 41.1875 3.015625 
Q 35.15625 -1.421875 24.609375 -1.421875 
Q 20.21875 -1.421875 15.453125 -0.5625 
Q 10.6875 0.296875 5.421875 2 
L 5.421875 11.28125 
Q 10.40625 8.6875 15.234375 7.390625 
Q 20.0625 6.109375 24.8125 6.109375 
Q 31.15625 6.109375 34.5625 8.28125 
Q 37.984375 10.453125 37.984375 14.40625 
Q 37.984375 18.0625 35.515625 20.015625 
Q 33.0625 21.96875 24.703125 23.78125 
L 21.578125 24.515625 
Q 13.234375 26.265625 9.515625 29.90625 
Q 5.8125 33.546875 5.8125 39.890625 
Q 5.8125 47.609375 11.28125 51.796875 
Q 16.75 56 26.8125 56 
Q 31.78125 56 36.171875 55.265625 
Q 40.578125 54.546875 44.28125 53.078125 
z
" id="DejaVuSans-115"/>
      <path d="M 9.421875 75.984375 
L 18.40625 75.984375 
L 18.40625 0 
L 9.421875 0 
z
" id="DejaVuSans-108"/>
      <path d="M 2.984375 54.6875 
L 12.5 54.6875 
L 29.59375 8.796875 
L 46.6875 54.6875 
L 56.203125 54.6875 
L 35.6875 0 
L 23.484375 0 
z
" id="DejaVuSans-118"/>
      <path d="M 19.671875 34.8125 
L 19.671875 8.109375 
L 35.5 8.109375 
Q 43.453125 8.109375 47.28125 11.40625 
Q 51.125 14.703125 51.125 21.484375 
Q 51.125 28.328125 47.28125 31.5625 
Q 43.453125 34.8125 35.5 34.8125 
z
M 19.671875 64.796875 
L 19.671875 42.828125 
L 34.28125 42.828125 
Q 41.5 42.828125 45.03125 45.53125 
Q 48.578125 48.25 48.578125 53.8125 
Q 48.578125 59.328125 45.03125 62.0625 
Q 41.5 64.796875 34.28125 64.796875 
z
M 9.8125 72.90625 
L 35.015625 72.90625 
Q 46.296875 72.90625 52.390625 68.21875 
Q 58.5 63.53125 58.5 54.890625 
Q 58.5 48.1875 55.375 44.234375 
Q 52.25 40.28125 46.1875 39.3125 
Q 53.46875 37.75 57.5 32.78125 
Q 61.53125 27.828125 61.53125 20.40625 
Q 61.53125 10.640625 54.890625 5.3125 
Q 48.25 0 35.984375 0 
L 9.8125 0 
z
" id="DejaVuSans-66"/>
     </defs>
     <g transform="translate(13.638052 244.362344)rotate(-90)scale(0.14 -0.14)">
      <use xlink:href="#DejaVuSans-83"/>
      <use x="63.476562" xlink:href="#DejaVuSans-111"/>
      <use x="124.658203" xlink:href="#DejaVuSans-117"/>
      <use x="188.037109" xlink:href="#DejaVuSans-110"/>
      <use x="251.416016" xlink:href="#DejaVuSans-100"/>
      <use x="314.892578" xlink:href="#DejaVuSans-32"/>
      <use x="346.679688" xlink:href="#DejaVuSans-112"/>
      <use x="410.15625" xlink:href="#DejaVuSans-114"/>
      <use x="451.238281" xlink:href="#DejaVuSans-101"/>
      <use x="512.761719" xlink:href="#DejaVuSans-115"/>
      <use x="564.861328" xlink:href="#DejaVuSans-115"/>
      <use x="616.960938" xlink:href="#DejaVuSans-117"/>
      <use x="680.339844" xlink:href="#DejaVuSans-114"/>
      <use x="721.421875" xlink:href="#DejaVuSans-101"/>
      <use x="782.945312" xlink:href="#DejaVuSans-32"/>
      <use x="814.732422" xlink:href="#DejaVuSans-108"/>
      <use x="842.515625" xlink:href="#DejaVuSans-101"/>
      <use x="904.039062" xlink:href="#DejaVuSans-118"/>
      <use x="963.21875" xlink:href="#DejaVuSans-101"/>
      <use x="1024.742188" xlink:href="#DejaVuSans-108"/>
      <use x="1052.525391" xlink:href="#DejaVuSans-32"/>
      <use x="1084.3125" xlink:href="#DejaVuSans-40"/>
      <use x="1123.326172" xlink:href="#DejaVuSans-100"/>
      <use x="1186.802734" xlink:href="#DejaVuSans-66"/>
      <use x="1255.40625" xlink:href="#DejaVuSans-41"/>
     </g>
    </g>
   </g>
   <g id="line2d_35">
    <path clip-path="url(#pcd8c19d06b)" d="M 72.614281 113.945435 
L 83.263386 132.903899 
L 89.873175 144.217416 
L 95.381333 153.2277 
L 100.889491 161.804243 
L 106.030438 169.403482 
L 111.538596 177.127297 
L 117.413965 184.984249 
L 122.187701 191.027856 
L 126.594228 196.25969 
L 130.633543 200.730957 
L 135.04007 205.273647 
L 140.181017 210.233962 
L 145.321964 214.911613 
L 150.095701 218.975902 
L 154.869438 222.763306 
L 159.643175 226.283063 
L 165.151333 230.069026 
L 171.393912 234.106613 
L 176.90207 237.404636 
L 182.043017 240.223891 
L 188.285596 243.377945 
L 206.646122 252.273884 
L 212.15428 254.551744 
L 226.47549 260.081467 
L 232.718069 262.304902 
L 238.593438 264.153485 
L 246.304859 266.318853 
L 254.01628 268.284813 
L 260.258859 269.656112 
L 266.134227 270.720308 
L 272.009595 271.55885 
L 277.517753 272.126336 
L 282.658701 272.42954 
L 287.432437 272.480393 
L 291.471753 272.29558 
L 295.143858 271.890748 
L 298.815964 271.228405 
L 305.792964 269.867323 
L 307.996227 269.684665 
L 309.832279 269.736302 
L 311.668332 269.985292 
L 313.871595 270.524921 
L 316.074858 271.29499 
L 318.645332 272.421739 
L 324.5207 275.355717 
L 331.4977 278.649343 
L 340.310753 282.833094 
L 347.654963 286.301413 
L 351.694279 287.941796 
L 354.999174 289.0586 
L 358.304068 289.932507 
L 361.241753 290.472309 
L 363.812226 290.737017 
L 366.3827 290.788163 
L 368.953174 290.607085 
L 371.523647 290.175237 
L 373.72691 289.591775 
L 375.930174 288.799867 
L 378.133437 287.788418 
L 380.3367 286.54647 
L 382.539963 285.064011 
L 384.743226 283.332332 
L 386.946489 281.34443 
L 389.516963 278.700663 
L 392.454647 275.301555 
L 396.126752 270.646898 
L 402.736542 262.152608 
L 405.674226 258.766411 
L 408.2447 256.11114 
L 410.447963 254.113808 
L 412.651226 252.421234 
L 414.487279 251.2799 
L 416.323331 250.406703 
L 418.159384 249.801688 
L 419.995437 249.458676 
L 421.831489 249.366771 
L 423.667542 249.509541 
L 425.503594 249.8641 
L 427.706858 250.525765 
L 430.644542 251.691014 
L 435.785489 253.820802 
L 437.621542 254.327813 
L 439.090384 254.518042 
L 439.457594 254.526922 
L 439.457594 254.526922 
" style="fill:none;stroke:#1f77b4;stroke-linecap:square;stroke-width:2;"/>
   </g>
   <g id="line2d_36">
    <path clip-path="url(#pcd8c19d06b)" d="M 72.614281 99.101075 
L 81.060123 110.176594 
L 87.669912 118.474642 
L 93.545281 125.493519 
L 99.787859 132.588557 
L 106.397649 139.769054 
L 113.741859 147.408356 
L 122.187701 155.889247 
L 129.899122 163.305274 
L 137.243333 170.063493 
L 146.056386 177.873218 
L 155.603859 186.024287 
L 163.682491 192.658716 
L 170.29228 197.802864 
L 177.26928 202.938484 
L 185.347912 208.603432 
L 193.793754 214.242561 
L 201.872385 219.388865 
L 208.482175 223.342596 
L 215.459175 227.246189 
L 223.905017 231.701604 
L 231.249227 235.321196 
L 237.859017 238.32888 
L 243.734385 240.756308 
L 249.609753 242.931317 
L 255.852332 244.992455 
L 263.196543 247.184247 
L 269.439122 248.813556 
L 274.580069 249.941675 
L 279.353806 250.767684 
L 283.760332 251.298744 
L 287.799648 251.549718 
L 291.104543 251.548686 
L 294.409437 251.324097 
L 297.347121 250.907724 
L 301.019227 250.145212 
L 307.996227 248.623957 
L 310.5667 248.351569 
L 313.137174 248.332542 
L 315.707648 248.569076 
L 318.278121 249.057536 
L 320.848595 249.786914 
L 323.419069 250.737109 
L 326.356753 252.058394 
L 330.028858 253.983057 
L 339.576332 259.185847 
L 343.615648 261.030242 
L 347.287753 262.469155 
L 350.959858 263.669841 
L 354.264753 264.528068 
L 357.569647 265.155926 
L 360.874542 265.537823 
L 363.812226 265.658952 
L 366.749911 265.552838 
L 369.320384 265.253712 
L 371.890858 264.743811 
L 374.461332 264.005435 
L 377.031805 263.021349 
L 379.602279 261.777007 
L 382.172753 260.259985 
L 384.743226 258.460122 
L 387.3137 256.370316 
L 389.884174 253.992883 
L 392.821858 250.963524 
L 396.493963 246.825275 
L 405.307016 236.702546 
L 408.61191 233.28432 
L 411.549594 230.551349 
L 414.120068 228.467545 
L 416.323331 226.957198 
L 418.526594 225.716541 
L 420.729858 224.750182 
L 422.933121 224.058433 
L 425.136384 223.636286 
L 427.339647 223.472222 
L 429.54291 223.546828 
L 431.746173 223.831192 
L 434.683858 224.465131 
L 439.457594 225.768255 
L 439.457594 225.768255 
" style="fill:none;stroke:#1f77b4;stroke-linecap:square;stroke-width:2;"/>
   </g>
   <g id="line2d_37">
    <path clip-path="url(#pcd8c19d06b)" d="M 72.614281 87.082412 
L 82.896175 98.69286 
L 90.240386 106.643419 
L 96.850175 113.473427 
L 104.194386 120.74144 
L 111.905807 128.05404 
L 121.45328 136.791286 
L 129.899122 144.218672 
L 138.344965 151.353739 
L 148.259649 159.445757 
L 160.377596 169.023242 
L 167.721806 174.568561 
L 175.066017 179.822849 
L 184.613491 186.349774 
L 193.793754 192.351204 
L 202.239596 197.621492 
L 209.951017 202.167893 
L 217.662438 206.445037 
L 225.741069 210.673705 
L 233.819701 214.640871 
L 240.42949 217.651037 
L 245.937648 219.921368 
L 251.445806 221.951506 
L 258.790016 224.396688 
L 266.501437 226.755162 
L 272.376806 228.330509 
L 277.517753 229.478152 
L 281.924279 230.235043 
L 285.963595 230.698415 
L 289.6357 230.88058 
L 292.940595 230.804791 
L 295.878279 230.50919 
L 298.815964 229.982122 
L 302.488069 229.078633 
L 309.465069 227.29584 
L 312.402753 226.8517 
L 314.973227 226.69121 
L 317.5437 226.773361 
L 319.746963 227.060356 
L 321.950227 227.569536 
L 324.15349 228.3188 
L 326.356753 229.29258 
L 328.927227 230.660893 
L 332.966542 233.112596 
L 337.005858 235.511382 
L 340.310753 237.201215 
L 343.615648 238.633956 
L 346.920542 239.822891 
L 350.592647 240.889496 
L 353.897542 241.621446 
L 357.202437 242.125241 
L 360.507332 242.395196 
L 363.812226 242.429286 
L 366.749911 242.243344 
L 369.687595 241.82964 
L 372.258068 241.261762 
L 374.828542 240.484242 
L 377.399016 239.481404 
L 379.969489 238.241732 
L 382.539963 236.756216 
L 385.110437 235.018497 
L 387.68091 233.02571 
L 390.618595 230.445222 
L 393.923489 227.206385 
L 397.962805 222.905014 
L 406.041437 214.20418 
L 409.713542 210.567187 
L 412.651226 207.929391 
L 415.2217 205.894882 
L 417.792173 204.165362 
L 419.995437 202.943268 
L 422.1987 201.974535 
L 424.401963 201.269548 
L 426.605226 200.836197 
L 428.441279 200.686084 
L 430.277331 200.728593 
L 432.113384 200.962073 
L 434.316647 201.487941 
L 436.51991 202.268553 
L 438.723173 203.282082 
L 439.457594 203.666554 
L 439.457594 203.666554 
" style="fill:none;stroke:#1f77b4;stroke-linecap:square;stroke-width:2;"/>
   </g>
   <g id="line2d_38">
    <path clip-path="url(#pcd8c19d06b)" d="M 72.614281 76.211375 
L 84.365017 88.291259 
L 92.076438 95.897706 
L 99.420649 102.823513 
L 107.13207 109.795485 
L 115.945123 117.43632 
L 124.758175 124.796493 
L 133.571228 131.86062 
L 143.485912 139.492652 
L 154.502228 147.690106 
L 164.049701 154.565382 
L 171.393912 159.577916 
L 179.839754 165.053724 
L 189.387227 170.993712 
L 199.301912 176.890208 
L 207.380543 181.444737 
L 215.091964 185.54356 
L 223.537806 189.771754 
L 231.983648 193.744677 
L 239.327859 196.979138 
L 245.203227 199.3234 
L 250.711385 201.27771 
L 258.055595 203.624829 
L 266.868648 206.235496 
L 273.111227 207.858591 
L 278.252174 208.969118 
L 282.658701 209.697406 
L 286.330806 210.101756 
L 289.6357 210.264509 
L 292.573385 210.210783 
L 295.511069 209.930808 
L 298.448753 209.395913 
L 301.753648 208.539248 
L 311.668332 205.720552 
L 314.238806 205.307588 
L 316.809279 205.122651 
L 319.012542 205.182462 
L 321.215806 205.481017 
L 323.051858 205.940663 
L 325.255121 206.75438 
L 327.458384 207.818686 
L 330.028858 209.30483 
L 338.841911 214.643747 
L 341.779595 216.022498 
L 344.717279 217.171529 
L 348.022174 218.219767 
L 351.327069 219.046919 
L 354.631963 219.650599 
L 357.936858 220.023681 
L 361.241753 220.166931 
L 364.546647 220.081041 
L 367.484332 219.792828 
L 370.422016 219.282754 
L 373.3597 218.528613 
L 375.930174 217.65097 
L 378.500647 216.557326 
L 381.071121 215.239504 
L 383.641595 213.69188 
L 386.579279 211.63891 
L 389.516963 209.287396 
L 392.821858 206.31817 
L 396.493963 202.701942 
L 409.346331 189.723564 
L 412.651226 186.822811 
L 415.2217 184.834747 
L 417.792173 183.137036 
L 419.995437 181.935639 
L 422.1987 180.987492 
L 424.401963 180.310169 
L 426.238015 179.964792 
L 428.074068 179.828367 
L 429.910121 179.90933 
L 431.746173 180.215172 
L 433.582226 180.752195 
L 435.418279 181.525227 
L 437.254331 182.537298 
L 439.090384 183.789275 
L 439.457594 184.068358 
L 439.457594 184.068358 
" style="fill:none;stroke:#1f77b4;stroke-linecap:square;stroke-width:2;"/>
   </g>
   <g id="line2d_39">
    <path clip-path="url(#pcd8c19d06b)" d="M 72.614281 65.891499 
L 85.099439 77.862021 
L 92.81086 84.959071 
L 100.522281 91.747854 
L 108.233702 98.248241 
L 117.046754 105.364356 
L 125.492596 111.907828 
L 133.938438 118.177942 
L 143.853122 125.241679 
L 154.869438 132.81014 
L 164.049701 138.887071 
L 171.393912 143.491754 
L 179.839754 148.50952 
L 189.387227 153.928704 
L 199.669122 159.507435 
L 208.114964 163.838641 
L 215.826385 167.546323 
L 224.272227 171.364388 
L 233.08528 175.103479 
L 240.42949 178.004187 
L 246.304859 180.08404 
L 252.180227 181.919766 
L 261.727701 184.618255 
L 269.806332 186.706546 
L 275.681701 188.010785 
L 280.455437 188.863412 
L 284.861964 189.424383 
L 288.534069 189.668625 
L 291.838964 189.655788 
L 294.776648 189.408222 
L 297.347121 188.971222 
L 300.284806 188.231506 
L 303.956911 187.049865 
L 310.5667 184.87441 
L 313.504385 184.185329 
L 316.074858 183.809822 
L 318.278121 183.700213 
L 320.481384 183.829018 
L 322.317437 184.151925 
L 324.15349 184.694516 
L 326.356753 185.615952 
L 328.560016 186.784593 
L 331.4977 188.608546 
L 337.005858 192.088413 
L 339.943542 193.622327 
L 342.881226 194.902613 
L 345.818911 195.947846 
L 349.123805 196.885233 
L 352.4287 197.600011 
L 355.733595 198.085059 
L 359.03849 198.33696 
L 362.343384 198.361047 
L 365.648279 198.152524 
L 368.585963 197.750839 
L 371.523647 197.12513 
L 374.461332 196.255851 
L 377.399016 195.124925 
L 379.969489 193.910977 
L 382.907174 192.260346 
L 385.844858 190.326617 
L 388.782542 188.114531 
L 392.087437 185.318882 
L 395.759542 181.901909 
L 403.470963 174.283686 
L 408.2447 169.768645 
L 411.549594 166.911501 
L 414.487279 164.665688 
L 417.057752 163.000002 
L 419.261015 161.824515 
L 421.464279 160.904167 
L 423.300331 160.347641 
L 425.136384 159.995835 
L 426.972436 159.861339 
L 428.808489 159.956638 
L 430.644542 160.293984 
L 432.480594 160.885241 
L 434.316647 161.741709 
L 436.1527 162.873921 
L 437.988752 164.291402 
L 439.457594 165.636375 
L 439.457594 165.636375 
" style="fill:none;stroke:#1f77b4;stroke-linecap:square;stroke-width:2;"/>
   </g>
   <g id="line2d_40">
    <path clip-path="url(#pcd8c19d06b)" d="M 72.614281 55.856993 
L 85.466649 67.475374 
L 93.545281 74.467693 
L 101.256702 80.84129 
L 108.968123 86.932207 
L 117.413965 93.306004 
L 125.492596 99.131579 
L 133.938438 104.944829 
L 143.853122 111.470687 
L 154.135017 117.974281 
L 163.31528 123.543891 
L 171.026701 127.962609 
L 179.105333 132.324755 
L 188.285596 137.029284 
L 199.669122 142.587779 
L 207.747754 146.303834 
L 215.459175 149.607881 
L 224.272227 153.136503 
L 233.45249 156.565963 
L 240.796701 159.101652 
L 246.672069 160.905267 
L 252.914648 162.582819 
L 263.930964 165.253907 
L 272.009595 167.008171 
L 277.884964 168.067557 
L 282.658701 168.718155 
L 286.698016 169.061886 
L 290.002911 169.141285 
L 292.940595 169.005025 
L 295.511069 168.681687 
L 298.081543 168.135315 
L 301.019227 167.2688 
L 305.058542 165.800674 
L 310.19949 163.939878 
L 313.137174 163.123105 
L 315.707648 162.632546 
L 317.910911 162.423415 
L 320.114174 162.453526 
L 321.950227 162.696217 
L 323.786279 163.165953 
L 325.622332 163.856434 
L 327.825595 164.937128 
L 330.396069 166.463579 
L 338.10749 171.277313 
L 341.045174 172.713449 
L 343.982858 173.89553 
L 346.920542 174.848703 
L 350.225437 175.694442 
L 353.530332 176.313039 
L 356.835226 176.696565 
L 360.140121 176.844512 
L 363.445016 176.763384 
L 366.3827 176.489088 
L 369.320384 176.006317 
L 372.258068 175.297951 
L 375.195753 174.347813 
L 378.133437 173.142263 
L 381.071121 171.672495 
L 384.008805 169.934539 
L 386.946489 167.93062 
L 389.884174 165.672063 
L 393.189068 162.862282 
L 397.595595 158.790494 
L 406.775858 150.193279 
L 410.447963 147.090902 
L 413.385647 144.892926 
L 415.956121 143.256674 
L 418.159384 142.105694 
L 420.362647 141.210896 
L 422.1987 140.677851 
L 424.034752 140.352965 
L 425.870805 140.250455 
L 427.706858 140.384722 
L 429.54291 140.770259 
L 431.378963 141.421546 
L 433.215015 142.35292 
L 435.051068 143.578424 
L 436.887121 145.111631 
L 438.723173 146.965441 
L 439.457594 147.799456 
L 439.457594 147.799456 
" style="fill:none;stroke:#1f77b4;stroke-linecap:square;stroke-width:2;"/>
   </g>
   <g id="line2d_41">
    <path clip-path="url(#pcd8c19d06b)" d="M 72.614281 45.975941 
L 85.099439 56.678475 
L 93.17807 63.303766 
L 100.889491 69.330918 
L 108.600912 75.076458 
L 116.679544 80.801824 
L 124.390965 86.001188 
L 132.469596 91.179014 
L 141.649859 96.779555 
L 151.197333 102.364255 
L 160.744806 107.693125 
L 168.823438 111.94258 
L 176.534859 115.742571 
L 184.980701 119.651419 
L 195.997017 124.46821 
L 205.17728 128.279837 
L 212.52149 131.091539 
L 220.967332 134.082277 
L 230.147596 137.099159 
L 238.593438 139.66304 
L 245.203227 141.442382 
L 251.445806 142.889401 
L 261.727701 144.992316 
L 271.275174 146.756312 
L 277.884964 147.76075 
L 283.025911 148.330595 
L 287.065227 148.583131 
L 290.370122 148.591191 
L 293.307806 148.385124 
L 295.878279 147.987708 
L 298.448753 147.355311 
L 301.386437 146.38519 
L 305.425753 144.780279 
L 310.19949 142.91919 
L 313.137174 142.025768 
L 315.707648 141.476021 
L 317.910911 141.222593 
L 320.114174 141.214825 
L 321.950227 141.431166 
L 323.786279 141.87951 
L 325.622332 142.553428 
L 327.825595 143.6201 
L 330.396069 145.137099 
L 338.10749 149.944596 
L 341.045174 151.379107 
L 343.982858 152.558741 
L 346.920542 153.508151 
L 350.225437 154.347331 
L 353.530332 154.956275 
L 356.835226 155.326474 
L 360.140121 155.456749 
L 363.445016 155.353022 
L 366.3827 155.055404 
L 369.320384 154.54821 
L 372.258068 153.816911 
L 375.195753 152.848775 
L 378.133437 151.633552 
L 381.071121 150.164252 
L 384.008805 148.438693 
L 386.946489 146.461132 
L 390.251384 143.95243 
L 393.923489 140.864082 
L 399.064437 136.20289 
L 405.307016 130.584476 
L 408.979121 127.552549 
L 411.916805 125.385584 
L 414.487279 123.754222 
L 416.690542 122.602015 
L 418.893805 121.704395 
L 420.729858 121.168361 
L 422.56591 120.84053 
L 424.401963 120.735831 
L 426.238015 120.86952 
L 428.074068 121.257109 
L 429.910121 121.914279 
L 431.746173 122.856778 
L 433.582226 124.100294 
L 435.418279 125.660318 
L 437.254331 127.551964 
L 439.090384 129.789782 
L 439.457594 130.280113 
L 439.457594 130.280113 
" style="fill:none;stroke:#ff7f0e;stroke-linecap:square;stroke-width:2;"/>
   </g>
   <g id="line2d_42">
    <path clip-path="url(#pcd8c19d06b)" d="M 72.614281 36.17908 
L 84.732228 46.044834 
L 92.443649 52.045141 
L 100.15507 57.753709 
L 107.49928 62.928778 
L 115.210701 68.078518 
L 122.554912 72.724549 
L 130.266333 77.336458 
L 138.712175 82.112526 
L 148.259649 87.26913 
L 157.072701 91.783974 
L 165.151333 95.682261 
L 172.862754 99.165785 
L 180.574175 102.400144 
L 189.020017 105.692089 
L 202.239596 110.577404 
L 209.583806 113.057782 
L 217.295227 115.421696 
L 226.47549 118.013633 
L 236.022964 120.472785 
L 243.367174 122.144673 
L 249.976964 123.416458 
L 259.157227 124.922285 
L 270.540753 126.603973 
L 277.884964 127.485988 
L 283.393122 127.945936 
L 287.799648 128.1049 
L 291.104543 128.011657 
L 294.042227 127.698826 
L 296.6127 127.185827 
L 299.183174 126.430124 
L 302.120858 125.325876 
L 307.996227 122.778565 
L 311.301121 121.518038 
L 313.871595 120.75314 
L 316.442069 120.231752 
L 318.645332 120.023738 
L 320.481384 120.05191 
L 322.317437 120.293766 
L 324.15349 120.772272 
L 325.989542 121.473666 
L 328.192805 122.567416 
L 330.763279 124.103666 
L 337.740279 128.4613 
L 340.677963 129.926576 
L 343.615648 131.137012 
L 346.553332 132.114011 
L 349.858226 132.97802 
L 353.163121 133.609752 
L 356.468016 133.999622 
L 359.772911 134.144409 
L 363.077805 134.048826 
L 366.015489 133.755853 
L 368.953174 133.252775 
L 371.890858 132.527421 
L 374.828542 131.570217 
L 377.766226 130.374206 
L 380.70391 128.933726 
L 383.641595 127.247503 
L 386.579279 125.320702 
L 389.884174 122.883352 
L 393.556279 119.890716 
L 399.064437 115.060972 
L 404.572595 110.298294 
L 408.2447 107.396115 
L 411.182384 105.336269 
L 413.752858 103.798504 
L 415.956121 102.729396 
L 418.159384 101.922006 
L 419.995437 101.467107 
L 421.831489 101.226268 
L 423.667542 101.214885 
L 425.503594 101.44872 
L 427.339647 101.943834 
L 429.1757 102.716503 
L 431.011752 103.783122 
L 432.847805 105.160084 
L 434.683858 106.863641 
L 436.51991 108.909743 
L 438.355963 111.313839 
L 439.457594 112.934299 
L 439.457594 112.934299 
" style="fill:none;stroke:#1f77b4;stroke-linecap:square;stroke-width:2;"/>
   </g>
   <g id="line2d_43">
    <path clip-path="url(#pcd8c19d06b)" d="M 72.614281 26.42892 
L 83.997807 35.236404 
L 91.709228 40.930675 
L 99.053438 46.078454 
L 106.397649 50.970285 
L 113.741859 55.58645 
L 120.718859 59.722073 
L 128.06307 63.811242 
L 135.774491 67.846207 
L 145.689175 72.755965 
L 154.135017 76.697052 
L 162.213649 80.219253 
L 170.29228 83.496394 
L 177.636491 86.24229 
L 184.980701 88.753134 
L 197.098648 92.601509 
L 205.911701 95.227653 
L 212.888701 97.065201 
L 222.068964 99.228327 
L 231.616438 101.254809 
L 240.06228 102.835652 
L 247.03928 103.926849 
L 255.117911 104.947804 
L 269.439122 106.499306 
L 278.252174 107.255072 
L 284.494753 107.578667 
L 288.534069 107.598623 
L 291.838964 107.398825 
L 294.409437 107.039451 
L 296.979911 106.438981 
L 299.550385 105.588889 
L 302.488069 104.377325 
L 311.668332 100.358346 
L 314.238806 99.579209 
L 316.442069 99.117069 
L 318.645332 98.883634 
L 320.481384 98.894141 
L 322.317437 99.120346 
L 324.15349 99.584113 
L 325.989542 100.271567 
L 328.192805 101.349891 
L 330.763279 102.870375 
L 338.10749 107.399268 
L 341.045174 108.830125 
L 343.982858 110.0115 
L 346.920542 110.964815 
L 350.225437 111.805839 
L 353.530332 112.410738 
L 356.835226 112.769039 
L 360.140121 112.877136 
L 363.445016 112.738476 
L 366.3827 112.400441 
L 369.320384 111.847916 
L 372.258068 111.071663 
L 375.195753 110.066094 
L 378.133437 108.827885 
L 381.071121 107.353359 
L 384.008805 105.643478 
L 387.3137 103.448617 
L 390.618595 100.991956 
L 394.65791 97.708436 
L 405.674226 88.546942 
L 408.979121 86.182848 
L 411.549594 84.586927 
L 413.752858 83.438703 
L 415.956121 82.537915 
L 417.792173 81.998337 
L 419.628226 81.666518 
L 421.464279 81.557819 
L 423.300331 81.688021 
L 425.136384 82.073264 
L 426.972436 82.729977 
L 428.808489 83.674791 
L 430.644542 84.924432 
L 432.480594 86.495599 
L 434.316647 88.404818 
L 436.1527 90.668265 
L 437.988752 93.301571 
L 439.457594 95.684525 
L 439.457594 95.684525 
" style="fill:none;stroke:#1f77b4;stroke-linecap:square;stroke-width:2;"/>
   </g>
   <g id="line2d_44">
    <path clip-path="url(#pcd8c19d06b)" d="M 72.614281 16.70482 
L 83.630596 24.789699 
L 91.342017 30.171434 
L 98.686228 35.015896 
L 106.030438 39.601705 
L 113.007438 43.69469 
L 119.984438 47.527329 
L 126.961438 51.096451 
L 134.305649 54.602637 
L 143.485912 58.717238 
L 151.931754 62.271092 
L 159.643175 65.266788 
L 167.721806 68.155136 
L 175.066017 70.567538 
L 182.043017 72.624407 
L 190.488859 74.85588 
L 204.810069 78.418492 
L 211.419859 79.806524 
L 219.865701 81.336663 
L 229.780385 82.919004 
L 238.593438 84.111932 
L 246.304859 84.941616 
L 254.750701 85.619444 
L 270.907964 86.64447 
L 280.822648 87.083272 
L 286.698016 87.148562 
L 290.370122 86.985938 
L 293.307806 86.638483 
L 295.878279 86.099504 
L 298.448753 85.292773 
L 301.019227 84.253237 
L 304.691332 82.501969 
L 309.832279 80.050494 
L 312.769963 78.943521 
L 315.340437 78.232002 
L 317.5437 77.854439 
L 319.379753 77.732266 
L 321.215806 77.811186 
L 323.051858 78.117993 
L 324.887911 78.660629 
L 326.723963 79.416277 
L 328.927227 80.558145 
L 331.864911 82.355238 
L 337.005858 85.553673 
L 339.943542 87.076927 
L 342.881226 88.351106 
L 345.818911 89.390544 
L 349.123805 90.314595 
L 352.4287 91.002175 
L 355.733595 91.442426 
L 358.671279 91.619802 
L 361.608963 91.595792 
L 364.546647 91.370084 
L 367.484332 90.932693 
L 370.422016 90.274809 
L 373.3597 89.391445 
L 376.297384 88.282313 
L 379.235068 86.94636 
L 382.172753 85.382586 
L 385.477647 83.357374 
L 388.782542 81.0692 
L 392.821858 77.973194 
L 399.431647 72.536313 
L 403.838173 69.051426 
L 407.143068 66.696668 
L 410.080752 64.876619 
L 412.651226 63.563187 
L 414.854489 62.697293 
L 416.690542 62.188783 
L 418.526594 61.890721 
L 420.362647 61.818622 
L 422.1987 61.988424 
L 424.034752 62.416431 
L 425.870805 63.119237 
L 427.706858 64.113643 
L 429.54291 65.416548 
L 431.378963 67.044826 
L 433.215015 69.015176 
L 435.051068 71.343953 
L 436.887121 74.04696 
L 438.723173 77.139217 
L 439.457594 78.488279 
L 439.457594 78.488279 
" style="fill:none;stroke:#1f77b4;stroke-linecap:square;stroke-width:2;"/>
   </g>
   <g id="patch_3">
    <path d="M 54.272115 304.50101 
L 54.272115 3.00024 
" style="fill:none;stroke:#000000;stroke-linecap:square;stroke-linejoin:miter;stroke-width:0.8;"/>
   </g>
   <g id="patch_4">
    <path d="M 457.79976 304.50101 
L 457.79976 3.00024 
" style="fill:none;stroke:#000000;stroke-linecap:square;stroke-linejoin:miter;stroke-width:0.8;"/>
   </g>
   <g id="patch_5">
    <path d="M 54.272115 304.50101 
L 457.79976 304.50101 
" style="fill:none;stroke:#000000;stroke-linecap:square;stroke-linejoin:miter;stroke-width:0.8;"/>
   </g>
   <g id="patch_6">
    <path d="M 54.272115 3.00024 
L 457.79976 3.00024 
" style="fill:none;stroke:#000000;stroke-linecap:square;stroke-linejoin:miter;stroke-width:0.8;"/>
   </g>
   <g id="legend_1">
    <g id="patch_7">
     <path d="M 342.936322 34.749615 
L 450.79976 34.749615 
L 450.79976 10.00024 
L 342.936322 10.00024 
z
" style="fill:none;opacity:0;"/>
    </g>
    <g id="line2d_45">
     <path d="M 348.536322 21.338052 
L 376.536322 21.338052 
" style="fill:none;stroke:#ff7f0e;stroke-linecap:square;stroke-width:2;"/>
    </g>
    <g id="line2d_46"/>
    <g id="text_13">
     <!-- 60 phon -->
     <defs>
      <path d="M 54.890625 33.015625 
L 54.890625 0 
L 45.90625 0 
L 45.90625 32.71875 
Q 45.90625 40.484375 42.875 44.328125 
Q 39.84375 48.1875 33.796875 48.1875 
Q 26.515625 48.1875 22.3125 43.546875 
Q 18.109375 38.921875 18.109375 30.90625 
L 18.109375 0 
L 9.078125 0 
L 9.078125 75.984375 
L 18.109375 75.984375 
L 18.109375 46.1875 
Q 21.34375 51.125 25.703125 53.5625 
Q 30.078125 56 35.796875 56 
Q 45.21875 56 50.046875 50.171875 
Q 54.890625 44.34375 54.890625 33.015625 
z
" id="DejaVuSans-104"/>
     </defs>
     <g transform="translate(387.736322 26.238052)scale(0.14 -0.14)">
      <use xlink:href="#DejaVuSans-54"/>
      <use x="63.623047" xlink:href="#DejaVuSans-48"/>
      <use x="127.246094" xlink:href="#DejaVuSans-32"/>
      <use x="159.033203" xlink:href="#DejaVuSans-112"/>
      <use x="222.509766" xlink:href="#DejaVuSans-104"/>
      <use x="285.888672" xlink:href="#DejaVuSans-111"/>
      <use x="347.070312" xlink:href="#DejaVuSans-110"/>
     </g>
    </g>
   </g>
  </g>
 </g>
 <defs>
  <clipPath id="pcd8c19d06b">
   <rect height="301.50077" width="403.527645" x="54.272115" y="3.00024"/>
  </clipPath>
 </defs>
</svg>
