<?xml version="1.0" encoding="utf-8" standalone="no"?>
<!DOCTYPE svg PUBLIC "-//W3C//DTD SVG 1.1//EN"
  "http://www.w3.org/Graphics/SVG/1.1/DTD/svg11.dtd">
<!-- Created with matplotlib (https://matplotlib.org/) -->
<svg height="216pt" version="1.1" viewBox="0 0 460.8 216" width="460.8pt" xmlns="http://www.w3.org/2000/svg" xmlns:xlink="http://www.w3.org/1999/xlink">
 <defs>
  <style type="text/css">
*{stroke-linecap:butt;stroke-linejoin:round;}
  </style>
 </defs>
 <g id="figure_1">
  <g id="patch_1">
   <path d="M 0 216 
L 460.8 216 
L 460.8 0 
L 0 0 
z
" style="fill:none;"/>
  </g>
  <g id="axes_1">
   <g id="patch_2">
    <path d="M 20.549615 176.836635 
L 454.29976 176.836635 
L 454.29976 6.50024 
L 20.549615 6.50024 
z
" style="fill:none;"/>
   </g>
   <g id="matplotlib.axis_1">
    <g id="xtick_1">
     <g id="line2d_1">
      <defs>
       <path d="M 0 0 
L 0 3.5 
" id="m8043091ad3" style="stroke:#000000;stroke-width:0.8;"/>
      </defs>
      <g>
       <use style="stroke:#000000;stroke-width:0.8;" x="206.442534" xlink:href="#m8043091ad3" y="176.836635"/>
      </g>
     </g>
     <g id="text_1">
      <!-- 0 -->
      <defs>
       <path d="M 31.78125 66.40625 
Q 24.171875 66.40625 20.328125 58.90625 
Q 16.5 51.421875 16.5 36.375 
Q 16.5 21.390625 20.328125 13.890625 
Q 24.171875 6.390625 31.78125 6.390625 
Q 39.453125 6.390625 43.28125 13.890625 
Q 47.125 21.390625 47.125 36.375 
Q 47.125 51.421875 43.28125 58.90625 
Q 39.453125 66.40625 31.78125 66.40625 
z
M 31.78125 74.21875 
Q 44.046875 74.21875 50.515625 64.515625 
Q 56.984375 54.828125 56.984375 36.375 
Q 56.984375 17.96875 50.515625 8.265625 
Q 44.046875 -1.421875 31.78125 -1.421875 
Q 19.53125 -1.421875 13.0625 8.265625 
Q 6.59375 17.96875 6.59375 36.375 
Q 6.59375 54.828125 13.0625 64.515625 
Q 19.53125 74.21875 31.78125 74.21875 
z
" id="DejaVuSans-48"/>
      </defs>
      <g transform="translate(202.625034 192.95476)scale(0.12 -0.12)">
       <use xlink:href="#DejaVuSans-48"/>
      </g>
     </g>
    </g>
    <g id="xtick_2">
     <g id="line2d_2">
      <g>
       <use style="stroke:#000000;stroke-width:0.8;" x="225.031826" xlink:href="#m8043091ad3" y="176.836635"/>
      </g>
     </g>
     <g id="text_2">
      <!-- $k$ -->
      <defs>
       <path d="M 18.3125 75.984375 
L 27.296875 75.984375 
L 18.703125 31.6875 
L 49.515625 54.6875 
L 61.1875 54.6875 
L 26.8125 28.515625 
L 51.90625 0 
L 41.015625 0 
L 17.671875 26.703125 
L 12.5 0 
L 3.515625 0 
z
" id="DejaVuSans-Oblique-107"/>
      </defs>
      <g transform="translate(221.551826 192.95476)scale(0.12 -0.12)">
       <use transform="translate(0 0.015625)" xlink:href="#DejaVuSans-Oblique-107"/>
      </g>
     </g>
    </g>
    <g id="xtick_3">
     <g id="line2d_3">
      <g>
       <use style="stroke:#000000;stroke-width:0.8;" x="268.406841" xlink:href="#m8043091ad3" y="176.836635"/>
      </g>
     </g>
     <g id="text_3">
      <!-- $d$ -->
      <defs>
       <path d="M 41.796875 8.203125 
Q 38.1875 3.46875 33.25 1.015625 
Q 28.328125 -1.421875 22.3125 -1.421875 
Q 14.109375 -1.421875 9.34375 4.171875 
Q 4.59375 9.765625 4.59375 19.484375 
Q 4.59375 27.59375 7.46875 34.9375 
Q 10.359375 42.28125 15.828125 48.09375 
Q 19.4375 51.953125 23.96875 53.96875 
Q 28.515625 56 33.5 56 
Q 38.765625 56 42.796875 53.453125 
Q 46.828125 50.921875 49.03125 46.1875 
L 54.890625 75.984375 
L 63.921875 75.984375 
L 49.125 0 
L 40.09375 0 
z
M 13.921875 21.09375 
Q 13.921875 14.015625 17.109375 10.0625 
Q 20.3125 6.109375 25.984375 6.109375 
Q 30.171875 6.109375 33.765625 8.125 
Q 37.359375 10.15625 40.09375 14.109375 
Q 42.96875 18.21875 44.625 23.578125 
Q 46.296875 28.953125 46.296875 34.1875 
Q 46.296875 40.96875 43.09375 44.765625 
Q 39.890625 48.578125 34.28125 48.578125 
Q 30.03125 48.578125 26.359375 46.578125 
Q 22.703125 44.578125 20.125 40.828125 
Q 17.28125 36.765625 15.59375 31.390625 
Q 13.921875 26.03125 13.921875 21.09375 
z
" id="DejaVuSans-Oblique-100"/>
      </defs>
      <g transform="translate(264.566841 192.95476)scale(0.12 -0.12)">
       <use transform="translate(0 0.015625)" xlink:href="#DejaVuSans-Oblique-100"/>
      </g>
     </g>
    </g>
    <g id="text_4">
     <!-- $\Psi$ -->
     <defs>
      <path d="M 34.46875 0 
Q 34.515625 6.546875 34.46875 15.140625 
Q 24.03125 15.140625 14.84375 25.390625 
Q 5.859375 35.359375 5.609375 52.9375 
L 5.609375 72.90625 
L 16.015625 72.90625 
L 16.015625 52.9375 
Q 16.015625 39.15625 22.359375 31.15625 
Q 27.734375 24.3125 34.46875 23.640625 
L 34.46875 72.90625 
L 44.34375 72.90625 
L 44.34375 23.640625 
Q 51.078125 24.3125 56.453125 31.15625 
Q 62.796875 39.15625 62.796875 52.9375 
L 62.796875 72.90625 
L 73.1875 72.90625 
L 73.1875 52.9375 
Q 72.953125 35.359375 63.96875 25.390625 
Q 54.78125 15.140625 44.34375 15.140625 
Q 44.28125 11.625 44.34375 0 
z
" id="DejaVuSans-936"/>
     </defs>
     <g transform="translate(231.894688 210.088198)scale(0.14 -0.14)">
      <use transform="translate(0 0.09375)" xlink:href="#DejaVuSans-936"/>
     </g>
    </g>
   </g>
   <g id="matplotlib.axis_2">
    <g id="text_5">
     <!-- Probability density -->
     <defs>
      <path d="M 19.671875 64.796875 
L 19.671875 37.40625 
L 32.078125 37.40625 
Q 38.96875 37.40625 42.71875 40.96875 
Q 46.484375 44.53125 46.484375 51.125 
Q 46.484375 57.671875 42.71875 61.234375 
Q 38.96875 64.796875 32.078125 64.796875 
z
M 9.8125 72.90625 
L 32.078125 72.90625 
Q 44.34375 72.90625 50.609375 67.359375 
Q 56.890625 61.8125 56.890625 51.125 
Q 56.890625 40.328125 50.609375 34.8125 
Q 44.34375 29.296875 32.078125 29.296875 
L 19.671875 29.296875 
L 19.671875 0 
L 9.8125 0 
z
" id="DejaVuSans-80"/>
      <path d="M 41.109375 46.296875 
Q 39.59375 47.171875 37.8125 47.578125 
Q 36.03125 48 33.890625 48 
Q 26.265625 48 22.1875 43.046875 
Q 18.109375 38.09375 18.109375 28.8125 
L 18.109375 0 
L 9.078125 0 
L 9.078125 54.6875 
L 18.109375 54.6875 
L 18.109375 46.1875 
Q 20.953125 51.171875 25.484375 53.578125 
Q 30.03125 56 36.53125 56 
Q 37.453125 56 38.578125 55.875 
Q 39.703125 55.765625 41.0625 55.515625 
z
" id="DejaVuSans-114"/>
      <path d="M 30.609375 48.390625 
Q 23.390625 48.390625 19.1875 42.75 
Q 14.984375 37.109375 14.984375 27.296875 
Q 14.984375 17.484375 19.15625 11.84375 
Q 23.34375 6.203125 30.609375 6.203125 
Q 37.796875 6.203125 41.984375 11.859375 
Q 46.1875 17.53125 46.1875 27.296875 
Q 46.1875 37.015625 41.984375 42.703125 
Q 37.796875 48.390625 30.609375 48.390625 
z
M 30.609375 56 
Q 42.328125 56 49.015625 48.375 
Q 55.71875 40.765625 55.71875 27.296875 
Q 55.71875 13.875 49.015625 6.21875 
Q 42.328125 -1.421875 30.609375 -1.421875 
Q 18.84375 -1.421875 12.171875 6.21875 
Q 5.515625 13.875 5.515625 27.296875 
Q 5.515625 40.765625 12.171875 48.375 
Q 18.84375 56 30.609375 56 
z
" id="DejaVuSans-111"/>
      <path d="M 48.6875 27.296875 
Q 48.6875 37.203125 44.609375 42.84375 
Q 40.53125 48.484375 33.40625 48.484375 
Q 26.265625 48.484375 22.1875 42.84375 
Q 18.109375 37.203125 18.109375 27.296875 
Q 18.109375 17.390625 22.1875 11.75 
Q 26.265625 6.109375 33.40625 6.109375 
Q 40.53125 6.109375 44.609375 11.75 
Q 48.6875 17.390625 48.6875 27.296875 
z
M 18.109375 46.390625 
Q 20.953125 51.265625 25.265625 53.625 
Q 29.59375 56 35.59375 56 
Q 45.5625 56 51.78125 48.09375 
Q 58.015625 40.1875 58.015625 27.296875 
Q 58.015625 14.40625 51.78125 6.484375 
Q 45.5625 -1.421875 35.59375 -1.421875 
Q 29.59375 -1.421875 25.265625 0.953125 
Q 20.953125 3.328125 18.109375 8.203125 
L 18.109375 0 
L 9.078125 0 
L 9.078125 75.984375 
L 18.109375 75.984375 
z
" id="DejaVuSans-98"/>
      <path d="M 34.28125 27.484375 
Q 23.390625 27.484375 19.1875 25 
Q 14.984375 22.515625 14.984375 16.5 
Q 14.984375 11.71875 18.140625 8.90625 
Q 21.296875 6.109375 26.703125 6.109375 
Q 34.1875 6.109375 38.703125 11.40625 
Q 43.21875 16.703125 43.21875 25.484375 
L 43.21875 27.484375 
z
M 52.203125 31.203125 
L 52.203125 0 
L 43.21875 0 
L 43.21875 8.296875 
Q 40.140625 3.328125 35.546875 0.953125 
Q 30.953125 -1.421875 24.3125 -1.421875 
Q 15.921875 -1.421875 10.953125 3.296875 
Q 6 8.015625 6 15.921875 
Q 6 25.140625 12.171875 29.828125 
Q 18.359375 34.515625 30.609375 34.515625 
L 43.21875 34.515625 
L 43.21875 35.40625 
Q 43.21875 41.609375 39.140625 45 
Q 35.0625 48.390625 27.6875 48.390625 
Q 23 48.390625 18.546875 47.265625 
Q 14.109375 46.140625 10.015625 43.890625 
L 10.015625 52.203125 
Q 14.9375 54.109375 19.578125 55.046875 
Q 24.21875 56 28.609375 56 
Q 40.484375 56 46.34375 49.84375 
Q 52.203125 43.703125 52.203125 31.203125 
z
" id="DejaVuSans-97"/>
      <path d="M 9.421875 54.6875 
L 18.40625 54.6875 
L 18.40625 0 
L 9.421875 0 
z
M 9.421875 75.984375 
L 18.40625 75.984375 
L 18.40625 64.59375 
L 9.421875 64.59375 
z
" id="DejaVuSans-105"/>
      <path d="M 9.421875 75.984375 
L 18.40625 75.984375 
L 18.40625 0 
L 9.421875 0 
z
" id="DejaVuSans-108"/>
      <path d="M 18.3125 70.21875 
L 18.3125 54.6875 
L 36.8125 54.6875 
L 36.8125 47.703125 
L 18.3125 47.703125 
L 18.3125 18.015625 
Q 18.3125 11.328125 20.140625 9.421875 
Q 21.96875 7.515625 27.59375 7.515625 
L 36.8125 7.515625 
L 36.8125 0 
L 27.59375 0 
Q 17.1875 0 13.234375 3.875 
Q 9.28125 7.765625 9.28125 18.015625 
L 9.28125 47.703125 
L 2.6875 47.703125 
L 2.6875 54.6875 
L 9.28125 54.6875 
L 9.28125 70.21875 
z
" id="DejaVuSans-116"/>
      <path d="M 32.171875 -5.078125 
Q 28.375 -14.84375 24.75 -17.8125 
Q 21.140625 -20.796875 15.09375 -20.796875 
L 7.90625 -20.796875 
L 7.90625 -13.28125 
L 13.1875 -13.28125 
Q 16.890625 -13.28125 18.9375 -11.515625 
Q 21 -9.765625 23.484375 -3.21875 
L 25.09375 0.875 
L 2.984375 54.6875 
L 12.5 54.6875 
L 29.59375 11.921875 
L 46.6875 54.6875 
L 56.203125 54.6875 
z
" id="DejaVuSans-121"/>
      <path id="DejaVuSans-32"/>
      <path d="M 45.40625 46.390625 
L 45.40625 75.984375 
L 54.390625 75.984375 
L 54.390625 0 
L 45.40625 0 
L 45.40625 8.203125 
Q 42.578125 3.328125 38.25 0.953125 
Q 33.9375 -1.421875 27.875 -1.421875 
Q 17.96875 -1.421875 11.734375 6.484375 
Q 5.515625 14.40625 5.515625 27.296875 
Q 5.515625 40.1875 11.734375 48.09375 
Q 17.96875 56 27.875 56 
Q 33.9375 56 38.25 53.625 
Q 42.578125 51.265625 45.40625 46.390625 
z
M 14.796875 27.296875 
Q 14.796875 17.390625 18.875 11.75 
Q 22.953125 6.109375 30.078125 6.109375 
Q 37.203125 6.109375 41.296875 11.75 
Q 45.40625 17.390625 45.40625 27.296875 
Q 45.40625 37.203125 41.296875 42.84375 
Q 37.203125 48.484375 30.078125 48.484375 
Q 22.953125 48.484375 18.875 42.84375 
Q 14.796875 37.203125 14.796875 27.296875 
z
" id="DejaVuSans-100"/>
      <path d="M 56.203125 29.59375 
L 56.203125 25.203125 
L 14.890625 25.203125 
Q 15.484375 15.921875 20.484375 11.0625 
Q 25.484375 6.203125 34.421875 6.203125 
Q 39.59375 6.203125 44.453125 7.46875 
Q 49.3125 8.734375 54.109375 11.28125 
L 54.109375 2.78125 
Q 49.265625 0.734375 44.1875 -0.34375 
Q 39.109375 -1.421875 33.890625 -1.421875 
Q 20.796875 -1.421875 13.15625 6.1875 
Q 5.515625 13.8125 5.515625 26.8125 
Q 5.515625 40.234375 12.765625 48.109375 
Q 20.015625 56 32.328125 56 
Q 43.359375 56 49.78125 48.890625 
Q 56.203125 41.796875 56.203125 29.59375 
z
M 47.21875 32.234375 
Q 47.125 39.59375 43.09375 43.984375 
Q 39.0625 48.390625 32.421875 48.390625 
Q 24.90625 48.390625 20.390625 44.140625 
Q 15.875 39.890625 15.1875 32.171875 
z
" id="DejaVuSans-101"/>
      <path d="M 54.890625 33.015625 
L 54.890625 0 
L 45.90625 0 
L 45.90625 32.71875 
Q 45.90625 40.484375 42.875 44.328125 
Q 39.84375 48.1875 33.796875 48.1875 
Q 26.515625 48.1875 22.3125 43.546875 
Q 18.109375 38.921875 18.109375 30.90625 
L 18.109375 0 
L 9.078125 0 
L 9.078125 54.6875 
L 18.109375 54.6875 
L 18.109375 46.1875 
Q 21.34375 51.125 25.703125 53.5625 
Q 30.078125 56 35.796875 56 
Q 45.21875 56 50.046875 50.171875 
Q 54.890625 44.34375 54.890625 33.015625 
z
" id="DejaVuSans-110"/>
      <path d="M 44.28125 53.078125 
L 44.28125 44.578125 
Q 40.484375 46.53125 36.375 47.5 
Q 32.28125 48.484375 27.875 48.484375 
Q 21.1875 48.484375 17.84375 46.4375 
Q 14.5 44.390625 14.5 40.28125 
Q 14.5 37.15625 16.890625 35.375 
Q 19.28125 33.59375 26.515625 31.984375 
L 29.59375 31.296875 
Q 39.15625 29.25 43.1875 25.515625 
Q 47.21875 21.78125 47.21875 15.09375 
Q 47.21875 7.46875 41.1875 3.015625 
Q 35.15625 -1.421875 24.609375 -1.421875 
Q 20.21875 -1.421875 15.453125 -0.5625 
Q 10.6875 0.296875 5.421875 2 
L 5.421875 11.28125 
Q 10.40625 8.6875 15.234375 7.390625 
Q 20.0625 6.109375 24.8125 6.109375 
Q 31.15625 6.109375 34.5625 8.28125 
Q 37.984375 10.453125 37.984375 14.40625 
Q 37.984375 18.0625 35.515625 20.015625 
Q 33.0625 21.96875 24.703125 23.78125 
L 21.578125 24.515625 
Q 13.234375 26.265625 9.515625 29.90625 
Q 5.8125 33.546875 5.8125 39.890625 
Q 5.8125 47.609375 11.28125 51.796875 
Q 16.75 56 26.8125 56 
Q 31.78125 56 36.171875 55.265625 
Q 40.578125 54.546875 44.28125 53.078125 
z
" id="DejaVuSans-115"/>
     </defs>
     <g transform="translate(13.638053 156.83625)rotate(-90)scale(0.14 -0.14)">
      <use xlink:href="#DejaVuSans-80"/>
      <use x="60.287109" xlink:href="#DejaVuSans-114"/>
      <use x="101.369141" xlink:href="#DejaVuSans-111"/>
      <use x="162.550781" xlink:href="#DejaVuSans-98"/>
      <use x="226.027344" xlink:href="#DejaVuSans-97"/>
      <use x="287.306641" xlink:href="#DejaVuSans-98"/>
      <use x="350.783203" xlink:href="#DejaVuSans-105"/>
      <use x="378.566406" xlink:href="#DejaVuSans-108"/>
      <use x="406.349609" xlink:href="#DejaVuSans-105"/>
      <use x="434.132812" xlink:href="#DejaVuSans-116"/>
      <use x="473.341797" xlink:href="#DejaVuSans-121"/>
      <use x="532.521484" xlink:href="#DejaVuSans-32"/>
      <use x="564.308594" xlink:href="#DejaVuSans-100"/>
      <use x="627.785156" xlink:href="#DejaVuSans-101"/>
      <use x="689.308594" xlink:href="#DejaVuSans-110"/>
      <use x="752.6875" xlink:href="#DejaVuSans-115"/>
      <use x="804.787109" xlink:href="#DejaVuSans-105"/>
      <use x="832.570312" xlink:href="#DejaVuSans-116"/>
      <use x="871.779297" xlink:href="#DejaVuSans-121"/>
     </g>
    </g>
   </g>
   <g id="line2d_4">
    <path clip-path="url(#p1f778a3896)" d="M 20.549615 175.034476 
L 27.924105 174.279368 
L 34.474387 173.388262 
L 40.417358 172.357281 
L 45.883157 171.185071 
L 50.958541 169.87221 
L 55.773649 168.398308 
L 60.328481 166.774104 
L 64.709796 164.978089 
L 68.960972 162.995821 
L 73.082011 160.830534 
L 77.116291 158.461953 
L 81.107191 155.86181 
L 85.054712 153.025516 
L 89.002233 149.91517 
L 92.949754 146.521815 
L 96.940655 142.796906 
L 100.974934 138.727133 
L 105.095973 134.253808 
L 109.347149 129.309135 
L 113.771843 123.817606 
L 118.413434 117.698665 
L 123.40206 110.747422 
L 128.911237 102.678262 
L 135.374761 92.797845 
L 144.83146 77.881214 
L 155.806436 60.662277 
L 161.662648 51.893648 
L 166.477757 45.074863 
L 170.685554 39.492826 
L 174.502937 34.792192 
L 178.016664 30.814059 
L 181.270116 27.460218 
L 184.35005 24.601496 
L 187.256466 22.204424 
L 190.032745 20.201582 
L 192.678885 18.564489 
L 195.238267 17.241924 
L 197.71089 16.214159 
L 200.096755 15.459964 
L 202.43924 14.949704 
L 204.738345 14.672836 
L 207.037451 14.61897 
L 209.336557 14.78833 
L 211.635662 15.180217 
L 213.978148 15.806685 
L 216.364012 16.677716 
L 218.793256 17.802174 
L 221.309258 19.214066 
L 223.912019 20.932176 
L 226.644918 23.008418 
L 229.507956 25.470013 
L 232.501131 28.340739 
L 235.711203 31.735762 
L 239.138172 35.693233 
L 242.825417 40.298022 
L 246.903076 45.757229 
L 251.457908 52.237224 
L 256.836948 60.292287 
L 263.907782 71.310728 
L 282.344007 100.223574 
L 288.373737 109.153563 
L 293.666018 116.601316 
L 298.524505 123.0613 
L 303.122717 128.808562 
L 307.504031 133.932645 
L 311.755208 138.564729 
L 315.876246 142.730686 
L 319.953906 146.538471 
L 323.988185 150.001818 
L 327.979086 153.137283 
L 331.969986 155.993032 
L 336.004266 158.607252 
L 340.081925 160.98498 
L 344.246343 163.154791 
L 348.497519 165.118473 
L 352.878834 166.896882 
L 357.433666 168.504454 
L 362.205395 169.950485 
L 367.2374 171.240491 
L 372.57306 172.377646 
L 378.342514 173.37772 
L 384.675899 174.245277 
L 391.703354 174.978569 
L 399.685155 175.582915 
L 409.055095 176.063189 
L 420.594003 176.423153 
L 435.993673 176.666801 
L 454.29976 176.782215 
L 454.29976 176.782215 
" style="fill:none;stroke:#1f77b4;stroke-linecap:square;stroke-width:3;"/>
   </g>
   <g id="line2d_5">
    <path clip-path="url(#p1f778a3896)" d="M 20.549615 176.782215 
L 45.66626 176.582986 
L 60.501999 176.25378 
L 71.520354 175.79479 
L 80.456501 175.206237 
L 88.091267 174.485352 
L 94.815066 173.631226 
L 100.888176 172.638631 
L 106.440733 171.509309 
L 111.602876 170.236199 
L 116.461363 168.812314 
L 121.102954 167.221335 
L 125.527648 165.471415 
L 129.822204 163.533947 
L 133.986622 161.411209 
L 138.064281 159.082699 
L 142.055181 156.548976 
L 146.046082 153.749626 
L 149.993603 150.707744 
L 153.941124 147.384845 
L 157.932024 143.732519 
L 161.966304 139.736701 
L 166.087342 135.338567 
L 170.338519 130.469935 
L 174.719834 125.109271 
L 179.318045 119.126573 
L 184.219912 112.376986 
L 189.598951 104.58081 
L 195.758819 95.246853 
L 203.957517 82.386034 
L 218.316083 59.82828 
L 224.042157 51.289977 
L 228.770507 44.625502 
L 232.934925 39.129188 
L 236.708928 34.507413 
L 240.179276 30.600269 
L 243.432728 27.266653 
L 246.469282 24.466205 
L 249.375699 22.085152 
L 252.108598 20.127144 
L 254.754739 18.501446 
L 257.270741 17.210271 
L 259.743364 16.189355 
L 262.129229 15.44188 
L 264.471714 14.938296 
L 266.770819 14.668027 
L 269.069925 14.620782 
L 271.369031 14.796754 
L 273.668136 15.195218 
L 276.010621 15.828325 
L 278.396486 16.706022 
L 280.82573 17.837139 
L 283.341732 19.255759 
L 285.944493 20.980617 
L 288.677392 23.063675 
L 291.54043 25.532076 
L 294.533605 28.409513 
L 297.743677 31.811229 
L 301.170646 35.775225 
L 304.857891 40.386272 
L 308.93555 45.851433 
L 313.533761 52.400268 
L 318.912801 60.462978 
L 326.070394 71.623999 
L 344.116205 99.932441 
L 350.145935 108.875865 
L 355.438216 116.338158 
L 360.296703 122.813234 
L 364.894915 128.575906 
L 369.276229 133.71536 
L 373.527406 138.362719 
L 377.648444 142.543595 
L 381.726103 146.366052 
L 385.760383 149.843661 
L 389.751284 152.992844 
L 393.742184 155.86181 
L 397.776464 158.488785 
L 401.854123 160.87871 
L 406.018541 163.060197 
L 410.269717 165.034946 
L 414.651032 166.823836 
L 419.205864 168.441309 
L 423.977593 169.896642 
L 429.009598 171.195315 
L 434.345258 172.340449 
L 440.114712 173.347859 
L 446.404718 174.216813 
L 453.388794 174.953418 
L 454.29976 175.034476 
L 454.29976 175.034476 
" style="fill:none;stroke:#ff7f0e;stroke-linecap:square;stroke-width:3;"/>
   </g>
   <g id="line2d_6">
    <path clip-path="url(#p1f778a3896)" d="M 225.031826 176.836635 
L 225.031826 6.50024 
" style="fill:none;stroke:#000000;stroke-linecap:square;stroke-width:3;"/>
   </g>
   <g id="patch_3">
    <path d="M 20.549615 176.836635 
L 20.549615 6.50024 
" style="fill:none;stroke:#000000;stroke-linecap:square;stroke-linejoin:miter;stroke-width:0.8;"/>
   </g>
   <g id="patch_4">
    <path d="M 20.549615 176.836635 
L 454.29976 176.836635 
" style="fill:none;stroke:#000000;stroke-linecap:square;stroke-linejoin:miter;stroke-width:0.8;"/>
   </g>
   <g id="legend_1">
    <g id="patch_5">
     <path d="M 363.99976 58.79899 
L 444.49976 58.79899 
Q 447.29976 58.79899 447.29976 55.99899 
L 447.29976 16.30024 
Q 447.29976 13.50024 444.49976 13.50024 
L 363.99976 13.50024 
Q 361.19976 13.50024 361.19976 16.30024 
L 361.19976 55.99899 
Q 361.19976 58.79899 363.99976 58.79899 
z
" style="fill:#ffffff;opacity:0.8;stroke:#cccccc;stroke-linejoin:miter;"/>
    </g>
    <g id="line2d_7">
     <path d="M 366.79976 24.838053 
L 394.79976 24.838053 
" style="fill:none;stroke:#1f77b4;stroke-linecap:square;stroke-width:3;"/>
    </g>
    <g id="line2d_8"/>
    <g id="text_6">
     <!-- $X=0$ -->
     <defs>
      <path d="M 13.71875 72.90625 
L 23.6875 72.90625 
L 36.1875 46.578125 
L 58.796875 72.90625 
L 70.3125 72.90625 
L 40.28125 38.09375 
L 58.40625 0 
L 48.484375 0 
L 33.796875 30.71875 
L 7.171875 0 
L -4.296875 0 
L 29.78125 39.203125 
z
" id="DejaVuSans-Oblique-88"/>
      <path d="M 10.59375 45.40625 
L 73.1875 45.40625 
L 73.1875 37.203125 
L 10.59375 37.203125 
z
M 10.59375 25.484375 
L 73.1875 25.484375 
L 73.1875 17.1875 
L 10.59375 17.1875 
z
" id="DejaVuSans-61"/>
     </defs>
     <g transform="translate(405.99976 29.738053)scale(0.14 -0.14)">
      <use transform="translate(0 0.78125)" xlink:href="#DejaVuSans-Oblique-88"/>
      <use transform="translate(87.988281 0.78125)" xlink:href="#DejaVuSans-61"/>
      <use transform="translate(191.259766 0.78125)" xlink:href="#DejaVuSans-48"/>
     </g>
    </g>
    <g id="line2d_9">
     <path d="M 366.79976 45.387428 
L 394.79976 45.387428 
" style="fill:none;stroke:#ff7f0e;stroke-linecap:square;stroke-width:3;"/>
    </g>
    <g id="line2d_10"/>
    <g id="text_7">
     <!-- $X=1$ -->
     <defs>
      <path d="M 12.40625 8.296875 
L 28.515625 8.296875 
L 28.515625 63.921875 
L 10.984375 60.40625 
L 10.984375 69.390625 
L 28.421875 72.90625 
L 38.28125 72.90625 
L 38.28125 8.296875 
L 54.390625 8.296875 
L 54.390625 0 
L 12.40625 0 
z
" id="DejaVuSans-49"/>
     </defs>
     <g transform="translate(405.99976 50.287428)scale(0.14 -0.14)">
      <use transform="translate(0 0.09375)" xlink:href="#DejaVuSans-Oblique-88"/>
      <use transform="translate(87.988281 0.09375)" xlink:href="#DejaVuSans-61"/>
      <use transform="translate(191.259766 0.09375)" xlink:href="#DejaVuSans-49"/>
     </g>
    </g>
   </g>
  </g>
 </g>
 <defs>
  <clipPath id="p1f778a3896">
   <rect height="170.336395" width="433.750145" x="20.549615" y="6.50024"/>
  </clipPath>
 </defs>
</svg>
