<?xml version="1.0" encoding="UTF-8" standalone="no"?>
<!DOCTYPE svg PUBLIC "-//W3C//DTD SVG 1.1//EN"
 "http://www.w3.org/Graphics/SVG/1.1/DTD/svg11.dtd">
<!-- Generated by graphviz version 2.40.1 (20161225.0304)
 -->
<!-- Title: ../images/hs&#45;1 Pages: 1 -->
<svg width="283pt" height="1016pt"
 viewBox="0.00 0.00 283.49 1016.00" xmlns="http://www.w3.org/2000/svg" xmlns:xlink="http://www.w3.org/1999/xlink">
<g id="graph0" class="graph" transform="scale(1 1) rotate(0) translate(4 1012)">
<title>../images/hs&#45;1</title>
<!-- visual -->
<g id="node1" class="node">
<title>visual</title>
<polygon fill="none" stroke="#000000" points="59.5,-1008 5.5,-1008 5.5,-972 59.5,-972 59.5,-1008"/>
<text text-anchor="middle" x="32.5" y="-986.3" font-family="Times,serif" font-size="14.00" fill="#000000">visual</text>
</g>
<!-- Spatial -->
<g id="node2" class="node">
<title>Spatial</title>
<ellipse fill="none" stroke="#000000" cx="143.2463" cy="-882" rx="35.9954" ry="18"/>
<text text-anchor="middle" x="143.2463" y="-878.3" font-family="Times,serif" font-size="14.00" fill="#000000">Spatial</text>
</g>
<!-- Spatial&#45;&gt;visual -->
<g id="edge1" class="edge">
<title>Spatial&#45;&gt;visual</title>
<path fill="none" stroke="#000000" d="M128.1637,-898.6526C112.765,-915.4014 87.9334,-941.7227 65,-963 64.3177,-963.633 63.6233,-964.2696 62.9195,-964.9078"/>
<polygon fill="#000000" stroke="#000000" points="60.3614,-962.4961 55.1539,-971.7229 64.9786,-967.7574 60.3614,-962.4961"/>
</g>
<!-- cubes -->
<g id="node3" class="node">
<title>cubes</title>
<polygon fill="none" stroke="#000000" points="59.5,-954 5.5,-954 5.5,-918 59.5,-918 59.5,-954"/>
<text text-anchor="middle" x="32.5" y="-932.3" font-family="Times,serif" font-size="14.00" fill="#000000">cubes</text>
</g>
<!-- Spatial&#45;&gt;cubes -->
<g id="edge2" class="edge">
<title>Spatial&#45;&gt;cubes</title>
<path fill="none" stroke="#000000" d="M117.5605,-894.5244C103.0318,-901.6086 84.6318,-910.5805 68.6643,-918.3663"/>
<polygon fill="#000000" stroke="#000000" points="67.046,-915.2614 59.5916,-922.7901 70.114,-921.5532 67.046,-915.2614"/>
</g>
<!-- paper -->
<g id="node4" class="node">
<title>paper</title>
<polygon fill="none" stroke="#000000" points="59.5,-900 5.5,-900 5.5,-864 59.5,-864 59.5,-900"/>
<text text-anchor="middle" x="32.5" y="-878.3" font-family="Times,serif" font-size="14.00" fill="#000000">paper</text>
</g>
<!-- Spatial&#45;&gt;paper -->
<g id="edge3" class="edge">
<title>Spatial&#45;&gt;paper</title>
<path fill="none" stroke="#000000" d="M107.2901,-882C95.2732,-882 81.8594,-882 69.7463,-882"/>
<polygon fill="#000000" stroke="#000000" points="69.5042,-878.5001 59.5042,-882 69.5041,-885.5001 69.5042,-878.5001"/>
</g>
<!-- flags -->
<g id="node5" class="node">
<title>flags</title>
<polygon fill="none" stroke="#000000" points="59.5,-846 5.5,-846 5.5,-810 59.5,-810 59.5,-846"/>
<text text-anchor="middle" x="32.5" y="-824.3" font-family="Times,serif" font-size="14.00" fill="#000000">flags</text>
</g>
<!-- Spatial&#45;&gt;flags -->
<g id="edge4" class="edge">
<title>Spatial&#45;&gt;flags</title>
<path fill="none" stroke="#000000" d="M117.5605,-869.4756C103.0318,-862.3914 84.6318,-853.4195 68.6643,-845.6337"/>
<polygon fill="#000000" stroke="#000000" points="70.114,-842.4468 59.5916,-841.2099 67.046,-848.7386 70.114,-842.4468"/>
</g>
<!-- general -->
<g id="node6" class="node">
<title>general</title>
<polygon fill="none" stroke="#000000" points="61.5,-792 3.5,-792 3.5,-756 61.5,-756 61.5,-792"/>
<text text-anchor="middle" x="32.5" y="-770.3" font-family="Times,serif" font-size="14.00" fill="#000000">general</text>
</g>
<!-- Verbal -->
<g id="node7" class="node">
<title>Verbal</title>
<ellipse fill="none" stroke="#000000" cx="143.2463" cy="-639" rx="35.9954" ry="18"/>
<text text-anchor="middle" x="143.2463" y="-635.3" font-family="Times,serif" font-size="14.00" fill="#000000">Verbal</text>
</g>
<!-- Verbal&#45;&gt;general -->
<g id="edge5" class="edge">
<title>Verbal&#45;&gt;general</title>
<path fill="none" stroke="#000000" d="M132.5358,-656.4737C118.4816,-678.7141 92.3705,-717.7537 65,-747 64.4737,-747.5624 63.9359,-748.124 63.3884,-748.6841"/>
<polygon fill="#000000" stroke="#000000" points="60.7272,-746.384 55.8753,-755.8026 65.5417,-751.4654 60.7272,-746.384"/>
</g>
<!-- paragrap -->
<g id="node8" class="node">
<title>paragrap</title>
<polygon fill="none" stroke="#000000" points="65,-738 0,-738 0,-702 65,-702 65,-738"/>
<text text-anchor="middle" x="32.5" y="-716.3" font-family="Times,serif" font-size="14.00" fill="#000000">paragrap</text>
</g>
<!-- Verbal&#45;&gt;paragrap -->
<g id="edge6" class="edge">
<title>Verbal&#45;&gt;paragrap</title>
<path fill="none" stroke="#000000" d="M122.9337,-653.8566C106.905,-665.5801 84.218,-682.1733 65.5777,-695.8069"/>
<polygon fill="#000000" stroke="#000000" points="63.3416,-693.1061 57.3364,-701.8346 67.4741,-698.7561 63.3416,-693.1061"/>
</g>
<!-- sentence -->
<g id="node9" class="node">
<title>sentence</title>
<polygon fill="none" stroke="#000000" points="65,-684 0,-684 0,-648 65,-648 65,-684"/>
<text text-anchor="middle" x="32.5" y="-662.3" font-family="Times,serif" font-size="14.00" fill="#000000">sentence</text>
</g>
<!-- Verbal&#45;&gt;sentence -->
<g id="edge7" class="edge">
<title>Verbal&#45;&gt;sentence</title>
<path fill="none" stroke="#000000" d="M110.9161,-646.8821C99.6436,-649.6303 86.8205,-652.7566 74.8566,-655.6734"/>
<polygon fill="#000000" stroke="#000000" points="73.9484,-652.2923 65.062,-658.0614 75.6065,-659.0931 73.9484,-652.2923"/>
</g>
<!-- wordc -->
<g id="node10" class="node">
<title>wordc</title>
<polygon fill="none" stroke="#000000" points="59.5,-630 5.5,-630 5.5,-594 59.5,-594 59.5,-630"/>
<text text-anchor="middle" x="32.5" y="-608.3" font-family="Times,serif" font-size="14.00" fill="#000000">wordc</text>
</g>
<!-- Verbal&#45;&gt;wordc -->
<g id="edge8" class="edge">
<title>Verbal&#45;&gt;wordc</title>
<path fill="none" stroke="#000000" d="M110.9161,-631.1179C97.9937,-627.9674 83.0333,-624.3201 69.6659,-621.0611"/>
<polygon fill="#000000" stroke="#000000" points="70.3589,-617.6276 59.8144,-618.6593 68.7008,-624.4284 70.3589,-617.6276"/>
</g>
<!-- wordm -->
<g id="node11" class="node">
<title>wordm</title>
<polygon fill="none" stroke="#000000" points="60.5,-576 4.5,-576 4.5,-540 60.5,-540 60.5,-576"/>
<text text-anchor="middle" x="32.5" y="-554.3" font-family="Times,serif" font-size="14.00" fill="#000000">wordm</text>
</g>
<!-- Verbal&#45;&gt;wordm -->
<g id="edge9" class="edge">
<title>Verbal&#45;&gt;wordm</title>
<path fill="none" stroke="#000000" d="M122.9337,-624.1434C106.905,-612.4199 84.218,-595.8267 65.5777,-582.1931"/>
<polygon fill="#000000" stroke="#000000" points="67.4741,-579.2439 57.3364,-576.1654 63.3416,-584.8939 67.4741,-579.2439"/>
</g>
<!-- addition -->
<g id="node12" class="node">
<title>addition</title>
<polygon fill="none" stroke="#000000" points="63.5,-522 1.5,-522 1.5,-486 63.5,-486 63.5,-522"/>
<text text-anchor="middle" x="32.5" y="-500.3" font-family="Times,serif" font-size="14.00" fill="#000000">addition</text>
</g>
<!-- Speed -->
<g id="node13" class="node">
<title>Speed</title>
<ellipse fill="none" stroke="#000000" cx="143.2463" cy="-450" rx="33.2948" ry="18"/>
<text text-anchor="middle" x="143.2463" y="-446.3" font-family="Times,serif" font-size="14.00" fill="#000000">Speed</text>
</g>
<!-- Speed&#45;&gt;addition -->
<g id="edge10" class="edge">
<title>Speed&#45;&gt;addition</title>
<path fill="none" stroke="#000000" d="M118.3926,-462.1187C104.9784,-468.6594 88.0892,-476.8947 72.8442,-484.3281"/>
<polygon fill="#000000" stroke="#000000" points="71.0647,-481.3018 63.6103,-488.8306 74.1327,-487.5937 71.0647,-481.3018"/>
</g>
<!-- code -->
<g id="node14" class="node">
<title>code</title>
<polygon fill="none" stroke="#000000" points="59.5,-468 5.5,-468 5.5,-432 59.5,-432 59.5,-468"/>
<text text-anchor="middle" x="32.5" y="-446.3" font-family="Times,serif" font-size="14.00" fill="#000000">code</text>
</g>
<!-- Speed&#45;&gt;code -->
<g id="edge11" class="edge">
<title>Speed&#45;&gt;code</title>
<path fill="none" stroke="#000000" d="M110.0187,-450C97.3498,-450 82.8292,-450 69.806,-450"/>
<polygon fill="#000000" stroke="#000000" points="69.7468,-446.5001 59.7467,-450 69.7467,-453.5001 69.7468,-446.5001"/>
</g>
<!-- counting -->
<g id="node15" class="node">
<title>counting</title>
<polygon fill="none" stroke="#000000" points="65,-414 0,-414 0,-378 65,-378 65,-414"/>
<text text-anchor="middle" x="32.5" y="-392.3" font-family="Times,serif" font-size="14.00" fill="#000000">counting</text>
</g>
<!-- Speed&#45;&gt;counting -->
<g id="edge12" class="edge">
<title>Speed&#45;&gt;counting</title>
<path fill="none" stroke="#000000" d="M118.3926,-437.8813C105.4009,-431.5466 89.1496,-423.6224 74.2894,-416.3766"/>
<polygon fill="#000000" stroke="#000000" points="75.7806,-413.2098 65.2582,-411.9729 72.7126,-419.5017 75.7806,-413.2098"/>
</g>
<!-- straight -->
<g id="node16" class="node">
<title>straight</title>
<polygon fill="none" stroke="#000000" points="61.5,-360 3.5,-360 3.5,-324 61.5,-324 61.5,-360"/>
<text text-anchor="middle" x="32.5" y="-338.3" font-family="Times,serif" font-size="14.00" fill="#000000">straight</text>
</g>
<!-- Speed&#45;&gt;straight -->
<g id="edge13" class="edge">
<title>Speed&#45;&gt;straight</title>
<path fill="none" stroke="#000000" d="M128.4513,-433.6604C113.0755,-416.9278 88.0767,-390.4103 65,-369 64.3177,-368.367 63.6233,-367.7304 62.9195,-367.0922"/>
<polygon fill="#000000" stroke="#000000" points="64.9786,-364.2426 55.1539,-360.2771 60.3614,-369.5039 64.9786,-364.2426"/>
</g>
<!-- wordr -->
<g id="node17" class="node">
<title>wordr</title>
<polygon fill="none" stroke="#000000" points="59.5,-306 5.5,-306 5.5,-270 59.5,-270 59.5,-306"/>
<text text-anchor="middle" x="32.5" y="-284.3" font-family="Times,serif" font-size="14.00" fill="#000000">wordr</text>
</g>
<!-- Memory -->
<g id="node18" class="node">
<title>Memory</title>
<ellipse fill="none" stroke="#000000" cx="143.2463" cy="-180" rx="42.4939" ry="18"/>
<text text-anchor="middle" x="143.2463" y="-176.3" font-family="Times,serif" font-size="14.00" fill="#000000">Memory</text>
</g>
<!-- Memory&#45;&gt;wordr -->
<g id="edge14" class="edge">
<title>Memory&#45;&gt;wordr</title>
<path fill="none" stroke="#000000" d="M127.8738,-196.9677C112.4547,-213.7302 87.7901,-239.8557 65,-261 64.3177,-261.633 63.6233,-262.2696 62.9195,-262.9078"/>
<polygon fill="#000000" stroke="#000000" points="60.3614,-260.4961 55.1539,-269.7229 64.9786,-265.7574 60.3614,-260.4961"/>
</g>
<!-- numberr -->
<g id="node19" class="node">
<title>numberr</title>
<polygon fill="none" stroke="#000000" points="64.5,-252 .5,-252 .5,-216 64.5,-216 64.5,-252"/>
<text text-anchor="middle" x="32.5" y="-230.3" font-family="Times,serif" font-size="14.00" fill="#000000">numberr</text>
</g>
<!-- Memory&#45;&gt;numberr -->
<g id="edge15" class="edge">
<title>Memory&#45;&gt;numberr</title>
<path fill="none" stroke="#000000" d="M115.3003,-193.6265C102.8052,-199.7191 87.8173,-207.0272 74.048,-213.7412"/>
<polygon fill="#000000" stroke="#000000" points="72.21,-210.7434 64.7556,-218.2721 75.278,-217.0353 72.21,-210.7434"/>
</g>
<!-- figurer -->
<g id="node20" class="node">
<title>figurer</title>
<polygon fill="none" stroke="#000000" points="59.5,-198 5.5,-198 5.5,-162 59.5,-162 59.5,-198"/>
<text text-anchor="middle" x="32.5" y="-176.3" font-family="Times,serif" font-size="14.00" fill="#000000">figurer</text>
</g>
<!-- Memory&#45;&gt;figurer -->
<g id="edge16" class="edge">
<title>Memory&#45;&gt;figurer</title>
<path fill="none" stroke="#000000" d="M100.7456,-180C90.5141,-180 79.6619,-180 69.6938,-180"/>
<polygon fill="#000000" stroke="#000000" points="69.6891,-176.5001 59.6891,-180 69.689,-183.5001 69.6891,-176.5001"/>
</g>
<!-- object -->
<g id="node21" class="node">
<title>object</title>
<polygon fill="none" stroke="#000000" points="59.5,-144 5.5,-144 5.5,-108 59.5,-108 59.5,-144"/>
<text text-anchor="middle" x="32.5" y="-122.3" font-family="Times,serif" font-size="14.00" fill="#000000">object</text>
</g>
<!-- Memory&#45;&gt;object -->
<g id="edge17" class="edge">
<title>Memory&#45;&gt;object</title>
<path fill="none" stroke="#000000" d="M115.3003,-166.3735C101.1852,-159.491 83.8892,-151.0574 68.762,-143.6814"/>
<polygon fill="#000000" stroke="#000000" points="70.1937,-140.4856 59.6713,-139.2488 67.1258,-146.7775 70.1937,-140.4856"/>
</g>
<!-- numberf -->
<g id="node22" class="node">
<title>numberf</title>
<polygon fill="none" stroke="#000000" points="64.5,-90 .5,-90 .5,-54 64.5,-54 64.5,-90"/>
<text text-anchor="middle" x="32.5" y="-68.3" font-family="Times,serif" font-size="14.00" fill="#000000">numberf</text>
</g>
<!-- Memory&#45;&gt;numberf -->
<g id="edge18" class="edge">
<title>Memory&#45;&gt;numberf</title>
<path fill="none" stroke="#000000" d="M127.8738,-163.0323C112.4547,-146.2698 87.7901,-120.1443 65,-99 64.3177,-98.367 63.6233,-97.7304 62.9195,-97.0922"/>
<polygon fill="#000000" stroke="#000000" points="64.9786,-94.2426 55.1539,-90.2771 60.3614,-99.5039 64.9786,-94.2426"/>
</g>
<!-- figurew -->
<g id="node23" class="node">
<title>figurew</title>
<polygon fill="none" stroke="#000000" points="62,-36 3,-36 3,0 62,0 62,-36"/>
<text text-anchor="middle" x="32.5" y="-14.3" font-family="Times,serif" font-size="14.00" fill="#000000">figurew</text>
</g>
<!-- Memory&#45;&gt;figurew -->
<g id="edge19" class="edge">
<title>Memory&#45;&gt;figurew</title>
<path fill="none" stroke="#000000" d="M135.3873,-162.122C122.9417,-135.0077 96.8159,-82.6638 65,-45 64.6006,-44.5272 64.1922,-44.0562 63.7759,-43.5875"/>
<polygon fill="#000000" stroke="#000000" points="66.0249,-40.8848 56.4973,-36.2506 61.0554,-45.8148 66.0249,-40.8848"/>
</g>
<!-- g -->
<g id="node24" class="node">
<title>g</title>
<ellipse fill="none" stroke="#000000" cx="248.4925" cy="-558" rx="27" ry="18"/>
<text text-anchor="middle" x="248.4925" y="-554.3" font-family="Times,serif" font-size="14.00" fill="#000000">g</text>
</g>
<!-- g&#45;&gt;Spatial -->
<g id="edge20" class="edge">
<title>g&#45;&gt;Spatial</title>
<path fill="none" stroke="#000000" d="M242.6841,-575.8812C225.2537,-629.5407 173.3036,-789.4687 152.2537,-854.2707"/>
<polygon fill="#000000" stroke="#000000" points="148.7974,-853.582 149.0367,-864.1741 155.455,-855.7446 148.7974,-853.582"/>
</g>
<!-- g&#45;&gt;Verbal -->
<g id="edge21" class="edge">
<title>g&#45;&gt;Verbal</title>
<path fill="none" stroke="#000000" d="M230.6389,-571.7405C214.2911,-584.3222 189.84,-603.1404 170.9546,-617.675"/>
<polygon fill="#000000" stroke="#000000" points="168.7706,-614.9393 162.9805,-623.8121 173.0399,-620.4866 168.7706,-614.9393"/>
</g>
<!-- g&#45;&gt;Speed -->
<g id="edge22" class="edge">
<title>g&#45;&gt;Speed</title>
<path fill="none" stroke="#000000" d="M233.4133,-542.5262C215.7968,-524.4488 186.4672,-494.3518 166.061,-473.4117"/>
<polygon fill="#000000" stroke="#000000" points="168.4707,-470.8695 158.9849,-466.1504 163.4575,-475.755 168.4707,-470.8695"/>
</g>
<!-- g&#45;&gt;Memory -->
<g id="edge23" class="edge">
<title>g&#45;&gt;Memory</title>
<path fill="none" stroke="#000000" d="M243.5574,-540.2753C226.7465,-479.8976 171.6225,-281.9153 151.0665,-208.0869"/>
<polygon fill="#000000" stroke="#000000" points="154.3472,-206.821 148.2931,-198.1262 147.6037,-208.6986 154.3472,-206.821"/>
</g>
</g>
</svg>
