<?xml version="1.0" encoding="utf-8" standalone="no"?>
<!DOCTYPE svg PUBLIC "-//W3C//DTD SVG 1.1//EN"
  "http://www.w3.org/Graphics/SVG/1.1/DTD/svg11.dtd">
<!-- Created with matplotlib (https://matplotlib.org/) -->
<svg height="144pt" version="1.1" viewBox="0 0 460.8 144" width="460.8pt" xmlns="http://www.w3.org/2000/svg" xmlns:xlink="http://www.w3.org/1999/xlink">
 <defs>
  <style type="text/css">
*{stroke-linecap:butt;stroke-linejoin:round;white-space:pre;}
  </style>
 </defs>
 <g id="figure_1">
  <g id="patch_1">
   <path d="M 0 144 
L 460.8 144 
L 460.8 0 
L 0 0 
z
" style="fill:none;"/>
  </g>
  <g id="axes_1">
   <g id="patch_2">
    <path d="M 20.549615 123.450385 
L 225.09576 123.450385 
L 225.09576 19.64024 
L 20.549615 19.64024 
z
" style="fill:none;"/>
   </g>
   <g id="matplotlib.axis_1">
    <g id="text_1">
     <!-- Time -->
     <defs>
      <path d="M -0.296875 72.90625 
L 61.375 72.90625 
L 61.375 64.59375 
L 35.5 64.59375 
L 35.5 0 
L 25.59375 0 
L 25.59375 64.59375 
L -0.296875 64.59375 
z
" id="DejaVuSans-84"/>
      <path d="M 9.421875 54.6875 
L 18.40625 54.6875 
L 18.40625 0 
L 9.421875 0 
z
M 9.421875 75.984375 
L 18.40625 75.984375 
L 18.40625 64.59375 
L 9.421875 64.59375 
z
" id="DejaVuSans-105"/>
      <path d="M 52 44.1875 
Q 55.375 50.25 60.0625 53.125 
Q 64.75 56 71.09375 56 
Q 79.640625 56 84.28125 50.015625 
Q 88.921875 44.046875 88.921875 33.015625 
L 88.921875 0 
L 79.890625 0 
L 79.890625 32.71875 
Q 79.890625 40.578125 77.09375 44.375 
Q 74.3125 48.1875 68.609375 48.1875 
Q 61.625 48.1875 57.5625 43.546875 
Q 53.515625 38.921875 53.515625 30.90625 
L 53.515625 0 
L 44.484375 0 
L 44.484375 32.71875 
Q 44.484375 40.625 41.703125 44.40625 
Q 38.921875 48.1875 33.109375 48.1875 
Q 26.21875 48.1875 22.15625 43.53125 
Q 18.109375 38.875 18.109375 30.90625 
L 18.109375 0 
L 9.078125 0 
L 9.078125 54.6875 
L 18.109375 54.6875 
L 18.109375 46.1875 
Q 21.1875 51.21875 25.484375 53.609375 
Q 29.78125 56 35.6875 56 
Q 41.65625 56 45.828125 52.96875 
Q 50 49.953125 52 44.1875 
z
" id="DejaVuSans-109"/>
      <path d="M 56.203125 29.59375 
L 56.203125 25.203125 
L 14.890625 25.203125 
Q 15.484375 15.921875 20.484375 11.0625 
Q 25.484375 6.203125 34.421875 6.203125 
Q 39.59375 6.203125 44.453125 7.46875 
Q 49.3125 8.734375 54.109375 11.28125 
L 54.109375 2.78125 
Q 49.265625 0.734375 44.1875 -0.34375 
Q 39.109375 -1.421875 33.890625 -1.421875 
Q 20.796875 -1.421875 13.15625 6.1875 
Q 5.515625 13.8125 5.515625 26.8125 
Q 5.515625 40.234375 12.765625 48.109375 
Q 20.015625 56 32.328125 56 
Q 43.359375 56 49.78125 48.890625 
Q 56.203125 41.796875 56.203125 29.59375 
z
M 47.21875 32.234375 
Q 47.125 39.59375 43.09375 43.984375 
Q 39.0625 48.390625 32.421875 48.390625 
Q 24.90625 48.390625 20.390625 44.140625 
Q 15.875 39.890625 15.1875 32.171875 
z
" id="DejaVuSans-101"/>
     </defs>
     <g transform="translate(105.480188 138.088198)scale(0.14 -0.14)">
      <use xlink:href="#DejaVuSans-84"/>
      <use x="61.037109" xlink:href="#DejaVuSans-105"/>
      <use x="88.820312" xlink:href="#DejaVuSans-109"/>
      <use x="186.232422" xlink:href="#DejaVuSans-101"/>
     </g>
    </g>
   </g>
   <g id="matplotlib.axis_2">
    <g id="text_2">
     <!-- Pressure -->
     <defs>
      <path d="M 19.671875 64.796875 
L 19.671875 37.40625 
L 32.078125 37.40625 
Q 38.96875 37.40625 42.71875 40.96875 
Q 46.484375 44.53125 46.484375 51.125 
Q 46.484375 57.671875 42.71875 61.234375 
Q 38.96875 64.796875 32.078125 64.796875 
z
M 9.8125 72.90625 
L 32.078125 72.90625 
Q 44.34375 72.90625 50.609375 67.359375 
Q 56.890625 61.8125 56.890625 51.125 
Q 56.890625 40.328125 50.609375 34.8125 
Q 44.34375 29.296875 32.078125 29.296875 
L 19.671875 29.296875 
L 19.671875 0 
L 9.8125 0 
z
" id="DejaVuSans-80"/>
      <path d="M 41.109375 46.296875 
Q 39.59375 47.171875 37.8125 47.578125 
Q 36.03125 48 33.890625 48 
Q 26.265625 48 22.1875 43.046875 
Q 18.109375 38.09375 18.109375 28.8125 
L 18.109375 0 
L 9.078125 0 
L 9.078125 54.6875 
L 18.109375 54.6875 
L 18.109375 46.1875 
Q 20.953125 51.171875 25.484375 53.578125 
Q 30.03125 56 36.53125 56 
Q 37.453125 56 38.578125 55.875 
Q 39.703125 55.765625 41.0625 55.515625 
z
" id="DejaVuSans-114"/>
      <path d="M 44.28125 53.078125 
L 44.28125 44.578125 
Q 40.484375 46.53125 36.375 47.5 
Q 32.28125 48.484375 27.875 48.484375 
Q 21.1875 48.484375 17.84375 46.4375 
Q 14.5 44.390625 14.5 40.28125 
Q 14.5 37.15625 16.890625 35.375 
Q 19.28125 33.59375 26.515625 31.984375 
L 29.59375 31.296875 
Q 39.15625 29.25 43.1875 25.515625 
Q 47.21875 21.78125 47.21875 15.09375 
Q 47.21875 7.46875 41.1875 3.015625 
Q 35.15625 -1.421875 24.609375 -1.421875 
Q 20.21875 -1.421875 15.453125 -0.5625 
Q 10.6875 0.296875 5.421875 2 
L 5.421875 11.28125 
Q 10.40625 8.6875 15.234375 7.390625 
Q 20.0625 6.109375 24.8125 6.109375 
Q 31.15625 6.109375 34.5625 8.28125 
Q 37.984375 10.453125 37.984375 14.40625 
Q 37.984375 18.0625 35.515625 20.015625 
Q 33.0625 21.96875 24.703125 23.78125 
L 21.578125 24.515625 
Q 13.234375 26.265625 9.515625 29.90625 
Q 5.8125 33.546875 5.8125 39.890625 
Q 5.8125 47.609375 11.28125 51.796875 
Q 16.75 56 26.8125 56 
Q 31.78125 56 36.171875 55.265625 
Q 40.578125 54.546875 44.28125 53.078125 
z
" id="DejaVuSans-115"/>
      <path d="M 8.5 21.578125 
L 8.5 54.6875 
L 17.484375 54.6875 
L 17.484375 21.921875 
Q 17.484375 14.15625 20.5 10.265625 
Q 23.53125 6.390625 29.59375 6.390625 
Q 36.859375 6.390625 41.078125 11.03125 
Q 45.3125 15.671875 45.3125 23.6875 
L 45.3125 54.6875 
L 54.296875 54.6875 
L 54.296875 0 
L 45.3125 0 
L 45.3125 8.40625 
Q 42.046875 3.421875 37.71875 1 
Q 33.40625 -1.421875 27.6875 -1.421875 
Q 18.265625 -1.421875 13.375 4.4375 
Q 8.5 10.296875 8.5 21.578125 
z
M 31.109375 56 
z
" id="DejaVuSans-117"/>
     </defs>
     <g transform="translate(13.638052 101.859687)rotate(-90)scale(0.14 -0.14)">
      <use xlink:href="#DejaVuSans-80"/>
      <use x="60.287109" xlink:href="#DejaVuSans-114"/>
      <use x="101.369141" xlink:href="#DejaVuSans-101"/>
      <use x="162.892578" xlink:href="#DejaVuSans-115"/>
      <use x="214.992188" xlink:href="#DejaVuSans-115"/>
      <use x="267.091797" xlink:href="#DejaVuSans-117"/>
      <use x="330.470703" xlink:href="#DejaVuSans-114"/>
      <use x="371.552734" xlink:href="#DejaVuSans-101"/>
     </g>
    </g>
   </g>
   <g id="line2d_1">
    <path clip-path="url(#pb38ddd7efa)" d="M 20.549615 64.114196 
L 20.651888 79.521332 
L 20.754161 60.436957 
L 20.856434 79.405086 
L 20.958707 74.630812 
L 21.06098 88.771483 
L 21.163253 47.553358 
L 21.3678 72.041793 
L 21.470073 84.755272 
L 21.674619 67.889722 
L 21.776892 76.719553 
L 21.879165 95.375523 
L 21.981438 77.441424 
L 22.083711 80.323928 
L 22.185984 70.59393 
L 22.39053 83.076869 
L 22.492803 66.146191 
L 22.595076 68.645854 
L 22.69735 98.689865 
L 22.799623 78.507702 
L 22.901896 90.421561 
L 23.106442 75.544235 
L 23.208715 58.543997 
L 23.413261 73.669905 
L 23.515534 70.500462 
L 23.617807 89.59597 
L 23.72008 79.358972 
L 23.822353 54.633711 
L 23.924626 80.970699 
L 24.026899 78.21351 
L 24.129173 61.436277 
L 24.333719 80.218574 
L 24.538265 68.047285 
L 24.742811 89.730763 
L 24.845084 62.063618 
L 24.947357 65.472453 
L 25.04963 83.575118 
L 25.151903 53.45514 
L 25.356449 85.407929 
L 25.458722 80.689955 
L 25.560996 81.34396 
L 25.765542 68.939072 
L 25.867815 79.11542 
L 25.970088 71.876082 
L 26.072361 52.429275 
L 26.174634 96.60271 
L 26.37918 48.678261 
L 26.481453 69.894256 
L 26.583726 61.84468 
L 26.685999 75.067049 
L 26.788272 57.43003 
L 26.992819 103.627068 
L 27.095092 100.921449 
L 27.197365 63.277965 
L 27.401911 73.323817 
L 27.504184 63.001226 
L 27.606457 66.38822 
L 27.70873 83.88507 
L 27.811003 62.871407 
L 28.015549 80.245874 
L 28.117822 61.046234 
L 28.220095 66.118449 
L 28.322369 79.018827 
L 28.526915 64.355647 
L 28.629188 90.880506 
L 28.833734 56.07105 
L 28.936007 78.366706 
L 29.03828 64.726196 
L 29.242826 72.789281 
L 29.345099 63.342519 
L 29.447372 85.4706 
L 29.549645 75.881091 
L 29.651918 78.539079 
L 29.754192 73.969946 
L 29.958738 97.051046 
L 30.163284 67.466775 
L 30.36783 70.900129 
L 30.470103 100.378921 
L 30.572376 55.184021 
L 30.674649 89.469226 
L 30.776922 77.557831 
L 30.879195 79.159245 
L 30.981468 63.994242 
L 31.083741 97.219793 
L 31.288288 51.256779 
L 31.390561 85.090432 
L 31.69738 46.735745 
L 31.901926 83.202921 
L 32.106472 66.090653 
L 32.208745 67.128766 
L 32.311018 53.81127 
L 32.413291 72.644625 
L 32.515564 66.069157 
L 32.617838 95.947453 
L 32.720111 88.724091 
L 32.822384 44.232821 
L 32.924657 75.689507 
L 33.02693 74.294323 
L 33.129203 32.088849 
L 33.538295 91.950729 
L 33.640568 81.752137 
L 33.742841 91.416478 
L 33.845114 67.611579 
L 33.947387 78.544712 
L 34.151934 70.93497 
L 34.254207 82.571679 
L 34.35648 65.800424 
L 34.458753 70.173241 
L 34.561026 81.787103 
L 34.663299 66.160475 
L 34.765572 76.281199 
L 34.867845 54.498737 
L 35.072391 67.322503 
L 35.174664 57.145576 
L 35.276937 73.78845 
L 35.379211 69.845309 
L 35.481484 97.321748 
L 35.583757 89.975982 
L 35.68603 70.499643 
L 35.788303 89.423701 
L 35.992849 53.730589 
L 36.095122 58.304182 
L 36.197395 68.692623 
L 36.401941 59.828467 
L 36.504214 61.315205 
L 36.606487 64.891829 
L 36.70876 74.21605 
L 36.913307 70.554421 
L 37.01558 68.55082 
L 37.117853 69.376078 
L 37.424672 60.680593 
L 37.526945 62.998331 
L 37.629218 55.593355 
L 37.731491 87.637585 
L 37.833764 55.425163 
L 37.936037 87.318782 
L 38.140583 60.493979 
L 38.242857 82.218415 
L 38.34513 70.651387 
L 38.447403 80.965488 
L 38.549676 76.385684 
L 38.651949 79.103983 
L 38.754222 60.709151 
L 38.958768 79.806494 
L 39.061041 56.633205 
L 39.163314 96.867395 
L 39.265587 53.198665 
L 39.470133 71.993082 
L 39.572406 76.268053 
L 39.776953 57.283034 
L 39.879226 56.572611 
L 39.981499 58.98091 
L 40.083772 84.867295 
L 40.186045 72.135614 
L 40.288318 80.081657 
L 40.390591 68.461642 
L 40.492864 77.630405 
L 40.595137 73.518129 
L 40.69741 96.948603 
L 40.799683 83.436702 
L 41.00423 43.354194 
L 41.208776 86.42121 
L 41.515595 52.832165 
L 41.720141 74.056612 
L 41.822414 55.154584 
L 41.924687 99.174066 
L 42.02696 60.240462 
L 42.129233 69.550387 
L 42.231506 65.179395 
L 42.333779 90.910794 
L 42.436053 50.723505 
L 42.640599 71.706929 
L 42.742872 59.930852 
L 42.845145 73.757488 
L 42.947418 56.072524 
L 43.151964 82.196025 
L 43.35651 66.309344 
L 43.458783 71.76259 
L 43.561056 50.987148 
L 43.663329 91.65819 
L 43.765602 54.163425 
L 43.970149 92.063503 
L 44.072422 81.99555 
L 44.174695 41.108298 
L 44.276968 72.04693 
L 44.379241 70.828423 
L 44.481514 74.151789 
L 44.583787 73.50613 
L 44.68606 88.668829 
L 44.788333 64.847291 
L 44.890606 90.424107 
L 45.095152 69.79512 
L 45.197425 79.828431 
L 45.299699 74.205453 
L 45.401972 54.960635 
L 45.504245 59.317609 
L 45.606518 74.186661 
L 45.708791 63.120987 
L 45.811064 101.231084 
L 45.913337 63.201789 
L 46.01561 90.765435 
L 46.117883 78.37587 
L 46.220156 52.524455 
L 46.322429 94.432797 
L 46.526975 53.455815 
L 46.629248 59.327282 
L 46.731522 84.831187 
L 46.833795 75.280176 
L 46.936068 92.353896 
L 47.038341 72.423005 
L 47.140614 84.365375 
L 47.242887 77.288806 
L 47.447433 49.07155 
L 47.549706 77.439471 
L 47.651979 76.348823 
L 47.754252 60.826502 
L 47.856525 87.028214 
L 47.958798 81.211909 
L 48.061072 67.140038 
L 48.163345 87.424649 
L 48.367891 66.296357 
L 48.470164 59.378452 
L 48.572437 66.821748 
L 48.67471 64.136849 
L 48.776983 54.352883 
L 48.879256 70.367597 
L 48.981529 68.050471 
L 49.288348 87.046719 
L 49.492895 57.137913 
L 49.595168 68.810733 
L 49.697441 68.342025 
L 49.799714 61.857449 
L 49.901987 80.460582 
L 50.106533 52.989359 
L 50.208806 76.867451 
L 50.413352 68.105871 
L 50.515625 71.68973 
L 50.617898 58.493438 
L 50.720171 71.373925 
L 50.822444 102.788465 
L 50.924718 69.916296 
L 51.026991 76.472058 
L 51.129264 75.208422 
L 51.231537 69.05243 
L 51.436083 84.87562 
L 51.538356 84.082381 
L 51.640629 45.825032 
L 51.742902 75.723523 
L 51.845175 75.201358 
L 51.947448 75.72524 
L 52.049721 84.281307 
L 52.254267 63.784787 
L 52.458814 72.672752 
L 52.561087 66.7321 
L 52.66336 68.799682 
L 52.765633 80.475752 
L 52.970179 58.906923 
L 53.072452 108.031947 
L 53.276998 68.941182 
L 53.379271 72.363229 
L 53.68609 97.727917 
L 53.788364 87.09893 
L 53.890637 58.44567 
L 53.99291 88.400753 
L 54.095183 65.308816 
L 54.299729 80.87646 
L 54.402002 65.678309 
L 54.606548 94.094584 
L 54.811094 68.549621 
L 54.913367 73.795703 
L 55.220187 51.830343 
L 55.424733 79.94616 
L 55.527006 69.958635 
L 55.629279 48.981806 
L 55.936098 90.735044 
L 56.038371 50.991196 
L 56.242917 85.582276 
L 56.34519 65.35442 
L 56.447463 71.025735 
L 56.549737 64.224882 
L 56.65201 92.784747 
L 56.856556 88.525062 
L 57.061102 56.650634 
L 57.265648 84.373544 
L 57.367921 74.048087 
L 57.470194 92.398832 
L 57.572467 49.792781 
L 57.67474 77.334566 
L 57.777013 50.301459 
L 57.98156 76.305115 
L 58.083833 59.72121 
L 58.186106 74.510067 
L 58.288379 55.021715 
L 58.697471 89.191019 
L 58.799744 75.563212 
L 58.902017 78.11271 
L 59.00429 44.768488 
L 59.106563 83.358703 
L 59.311109 49.365715 
L 59.515656 60.382113 
L 59.617929 60.045268 
L 59.720202 73.552438 
L 59.822475 65.794844 
L 59.924748 71.547452 
L 60.027021 65.403421 
L 60.231567 111.266035 
L 60.33384 53.496043 
L 60.436113 79.2639 
L 60.538386 64.9545 
L 60.640659 73.799283 
L 60.742932 63.741611 
L 60.845206 66.905026 
L 60.947479 54.601914 
L 61.049752 75.07092 
L 61.152025 68.614136 
L 61.254298 96.157367 
L 61.356571 64.859069 
L 61.458844 66.877836 
L 61.561117 81.501648 
L 61.765663 63.33023 
L 61.867936 82.140806 
L 61.970209 65.834706 
L 62.072482 76.114688 
L 62.277029 60.346221 
L 62.379302 64.96987 
L 62.583848 82.140475 
L 62.686121 66.896319 
L 62.788394 70.561547 
L 62.890667 58.855096 
L 62.99294 64.878504 
L 63.095213 63.007779 
L 63.197486 59.016585 
L 63.299759 61.347108 
L 63.402032 60.655865 
L 63.504305 76.526517 
L 63.708852 61.890419 
L 63.811125 67.053111 
L 63.913398 62.411342 
L 64.015671 52.038766 
L 64.220217 74.173695 
L 64.424763 60.510318 
L 64.527036 85.160951 
L 64.629309 63.380154 
L 64.731582 73.453538 
L 64.833855 38.74486 
L 64.936128 51.012864 
L 65.038402 81.951854 
L 65.140675 64.934843 
L 65.345221 85.808394 
L 65.549767 62.944878 
L 65.65204 89.303172 
L 65.754313 60.597302 
L 66.061132 86.279636 
L 66.163405 74.830128 
L 66.265678 91.932277 
L 66.470225 50.34245 
L 66.572498 83.541962 
L 66.777044 63.773752 
L 66.98159 90.813892 
L 67.186136 67.979201 
L 67.288409 90.073671 
L 67.492955 73.736805 
L 67.595228 61.870671 
L 67.799774 90.58411 
L 68.106594 70.411542 
L 68.208867 87.454169 
L 68.31114 63.95082 
L 68.413413 77.548995 
L 68.720232 60.189486 
L 68.822505 87.367874 
L 68.924778 60.316381 
L 69.027051 68.525651 
L 69.129324 85.726717 
L 69.231598 60.518748 
L 69.333871 63.372562 
L 69.436144 80.145294 
L 69.64069 65.332399 
L 69.742963 48.76238 
L 69.845236 67.698298 
L 70.049782 50.688691 
L 70.152055 43.651225 
L 70.458874 66.053322 
L 70.561147 64.225478 
L 70.663421 78.825638 
L 70.765694 35.61846 
L 70.867967 76.293382 
L 70.97024 66.732318 
L 71.072513 67.9278 
L 71.174786 66.917824 
L 71.277059 77.252728 
L 71.379332 46.99759 
L 71.481605 64.155513 
L 71.583878 55.986771 
L 71.686151 89.23365 
L 71.890697 50.063965 
L 72.095244 63.715861 
L 72.197517 56.945921 
L 72.29979 79.874328 
L 72.402063 66.460316 
L 72.504336 70.090337 
L 72.606609 66.924447 
L 72.708882 58.659268 
L 72.811155 77.770113 
L 72.913428 55.579513 
L 73.015701 61.882004 
L 73.117974 76.597313 
L 73.220247 53.754358 
L 73.424793 67.416855 
L 73.527067 68.848906 
L 73.62934 65.348556 
L 73.731613 92.880993 
L 73.833886 88.077029 
L 74.038432 68.075988 
L 74.140705 82.823232 
L 74.242978 63.194567 
L 74.345251 91.877565 
L 74.447524 59.790429 
L 74.65207 89.668663 
L 74.754343 66.246347 
L 74.856616 77.563547 
L 74.95889 105.659744 
L 75.061163 72.309641 
L 75.163436 85.271176 
L 75.265709 81.505672 
L 75.572528 60.768486 
L 75.674801 78.681988 
L 75.879347 70.624256 
L 75.98162 82.613509 
L 76.186166 54.513046 
L 76.28844 84.266107 
L 76.390713 62.122815 
L 76.492986 75.791223 
L 76.697532 52.354092 
L 76.799805 49.622664 
L 76.902078 99.946691 
L 77.106624 63.390086 
L 77.208897 51.995851 
L 77.413443 83.287957 
L 77.617989 64.757002 
L 77.822536 83.216529 
L 78.027082 53.479622 
L 78.129355 63.734293 
L 78.231628 62.390784 
L 78.333901 67.030722 
L 78.436174 81.461658 
L 78.538447 47.504166 
L 78.64072 64.532549 
L 78.742993 61.585078 
L 78.947539 76.281495 
L 79.049812 71.894331 
L 79.254359 83.727326 
L 79.356632 66.112726 
L 79.458905 67.438529 
L 79.561178 85.662129 
L 79.867997 33.242044 
L 79.97027 98.427797 
L 80.277089 51.94193 
L 80.481635 96.100407 
L 80.583909 85.983915 
L 80.686182 87.43732 
L 80.788455 73.353431 
L 80.993001 99.251042 
L 81.197547 43.837024 
L 81.606639 93.691997 
L 81.708912 85.632326 
L 81.811185 63.371975 
L 81.913459 76.821402 
L 82.015732 68.81409 
L 82.118005 50.596473 
L 82.322551 79.597826 
L 82.424824 68.845564 
L 82.527097 33.774579 
L 82.833916 89.11627 
L 82.936189 56.326073 
L 83.140735 71.755136 
L 83.243008 61.473249 
L 83.345282 82.548818 
L 83.447555 61.941381 
L 83.652101 84.021904 
L 83.856647 66.574064 
L 83.95892 58.330984 
L 84.163466 85.29564 
L 84.265739 86.366769 
L 84.368012 71.726466 
L 84.470285 102.767761 
L 84.572558 95.375125 
L 84.777105 44.231076 
L 84.981651 82.374058 
L 85.083924 88.280714 
L 85.186197 61.70282 
L 85.28847 64.046481 
L 85.390743 94.079668 
L 85.493016 60.850434 
L 85.595289 85.594733 
L 85.799835 75.164701 
L 85.902108 84.454404 
L 86.004381 77.651234 
L 86.106654 41.66948 
L 86.208928 53.499646 
L 86.311201 79.770963 
L 86.413474 51.267202 
L 86.515747 53.421999 
L 86.61802 93.033091 
L 86.720293 61.385348 
L 86.822566 97.397683 
L 87.027112 77.433877 
L 87.129385 79.210683 
L 87.231658 67.781678 
L 87.333931 68.811607 
L 87.436204 62.617745 
L 87.538477 74.988763 
L 87.640751 74.93672 
L 87.743024 78.673483 
L 87.845297 55.8612 
L 88.049843 88.327359 
L 88.254389 60.408189 
L 88.356662 64.442151 
L 88.458935 60.76374 
L 88.663481 70.623321 
L 88.765754 66.637047 
L 88.868027 49.586219 
L 89.072574 85.33934 
L 89.27712 59.893995 
L 89.379393 69.611486 
L 89.481666 53.846316 
L 89.583939 54.947531 
L 89.686212 66.946492 
L 89.788485 61.708638 
L 89.890758 64.898577 
L 89.993031 87.619812 
L 90.095304 73.272577 
L 90.197577 74.91262 
L 90.29985 56.034243 
L 90.402124 63.707542 
L 90.504397 58.669143 
L 90.708943 80.769856 
L 90.811216 64.871576 
L 90.913489 70.375704 
L 91.118035 49.69034 
L 91.220308 81.802918 
L 91.322581 79.957474 
L 91.424854 79.225348 
L 91.527127 75.584909 
L 91.6294 50.750672 
L 91.833947 81.904226 
L 91.93622 45.822639 
L 92.038493 72.564235 
L 92.140766 66.119646 
L 92.243039 70.787116 
L 92.345312 81.849494 
L 92.447585 57.551824 
L 92.652131 72.427203 
L 92.856677 56.140807 
L 92.95895 56.215648 
L 93.061223 75.025994 
L 93.163496 59.682988 
L 93.368043 85.466479 
L 93.470316 68.18749 
L 93.674862 77.059963 
L 93.777135 78.160414 
L 93.879408 71.322506 
L 93.981681 76.829838 
L 94.186227 69.960603 
L 94.390773 83.857768 
L 94.493046 62.678972 
L 94.697593 84.796299 
L 94.799866 66.606563 
L 94.902139 72.258913 
L 95.004412 49.50523 
L 95.106685 82.065357 
L 95.208958 52.705293 
L 95.515777 71.467787 
L 95.61805 49.960099 
L 95.720323 78.304236 
L 95.822596 67.598677 
L 95.924869 88.568895 
L 96.129416 52.623655 
L 96.231689 80.478999 
L 96.436235 65.918234 
L 96.538508 78.697048 
L 96.640781 54.660478 
L 96.845327 81.894634 
L 96.9476 62.966102 
L 97.049873 69.167437 
L 97.152146 55.749303 
L 97.254419 81.743498 
L 97.356692 74.140269 
L 97.458966 76.773898 
L 97.561239 69.178922 
L 97.663512 84.180451 
L 97.765785 57.597699 
L 97.868058 69.555019 
L 98.072604 53.824587 
L 98.174877 104.258759 
L 98.27715 67.753368 
L 98.379423 68.016944 
L 98.481696 66.32941 
L 98.583969 58.560047 
L 98.686242 70.75859 
L 98.788515 55.416091 
L 98.993062 89.703542 
L 99.197608 48.173756 
L 99.504427 91.664391 
L 99.708973 66.530557 
L 100.015792 98.223556 
L 100.220338 68.988548 
L 100.424885 62.298855 
L 100.527158 62.771932 
L 100.629431 94.4668 
L 100.833977 60.74788 
L 100.93625 43.514964 
L 101.038523 57.963441 
L 101.243069 53.392844 
L 101.345342 55.89981 
L 101.652161 88.004218 
L 101.856708 61.285567 
L 101.958981 82.859115 
L 102.163527 54.907148 
L 102.2658 59.570487 
L 102.368073 91.990115 
L 102.674892 43.002985 
L 102.879438 89.713617 
L 102.981711 88.089118 
L 103.083985 65.877487 
L 103.186258 82.943038 
L 103.288531 73.63084 
L 103.390804 108.021897 
L 103.59535 74.492814 
L 103.697623 71.94615 
L 103.799896 82.039447 
L 104.004442 68.006045 
L 104.106715 68.58331 
L 104.208988 61.552088 
L 104.311261 76.998876 
L 104.515808 57.852849 
L 104.618081 83.211852 
L 104.822627 63.114595 
L 104.9249 69.977359 
L 105.027173 94.001911 
L 105.231719 65.379485 
L 105.333992 81.955545 
L 105.436265 64.66218 
L 105.538538 101.65588 
L 105.640811 76.306835 
L 105.743084 79.784855 
L 105.947631 58.857482 
L 106.049904 64.397349 
L 106.152177 58.135226 
L 106.356723 60.039676 
L 106.458996 66.224353 
L 106.663542 59.399156 
L 106.765815 68.879391 
L 106.970361 64.605734 
L 107.072634 74.588076 
L 107.174907 39.777659 
L 107.27718 91.675515 
L 107.379454 64.191088 
L 107.481727 68.058727 
L 107.584 57.330486 
L 107.788546 72.334549 
L 107.890819 63.621041 
L 107.993092 73.400268 
L 108.095365 70.354064 
L 108.197638 53.471303 
L 108.299911 82.594897 
L 108.402184 69.824583 
L 108.504457 87.441431 
L 108.60673 49.078118 
L 108.811277 81.941265 
L 108.91355 76.402177 
L 109.015823 77.82988 
L 109.118096 76.490397 
L 109.220369 80.549367 
L 109.322642 58.108893 
L 109.424915 78.061226 
L 109.527188 60.204501 
L 109.629461 69.602551 
L 109.834007 48.817478 
L 109.93628 51.157126 
L 110.038553 57.396531 
L 110.140827 46.30433 
L 110.345373 87.465712 
L 110.447646 75.148793 
L 110.549919 77.372239 
L 110.652192 90.490854 
L 110.856738 58.062758 
L 110.959011 78.083664 
L 111.061284 64.080825 
L 111.163557 75.199861 
L 111.26583 63.958161 
L 111.368103 93.231903 
L 111.57265 63.128187 
L 111.777196 77.011445 
L 111.981742 62.130318 
L 112.186288 89.764897 
L 112.390834 57.388299 
L 112.493107 62.008502 
L 112.59538 84.279503 
L 112.697653 51.423264 
L 112.799926 78.881913 
L 112.902199 65.668736 
L 113.004473 82.203965 
L 113.209019 66.11849 
L 113.311292 57.786245 
L 113.618111 88.169137 
L 113.822657 56.67414 
L 113.92493 68.720338 
L 114.027203 63.269734 
L 114.231749 86.213323 
L 114.334022 56.510738 
L 114.538569 85.570641 
L 114.640842 78.471229 
L 114.743115 79.113666 
L 114.845388 60.440535 
L 114.947661 64.935838 
L 115.049934 58.618208 
L 115.152207 76.909078 
L 115.25448 71.844916 
L 115.356753 58.054241 
L 115.459026 79.536684 
L 115.561299 77.607678 
L 115.765845 87.44852 
L 115.868119 60.925394 
L 115.970392 78.965431 
L 116.072665 57.197444 
L 116.174938 89.326433 
L 116.277211 83.1272 
L 116.379484 39.320915 
L 116.481757 74.659889 
L 116.58403 68.523932 
L 116.686303 49.697988 
L 116.788576 58.801759 
L 116.890849 57.315304 
L 116.993122 66.355482 
L 117.095395 88.35516 
L 117.197669 58.853845 
L 117.299942 89.068018 
L 117.504488 58.70197 
L 117.606761 60.743644 
L 117.709034 73.223842 
L 117.91358 44.092883 
L 118.015853 95.610401 
L 118.118126 43.589866 
L 118.220399 62.601473 
L 118.322672 58.596768 
L 118.629492 108.758051 
L 118.731765 59.658961 
L 118.834038 66.570131 
L 118.936311 60.098023 
L 119.140857 82.905784 
L 119.24313 65.583225 
L 119.345403 67.55472 
L 119.447676 46.535223 
L 119.652222 80.090774 
L 119.754495 40.163859 
L 119.856768 43.452925 
L 119.959041 63.779336 
L 120.061315 58.812269 
L 120.163588 68.917415 
L 120.265861 67.513273 
L 120.368134 71.352996 
L 120.470407 85.610251 
L 120.674953 43.902591 
L 120.777226 37.63959 
L 120.879499 38.386294 
L 121.084045 92.51251 
L 121.288591 55.577947 
L 121.390864 49.249725 
L 121.493138 58.68665 
L 121.595411 83.89922 
L 121.90223 61.080749 
L 122.106776 81.702377 
L 122.209049 47.929504 
L 122.413595 79.098264 
L 122.618141 50.272992 
L 122.822688 102.94009 
L 122.924961 67.088406 
L 123.129507 74.217544 
L 123.23178 56.954231 
L 123.334053 80.517727 
L 123.436326 63.228854 
L 123.640872 73.736841 
L 123.743145 57.350793 
L 123.845418 57.788947 
L 123.947691 72.835101 
L 124.049964 53.828629 
L 124.254511 86.026278 
L 124.356784 68.607402 
L 124.459057 88.848209 
L 124.663603 57.098711 
L 124.868149 76.751118 
L 125.072695 61.131061 
L 125.277241 70.707622 
L 125.379514 73.458866 
L 125.481787 85.367534 
L 125.58406 71.390565 
L 125.788607 90.787678 
L 125.89088 83.815896 
L 125.993153 108.28351 
L 126.095426 61.252726 
L 126.197699 71.736878 
L 126.299972 68.968288 
L 126.504518 94.81066 
L 126.606791 80.183917 
L 126.709064 86.995103 
L 126.91361 58.879268 
L 127.015883 77.99037 
L 127.118157 62.973168 
L 127.22043 92.137397 
L 127.527249 45.239457 
L 127.731795 70.836131 
L 127.834068 66.759543 
L 127.936341 61.740756 
L 128.038614 92.528819 
L 128.140887 69.410817 
L 128.24316 85.746601 
L 128.345433 67.430073 
L 128.447706 85.855044 
L 128.54998 67.336407 
L 128.652253 93.945542 
L 128.754526 63.825271 
L 128.856799 85.057238 
L 129.163618 43.554704 
L 129.470437 92.801181 
L 129.57271 93.383018 
L 129.674983 71.14884 
L 129.777256 71.680289 
L 129.87953 88.52717 
L 130.084076 45.938076 
L 130.186349 97.210366 
L 130.288622 70.343453 
L 130.390895 79.277457 
L 130.493168 60.243342 
L 130.595441 68.387639 
L 130.697714 58.396886 
L 130.799987 63.896691 
L 130.90226 59.250062 
L 131.311353 73.80878 
L 131.413626 59.077603 
L 131.515899 63.923792 
L 131.618172 97.073335 
L 131.720445 92.867549 
L 131.924991 56.919027 
L 132.027264 100.180644 
L 132.129537 49.744043 
L 132.334083 84.699752 
L 132.436356 67.926958 
L 132.538629 77.134811 
L 132.640902 68.893613 
L 132.743176 75.054166 
L 132.845449 89.381589 
L 132.947722 58.904997 
L 133.049995 80.756238 
L 133.254541 73.520798 
L 133.356814 45.881421 
L 133.459087 77.693366 
L 133.56136 59.346794 
L 133.765906 76.313565 
L 133.868179 75.936315 
L 133.970452 64.783693 
L 134.072725 68.654178 
L 134.174999 66.620002 
L 134.277272 59.025116 
L 134.379545 90.596426 
L 134.584091 71.831468 
L 134.686364 69.505804 
L 134.788637 74.007726 
L 134.89091 94.819854 
L 135.095456 83.524958 
L 135.300002 61.435725 
L 135.402275 60.344427 
L 135.504548 70.180729 
L 135.709095 51.330757 
L 135.811368 81.778092 
L 136.015914 60.92417 
L 136.118187 83.580117 
L 136.322733 52.543231 
L 136.425006 49.256345 
L 136.527279 89.961153 
L 136.629552 72.736249 
L 136.731825 84.011184 
L 136.834098 75.906724 
L 137.038645 81.880639 
L 137.140918 69.741433 
L 137.243191 74.187144 
L 137.345464 91.769883 
L 137.447737 55.189366 
L 137.55001 65.81332 
L 137.652283 58.27875 
L 137.754556 63.408061 
L 137.959102 90.075915 
L 138.163648 70.111368 
L 138.265921 63.107609 
L 138.470468 76.613027 
L 138.572741 60.60519 
L 138.777287 66.239233 
L 138.87956 89.719688 
L 139.084106 51.559399 
L 139.288652 76.752363 
L 139.390925 60.242625 
L 139.493198 67.971513 
L 139.595471 84.415026 
L 139.800018 67.848223 
L 140.004564 85.298678 
L 140.106837 57.742362 
L 140.20911 85.056568 
L 140.311383 63.126817 
L 140.413656 72.201376 
L 140.515929 67.110367 
L 140.618202 70.145228 
L 140.720475 69.355106 
L 140.822748 57.048741 
L 141.027294 69.879319 
L 141.129567 69.53645 
L 141.231841 62.123349 
L 141.436387 98.413365 
L 141.53866 57.134354 
L 141.640933 86.315561 
L 141.743206 48.007233 
L 141.845479 68.318961 
L 141.947752 56.174224 
L 142.050025 68.801611 
L 142.254571 63.861124 
L 142.356844 43.306366 
L 142.56139 77.963282 
L 142.663664 70.757561 
L 142.765937 77.852303 
L 142.970483 61.200525 
L 143.072756 56.93977 
L 143.175029 111.475203 
L 143.481848 52.060445 
L 143.584121 92.30623 
L 143.686394 69.256401 
L 143.89094 80.364462 
L 143.993214 61.490085 
L 144.095487 68.841673 
L 144.19776 67.315596 
L 144.402306 80.918191 
L 144.606852 68.59949 
L 144.811398 77.090386 
L 145.015944 61.162537 
L 145.118217 88.741648 
L 145.22049 58.603593 
L 145.322763 70.216485 
L 145.425037 53.594862 
L 145.52731 70.899421 
L 145.629583 57.595512 
L 145.731856 74.567637 
L 145.834129 65.806544 
L 145.936402 87.149124 
L 146.038675 83.246981 
L 146.140948 45.821301 
L 146.345494 78.397457 
L 146.754586 51.321499 
L 146.959133 66.52893 
L 147.061406 65.546826 
L 147.265952 87.976714 
L 147.368225 84.073044 
L 147.470498 58.726998 
L 147.572771 61.342231 
L 147.675044 83.777667 
L 147.777317 59.893711 
L 147.87959 67.544945 
L 147.981863 65.394301 
L 148.084136 75.686756 
L 148.186409 59.113254 
L 148.288683 76.054583 
L 148.493229 59.881678 
L 148.595502 58.688929 
L 148.697775 55.473052 
L 148.800048 58.29301 
L 148.902321 52.511576 
L 149.004594 75.815973 
L 149.106867 37.021765 
L 149.20914 84.052416 
L 149.311413 80.024813 
L 149.413686 81.26035 
L 149.515959 73.270637 
L 149.618232 89.640252 
L 149.720506 63.028363 
L 150.027325 89.163905 
L 150.231871 58.168418 
L 150.334144 72.953746 
L 150.436417 72.946686 
L 150.53869 68.197776 
L 150.640963 55.456156 
L 150.743236 60.991539 
L 150.845509 99.389229 
L 151.152329 66.693737 
L 151.254602 55.094102 
L 151.356875 63.497741 
L 151.459148 56.999099 
L 151.561421 85.563747 
L 151.663694 84.891898 
L 151.765967 68.716617 
L 151.86824 71.405563 
L 151.970513 68.455532 
L 152.072786 76.804982 
L 152.175059 97.412019 
L 152.379605 48.181083 
L 152.686425 74.205256 
L 152.788698 67.136751 
L 152.993244 86.154335 
L 153.095517 69.936122 
L 153.19779 70.858141 
L 153.300063 73.328098 
L 153.402336 69.331976 
L 153.504609 46.505443 
L 153.606882 81.492642 
L 153.709155 57.490137 
L 153.811428 60.603484 
L 153.913702 87.333075 
L 154.015975 64.128812 
L 154.220521 82.767306 
L 154.322794 56.435058 
L 154.52734 69.110985 
L 154.629613 74.425604 
L 154.731886 70.248624 
L 154.834159 70.275423 
L 154.936432 68.793322 
L 155.038705 71.829976 
L 155.140978 87.89922 
L 155.243251 67.38924 
L 155.345525 79.808268 
L 155.550071 72.59185 
L 155.652344 73.706941 
L 155.754617 67.082758 
L 155.85689 82.12075 
L 156.163709 62.231677 
L 156.265982 88.184116 
L 156.368255 65.235969 
L 156.470528 79.799403 
L 156.572801 76.302834 
L 156.675074 86.350281 
L 156.777348 72.761948 
L 156.879621 76.935969 
L 156.981894 73.130505 
L 157.084167 43.368544 
L 157.288713 83.937789 
L 157.390986 79.864476 
L 157.493259 61.083589 
L 157.595532 74.973055 
L 157.697805 63.144385 
L 157.800078 70.321829 
L 157.902351 85.584379 
L 158.106898 62.085452 
L 158.209171 82.339995 
L 158.311444 71.032329 
L 158.413717 78.059679 
L 158.618263 56.443213 
L 158.720536 90.34085 
L 158.925082 57.682565 
L 159.027355 99.118216 
L 159.231901 60.011088 
L 159.334174 90.774208 
L 159.436447 84.482967 
L 159.538721 68.978121 
L 159.640994 76.695244 
L 159.743267 63.628293 
L 159.84554 68.13666 
L 159.947813 88.054345 
L 160.050086 85.29346 
L 160.152359 66.894628 
L 160.254632 73.594782 
L 160.356905 43.914271 
L 160.561451 66.641047 
L 160.663724 48.613795 
L 160.765997 56.396936 
L 160.86827 52.437224 
L 160.970544 83.254383 
L 161.072817 54.703095 
L 161.17509 77.463721 
L 161.277363 53.846783 
L 161.379636 99.201489 
L 161.481909 65.476174 
L 161.584182 86.60264 
L 161.686455 56.976122 
L 161.891001 87.00459 
L 161.993274 47.520708 
L 162.095547 66.608436 
L 162.19782 61.229147 
L 162.300093 66.726116 
L 162.50464 92.989128 
L 162.606913 57.871301 
L 162.709186 85.68712 
L 162.811459 55.707177 
L 163.016005 80.66836 
L 163.118278 61.622778 
L 163.220551 80.524082 
L 163.322824 60.754329 
L 163.52737 87.739653 
L 163.629643 88.651475 
L 163.731917 65.247987 
L 163.83419 66.396681 
L 163.936463 77.302093 
L 164.038736 75.885003 
L 164.243282 63.192995 
L 164.345555 97.393939 
L 164.447828 49.243432 
L 164.652374 83.944205 
L 164.85692 79.010216 
L 164.959193 65.207163 
L 165.16374 88.36382 
L 165.470559 44.699448 
L 165.572832 76.159856 
L 165.675105 59.687395 
L 165.777378 84.104932 
L 165.981924 58.543949 
L 166.084197 75.157841 
L 166.288743 47.421443 
L 166.391016 52.036685 
L 166.493289 62.048531 
L 166.595563 83.033948 
L 166.697836 65.173276 
L 166.800109 92.638526 
L 166.902382 87.166126 
L 167.004655 53.627259 
L 167.106928 90.895132 
L 167.209201 61.424497 
L 167.311474 90.814934 
L 167.51602 63.102921 
L 167.618293 73.001653 
L 167.720566 69.955152 
L 167.925112 84.186996 
L 168.027386 75.638701 
L 168.129659 55.927243 
L 168.436478 72.503917 
L 168.538751 65.878317 
L 168.641024 74.735292 
L 168.743297 57.576539 
L 168.84557 98.254378 
L 169.050116 64.690309 
L 169.152389 80.516672 
L 169.254662 57.398483 
L 169.356935 60.54779 
L 169.459209 76.341271 
L 169.561482 53.352833 
L 169.663755 76.216825 
L 169.766028 72.108539 
L 169.868301 77.511645 
L 170.072847 57.977971 
L 170.17512 95.131529 
L 170.379666 57.287766 
L 170.481939 77.897 
L 170.584212 59.958156 
L 170.788759 71.016587 
L 170.993305 59.49829 
L 171.095578 111.035503 
L 171.197851 65.712784 
L 171.402397 88.098144 
L 171.50467 71.11185 
L 171.606943 72.977316 
L 171.709216 68.669227 
L 171.811489 89.153207 
L 171.913762 49.675826 
L 172.016035 56.819964 
L 172.118308 77.266051 
L 172.220582 53.396139 
L 172.322855 68.128537 
L 172.425128 62.593848 
L 172.629674 84.586241 
L 172.731947 86.492904 
L 172.83422 85.728765 
L 173.038766 66.464952 
L 173.141039 67.282925 
L 173.345585 92.349877 
L 173.447858 92.348651 
L 173.652405 67.059218 
L 173.754678 75.800917 
L 173.856951 72.331377 
L 173.959224 100.521103 
L 174.061497 45.697223 
L 174.266043 72.568754 
L 174.470589 64.228955 
L 174.572862 55.15862 
L 174.777408 83.933053 
L 175.084228 58.118053 
L 175.186501 102.586961 
L 175.391047 52.794619 
L 175.697866 77.565139 
L 175.800139 64.433884 
L 175.902412 69.060422 
L 176.004685 65.620354 
L 176.209231 81.822675 
L 176.413777 57.002454 
L 176.618324 73.69736 
L 176.720597 70.750874 
L 176.925143 50.922117 
L 177.231962 66.738627 
L 177.334235 66.525441 
L 177.436508 87.622653 
L 177.538781 61.946276 
L 177.743327 88.187011 
L 177.947874 62.43719 
L 178.050147 83.25528 
L 178.15242 54.32046 
L 178.356966 86.744405 
L 178.459239 73.52338 
L 178.561512 87.101996 
L 178.766058 68.587559 
L 178.868331 79.732486 
L 178.970604 58.334171 
L 179.17515 66.984782 
L 179.277424 82.472828 
L 179.379697 76.541415 
L 179.48197 63.121434 
L 179.584243 82.392627 
L 179.788789 61.178845 
L 179.891062 74.852835 
L 179.993335 44.808466 
L 180.300154 95.424418 
L 180.402427 68.633858 
L 180.5047 76.921039 
L 180.606973 70.017398 
L 180.709247 79.40967 
L 180.81152 55.250381 
L 180.913793 78.563593 
L 181.016066 46.198639 
L 181.118339 76.455963 
L 181.220612 67.584341 
L 181.322885 83.120787 
L 181.425158 80.321654 
L 181.527431 50.417771 
L 181.731977 78.570154 
L 181.83425 19.725707 
L 182.038796 89.518945 
L 182.14107 90.640926 
L 182.243343 60.726019 
L 182.345616 60.760947 
L 182.447889 87.13987 
L 182.550162 74.562938 
L 182.652435 79.387956 
L 182.754708 49.754025 
L 182.856981 84.727406 
L 183.061527 66.21925 
L 183.1638 66.653007 
L 183.266073 85.573065 
L 183.368346 55.980819 
L 183.572893 82.829162 
L 183.675166 81.118246 
L 183.777439 74.662884 
L 183.879712 81.204144 
L 184.084258 60.121969 
L 184.391077 81.625067 
L 184.595623 42.930032 
L 184.800169 80.122549 
L 185.004716 79.885706 
L 185.106989 43.267131 
L 185.413808 75.035331 
L 185.618354 60.661311 
L 185.8229 88.611081 
L 186.129719 53.34778 
L 186.231992 78.681977 
L 186.436539 58.581546 
L 186.538812 78.88864 
L 186.641085 69.726489 
L 186.743358 75.688751 
L 186.845631 74.118988 
L 186.947904 67.963702 
L 187.050177 84.305405 
L 187.15245 72.410842 
L 187.254723 87.32846 
L 187.356996 54.664613 
L 187.459269 55.697409 
L 187.561542 56.297263 
L 187.766089 82.59131 
L 187.868362 65.419919 
L 188.072908 94.53517 
L 188.175181 77.601314 
L 188.277454 81.375501 
L 188.379727 69.350959 
L 188.482 76.241355 
L 188.686546 56.947393 
L 188.788819 72.378863 
L 188.891092 60.309781 
L 188.993365 64.157615 
L 189.095638 59.740432 
L 189.197912 66.756936 
L 189.300185 65.778601 
L 189.402458 71.234034 
L 189.504731 66.726882 
L 189.607004 86.97677 
L 189.709277 58.581177 
L 189.81155 62.181367 
L 189.913823 76.494892 
L 190.016096 70.491728 
L 190.118369 54.730217 
L 190.220642 63.092108 
L 190.322915 55.204312 
L 190.425188 74.718177 
L 190.527461 70.519844 
L 190.629735 53.350048 
L 190.732008 59.23575 
L 190.834281 76.104574 
L 190.936554 65.794346 
L 191.038827 71.070582 
L 191.1411 54.265931 
L 191.243373 57.783082 
L 191.345646 95.250712 
L 191.550192 63.169373 
L 191.754738 83.118798 
L 191.857011 76.372711 
L 191.959285 60.680391 
L 192.163831 81.618787 
L 192.368377 47.01399 
L 192.572923 84.204614 
L 192.675196 81.192363 
L 192.777469 60.227261 
L 192.879742 65.173419 
L 192.982015 63.83907 
L 193.084288 82.853906 
L 193.186561 80.189442 
L 193.391108 50.989158 
L 193.493381 89.66661 
L 193.595654 52.85917 
L 193.8002 74.791676 
L 194.004746 45.465626 
L 194.107019 83.385534 
L 194.209292 61.907206 
L 194.311565 120.77234 
L 194.516111 61.48833 
L 194.618384 70.594895 
L 194.720657 89.819337 
L 194.925204 81.244425 
L 195.027477 53.467541 
L 195.232023 67.291444 
L 195.334296 49.199869 
L 195.436569 95.214635 
L 195.641115 83.595016 
L 195.845661 72.681409 
L 195.947934 90.340923 
L 196.15248 69.43366 
L 196.254754 75.482083 
L 196.357027 70.621109 
L 196.4593 56.396943 
L 196.766119 67.197995 
L 196.970665 85.946289 
L 197.072938 84.589518 
L 197.175211 45.97357 
L 197.277484 48.211281 
L 197.379757 52.065639 
L 197.48203 86.739688 
L 197.686577 62.134411 
L 197.78885 64.523393 
L 197.891123 88.521385 
L 197.993396 59.346249 
L 198.095669 81.329324 
L 198.197942 72.921296 
L 198.300215 97.293146 
L 198.402488 53.484564 
L 198.504761 74.02269 
L 198.709307 58.995083 
L 198.81158 76.690679 
L 198.913853 44.730392 
L 199.016127 71.389097 
L 199.1184 60.426314 
L 199.220673 63.609885 
L 199.322946 55.517187 
L 199.425219 89.209578 
L 199.527492 84.819978 
L 199.629765 74.7815 
L 199.834311 50.699816 
L 199.936584 84.26404 
L 200.038857 73.123263 
L 200.14113 47.730998 
L 200.44795 72.940843 
L 200.550223 60.33512 
L 200.652496 85.924531 
L 200.857042 63.269353 
L 200.959315 89.594865 
L 201.163861 68.007358 
L 201.368407 45.1558 
L 201.47068 51.828019 
L 201.572953 80.774005 
L 201.777499 59.502566 
L 201.982046 89.321186 
L 202.186592 64.557905 
L 202.288865 64.641231 
L 202.391138 61.551183 
L 202.493411 69.855051 
L 202.595684 64.465163 
L 202.697957 66.485044 
L 202.80023 64.773407 
L 202.902503 81.416606 
L 203.004776 59.367194 
L 203.209322 85.730661 
L 203.311596 61.165764 
L 203.413869 64.111102 
L 203.516142 103.489655 
L 203.822961 83.850877 
L 204.027507 57.668142 
L 204.12978 74.948198 
L 204.334326 67.966624 
L 204.436599 88.111898 
L 204.641146 67.002044 
L 204.743419 67.014042 
L 204.845692 72.870827 
L 204.947965 69.390981 
L 205.050238 88.747385 
L 205.152511 58.550233 
L 205.254784 96.031412 
L 205.561603 63.360403 
L 205.766149 76.089598 
L 206.072969 58.264136 
L 206.175242 74.037364 
L 206.277515 44.525115 
L 206.482061 58.938574 
L 206.584334 56.665212 
L 206.686607 79.622071 
L 206.78888 66.56207 
L 206.891153 80.023705 
L 206.993426 73.577141 
L 207.095699 73.676631 
L 207.197972 72.979027 
L 207.300245 81.785796 
L 207.402518 56.310601 
L 207.504792 67.984972 
L 207.607065 57.64739 
L 207.709338 89.393025 
L 207.811611 74.683663 
L 207.913884 83.307222 
L 208.016157 66.071066 
L 208.11843 70.449585 
L 208.220703 83.325773 
L 208.425249 57.985551 
L 208.629795 75.656305 
L 208.732068 58.292239 
L 208.834341 59.954839 
L 208.936615 50.300504 
L 209.038888 59.358698 
L 209.141161 88.548335 
L 209.243434 59.664984 
L 209.345707 82.556375 
L 209.652526 46.170684 
L 209.857072 54.21404 
L 210.061618 78.398227 
L 210.163891 75.337832 
L 210.266164 75.647308 
L 210.368438 78.232985 
L 210.470711 58.29158 
L 210.572984 77.974997 
L 210.675257 74.054161 
L 210.77753 94.956502 
L 210.982076 70.909574 
L 211.084349 75.15867 
L 211.186622 69.351952 
L 211.288895 88.225278 
L 211.595714 58.252108 
L 211.697988 65.51086 
L 211.800261 89.686041 
L 211.902534 87.361554 
L 212.004807 47.257688 
L 212.311626 93.518073 
L 212.516172 66.524491 
L 212.618445 93.367056 
L 212.822991 47.566381 
L 212.925264 78.779257 
L 213.027537 67.618553 
L 213.129811 71.487921 
L 213.232084 62.758333 
L 213.334357 65.939668 
L 213.641176 56.389135 
L 213.845722 89.271663 
L 213.947995 53.274328 
L 214.152541 78.268105 
L 214.357087 58.637639 
L 214.45936 101.242974 
L 214.663907 54.339841 
L 215.072999 91.357865 
L 215.175272 55.463255 
L 215.379818 88.035884 
L 215.584364 60.785156 
L 215.686637 76.351389 
L 215.78891 59.289518 
L 215.993457 91.546481 
L 216.09573 69.496776 
L 216.198003 79.499722 
L 216.402549 50.408304 
L 216.504822 62.163774 
L 216.607095 49.947957 
L 216.709368 59.188341 
L 216.811641 49.728274 
L 217.016187 81.673758 
L 217.220733 60.243916 
L 217.42528 72.025771 
L 217.527553 67.427116 
L 217.629826 79.433547 
L 217.834372 58.611625 
L 217.936645 64.376887 
L 218.038918 79.885771 
L 218.243464 67.97882 
L 218.345737 94.380926 
L 218.44801 72.815788 
L 218.550283 90.064328 
L 218.652556 70.322143 
L 218.75483 96.182903 
L 218.857103 75.859221 
L 219.061649 83.228955 
L 219.163922 79.260304 
L 219.266195 85.108918 
L 219.368468 82.322181 
L 219.470741 76.161008 
L 219.573014 77.370433 
L 219.879833 55.742682 
L 219.982106 73.671146 
L 220.186653 58.687905 
L 220.288926 78.121507 
L 220.493472 62.769962 
L 220.595745 64.942323 
L 220.698018 86.060057 
L 220.800291 68.867631 
L 220.902564 72.071343 
L 221.10711 62.783349 
L 221.209383 63.342016 
L 221.413929 78.70137 
L 221.516202 74.596736 
L 221.720749 47.971626 
L 221.925295 75.429005 
L 222.027568 41.463053 
L 222.129841 101.471133 
L 222.232114 74.903348 
L 222.334387 93.017079 
L 222.538933 58.78049 
L 222.743479 78.565934 
L 222.845752 83.236061 
L 222.948025 52.607671 
L 223.152572 91.600817 
L 223.254845 84.780771 
L 223.459391 53.390058 
L 223.663937 80.995546 
L 223.76621 77.325561 
L 223.868483 76.365634 
L 223.970756 73.470745 
L 224.073029 52.993197 
L 224.175302 86.301665 
L 224.277575 63.258437 
L 224.379848 93.93592 
L 224.482122 63.419538 
L 224.584395 82.302557 
L 224.686668 70.392827 
L 224.891214 76.560325 
L 224.993487 60.959925 
L 224.993487 60.959925 
" style="fill:none;stroke:#1f77b4;stroke-linecap:square;stroke-width:2;"/>
   </g>
   <g id="patch_3">
    <path d="M 20.549615 123.450385 
L 20.549615 19.64024 
" style="fill:none;stroke:#000000;stroke-linecap:square;stroke-linejoin:miter;stroke-width:0.8;"/>
   </g>
   <g id="patch_4">
    <path d="M 20.549615 123.450385 
L 225.09576 123.450385 
" style="fill:none;stroke:#000000;stroke-linecap:square;stroke-linejoin:miter;stroke-width:0.8;"/>
   </g>
   <g id="text_3">
    <!-- Noise ($X=0$) -->
    <defs>
     <path d="M 9.8125 72.90625 
L 23.09375 72.90625 
L 55.421875 11.921875 
L 55.421875 72.90625 
L 64.984375 72.90625 
L 64.984375 0 
L 51.703125 0 
L 19.390625 60.984375 
L 19.390625 0 
L 9.8125 0 
z
" id="DejaVuSans-78"/>
     <path d="M 30.609375 48.390625 
Q 23.390625 48.390625 19.1875 42.75 
Q 14.984375 37.109375 14.984375 27.296875 
Q 14.984375 17.484375 19.15625 11.84375 
Q 23.34375 6.203125 30.609375 6.203125 
Q 37.796875 6.203125 41.984375 11.859375 
Q 46.1875 17.53125 46.1875 27.296875 
Q 46.1875 37.015625 41.984375 42.703125 
Q 37.796875 48.390625 30.609375 48.390625 
z
M 30.609375 56 
Q 42.328125 56 49.015625 48.375 
Q 55.71875 40.765625 55.71875 27.296875 
Q 55.71875 13.875 49.015625 6.21875 
Q 42.328125 -1.421875 30.609375 -1.421875 
Q 18.84375 -1.421875 12.171875 6.21875 
Q 5.515625 13.875 5.515625 27.296875 
Q 5.515625 40.765625 12.171875 48.375 
Q 18.84375 56 30.609375 56 
z
" id="DejaVuSans-111"/>
     <path id="DejaVuSans-32"/>
     <path d="M 31 75.875 
Q 24.46875 64.65625 21.28125 53.65625 
Q 18.109375 42.671875 18.109375 31.390625 
Q 18.109375 20.125 21.3125 9.0625 
Q 24.515625 -2 31 -13.1875 
L 23.1875 -13.1875 
Q 15.875 -1.703125 12.234375 9.375 
Q 8.59375 20.453125 8.59375 31.390625 
Q 8.59375 42.28125 12.203125 53.3125 
Q 15.828125 64.359375 23.1875 75.875 
z
" id="DejaVuSans-40"/>
     <path d="M 13.71875 72.90625 
L 23.6875 72.90625 
L 36.1875 46.578125 
L 58.796875 72.90625 
L 70.3125 72.90625 
L 40.28125 38.09375 
L 58.40625 0 
L 48.484375 0 
L 33.796875 30.71875 
L 7.171875 0 
L -4.296875 0 
L 29.78125 39.203125 
z
" id="DejaVuSans-Oblique-88"/>
     <path d="M 10.59375 45.40625 
L 73.1875 45.40625 
L 73.1875 37.203125 
L 10.59375 37.203125 
z
M 10.59375 25.484375 
L 73.1875 25.484375 
L 73.1875 17.1875 
L 10.59375 17.1875 
z
" id="DejaVuSans-61"/>
     <path d="M 31.78125 66.40625 
Q 24.171875 66.40625 20.328125 58.90625 
Q 16.5 51.421875 16.5 36.375 
Q 16.5 21.390625 20.328125 13.890625 
Q 24.171875 6.390625 31.78125 6.390625 
Q 39.453125 6.390625 43.28125 13.890625 
Q 47.125 21.390625 47.125 36.375 
Q 47.125 51.421875 43.28125 58.90625 
Q 39.453125 66.40625 31.78125 66.40625 
z
M 31.78125 74.21875 
Q 44.046875 74.21875 50.515625 64.515625 
Q 56.984375 54.828125 56.984375 36.375 
Q 56.984375 17.96875 50.515625 8.265625 
Q 44.046875 -1.421875 31.78125 -1.421875 
Q 19.53125 -1.421875 13.0625 8.265625 
Q 6.59375 17.96875 6.59375 36.375 
Q 6.59375 54.828125 13.0625 64.515625 
Q 19.53125 74.21875 31.78125 74.21875 
z
" id="DejaVuSans-48"/>
     <path d="M 8.015625 75.875 
L 15.828125 75.875 
Q 23.140625 64.359375 26.78125 53.3125 
Q 30.421875 42.28125 30.421875 31.390625 
Q 30.421875 20.453125 26.78125 9.375 
Q 23.140625 -1.703125 15.828125 -13.1875 
L 8.015625 -13.1875 
Q 14.5 -2 17.703125 9.0625 
Q 20.90625 20.125 20.90625 31.390625 
Q 20.90625 42.671875 17.703125 53.65625 
Q 14.5 64.65625 8.015625 75.875 
z
" id="DejaVuSans-41"/>
    </defs>
    <g transform="translate(77.812688 13.64024)scale(0.14 -0.14)">
     <use transform="translate(0 0.015625)" xlink:href="#DejaVuSans-78"/>
     <use transform="translate(74.804688 0.015625)" xlink:href="#DejaVuSans-111"/>
     <use transform="translate(135.986328 0.015625)" xlink:href="#DejaVuSans-105"/>
     <use transform="translate(163.769531 0.015625)" xlink:href="#DejaVuSans-115"/>
     <use transform="translate(215.869141 0.015625)" xlink:href="#DejaVuSans-101"/>
     <use transform="translate(277.392578 0.015625)" xlink:href="#DejaVuSans-32"/>
     <use transform="translate(309.179688 0.015625)" xlink:href="#DejaVuSans-40"/>
     <use transform="translate(348.193359 0.015625)" xlink:href="#DejaVuSans-Oblique-88"/>
     <use transform="translate(436.181641 0.015625)" xlink:href="#DejaVuSans-61"/>
     <use transform="translate(539.453125 0.015625)" xlink:href="#DejaVuSans-48"/>
     <use transform="translate(603.076172 0.015625)" xlink:href="#DejaVuSans-41"/>
    </g>
   </g>
  </g>
  <g id="axes_2">
   <g id="patch_5">
    <path d="M 253.253615 123.450385 
L 457.79976 123.450385 
L 457.79976 19.64024 
L 253.253615 19.64024 
z
" style="fill:none;"/>
   </g>
   <g id="matplotlib.axis_3">
    <g id="text_4">
     <!-- Time -->
     <g transform="translate(338.184187 138.088198)scale(0.14 -0.14)">
      <use xlink:href="#DejaVuSans-84"/>
      <use x="61.037109" xlink:href="#DejaVuSans-105"/>
      <use x="88.820312" xlink:href="#DejaVuSans-109"/>
      <use x="186.232422" xlink:href="#DejaVuSans-101"/>
     </g>
    </g>
   </g>
   <g id="matplotlib.axis_4">
    <g id="text_5">
     <!-- Pressure -->
     <g transform="translate(246.342052 101.859687)rotate(-90)scale(0.14 -0.14)">
      <use xlink:href="#DejaVuSans-80"/>
      <use x="60.287109" xlink:href="#DejaVuSans-114"/>
      <use x="101.369141" xlink:href="#DejaVuSans-101"/>
      <use x="162.892578" xlink:href="#DejaVuSans-115"/>
      <use x="214.992188" xlink:href="#DejaVuSans-115"/>
      <use x="267.091797" xlink:href="#DejaVuSans-117"/>
      <use x="330.470703" xlink:href="#DejaVuSans-114"/>
      <use x="371.552734" xlink:href="#DejaVuSans-101"/>
     </g>
    </g>
   </g>
   <g id="line2d_2">
    <path clip-path="url(#pdd3738241a)" d="M 253.253615 64.114196 
L 253.355888 78.73345 
L 253.458161 58.864306 
L 253.560434 77.053878 
L 253.662707 71.510336 
L 253.76498 84.894066 
L 253.867253 42.934318 
L 254.0718 65.997107 
L 254.174073 78.032195 
L 254.378619 59.892116 
L 254.480892 68.130845 
L 254.583165 86.229642 
L 254.685438 67.774501 
L 254.787711 70.174153 
L 254.889984 60.001398 
L 255.09453 71.725945 
L 255.196803 54.482627 
L 255.299076 56.715727 
L 255.40135 86.540306 
L 255.503623 66.186706 
L 255.605896 77.977803 
L 255.810442 63.00272 
L 255.912715 46.027874 
L 256.117261 61.352605 
L 256.219534 58.355807 
L 256.321807 77.671937 
L 256.42408 67.702668 
L 256.526353 43.291183 
L 256.628626 69.986756 
L 256.730899 67.631544 
L 256.833173 51.298092 
L 257.037719 71.086192 
L 257.139992 59.529383 
L 257.242265 60.064872 
L 257.446811 83.024333 
L 257.549084 56.036209 
L 257.651357 60.147877 
L 257.75363 78.974408 
L 257.855903 49.596473 
L 258.060449 83.076085 
L 258.162722 79.13686 
L 258.264996 80.57575 
L 258.469542 69.746624 
L 258.571815 80.707623 
L 258.674088 74.246647 
L 258.776361 55.568837 
L 258.878634 100.498866 
L 259.08318 54.038502 
L 259.185453 75.956204 
L 259.287726 68.584387 
L 259.389999 82.457891 
L 259.492272 65.442808 
L 259.696819 112.786424 
L 259.799092 110.600917 
L 259.901365 73.439306 
L 260.105911 84.326733 
L 260.208184 74.360518 
L 260.310457 78.059014 
L 260.41273 95.821261 
L 260.515003 75.02584 
L 260.719549 92.692072 
L 260.821822 73.564802 
L 260.924095 78.659933 
L 261.026369 91.533681 
L 261.230915 76.669222 
L 261.333188 103.020228 
L 261.537734 67.720067 
L 261.640007 89.70081 
L 261.74228 75.700612 
L 261.946826 82.915852 
L 262.049099 72.98428 
L 262.151372 94.589463 
L 262.253645 84.441031 
L 262.355918 86.50628 
L 262.458192 81.312933 
L 262.662738 103.061163 
L 262.867284 72.049143 
L 262.969557 74.259528 
L 263.07183 73.982409 
L 263.174103 102.691396 
L 263.276376 56.717556 
L 263.378649 90.217762 
L 263.685468 62.382489 
L 263.787741 94.829876 
L 263.992288 47.341893 
L 264.094561 80.434766 
L 264.40138 39.979424 
L 264.605926 75.17499 
L 264.810472 56.917844 
L 264.912745 57.436777 
L 265.015018 43.638389 
L 265.117291 62.031039 
L 265.219564 55.056796 
L 265.321838 84.579821 
L 265.424111 77.046095 
L 265.526384 32.290596 
L 265.628657 63.53023 
L 265.73093 61.966029 
L 265.833203 19.64024 
L 266.242295 79.514478 
L 266.344568 69.442318 
L 266.446841 79.281721 
L 266.549114 55.699822 
L 266.651387 66.903012 
L 266.855934 59.970107 
L 266.958207 72.010923 
L 267.06048 55.685494 
L 267.162753 60.544097 
L 267.265026 72.681784 
L 267.367299 57.614952 
L 267.469572 68.32923 
L 267.571845 47.171737 
L 267.776391 61.329693 
L 267.878664 51.856717 
L 267.980937 69.224435 
L 268.083211 66.024169 
L 268.185484 94.258577 
L 268.287757 87.682882 
L 268.39003 68.985673 
L 268.492303 88.694841 
L 268.696849 54.577475 
L 268.901395 71.101886 
L 269.003668 65.45986 
L 269.105941 63.762074 
L 269.310487 70.287682 
L 269.41276 80.312478 
L 269.515034 77.729858 
L 269.617307 77.977074 
L 269.71958 76.593883 
L 269.821853 78.007779 
L 269.924126 76.158547 
L 270.128672 70.864989 
L 270.230945 73.622404 
L 270.333218 66.615135 
L 270.435491 99.013529 
L 270.537764 67.110331 
L 270.640037 99.267013 
L 270.844583 72.825877 
L 270.946857 94.669403 
L 271.04913 83.172277 
L 271.151403 93.506816 
L 271.253676 88.897906 
L 271.355949 91.537671 
L 271.458222 73.015184 
L 271.662768 91.712069 
L 271.765041 68.267559 
L 271.867314 108.184567 
L 271.969587 64.153947 
L 272.174133 82.096347 
L 272.276406 85.884557 
L 272.480953 65.81412 
L 272.583226 64.509329 
L 272.685499 66.291905 
L 272.787772 91.523684 
L 272.890045 78.111102 
L 272.992318 85.352638 
L 273.094591 73.007293 
L 273.196864 81.432768 
L 273.299137 76.562183 
L 273.40141 99.222323 
L 273.503683 84.931105 
L 273.708229 43.275355 
L 273.912776 84.770373 
L 274.219595 48.879848 
L 274.424141 68.642973 
L 274.526414 49.04094 
L 274.628687 92.384568 
L 274.73096 52.801931 
L 274.833233 61.49221 
L 274.935506 56.533406 
L 275.037779 81.711148 
L 275.140053 41.006546 
L 275.344599 61.072396 
L 275.446872 48.899682 
L 275.549145 62.373261 
L 275.651418 44.380211 
L 275.855964 70.02715 
L 276.06051 53.856007 
L 276.162783 59.240585 
L 276.265056 38.445944 
L 276.367329 79.14733 
L 276.469602 41.732332 
L 276.674149 79.938764 
L 276.776422 70.096187 
L 276.878695 29.481318 
L 276.980968 60.738265 
L 277.083241 59.88275 
L 277.185514 63.612347 
L 277.287787 63.414556 
L 277.39006 79.064989 
L 277.492333 55.769125 
L 277.594606 81.907478 
L 277.799152 62.500149 
L 277.901425 73.188755 
L 278.003699 68.247301 
L 278.105972 49.707545 
L 278.208245 54.790334 
L 278.310518 70.403085 
L 278.412791 60.096057 
L 278.515064 98.976751 
L 278.617337 61.726958 
L 278.71961 90.075932 
L 278.821883 78.474419 
L 278.924156 53.410667 
L 279.026429 96.103171 
L 279.230975 56.671645 
L 279.333248 63.2983 
L 279.435522 89.541706 
L 279.537795 80.711587 
L 279.640068 98.484743 
L 279.742341 79.229067 
L 279.844614 91.819766 
L 279.946887 85.362076 
L 280.151433 58.28458 
L 280.253706 87.168879 
L 280.355979 86.556174 
L 280.458252 71.47147 
L 280.560525 98.068748 
L 280.662798 92.604393 
L 280.765072 78.839465 
L 280.867345 99.384802 
L 281.071891 78.635372 
L 281.174164 71.834106 
L 281.276437 79.344836 
L 281.37871 76.677899 
L 281.480983 66.862351 
L 281.583256 82.796064 
L 281.685529 80.348839 
L 281.992348 98.666296 
L 282.196895 68.073952 
L 282.299168 79.339478 
L 282.401441 78.421885 
L 282.503714 71.448601 
L 282.605987 89.525138 
L 282.810533 60.895515 
L 282.912806 84.14638 
L 283.117352 74.046672 
L 283.219625 76.924915 
L 283.321898 63.002327 
L 283.424171 75.138704 
L 283.526444 105.794262 
L 283.628718 72.151238 
L 283.730991 77.927315 
L 283.833264 75.878244 
L 283.935537 68.934172 
L 284.140083 83.185714 
L 284.242356 81.615116 
L 284.344629 42.590156 
L 284.446902 71.733814 
L 284.549175 70.472578 
L 284.651448 70.27607 
L 284.753721 78.133274 
L 284.958267 56.314555 
L 285.162814 63.99825 
L 285.265087 57.505708 
L 285.36736 59.057848 
L 285.469633 70.256962 
L 285.674179 47.857053 
L 285.776452 96.631236 
L 285.980998 56.975112 
L 286.083271 60.184876 
L 286.39009 85.203776 
L 286.492364 74.558066 
L 286.594637 45.937626 
L 286.69691 75.974941 
L 286.799183 53.014325 
L 287.003729 68.989607 
L 287.106002 54.066164 
L 287.310548 83.168208 
L 287.515094 58.481501 
L 287.617367 64.217262 
L 287.924187 43.939497 
L 288.128733 73.339958 
L 288.231006 64.0352 
L 288.333279 43.764537 
L 288.640098 87.748385 
L 288.742371 48.775651 
L 288.946917 84.932137 
L 289.04919 65.492387 
L 289.151463 71.951264 
L 289.253737 65.934317 
L 289.35601 95.271334 
L 289.458283 92.151518 
L 289.560556 92.533452 
L 289.765102 62.11755 
L 289.969648 91.212683 
L 290.071921 81.534141 
L 290.174194 100.502229 
L 290.276467 58.481507 
L 290.37874 86.574297 
L 290.481013 60.055693 
L 290.68556 86.970874 
L 290.787833 70.780389 
L 290.890106 85.918977 
L 290.992379 66.735286 
L 291.401471 101.651216 
L 291.503744 88.088375 
L 291.606017 90.653357 
L 291.70829 57.275078 
L 291.810563 95.781828 
L 292.015109 61.475202 
L 292.219656 71.986798 
L 292.321929 71.328241 
L 292.424202 84.469125 
L 292.526475 76.302119 
L 292.628748 81.603806 
L 292.731021 74.969127 
L 292.935567 119.739163 
L 293.03784 61.371559 
L 293.140113 86.510692 
L 293.242386 71.543939 
L 293.344659 79.705337 
L 293.446932 68.94095 
L 293.549206 71.377108 
L 293.651479 58.329073 
L 293.753752 78.038432 
L 293.856025 70.810278 
L 293.958298 97.573462 
L 294.060571 65.489524 
L 294.162844 66.72016 
L 294.265117 80.556464 
L 294.469663 60.824328 
L 294.571936 78.867859 
L 294.674209 61.807645 
L 294.776482 71.349421 
L 294.981029 54.163859 
L 295.083302 58.114219 
L 295.287848 74.022045 
L 295.390121 58.19339 
L 295.492394 61.3085 
L 295.594667 49.088484 
L 295.69694 54.636911 
L 295.901486 47.948124 
L 296.003759 49.930026 
L 296.106032 48.935266 
L 296.208305 64.548703 
L 296.412852 49.540959 
L 296.515125 54.590688 
L 296.617398 49.885189 
L 296.719671 39.498367 
L 296.924217 61.753287 
L 297.128763 48.405975 
L 297.231036 73.286726 
L 297.333309 51.782958 
L 297.435582 62.179185 
L 297.537855 27.837889 
L 297.640128 40.516364 
L 297.742402 71.907289 
L 297.844675 55.381896 
L 298.049221 77.349807 
L 298.253767 55.714181 
L 298.35604 82.730512 
L 298.458313 54.708643 
L 298.765132 82.571301 
L 298.867405 71.88177 
L 298.969678 89.755543 
L 299.174225 49.731681 
L 299.276498 83.719347 
L 299.481044 65.52223 
L 299.68559 94.105862 
L 299.890136 72.762694 
L 299.992409 95.576038 
L 300.196955 80.608953 
L 300.299228 69.388316 
L 300.503774 99.30122 
L 300.810594 80.664499 
L 300.912867 98.140614 
L 301.01514 75.028536 
L 301.117413 88.97422 
L 301.424232 72.38183 
L 301.526505 99.720755 
L 301.628778 72.780999 
L 301.833324 98.266838 
L 301.935598 73.022336 
L 302.037871 75.790222 
L 302.140144 92.42797 
L 302.34469 77.200265 
L 302.446963 60.352059 
L 302.549236 78.964004 
L 302.753782 61.174392 
L 302.856055 53.683975 
L 303.162874 74.497346 
L 303.265147 72.070277 
L 303.367421 86.040221 
L 303.469694 42.174326 
L 303.571967 82.164632 
L 303.67424 71.895758 
L 303.776513 72.363032 
L 303.878786 70.607326 
L 303.981059 80.181925 
L 304.083332 49.15491 
L 304.185605 65.532433 
L 304.287878 56.577852 
L 304.390151 89.036558 
L 304.594697 48.295972 
L 304.799244 60.404877 
L 304.901517 52.881547 
L 305.00379 75.072621 
L 305.106063 60.940244 
L 305.208336 63.873709 
L 305.310609 60.03582 
L 305.412882 51.125856 
L 305.515155 69.621676 
L 305.617428 46.848243 
L 305.719701 52.602393 
L 305.821974 66.80602 
L 305.924247 43.490063 
L 306.128793 56.329912 
L 306.231067 57.415567 
L 306.33334 53.613988 
L 306.435613 80.891553 
L 306.537886 75.880082 
L 306.742432 55.609206 
L 306.844705 70.29519 
L 306.946978 50.654756 
L 307.049251 79.375525 
L 307.151524 47.375547 
L 307.35607 77.574696 
L 307.458343 54.384868 
L 307.560616 65.981414 
L 307.66289 94.402714 
L 307.765163 61.422183 
L 307.867436 74.796302 
L 307.969709 71.484762 
L 308.276528 52.339046 
L 308.378801 70.852577 
L 308.583347 64.085201 
L 308.68562 76.759683 
L 308.890166 50.096256 
L 308.99244 80.595447 
L 309.094713 59.212787 
L 309.196986 73.653322 
L 309.401532 51.782699 
L 309.503805 49.839463 
L 309.606078 100.950826 
L 309.810624 65.953898 
L 309.912897 55.325842 
L 310.117443 88.107866 
L 310.321989 70.990741 
L 310.526536 90.76569 
L 310.731082 62.225031 
L 310.833355 73.027151 
L 310.935628 72.194382 
L 311.037901 77.30633 
L 311.140174 92.168683 
L 311.242447 58.600309 
L 311.34472 75.973975 
L 311.446993 73.326588 
L 311.651539 88.483017 
L 311.753812 84.253962 
L 311.958359 96.256267 
L 312.060632 78.652196 
L 312.162905 79.938992 
L 312.265178 98.074201 
L 312.571997 45.097106 
L 312.67427 110.002355 
L 312.981089 62.405953 
L 313.185635 105.614936 
L 313.492455 81.167435 
L 313.697001 105.77327 
L 313.901547 48.964515 
L 314.310639 95.810473 
L 314.412912 86.970058 
L 314.515185 63.923677 
L 314.617458 76.584896 
L 314.719732 67.790309 
L 314.822005 48.789462 
L 315.026551 76.248836 
L 315.128824 64.743918 
L 315.231097 28.93648 
L 315.537916 82.194735 
L 315.640189 48.761183 
L 315.844735 62.995611 
L 315.947008 52.167166 
L 316.049282 72.73294 
L 316.151555 51.654486 
L 316.356101 72.916589 
L 316.560647 54.825642 
L 316.66292 46.330036 
L 316.867466 72.932679 
L 316.969739 73.895752 
L 317.072012 59.196658 
L 317.174285 90.228663 
L 317.276558 82.876271 
L 317.481105 31.960487 
L 317.685651 70.525442 
L 317.787924 76.71376 
L 317.890197 50.463223 
L 317.99247 53.178644 
L 318.094743 83.626524 
L 318.197016 50.853277 
L 318.299289 76.093057 
L 318.503835 66.764491 
L 318.606108 76.655827 
L 318.708381 70.485097 
L 318.810654 35.164094 
L 318.912928 47.680712 
L 319.015201 74.661467 
L 319.117474 46.887329 
L 319.219747 49.789052 
L 319.32202 90.161421 
L 319.424293 59.286301 
L 319.526566 96.07955 
L 319.731112 77.690089 
L 319.833385 80.254107 
L 319.935658 69.608191 
L 320.037931 71.413994 
L 320.140204 65.985725 
L 320.344751 79.792998 
L 320.447024 84.246588 
L 320.549297 62.129114 
L 320.753843 95.907961 
L 320.958389 69.181809 
L 321.060662 73.761436 
L 321.162935 70.591874 
L 321.367481 81.350819 
L 321.469754 77.751507 
L 321.572027 61.043733 
L 321.776574 97.345998 
L 321.98112 72.260255 
L 322.083393 82.084575 
L 322.185666 66.376959 
L 322.287939 67.486226 
L 322.390212 79.443706 
L 322.492485 74.115 
L 322.594758 77.165076 
L 322.697031 99.697989 
L 322.799304 85.114718 
L 322.901577 86.471942 
L 323.00385 67.265081 
L 323.106124 74.565529 
L 323.208397 69.111384 
L 323.412943 90.258655 
L 323.515216 73.826446 
L 323.617489 78.761268 
L 323.822035 56.840291 
L 323.924308 88.291444 
L 324.026581 85.758941 
L 324.128854 84.316838 
L 324.231127 79.946308 
L 324.3334 54.36475 
L 324.537947 83.983838 
L 324.64022 47.12117 
L 324.742493 73.076553 
L 324.844766 65.843728 
L 324.947039 69.724052 
L 325.049312 80.003484 
L 325.151585 54.930159 
L 325.356131 68.288324 
L 325.560677 50.550052 
L 325.66295 49.93067 
L 325.765223 68.071621 
L 325.867496 52.086693 
L 326.072043 76.678785 
L 326.174316 58.855027 
L 326.378862 66.750569 
L 326.481135 67.422718 
L 326.583408 60.198928 
L 326.685681 65.364322 
L 326.890227 57.948265 
L 327.094773 71.488241 
L 327.197046 50.203843 
L 327.401593 72.258037 
L 327.503866 54.111019 
L 327.606139 59.855453 
L 327.708412 37.242851 
L 327.810685 69.992502 
L 327.912958 40.869657 
L 328.219777 60.619678 
L 328.32205 39.528787 
L 328.424323 68.33093 
L 328.526596 58.122777 
L 328.628869 79.627836 
L 328.833416 44.855989 
L 328.935689 73.345249 
L 329.140235 60.134248 
L 329.242508 73.623577 
L 329.344781 50.317564 
L 329.549327 79.061352 
L 329.6516 60.905929 
L 329.753873 67.888512 
L 329.856146 55.256679 
L 329.958419 82.039121 
L 330.060692 75.222971 
L 330.162966 78.639402 
L 330.265239 71.819858 
L 330.367512 87.586386 
L 330.469785 61.755179 
L 330.572058 74.447618 
L 330.776604 60.126614 
L 330.878877 111.229525 
L 330.98115 75.365337 
L 331.083423 76.240044 
L 331.185696 75.131155 
L 331.287969 67.905667 
L 331.390242 80.611164 
L 331.492515 65.736697 
L 331.697062 100.836209 
L 331.799335 87.628255 
L 331.901608 59.942741 
L 332.208427 104.037156 
L 332.412973 79.06278 
L 332.719792 110.624085 
L 332.924338 81.05605 
L 333.128885 73.842827 
L 333.231158 73.98517 
L 333.333431 105.305006 
L 333.537977 70.709222 
L 333.64025 52.977941 
L 333.742523 66.890668 
L 333.947069 61.145026 
L 334.049342 63.01734 
L 334.253888 72.406172 
L 334.356161 93.059658 
L 334.560708 64.861879 
L 334.662981 85.673194 
L 334.867527 56.166464 
L 334.9698 60.043415 
L 335.072073 91.674788 
L 335.378892 40.342784 
L 335.583438 85.537548 
L 335.685711 83.178376 
L 335.787985 60.251474 
L 335.890258 76.623978 
L 335.992531 66.643697 
L 336.094804 100.394273 
L 336.29935 65.677039 
L 336.401623 62.587398 
L 336.503896 72.17469 
L 336.708442 57.248034 
L 336.810715 57.44158 
L 336.912988 50.070654 
L 337.015261 65.223095 
L 337.219808 45.628914 
L 337.322081 70.835879 
L 337.526627 50.581629 
L 337.6289 57.440057 
L 337.731173 81.509802 
L 337.935719 53.125437 
L 338.037992 69.893426 
L 338.140265 52.839641 
L 338.242538 90.119626 
L 338.344811 65.102439 
L 338.447084 68.956581 
L 338.651631 48.908127 
L 338.753904 54.947319 
L 338.856177 49.221854 
L 339.060723 52.302997 
L 339.162996 59.12306 
L 339.367542 53.650176 
L 339.469815 63.841995 
L 339.572088 60.881968 
L 339.674361 61.048318 
L 339.776634 71.793208 
L 339.878907 37.756381 
L 339.98118 90.435811 
L 340.083454 63.737856 
L 340.185727 68.393758 
L 340.288 58.452455 
L 340.492546 75.014008 
L 340.594819 67.064898 
L 340.697092 77.594918 
L 340.799365 75.282936 
L 340.901638 59.114925 
L 341.003911 88.930974 
L 341.106184 76.828085 
L 341.208457 95.084691 
L 341.31073 57.330941 
L 341.515277 91.313126 
L 341.61755 86.279093 
L 341.719823 88.172832 
L 341.822096 87.258525 
L 341.924369 91.700132 
L 342.026642 69.598244 
L 342.128915 89.843774 
L 342.231188 72.233699 
L 342.333461 81.830879 
L 342.538007 61.298545 
L 342.64028 63.690805 
L 342.742553 69.933306 
L 342.844827 58.794675 
L 343.049373 99.715549 
L 343.151646 87.2055 
L 343.253919 89.188186 
L 343.356192 102.019362 
L 343.560738 68.881074 
L 343.663011 88.482034 
L 343.765284 74.018169 
L 343.867557 84.636921 
L 343.96983 72.857657 
L 344.072103 101.558677 
L 344.27665 70.213225 
L 344.481196 82.7429 
L 344.685742 66.417712 
L 344.890288 92.540547 
L 345.094834 58.608388 
L 345.197107 62.442036 
L 345.29938 83.924769 
L 345.401653 50.281665 
L 345.503926 76.957957 
L 345.606199 62.970025 
L 345.708473 78.74116 
L 345.913019 61.1715 
L 346.015292 52.125028 
L 346.322111 80.51026 
L 346.526657 47.830371 
L 346.62893 59.33539 
L 346.731203 53.380684 
L 346.935749 75.435104 
L 347.038022 45.350966 
L 347.242569 73.781354 
L 347.549388 48.058239 
L 347.651661 52.452853 
L 347.753934 46.083849 
L 347.856207 64.372861 
L 347.95848 59.356365 
L 348.060753 45.662691 
L 348.163026 67.291088 
L 348.265299 65.556414 
L 348.469845 75.927787 
L 348.572119 49.738765 
L 348.674392 68.157098 
L 348.776665 46.810107 
L 348.878938 79.401126 
L 348.981211 73.703133 
L 349.083484 30.435318 
L 349.185757 66.347864 
L 349.28803 60.818316 
L 349.390303 42.629222 
L 349.799395 84.086294 
L 349.901669 55.334248 
L 350.003942 86.311593 
L 350.208488 57.501499 
L 350.310761 60.329809 
L 350.413034 73.598277 
L 350.61758 46.036313 
L 350.719853 98.328357 
L 350.822126 47.07161 
L 350.924399 66.833252 
L 351.026672 63.561864 
L 351.333492 115.79422 
L 351.435765 67.333437 
L 351.538038 74.852596 
L 351.640311 68.955756 
L 351.844857 92.806944 
L 351.94713 75.948421 
L 352.049403 78.343004 
L 352.151676 57.703976 
L 352.356222 91.886769 
L 352.458495 52.20415 
L 352.560768 55.689947 
L 352.663041 76.164747 
L 352.765315 71.29714 
L 352.867588 81.452425 
L 352.969861 80.048903 
L 353.072134 83.839722 
L 353.174407 97.998746 
L 353.378953 55.948384 
L 353.481226 49.442264 
L 353.583499 49.899225 
L 353.788045 103.310831 
L 353.992591 65.491193 
L 354.094864 58.660775 
L 354.197138 67.558327 
L 354.299411 92.196475 
L 354.60623 67.467785 
L 354.810776 86.685565 
L 354.913049 52.179832 
L 355.117595 81.835458 
L 355.322141 51.453841 
L 355.526687 102.545954 
L 355.628961 65.907556 
L 355.731234 71.649249 
L 355.833507 71.48035 
L 355.93578 53.453556 
L 356.038053 76.267399 
L 356.140326 58.245665 
L 356.242599 61.171744 
L 356.344872 67.349805 
L 356.549418 50.098892 
L 356.651691 64.537846 
L 356.753964 44.956953 
L 356.958511 76.113033 
L 357.060784 58.231122 
L 357.163057 78.049888 
L 357.367603 45.58578 
L 357.572149 64.705325 
L 357.776695 48.742566 
L 357.981241 58.171993 
L 358.083514 60.923856 
L 358.185787 72.882663 
L 358.28806 59.005155 
L 358.492607 78.747387 
L 358.59488 72.019901 
L 358.697153 96.778411 
L 358.799426 50.083973 
L 358.901699 60.948595 
L 359.003972 58.603092 
L 359.208518 85.41265 
L 359.310791 71.326184 
L 359.413064 78.712639 
L 359.61761 51.8431 
L 359.719883 71.620305 
L 359.822157 57.294371 
L 359.92443 87.172301 
L 360.231249 42.521502 
L 360.435795 69.674905 
L 360.538068 66.385108 
L 360.640341 62.154591 
L 360.742614 93.72929 
L 360.844887 71.393181 
L 360.94716 88.503026 
L 361.049433 70.949671 
L 361.151706 90.12391 
L 361.25398 72.337677 
L 361.356253 99.659459 
L 361.458526 70.229262 
L 361.560799 92.126004 
L 361.867618 52.440301 
L 362.174437 103.188518 
L 362.27671 104.19135 
L 362.378983 82.33547 
L 362.481256 83.201023 
L 362.58353 100.336495 
L 362.788076 58.183671 
L 362.890349 109.601916 
L 362.992622 82.832005 
L 363.094895 91.813675 
L 363.197168 72.777701 
L 363.299441 80.870623 
L 363.401714 70.779181 
L 363.503987 76.129381 
L 363.60626 71.284822 
L 364.015353 84.586999 
L 364.117626 69.43169 
L 364.219899 73.812843 
L 364.322172 106.458282 
L 364.424445 101.711319 
L 364.628991 64.577905 
L 364.731264 107.200488 
L 364.833537 56.097122 
L 365.038083 89.646742 
L 365.140356 72.140178 
L 365.242629 80.597616 
L 365.344902 71.592323 
L 365.447176 76.978121 
L 365.549449 90.523188 
L 365.651722 59.25973 
L 365.753995 80.322704 
L 365.958541 71.518975 
L 366.060814 43.105771 
L 366.163087 74.154855 
L 366.26536 55.0594 
L 366.469906 70.582109 
L 366.572179 69.515385 
L 366.674452 57.698655 
L 366.776725 60.933021 
L 366.878999 58.293229 
L 366.981272 50.12562 
L 367.083545 81.159366 
L 367.288091 61.433099 
L 367.390364 58.687488 
L 367.492637 62.8122 
L 367.59491 83.291346 
L 367.799456 71.468252 
L 368.004002 49.041152 
L 368.106275 47.854081 
L 368.208548 57.643953 
L 368.413095 38.84969 
L 368.515368 69.398943 
L 368.719914 48.894971 
L 368.822187 71.797569 
L 369.026733 41.392466 
L 369.129006 38.488217 
L 369.231279 79.618201 
L 369.333552 62.859334 
L 369.435825 74.639323 
L 369.538098 67.076941 
L 369.742645 74.237379 
L 369.844918 62.737931 
L 369.947191 67.851066 
L 370.049464 86.12626 
L 370.151737 50.260494 
L 370.25401 61.61867 
L 370.356283 54.834894 
L 370.458556 60.728602 
L 370.663102 88.953945 
L 370.867648 70.5646 
L 370.969921 64.347313 
L 371.174468 79.407895 
L 371.276741 64.162607 
L 371.481287 71.276629 
L 371.58356 95.468668 
L 371.788106 58.660691 
L 371.992652 85.093865 
L 372.094925 69.155997 
L 372.299471 94.364381 
L 372.504018 78.676497 
L 372.708564 96.834932 
L 372.810837 69.564901 
L 372.91311 97.118687 
L 373.015383 75.380865 
L 373.117656 84.598943 
L 373.219929 79.602476 
L 373.322202 82.68253 
L 373.424475 81.888072 
L 373.526748 69.52786 
L 373.731294 82.103254 
L 373.833567 81.560058 
L 373.935841 73.89913 
L 374.140387 109.555095 
L 374.24266 67.892365 
L 374.344933 96.647353 
L 374.447206 57.87199 
L 374.549479 77.677713 
L 374.651752 64.989998 
L 374.754025 77.039582 
L 374.958571 70.848267 
L 375.060844 49.625426 
L 375.26539 82.874023 
L 375.367664 74.933631 
L 375.469937 81.277203 
L 375.674483 63.085518 
L 375.776756 58.042107 
L 375.879029 111.79053 
L 376.185848 50.019717 
L 376.288121 89.492151 
L 376.390394 65.680088 
L 376.492667 75.792862 
L 376.59494 75.309022 
L 376.697214 55.723595 
L 376.799487 62.386913 
L 376.90176 60.198066 
L 377.004033 64.004173 
L 377.106306 72.561981 
L 377.310852 59.136514 
L 377.515398 66.670029 
L 377.719944 49.9493 
L 377.822217 77.197676 
L 377.92449 46.774491 
L 378.026763 58.148983 
L 378.129037 41.336634 
L 378.23131 58.498892 
L 378.333583 45.10167 
L 378.435856 62.029839 
L 378.538129 53.274321 
L 378.640402 74.671984 
L 378.742675 70.874215 
L 378.844948 33.601788 
L 379.049494 66.628472 
L 379.458586 41.000893 
L 379.663133 57.183311 
L 379.765406 56.745081 
L 379.969952 80.364746 
L 380.072225 77.102277 
L 380.174498 52.424971 
L 380.276771 55.73384 
L 380.379044 78.885068 
L 380.481317 55.736232 
L 380.58359 64.13901 
L 380.685863 62.753365 
L 380.788136 73.821252 
L 380.890409 58.030552 
L 380.992683 75.75896 
L 381.197229 61.160602 
L 381.299502 60.749102 
L 381.401775 58.306335 
L 381.504048 61.88821 
L 381.606321 56.85449 
L 381.708594 80.889444 
L 381.810867 42.805751 
L 381.91314 90.524067 
L 382.015413 87.158563 
L 382.117686 89.028017 
L 382.219959 81.641535 
L 382.322232 98.581311 
L 382.424506 72.504263 
L 382.731325 100.012015 
L 382.935871 69.720079 
L 383.140417 85.01954 
L 383.24269 80.460155 
L 383.344963 67.859617 
L 383.447236 73.487082 
L 383.549509 111.927491 
L 383.856329 79.063265 
L 383.958602 67.309162 
L 384.060875 75.510078 
L 384.163148 68.761258 
L 384.265421 97.029263 
L 384.367694 96.015476 
L 384.469967 79.454313 
L 384.57224 81.714957 
L 384.674513 78.295899 
L 384.776786 86.137445 
L 384.879059 106.199712 
L 385.083605 55.777377 
L 385.390425 79.796011 
L 385.492698 72.011196 
L 385.697244 89.541297 
L 385.799517 72.557787 
L 385.90179 72.704152 
L 386.004063 74.391162 
L 386.106336 69.607894 
L 386.208609 45.993125 
L 386.310882 80.194112 
L 386.413155 55.410524 
L 386.515428 57.751004 
L 386.617702 83.718997 
L 386.719975 59.767414 
L 386.924521 76.965839 
L 387.026794 49.946532 
L 387.23134 61.327853 
L 387.333613 66.040039 
L 387.538159 60.786623 
L 387.640432 58.808078 
L 387.742705 61.387735 
L 387.844978 77.041233 
L 387.947251 56.158402 
L 388.049525 68.248947 
L 388.254071 60.513673 
L 388.356344 61.440442 
L 388.458617 54.676396 
L 388.56089 69.623536 
L 388.867709 49.758588 
L 388.969982 75.817857 
L 389.072255 53.025392 
L 389.174528 67.792746 
L 389.276801 64.547528 
L 389.379074 74.892767 
L 389.481348 61.647488 
L 389.583621 66.20847 
L 389.685894 62.832347 
L 389.788167 33.54041 
L 389.992713 75.164169 
L 390.094986 71.671181 
L 390.197259 53.502987 
L 390.299532 68.035093 
L 390.401805 56.876471 
L 390.606351 80.7281 
L 390.810898 58.717472 
L 390.913171 79.737608 
L 391.015444 69.205816 
L 391.117717 77.016255 
L 391.322263 56.975224 
L 391.424536 91.658983 
L 391.629082 60.554234 
L 391.731355 102.751164 
L 391.935901 65.120585 
L 392.038174 96.593143 
L 392.140447 90.988353 
L 392.242721 76.144257 
L 392.344994 84.493821 
L 392.447267 72.028504 
L 392.54954 77.105318 
L 392.651813 97.556021 
L 392.754086 95.290618 
L 392.856359 77.347773 
L 392.958632 84.462619 
L 393.060905 55.153867 
L 393.265451 78.489663 
L 393.367724 60.697265 
L 393.469997 68.667525 
L 393.57227 64.846457 
L 393.674544 95.753236 
L 393.776817 67.242193 
L 393.87909 89.993528 
L 393.981363 66.317801 
L 394.083636 111.56445 
L 394.185909 77.682238 
L 394.288182 98.603588 
L 394.390455 68.724544 
L 394.595001 98.109905 
L 394.697274 58.237982 
L 394.799547 76.895331 
L 394.90182 71.045025 
L 395.004093 76.032199 
L 395.20864 101.167491 
L 395.310913 65.436191 
L 395.413186 92.608654 
L 395.515459 61.958011 
L 395.720005 85.50646 
L 395.822278 65.724425 
L 395.924551 83.873072 
L 396.026824 63.337431 
L 396.129097 89.295049 
L 396.23137 88.763434 
L 396.333643 88.887981 
L 396.435916 64.696284 
L 396.53819 65.058949 
L 396.640463 75.183617 
L 396.742736 72.99415 
L 396.947282 58.794658 
L 397.049555 92.266449 
L 397.151828 43.407045 
L 397.356374 76.761902 
L 397.56092 70.59538 
L 397.663193 56.224738 
L 397.86774 78.354774 
L 398.174559 33.451121 
L 398.276832 64.585298 
L 398.379105 47.832333 
L 398.481378 72.016199 
L 398.685924 46.131877 
L 398.788197 62.657379 
L 398.992743 34.892502 
L 399.095016 39.56777 
L 399.197289 49.6889 
L 399.299563 70.832426 
L 399.401836 53.178067 
L 399.504109 80.897016 
L 399.606382 75.7247 
L 399.708655 42.531116 
L 399.810928 80.188108 
L 399.913201 51.148889 
L 400.015474 81.011336 
L 400.22002 54.357513 
L 400.322293 64.838244 
L 400.424566 62.405992 
L 400.629112 77.953257 
L 400.731386 70.100938 
L 400.833659 51.107334 
L 401.140478 69.940105 
L 401.242751 64.090812 
L 401.345024 73.731157 
L 401.447297 57.359739 
L 401.54957 98.825771 
L 401.754116 66.82821 
L 401.856389 83.4267 
L 401.958662 61.069142 
L 402.060935 64.96458 
L 402.163209 81.486742 
L 402.265482 59.206659 
L 402.367755 82.75588 
L 402.470028 79.306991 
L 402.572301 85.341056 
L 402.776847 66.97414 
L 402.87912 104.658888 
L 403.083666 67.76264 
L 403.185939 88.784458 
L 403.288212 71.215186 
L 403.492759 82.878066 
L 403.697305 71.776968 
L 403.799578 123.450385 
L 403.901851 78.214824 
L 404.106397 100.626187 
L 404.20867 83.578631 
L 404.310943 85.333587 
L 404.413216 80.866175 
L 404.515489 101.142647 
L 404.617762 61.410395 
L 404.720035 68.253303 
L 404.822308 88.352994 
L 404.924582 64.092887 
L 405.026855 78.392832 
L 405.129128 72.385142 
L 405.333674 93.317511 
L 405.435947 94.64134 
L 405.53822 93.262177 
L 405.742766 72.681581 
L 405.845039 72.802996 
L 406.049585 96.414251 
L 406.151858 95.659635 
L 406.356405 68.827212 
L 406.458678 76.785404 
L 406.560951 72.528469 
L 406.663224 99.930021 
L 406.765497 44.320302 
L 406.970043 69.639557 
L 407.174589 59.793724 
L 407.276862 49.99518 
L 407.481408 77.377187 
L 407.788228 49.674029 
L 407.890501 93.57707 
L 408.095047 42.761869 
L 408.401866 66.299433 
L 408.504139 52.844206 
L 408.606412 57.192555 
L 408.708685 53.521184 
L 408.913231 69.405015 
L 409.117777 44.462334 
L 409.322324 61.232742 
L 409.424597 58.397993 
L 409.629143 38.938475 
L 409.935962 55.660911 
L 410.038235 55.838996 
L 410.140508 77.369696 
L 410.242781 52.167311 
L 410.447327 79.469901 
L 410.651874 54.919545 
L 410.754147 76.383132 
L 410.85642 48.120957 
L 411.060966 81.960912 
L 411.163239 69.477657 
L 411.265512 83.810026 
L 411.470058 66.839081 
L 411.572331 78.76765 
L 411.674604 58.156787 
L 411.87915 68.381292 
L 411.981424 84.649561 
L 412.083697 79.489773 
L 412.18597 66.829769 
L 412.288243 86.846289 
L 412.492789 67.067505 
L 412.595062 81.425495 
L 412.697335 52.039162 
L 413.004154 104.448008 
L 413.106427 78.186805 
L 413.2087 86.965603 
L 413.310973 80.513899 
L 413.413247 90.316641 
L 413.51552 66.524734 
L 413.617793 90.160789 
L 413.720066 58.072864 
L 413.822339 88.560307 
L 413.924612 79.870986 
L 414.026885 95.541195 
L 414.129158 92.826758 
L 414.231431 62.95817 
L 414.435977 91.032577 
L 414.53825 32.075167 
L 414.742796 101.496759 
L 414.84507 102.361525 
L 415.049616 71.829409 
L 415.151889 97.815985 
L 415.254162 84.804531 
L 415.356435 89.154568 
L 415.458708 59.007073 
L 415.560981 93.430335 
L 415.8678 73.508658 
L 415.970073 91.755426 
L 416.072346 61.465467 
L 416.276893 86.856223 
L 416.379166 84.391193 
L 416.481439 77.168786 
L 416.583712 82.933103 
L 416.788258 60.279645 
L 416.890531 70.466148 
L 416.992804 69.39305 
L 417.095077 79.428925 
L 417.299623 39.202873 
L 417.401896 50.602179 
L 417.504169 74.923211 
L 417.606443 60.864645 
L 417.708716 73.296267 
L 417.810989 36.020339 
L 418.117808 65.998063 
L 418.322354 50.604957 
L 418.5269 77.694394 
L 418.833719 41.467226 
L 418.935992 66.572489 
L 419.140539 46.158421 
L 419.242812 66.38205 
L 419.345085 57.185842 
L 419.447358 63.163588 
L 419.549631 61.658791 
L 419.651904 55.617693 
L 419.754177 72.122358 
L 419.85645 60.438886 
L 419.958723 75.614889 
L 420.060996 43.255702 
L 420.163269 44.63823 
L 420.265542 45.631503 
L 420.470089 72.837076 
L 420.572362 56.180188 
L 420.776908 86.431774 
L 420.879181 70.11526 
L 420.981454 74.536362 
L 421.083727 63.185754 
L 421.186 70.77444 
L 421.288273 65.145893 
L 421.390546 52.939002 
L 421.492819 69.124947 
L 421.595092 57.823195 
L 421.697365 62.44818 
L 421.799638 58.814903 
L 421.901912 66.618968 
L 422.004185 66.42874 
L 422.106458 72.669711 
L 422.208731 68.942426 
L 422.311004 89.963429 
L 422.413277 62.327151 
L 422.51555 66.671858 
L 422.617823 81.71216 
L 422.720096 76.415162 
L 422.822369 61.336419 
L 422.924642 70.354977 
L 423.026915 63.095158 
L 423.129188 83.205827 
L 423.231461 79.570767 
L 423.333735 62.928489 
L 423.436008 69.303869 
L 423.538281 86.622597 
L 423.640554 76.720722 
L 423.742827 82.362146 
L 423.8451 65.878077 
L 423.947373 69.669935 
L 424.049646 107.365313 
L 424.254192 75.595185 
L 424.458738 95.659662 
L 424.561011 88.896852 
L 424.663285 73.138332 
L 424.867831 93.79714 
L 425.072377 58.720503 
L 425.276923 95.254484 
L 425.379196 91.84774 
L 425.481469 70.446051 
L 425.583742 74.915253 
L 425.686015 73.065462 
L 425.788288 91.528408 
L 425.890561 88.277785 
L 426.095108 57.811767 
L 426.197381 95.814643 
L 426.299654 58.30834 
L 426.5042 78.781385 
L 426.708746 47.932891 
L 426.811019 85.075441 
L 426.913292 62.813078 
L 427.015565 120.890598 
L 427.220111 60.033073 
L 427.322384 68.359953 
L 427.424657 86.81354 
L 427.629204 76.735537 
L 427.731477 48.232356 
L 427.936023 60.668497 
L 428.038296 41.92094 
L 428.140569 87.308479 
L 428.345115 74.53046 
L 428.549661 62.60155 
L 428.651934 79.812177 
L 428.85648 58.133531 
L 428.958754 63.862506 
L 429.061027 58.727986 
L 429.1633 44.277258 
L 429.470119 54.688527 
L 429.674665 73.423201 
L 429.776938 72.133864 
L 429.879211 33.634556 
L 429.981484 36.037651 
L 430.083757 40.105486 
L 430.18603 75.040261 
L 430.390577 51.093877 
L 430.49285 53.878425 
L 430.595123 78.314035 
L 430.697396 49.616841 
L 430.799669 72.116294 
L 430.901942 64.26104 
L 431.004215 89.219876 
L 431.106488 46.030174 
L 431.208761 67.216628 
L 431.413307 53.563672 
L 431.51558 71.98016 
L 431.617853 40.759374 
L 431.720127 68.173268 
L 431.8224 57.978376 
L 431.924673 61.939512 
L 432.026946 54.630975 
L 432.129219 89.111029 
L 432.231492 85.509481 
L 432.333765 76.256332 
L 432.538311 53.724746 
L 432.640584 88.047616 
L 432.742857 77.650538 
L 432.84513 52.984088 
L 433.15195 80.235813 
L 433.254223 68.256567 
L 433.356496 94.44116 
L 433.458769 72.840202 
L 433.561042 72.873193 
L 433.663315 99.686439 
L 433.867861 78.953031 
L 434.072407 56.78278 
L 434.17468 63.727383 
L 434.276953 92.898744 
L 434.481499 71.933659 
L 434.686046 101.862391 
L 434.890592 77.011242 
L 434.992865 76.976703 
L 435.095138 73.720058 
L 435.197411 81.809257 
L 435.299684 76.157475 
L 435.401957 77.869272 
L 435.50423 75.804577 
L 435.606503 92.05114 
L 435.708776 69.563079 
L 435.913322 94.930307 
L 436.015596 69.811754 
L 436.117869 72.169279 
L 436.220142 110.928186 
L 436.629234 72.659563 
L 436.731507 61.620459 
L 436.83378 78.144972 
L 437.038326 69.617461 
L 437.140599 88.978448 
L 437.345145 66.292862 
L 437.447419 65.519639 
L 437.549692 70.597108 
L 437.651965 66.346927 
L 437.754238 84.945022 
L 437.856511 54.004582 
L 437.958784 90.760431 
L 438.265603 56.049408 
L 438.470149 67.558511 
L 438.776969 48.160871 
L 438.879242 63.487251 
L 438.981515 33.569833 
L 439.186061 47.304219 
L 439.288334 44.759637 
L 439.390607 67.492308 
L 439.49288 54.256038 
L 439.595153 67.590018 
L 439.697426 61.064919 
L 439.799699 61.135303 
L 439.901972 60.458137 
L 440.004245 69.334808 
L 440.106518 43.978703 
L 440.208792 55.82088 
L 440.311065 45.699159 
L 440.413338 77.707856 
L 440.515611 63.307719 
L 440.617884 72.285442 
L 440.720157 55.446993 
L 440.82243 60.265189 
L 440.924703 73.621287 
L 441.129249 49.35385 
L 441.333795 68.233653 
L 441.436068 51.519321 
L 441.538341 53.858411 
L 441.640615 44.904652 
L 441.742888 54.684736 
L 441.845161 84.614728 
L 441.947434 56.487273 
L 442.049707 80.147112 
L 442.356526 46.111555 
L 442.561072 55.72801 
L 442.765618 81.461398 
L 442.867891 79.158972 
L 442.970164 80.211323 
L 443.072438 83.521844 
L 443.174711 64.28439 
L 443.276984 84.648083 
L 443.379257 81.381161 
L 443.48153 102.90847 
L 443.686076 80.014893 
L 443.788349 84.787815 
L 443.890622 79.466882 
L 443.992895 98.786034 
L 444.299714 69.893808 
L 444.401988 77.422617 
L 444.504261 101.820799 
L 444.606534 99.671373 
L 444.708807 59.693939 
L 445.015626 106.037817 
L 445.220172 78.852785 
L 445.322445 105.526334 
L 445.526991 59.244376 
L 445.629264 90.146889 
L 445.731537 78.630914 
L 445.833811 82.101506 
L 445.936084 72.931214 
L 446.038357 75.631657 
L 446.345176 64.417066 
L 446.549722 96.027984 
L 446.651995 59.353523 
L 446.856541 82.923771 
L 447.061087 61.79628 
L 447.16336 103.632891 
L 447.367907 55.167062 
L 447.776999 89.045389 
L 447.879272 52.380975 
L 448.083818 83.453516 
L 448.288364 54.775039 
L 448.390637 69.661623 
L 448.49291 51.946531 
L 448.697457 82.986541 
L 448.79973 60.377914 
L 448.902003 69.857961 
L 449.106549 39.83693 
L 449.208822 51.189357 
L 449.311095 38.613853 
L 449.413368 47.539325 
L 449.515641 37.810364 
L 449.720187 69.360183 
L 449.924733 47.729062 
L 450.12928 59.507203 
L 450.231553 54.980917 
L 450.333826 67.108887 
L 450.538372 46.675434 
L 450.640645 52.706092 
L 450.742918 68.526478 
L 450.947464 57.375748 
L 451.049737 84.219585 
L 451.15201 63.13632 
L 451.254283 80.904972 
L 451.356556 61.719083 
L 451.45883 88.170125 
L 451.561103 68.468379 
L 451.765649 77.167007 
L 451.867922 73.900063 
L 451.970195 80.471559 
L 452.072468 78.426025 
L 452.174741 73.021446 
L 452.277014 74.999867 
L 452.583833 55.722972 
L 452.686106 74.439356 
L 452.890653 61.019749 
L 452.992926 81.222889 
L 453.197472 67.370671 
L 453.299745 70.2669 
L 453.402018 92.087466 
L 453.504291 75.574061 
L 453.606564 79.4303 
L 453.81111 71.357683 
L 453.913383 72.474399 
L 454.117929 88.839556 
L 454.220202 85.178702 
L 454.424749 59.314154 
L 454.629295 87.353038 
L 454.731568 53.607709 
L 454.833841 113.788433 
L 454.936114 87.344634 
L 455.038387 105.533202 
L 455.242933 71.297851 
L 455.447479 90.88693 
L 455.549752 95.38562 
L 455.652025 64.537797 
L 455.856572 102.951741 
L 455.958845 95.774214 
L 456.163391 63.539834 
L 456.367937 90.141427 
L 456.47021 85.914269 
L 456.572483 84.363239 
L 456.674756 80.845654 
L 456.777029 59.716274 
L 456.879302 92.346351 
L 456.981575 68.600852 
L 457.083848 98.55496 
L 457.186122 67.296955 
L 457.288395 85.423033 
L 457.390668 72.744035 
L 457.595214 77.348207 
L 457.697487 60.959925 
L 457.697487 60.959925 
" style="fill:none;stroke:#1f77b4;stroke-linecap:square;stroke-width:2;"/>
   </g>
   <g id="patch_6">
    <path d="M 253.253615 123.450385 
L 253.253615 19.64024 
" style="fill:none;stroke:#000000;stroke-linecap:square;stroke-linejoin:miter;stroke-width:0.8;"/>
   </g>
   <g id="patch_7">
    <path d="M 253.253615 123.450385 
L 457.79976 123.450385 
" style="fill:none;stroke:#000000;stroke-linecap:square;stroke-linejoin:miter;stroke-width:0.8;"/>
   </g>
   <g id="text_6">
    <!-- Noise plus signal ($X=1$) -->
    <defs>
     <path d="M 18.109375 8.203125 
L 18.109375 -20.796875 
L 9.078125 -20.796875 
L 9.078125 54.6875 
L 18.109375 54.6875 
L 18.109375 46.390625 
Q 20.953125 51.265625 25.265625 53.625 
Q 29.59375 56 35.59375 56 
Q 45.5625 56 51.78125 48.09375 
Q 58.015625 40.1875 58.015625 27.296875 
Q 58.015625 14.40625 51.78125 6.484375 
Q 45.5625 -1.421875 35.59375 -1.421875 
Q 29.59375 -1.421875 25.265625 0.953125 
Q 20.953125 3.328125 18.109375 8.203125 
z
M 48.6875 27.296875 
Q 48.6875 37.203125 44.609375 42.84375 
Q 40.53125 48.484375 33.40625 48.484375 
Q 26.265625 48.484375 22.1875 42.84375 
Q 18.109375 37.203125 18.109375 27.296875 
Q 18.109375 17.390625 22.1875 11.75 
Q 26.265625 6.109375 33.40625 6.109375 
Q 40.53125 6.109375 44.609375 11.75 
Q 48.6875 17.390625 48.6875 27.296875 
z
" id="DejaVuSans-112"/>
     <path d="M 9.421875 75.984375 
L 18.40625 75.984375 
L 18.40625 0 
L 9.421875 0 
z
" id="DejaVuSans-108"/>
     <path d="M 45.40625 27.984375 
Q 45.40625 37.75 41.375 43.109375 
Q 37.359375 48.484375 30.078125 48.484375 
Q 22.859375 48.484375 18.828125 43.109375 
Q 14.796875 37.75 14.796875 27.984375 
Q 14.796875 18.265625 18.828125 12.890625 
Q 22.859375 7.515625 30.078125 7.515625 
Q 37.359375 7.515625 41.375 12.890625 
Q 45.40625 18.265625 45.40625 27.984375 
z
M 54.390625 6.78125 
Q 54.390625 -7.171875 48.1875 -13.984375 
Q 42 -20.796875 29.203125 -20.796875 
Q 24.46875 -20.796875 20.265625 -20.09375 
Q 16.0625 -19.390625 12.109375 -17.921875 
L 12.109375 -9.1875 
Q 16.0625 -11.328125 19.921875 -12.34375 
Q 23.78125 -13.375 27.78125 -13.375 
Q 36.625 -13.375 41.015625 -8.765625 
Q 45.40625 -4.15625 45.40625 5.171875 
L 45.40625 9.625 
Q 42.625 4.78125 38.28125 2.390625 
Q 33.9375 0 27.875 0 
Q 17.828125 0 11.671875 7.65625 
Q 5.515625 15.328125 5.515625 27.984375 
Q 5.515625 40.671875 11.671875 48.328125 
Q 17.828125 56 27.875 56 
Q 33.9375 56 38.28125 53.609375 
Q 42.625 51.21875 45.40625 46.390625 
L 45.40625 54.6875 
L 54.390625 54.6875 
z
" id="DejaVuSans-103"/>
     <path d="M 54.890625 33.015625 
L 54.890625 0 
L 45.90625 0 
L 45.90625 32.71875 
Q 45.90625 40.484375 42.875 44.328125 
Q 39.84375 48.1875 33.796875 48.1875 
Q 26.515625 48.1875 22.3125 43.546875 
Q 18.109375 38.921875 18.109375 30.90625 
L 18.109375 0 
L 9.078125 0 
L 9.078125 54.6875 
L 18.109375 54.6875 
L 18.109375 46.1875 
Q 21.34375 51.125 25.703125 53.5625 
Q 30.078125 56 35.796875 56 
Q 45.21875 56 50.046875 50.171875 
Q 54.890625 44.34375 54.890625 33.015625 
z
" id="DejaVuSans-110"/>
     <path d="M 34.28125 27.484375 
Q 23.390625 27.484375 19.1875 25 
Q 14.984375 22.515625 14.984375 16.5 
Q 14.984375 11.71875 18.140625 8.90625 
Q 21.296875 6.109375 26.703125 6.109375 
Q 34.1875 6.109375 38.703125 11.40625 
Q 43.21875 16.703125 43.21875 25.484375 
L 43.21875 27.484375 
z
M 52.203125 31.203125 
L 52.203125 0 
L 43.21875 0 
L 43.21875 8.296875 
Q 40.140625 3.328125 35.546875 0.953125 
Q 30.953125 -1.421875 24.3125 -1.421875 
Q 15.921875 -1.421875 10.953125 3.296875 
Q 6 8.015625 6 15.921875 
Q 6 25.140625 12.171875 29.828125 
Q 18.359375 34.515625 30.609375 34.515625 
L 43.21875 34.515625 
L 43.21875 35.40625 
Q 43.21875 41.609375 39.140625 45 
Q 35.0625 48.390625 27.6875 48.390625 
Q 23 48.390625 18.546875 47.265625 
Q 14.109375 46.140625 10.015625 43.890625 
L 10.015625 52.203125 
Q 14.9375 54.109375 19.578125 55.046875 
Q 24.21875 56 28.609375 56 
Q 40.484375 56 46.34375 49.84375 
Q 52.203125 43.703125 52.203125 31.203125 
z
" id="DejaVuSans-97"/>
     <path d="M 12.40625 8.296875 
L 28.515625 8.296875 
L 28.515625 63.921875 
L 10.984375 60.40625 
L 10.984375 69.390625 
L 28.421875 72.90625 
L 38.28125 72.90625 
L 38.28125 8.296875 
L 54.390625 8.296875 
L 54.390625 0 
L 12.40625 0 
z
" id="DejaVuSans-49"/>
    </defs>
    <g transform="translate(270.896687 13.64024)scale(0.14 -0.14)">
     <use transform="translate(0 0.015625)" xlink:href="#DejaVuSans-78"/>
     <use transform="translate(74.804688 0.015625)" xlink:href="#DejaVuSans-111"/>
     <use transform="translate(135.986328 0.015625)" xlink:href="#DejaVuSans-105"/>
     <use transform="translate(163.769531 0.015625)" xlink:href="#DejaVuSans-115"/>
     <use transform="translate(215.869141 0.015625)" xlink:href="#DejaVuSans-101"/>
     <use transform="translate(277.392578 0.015625)" xlink:href="#DejaVuSans-32"/>
     <use transform="translate(309.179688 0.015625)" xlink:href="#DejaVuSans-112"/>
     <use transform="translate(372.65625 0.015625)" xlink:href="#DejaVuSans-108"/>
     <use transform="translate(400.439453 0.015625)" xlink:href="#DejaVuSans-117"/>
     <use transform="translate(463.818359 0.015625)" xlink:href="#DejaVuSans-115"/>
     <use transform="translate(515.917969 0.015625)" xlink:href="#DejaVuSans-32"/>
     <use transform="translate(547.705078 0.015625)" xlink:href="#DejaVuSans-115"/>
     <use transform="translate(599.804688 0.015625)" xlink:href="#DejaVuSans-105"/>
     <use transform="translate(627.587891 0.015625)" xlink:href="#DejaVuSans-103"/>
     <use transform="translate(691.064453 0.015625)" xlink:href="#DejaVuSans-110"/>
     <use transform="translate(754.443359 0.015625)" xlink:href="#DejaVuSans-97"/>
     <use transform="translate(815.722656 0.015625)" xlink:href="#DejaVuSans-108"/>
     <use transform="translate(843.505859 0.015625)" xlink:href="#DejaVuSans-32"/>
     <use transform="translate(875.292969 0.015625)" xlink:href="#DejaVuSans-40"/>
     <use transform="translate(914.306641 0.015625)" xlink:href="#DejaVuSans-Oblique-88"/>
     <use transform="translate(1002.294922 0.015625)" xlink:href="#DejaVuSans-61"/>
     <use transform="translate(1105.566406 0.015625)" xlink:href="#DejaVuSans-49"/>
     <use transform="translate(1169.189453 0.015625)" xlink:href="#DejaVuSans-41"/>
    </g>
   </g>
  </g>
 </g>
 <defs>
  <clipPath id="pb38ddd7efa">
   <rect height="103.810145" width="204.546145" x="20.549615" y="19.64024"/>
  </clipPath>
  <clipPath id="pdd3738241a">
   <rect height="103.810145" width="204.546145" x="253.253615" y="19.64024"/>
  </clipPath>
 </defs>
</svg>
