<?xml version="1.0" encoding="utf-8" standalone="no"?>
<!DOCTYPE svg PUBLIC "-//W3C//DTD SVG 1.1//EN"
  "http://www.w3.org/Graphics/SVG/1.1/DTD/svg11.dtd">
<!-- Created with matplotlib (https://matplotlib.org/) -->
<svg height="144pt" version="1.1" viewBox="0 0 460.8 144" width="460.8pt" xmlns="http://www.w3.org/2000/svg" xmlns:xlink="http://www.w3.org/1999/xlink">
 <defs>
  <style type="text/css">
*{stroke-linecap:butt;stroke-linejoin:round;}
  </style>
 </defs>
 <g id="figure_1">
  <g id="patch_1">
   <path d="M 0 144 
L 460.8 144 
L 460.8 0 
L 0 0 
z
" style="fill:none;"/>
  </g>
  <g id="axes_1">
   <g id="patch_2">
    <path d="M 20.549615 123.450385 
L 454.29976 123.450385 
L 454.29976 6.50024 
L 20.549615 6.50024 
z
" style="fill:none;"/>
   </g>
   <g id="matplotlib.axis_1">
    <g id="text_1">
     <!-- Time -->
     <defs>
      <path d="M -0.296875 72.90625 
L 61.375 72.90625 
L 61.375 64.59375 
L 35.5 64.59375 
L 35.5 0 
L 25.59375 0 
L 25.59375 64.59375 
L -0.296875 64.59375 
z
" id="DejaVuSans-84"/>
      <path d="M 9.421875 54.6875 
L 18.40625 54.6875 
L 18.40625 0 
L 9.421875 0 
z
M 9.421875 75.984375 
L 18.40625 75.984375 
L 18.40625 64.59375 
L 9.421875 64.59375 
z
" id="DejaVuSans-105"/>
      <path d="M 52 44.1875 
Q 55.375 50.25 60.0625 53.125 
Q 64.75 56 71.09375 56 
Q 79.640625 56 84.28125 50.015625 
Q 88.921875 44.046875 88.921875 33.015625 
L 88.921875 0 
L 79.890625 0 
L 79.890625 32.71875 
Q 79.890625 40.578125 77.09375 44.375 
Q 74.3125 48.1875 68.609375 48.1875 
Q 61.625 48.1875 57.5625 43.546875 
Q 53.515625 38.921875 53.515625 30.90625 
L 53.515625 0 
L 44.484375 0 
L 44.484375 32.71875 
Q 44.484375 40.625 41.703125 44.40625 
Q 38.921875 48.1875 33.109375 48.1875 
Q 26.21875 48.1875 22.15625 43.53125 
Q 18.109375 38.875 18.109375 30.90625 
L 18.109375 0 
L 9.078125 0 
L 9.078125 54.6875 
L 18.109375 54.6875 
L 18.109375 46.1875 
Q 21.1875 51.21875 25.484375 53.609375 
Q 29.78125 56 35.6875 56 
Q 41.65625 56 45.828125 52.96875 
Q 50 49.953125 52 44.1875 
z
" id="DejaVuSans-109"/>
      <path d="M 56.203125 29.59375 
L 56.203125 25.203125 
L 14.890625 25.203125 
Q 15.484375 15.921875 20.484375 11.0625 
Q 25.484375 6.203125 34.421875 6.203125 
Q 39.59375 6.203125 44.453125 7.46875 
Q 49.3125 8.734375 54.109375 11.28125 
L 54.109375 2.78125 
Q 49.265625 0.734375 44.1875 -0.34375 
Q 39.109375 -1.421875 33.890625 -1.421875 
Q 20.796875 -1.421875 13.15625 6.1875 
Q 5.515625 13.8125 5.515625 26.8125 
Q 5.515625 40.234375 12.765625 48.109375 
Q 20.015625 56 32.328125 56 
Q 43.359375 56 49.78125 48.890625 
Q 56.203125 41.796875 56.203125 29.59375 
z
M 47.21875 32.234375 
Q 47.125 39.59375 43.09375 43.984375 
Q 39.0625 48.390625 32.421875 48.390625 
Q 24.90625 48.390625 20.390625 44.140625 
Q 15.875 39.890625 15.1875 32.171875 
z
" id="DejaVuSans-101"/>
     </defs>
     <g transform="translate(220.082188 138.088198)scale(0.14 -0.14)">
      <use xlink:href="#DejaVuSans-84"/>
      <use x="61.037109" xlink:href="#DejaVuSans-105"/>
      <use x="88.820312" xlink:href="#DejaVuSans-109"/>
      <use x="186.232422" xlink:href="#DejaVuSans-101"/>
     </g>
    </g>
   </g>
   <g id="matplotlib.axis_2">
    <g id="text_2">
     <!-- Pressure -->
     <defs>
      <path d="M 19.671875 64.796875 
L 19.671875 37.40625 
L 32.078125 37.40625 
Q 38.96875 37.40625 42.71875 40.96875 
Q 46.484375 44.53125 46.484375 51.125 
Q 46.484375 57.671875 42.71875 61.234375 
Q 38.96875 64.796875 32.078125 64.796875 
z
M 9.8125 72.90625 
L 32.078125 72.90625 
Q 44.34375 72.90625 50.609375 67.359375 
Q 56.890625 61.8125 56.890625 51.125 
Q 56.890625 40.328125 50.609375 34.8125 
Q 44.34375 29.296875 32.078125 29.296875 
L 19.671875 29.296875 
L 19.671875 0 
L 9.8125 0 
z
" id="DejaVuSans-80"/>
      <path d="M 41.109375 46.296875 
Q 39.59375 47.171875 37.8125 47.578125 
Q 36.03125 48 33.890625 48 
Q 26.265625 48 22.1875 43.046875 
Q 18.109375 38.09375 18.109375 28.8125 
L 18.109375 0 
L 9.078125 0 
L 9.078125 54.6875 
L 18.109375 54.6875 
L 18.109375 46.1875 
Q 20.953125 51.171875 25.484375 53.578125 
Q 30.03125 56 36.53125 56 
Q 37.453125 56 38.578125 55.875 
Q 39.703125 55.765625 41.0625 55.515625 
z
" id="DejaVuSans-114"/>
      <path d="M 44.28125 53.078125 
L 44.28125 44.578125 
Q 40.484375 46.53125 36.375 47.5 
Q 32.28125 48.484375 27.875 48.484375 
Q 21.1875 48.484375 17.84375 46.4375 
Q 14.5 44.390625 14.5 40.28125 
Q 14.5 37.15625 16.890625 35.375 
Q 19.28125 33.59375 26.515625 31.984375 
L 29.59375 31.296875 
Q 39.15625 29.25 43.1875 25.515625 
Q 47.21875 21.78125 47.21875 15.09375 
Q 47.21875 7.46875 41.1875 3.015625 
Q 35.15625 -1.421875 24.609375 -1.421875 
Q 20.21875 -1.421875 15.453125 -0.5625 
Q 10.6875 0.296875 5.421875 2 
L 5.421875 11.28125 
Q 10.40625 8.6875 15.234375 7.390625 
Q 20.0625 6.109375 24.8125 6.109375 
Q 31.15625 6.109375 34.5625 8.28125 
Q 37.984375 10.453125 37.984375 14.40625 
Q 37.984375 18.0625 35.515625 20.015625 
Q 33.0625 21.96875 24.703125 23.78125 
L 21.578125 24.515625 
Q 13.234375 26.265625 9.515625 29.90625 
Q 5.8125 33.546875 5.8125 39.890625 
Q 5.8125 47.609375 11.28125 51.796875 
Q 16.75 56 26.8125 56 
Q 31.78125 56 36.171875 55.265625 
Q 40.578125 54.546875 44.28125 53.078125 
z
" id="DejaVuSans-115"/>
      <path d="M 8.5 21.578125 
L 8.5 54.6875 
L 17.484375 54.6875 
L 17.484375 21.921875 
Q 17.484375 14.15625 20.5 10.265625 
Q 23.53125 6.390625 29.59375 6.390625 
Q 36.859375 6.390625 41.078125 11.03125 
Q 45.3125 15.671875 45.3125 23.6875 
L 45.3125 54.6875 
L 54.296875 54.6875 
L 54.296875 0 
L 45.3125 0 
L 45.3125 8.40625 
Q 42.046875 3.421875 37.71875 1 
Q 33.40625 -1.421875 27.6875 -1.421875 
Q 18.265625 -1.421875 13.375 4.4375 
Q 8.5 10.296875 8.5 21.578125 
z
M 31.109375 56 
z
" id="DejaVuSans-117"/>
     </defs>
     <g transform="translate(13.638053 95.289687)rotate(-90)scale(0.14 -0.14)">
      <use xlink:href="#DejaVuSans-80"/>
      <use x="60.287109" xlink:href="#DejaVuSans-114"/>
      <use x="101.369141" xlink:href="#DejaVuSans-101"/>
      <use x="162.892578" xlink:href="#DejaVuSans-115"/>
      <use x="214.992188" xlink:href="#DejaVuSans-115"/>
      <use x="267.091797" xlink:href="#DejaVuSans-117"/>
      <use x="330.470703" xlink:href="#DejaVuSans-114"/>
      <use x="371.552734" xlink:href="#DejaVuSans-101"/>
     </g>
    </g>
   </g>
   <g id="line2d_1">
    <path clip-path="url(#p44984efd75)" d="M 20.549615 64.975313 
L 21.76923 25.458653 
L 22.369202 12.675872 
L 22.792133 7.74157 
L 23.06753 6.544389 
L 23.165886 6.513109 
L 23.195393 6.544551 
L 23.333091 6.93994 
L 23.549474 8.381714 
L 23.864214 12.216571 
L 24.29698 20.597818 
L 24.896952 37.114949 
L 25.99854 75.076294 
L 26.991936 106.016698 
L 27.572236 117.887552 
L 27.975496 122.349193 
L 28.241057 123.418922 
L 28.339414 123.429016 
L 28.359085 123.405912 
L 28.496783 123.010175 
L 28.713166 121.567862 
L 29.027906 117.732258 
L 29.460672 109.350094 
L 30.060644 92.832013 
L 31.162232 54.870228 
L 32.155628 23.93096 
L 32.735929 12.0613 
L 33.139188 7.600628 
L 33.40475 6.531567 
L 33.503106 6.521722 
L 33.522777 6.544876 
L 33.660475 6.94096 
L 33.876859 8.383811 
L 34.191598 12.220164 
L 34.624365 20.603244 
L 35.224336 37.122275 
L 36.325924 75.0845 
L 37.31932 106.022632 
L 37.899621 117.891098 
L 38.302881 122.350802 
L 38.568442 123.419194 
L 38.666798 123.42879 
L 38.686469 123.405587 
L 38.824168 123.009154 
L 39.040551 121.565765 
L 39.35529 117.728664 
L 39.788057 109.344668 
L 40.388029 92.824687 
L 41.499452 54.517556 
L 42.483012 23.925026 
L 43.063313 12.057754 
L 43.466573 7.59902 
L 43.732134 6.531295 
L 43.83049 6.521948 
L 43.850161 6.545202 
L 43.98786 6.941982 
L 44.204243 8.385909 
L 44.518982 12.223758 
L 44.951749 20.608671 
L 45.551721 37.129601 
L 46.663144 75.437167 
L 47.646705 106.028566 
L 48.227005 117.894643 
L 48.630265 122.352409 
L 48.895826 123.419466 
L 48.994182 123.428563 
L 49.013854 123.40526 
L 49.151552 123.008132 
L 49.367935 121.563666 
L 49.682675 117.725069 
L 50.115441 109.339241 
L 50.715413 92.817361 
L 51.826836 54.509359 
L 52.810397 23.919093 
L 53.390697 12.05421 
L 53.793957 7.597413 
L 54.059518 6.531024 
L 54.157875 6.522176 
L 54.177546 6.545529 
L 54.315244 6.943005 
L 54.531627 8.388009 
L 54.846367 12.227354 
L 55.279133 20.614098 
L 55.879105 37.136927 
L 56.990529 75.445364 
L 57.974089 106.034498 
L 58.55439 117.898187 
L 58.957649 122.354015 
L 59.223211 123.419736 
L 59.321567 123.428335 
L 59.341238 123.404932 
L 59.478936 123.007109 
L 59.69532 121.561566 
L 60.010059 117.721473 
L 60.442826 109.333813 
L 61.042797 92.810034 
L 62.154221 54.501162 
L 63.137781 23.913161 
L 63.718082 12.050666 
L 64.121342 7.595807 
L 64.386903 6.530754 
L 64.485259 6.522404 
L 64.50493 6.545857 
L 64.642629 6.944029 
L 64.859012 8.390109 
L 65.173751 12.23095 
L 65.606518 20.619527 
L 66.20649 37.144254 
L 67.317913 75.453561 
L 68.301473 106.04043 
L 68.881774 117.90173 
L 69.285034 122.355621 
L 69.550595 123.420005 
L 69.648951 123.428106 
L 69.668622 123.404603 
L 69.806321 123.006084 
L 70.022704 121.559465 
L 70.337443 117.717876 
L 70.77021 109.328384 
L 71.370182 92.802707 
L 72.481605 54.492966 
L 73.465166 23.90723 
L 74.045466 12.047124 
L 74.448726 7.594202 
L 74.714287 6.530485 
L 74.812643 6.522634 
L 74.832315 6.546187 
L 74.970013 6.945054 
L 75.186396 8.392211 
L 75.501136 12.234548 
L 75.933902 20.624956 
L 76.533874 37.151582 
L 77.645297 75.461758 
L 78.628858 106.046361 
L 79.209158 117.905272 
L 79.612418 122.357225 
L 79.87798 123.420273 
L 79.976336 123.427875 
L 79.996007 123.404273 
L 80.133705 123.005058 
L 80.350089 121.557363 
L 80.664828 117.714278 
L 81.097594 109.322954 
L 81.697566 92.795379 
L 82.80899 54.484769 
L 83.79255 23.901299 
L 84.372851 12.043583 
L 84.77611 7.592599 
L 85.041672 6.530218 
L 85.140028 6.522865 
L 85.159699 6.546518 
L 85.297397 6.94608 
L 85.513781 8.394314 
L 85.82852 12.238146 
L 86.261287 20.630387 
L 86.861258 37.15891 
L 87.972682 75.469954 
L 88.956242 106.052291 
L 89.536543 117.908812 
L 89.939803 122.358827 
L 90.205364 123.42054 
L 90.30372 123.427644 
L 90.323391 123.403941 
L 90.46109 123.004031 
L 90.677473 121.55526 
L 90.992212 117.710679 
L 91.424979 109.317523 
L 92.024951 92.788051 
L 93.136374 54.476573 
L 94.119934 23.89537 
L 94.700235 12.040043 
L 95.103495 7.590997 
L 95.369056 6.529952 
L 95.467412 6.523098 
L 95.487083 6.54685 
L 95.624782 6.947107 
L 95.841165 8.396417 
L 96.155904 12.241746 
L 96.588671 20.635818 
L 97.188643 37.166239 
L 98.300066 75.47815 
L 99.283627 106.05822 
L 99.863927 117.912352 
L 100.267187 122.360429 
L 100.532748 123.420806 
L 100.631104 123.427411 
L 100.650776 123.403609 
L 100.788474 123.003003 
L 101.004857 121.553155 
L 101.319597 117.707079 
L 101.752363 109.312091 
L 102.352335 92.780722 
L 103.463758 54.468377 
L 104.447319 23.889441 
L 105.027619 12.036503 
L 105.430879 7.589395 
L 105.696441 6.529687 
L 105.794797 6.523331 
L 105.814468 6.547183 
L 105.952166 6.948136 
L 106.16855 8.398522 
L 106.483289 12.245347 
L 106.916055 20.64125 
L 107.516027 37.173568 
L 108.627451 75.486346 
L 109.611011 106.064148 
L 110.191312 117.915891 
L 110.594571 122.36203 
L 110.860133 123.42107 
L 110.958489 123.427177 
L 110.97816 123.403275 
L 111.115858 123.001974 
L 111.332242 121.55105 
L 111.646981 117.703477 
L 112.079748 109.306659 
L 112.679719 92.773392 
L 113.791143 54.460181 
L 114.774703 23.883513 
L 115.355004 12.032965 
L 115.758264 7.587795 
L 116.023825 6.529423 
L 116.122181 6.523566 
L 116.141852 6.547517 
L 116.279551 6.949166 
L 116.495934 8.400629 
L 116.810673 12.248949 
L 117.24344 20.646683 
L 117.843412 37.180898 
L 118.954835 75.494542 
L 119.938395 106.070076 
L 120.518696 117.919428 
L 120.921956 122.363629 
L 121.187517 123.421333 
L 121.285873 123.426941 
L 121.305544 123.40294 
L 121.443243 123.000944 
L 121.659626 121.548943 
L 121.974365 117.699875 
L 122.407132 109.301225 
L 123.007104 92.766062 
L 124.118527 54.451986 
L 125.102088 23.877586 
L 125.682388 12.029428 
L 126.085648 7.586197 
L 126.351209 6.529161 
L 126.449565 6.523802 
L 126.469237 6.547853 
L 126.606935 6.950197 
L 126.823318 8.402736 
L 127.138058 12.252552 
L 127.570824 20.652117 
L 128.170796 37.188228 
L 129.282219 75.502737 
L 130.26578 106.076003 
L 130.84608 117.922965 
L 131.24934 122.365227 
L 131.514902 123.421595 
L 131.613258 123.426705 
L 131.632929 123.402604 
L 131.770627 122.999912 
L 131.987011 121.546835 
L 132.30175 117.696271 
L 132.734516 109.295791 
L 133.334488 92.758731 
L 134.445912 54.44379 
L 135.429472 23.871659 
L 136.009773 12.025893 
L 136.413032 7.584599 
L 136.678594 6.528899 
L 136.77695 6.524039 
L 136.796621 6.54819 
L 136.934319 6.951229 
L 137.150703 8.404844 
L 137.465442 12.256156 
L 137.898209 20.657552 
L 138.498181 37.195559 
L 139.609604 75.510932 
L 140.593164 106.081928 
L 141.173465 117.9265 
L 141.576725 122.366824 
L 141.842286 123.421856 
L 141.940642 123.426467 
L 141.960313 123.402267 
L 142.098012 122.99888 
L 142.314395 121.544726 
L 142.629134 117.692667 
L 143.061901 109.290355 
L 143.661873 92.7514 
L 144.773296 54.435595 
L 145.756856 23.865734 
L 146.337157 12.022358 
L 146.740417 7.583003 
L 147.005978 6.528639 
L 147.104334 6.524277 
L 147.124005 6.548527 
L 147.261704 6.952262 
L 147.478087 8.406954 
L 147.792826 12.259761 
L 148.225593 20.662988 
L 148.825565 37.202891 
L 149.936988 75.519127 
L 150.920549 106.087853 
L 151.500849 117.930034 
L 151.904109 122.36842 
L 152.16967 123.422116 
L 152.268026 123.426228 
L 152.287698 123.401928 
L 152.425396 122.997846 
L 152.641779 121.542616 
L 152.956519 117.689061 
L 153.389285 109.284919 
L 153.989257 92.744068 
L 155.10068 54.4274 
L 156.084241 23.859809 
L 156.664541 12.018824 
L 157.067801 7.581407 
L 157.333363 6.52838 
L 157.431719 6.524517 
L 157.45139 6.548867 
L 157.589088 6.953297 
L 157.805472 8.409065 
L 158.120211 12.263367 
L 158.552977 20.668424 
L 159.152949 37.210223 
L 160.264373 75.527322 
L 161.247933 106.093778 
L 161.828234 117.933568 
L 162.231493 122.370015 
L 162.497055 123.422374 
L 162.595411 123.425988 
L 162.615082 123.401588 
L 162.75278 122.99681 
L 162.969164 121.540504 
L 163.283903 117.685455 
L 163.71667 109.279482 
L 164.316642 92.736736 
L 165.428065 54.419206 
L 166.411625 23.853886 
L 166.991926 12.015291 
L 167.395186 7.579813 
L 167.660747 6.528122 
L 167.759103 6.524757 
L 167.778774 6.549207 
L 167.916473 6.954333 
L 168.132856 8.411177 
L 168.447595 12.266974 
L 168.880362 20.673862 
L 169.480334 37.217556 
L 170.591757 75.535517 
L 171.575317 106.099701 
L 172.155618 117.9371 
L 172.558878 122.371608 
L 172.824439 123.422631 
L 172.922795 123.425747 
L 172.942466 123.401248 
L 173.080165 122.995774 
L 173.296548 121.538392 
L 173.611287 117.681847 
L 174.044054 109.274044 
L 174.644026 92.729403 
L 175.755449 54.411011 
L 176.73901 23.847963 
L 177.31931 12.01176 
L 177.72257 7.57822 
L 177.988131 6.527865 
L 178.086487 6.524999 
L 178.106159 6.549548 
L 178.243857 6.955369 
L 178.46024 8.41329 
L 178.77498 12.270582 
L 179.207746 20.6793 
L 179.807718 37.224889 
L 180.919141 75.543711 
L 181.902702 106.105624 
L 182.483002 117.940631 
L 182.886262 122.373201 
L 183.151824 123.422887 
L 183.25018 123.425504 
L 183.269851 123.400905 
L 183.407549 122.994737 
L 183.623933 121.536278 
L 183.938672 117.678238 
L 184.371438 109.268605 
L 184.97141 92.722069 
L 186.082834 54.402817 
L 187.066394 23.84204 
L 187.646695 12.008229 
L 188.049954 7.576628 
L 188.315516 6.52761 
L 188.413872 6.525242 
L 188.433543 6.549891 
L 188.571241 6.956407 
L 188.787625 8.415404 
L 189.102364 12.274192 
L 189.535131 20.68474 
L 190.135103 37.232223 
L 191.246526 75.551905 
L 192.230086 106.111545 
L 192.810387 117.944161 
L 193.213647 122.374792 
L 193.479208 123.423142 
L 193.577564 123.425261 
L 193.597235 123.400562 
L 193.734934 122.993698 
L 193.951317 121.534163 
L 194.266056 117.674628 
L 194.698823 109.263165 
L 195.298795 92.714735 
L 196.410218 54.394623 
L 197.393778 23.836119 
L 197.974079 12.0047 
L 198.377339 7.575038 
L 198.6429 6.527356 
L 198.741256 6.525486 
L 198.760927 6.550235 
L 198.898626 6.957447 
L 199.115009 8.417519 
L 199.429748 12.277802 
L 199.862515 20.69018 
L 200.462487 37.239557 
L 201.57391 75.560099 
L 202.557471 106.117466 
L 203.137771 117.94769 
L 203.541031 122.376382 
L 203.806592 123.423396 
L 203.904948 123.425016 
L 203.92462 123.400218 
L 204.062318 122.992658 
L 204.278701 121.532047 
L 204.593441 117.671017 
L 205.026207 109.257725 
L 205.626179 92.707401 
L 206.737602 54.386429 
L 207.721163 23.830199 
L 208.301463 12.001171 
L 208.704723 7.573448 
L 208.970285 6.527103 
L 209.068641 6.525732 
L 209.088312 6.55058 
L 209.22601 6.958487 
L 209.442394 8.419636 
L 209.757133 12.281414 
L 210.189899 20.695621 
L 210.789871 37.246892 
L 211.901295 75.568293 
L 212.884855 106.123386 
L 213.465156 117.951217 
L 213.868415 122.377971 
L 214.133977 123.423648 
L 214.232333 123.42477 
L 214.252004 123.399872 
L 214.389702 122.991617 
L 214.606086 121.52993 
L 214.920825 117.667405 
L 215.353592 109.252283 
L 215.953564 92.700065 
L 217.074822 54.034299 
L 218.048547 23.824279 
L 218.628848 11.997644 
L 219.032108 7.57186 
L 219.297669 6.526851 
L 219.396025 6.525978 
L 219.415696 6.550926 
L 219.553395 6.959529 
L 219.769778 8.421754 
L 220.084517 12.285026 
L 220.517284 20.701063 
L 221.117256 37.254227 
L 222.238515 75.920418 
L 223.212239 106.129305 
L 223.79254 117.954744 
L 224.1958 122.379559 
L 224.461361 123.4239 
L 224.559717 123.424523 
L 224.579388 123.399525 
L 224.717087 122.990575 
L 224.93347 121.527812 
L 225.24821 117.663792 
L 225.680976 109.246841 
L 226.280948 92.69273 
L 227.402207 54.026115 
L 228.375932 23.81836 
L 228.956232 11.994118 
L 229.359492 7.570273 
L 229.625053 6.5266 
L 229.723409 6.526226 
L 229.743081 6.551274 
L 229.880779 6.960571 
L 230.097162 8.423872 
L 230.411902 12.28864 
L 230.844668 20.706506 
L 231.44464 37.261563 
L 232.565899 75.928602 
L 233.539624 106.135224 
L 234.119924 117.95827 
L 234.523184 122.381145 
L 234.788746 123.42415 
L 234.887102 123.424275 
L 234.906773 123.399177 
L 235.044471 122.989532 
L 235.260855 121.525693 
L 235.575594 117.660178 
L 236.00836 109.241397 
L 236.608332 92.685393 
L 237.729591 54.017931 
L 238.703316 23.812442 
L 239.283617 11.990593 
L 239.686876 7.568687 
L 239.952438 6.52635 
L 240.050794 6.526475 
L 240.070465 6.551622 
L 240.208163 6.961615 
L 240.424547 8.425992 
L 240.739286 12.292255 
L 241.172053 20.71195 
L 241.772025 37.2689 
L 242.893283 75.936786 
L 243.867008 106.141141 
L 244.447309 117.961794 
L 244.850569 122.382731 
L 245.11613 123.424399 
L 245.214486 123.424025 
L 245.234157 123.398828 
L 245.371856 122.988487 
L 245.588239 121.523572 
L 245.902978 117.656563 
L 246.335745 109.235953 
L 246.935717 92.678056 
L 248.056976 54.009747 
L 249.0307 23.806525 
L 249.611001 11.987069 
L 250.014261 7.567102 
L 250.279822 6.526102 
L 250.378178 6.526725 
L 250.397849 6.551972 
L 250.535548 6.96266 
L 250.751931 8.428114 
L 251.066671 12.29587 
L 251.499437 20.717394 
L 252.099409 37.276237 
L 253.220668 75.94497 
L 254.194393 106.147058 
L 254.774693 117.965318 
L 255.177953 122.384315 
L 255.443514 123.424647 
L 255.54187 123.423774 
L 255.561542 123.398478 
L 255.69924 122.987442 
L 255.915623 121.52145 
L 256.230363 117.652946 
L 256.663129 109.230508 
L 257.263101 92.670719 
L 258.38436 54.001564 
L 259.358085 23.800609 
L 259.938386 11.983546 
L 260.341645 7.565518 
L 260.607207 6.525855 
L 260.705563 6.526977 
L 260.725234 6.552323 
L 260.862932 6.963707 
L 261.079316 8.430236 
L 261.394055 12.299487 
L 261.826822 20.72284 
L 262.426793 37.283575 
L 263.548052 75.953153 
L 264.521777 106.152974 
L 265.102078 117.96884 
L 265.505337 122.385898 
L 265.770899 123.424893 
L 265.869255 123.423522 
L 265.888926 123.398126 
L 266.026624 122.986395 
L 266.243008 121.519328 
L 266.557747 117.649329 
L 266.990514 109.225062 
L 267.590486 92.663381 
L 268.711744 53.99338 
L 269.685469 23.794694 
L 270.26577 11.980024 
L 270.66903 7.563936 
L 270.934591 6.525609 
L 271.032947 6.527229 
L 271.052618 6.552675 
L 271.190317 6.964754 
L 271.4067 8.432359 
L 271.721439 12.303105 
L 272.154206 20.728287 
L 272.754178 37.290913 
L 273.875437 75.961336 
L 274.849161 106.158889 
L 275.429462 117.972362 
L 275.832722 122.38748 
L 276.098283 123.425139 
L 276.196639 123.423269 
L 276.21631 123.397773 
L 276.354009 122.985347 
L 276.570392 121.517204 
L 276.885132 117.645711 
L 277.317898 109.219615 
L 277.91787 92.656042 
L 279.039129 53.985197 
L 280.012854 23.788779 
L 280.593154 11.976503 
L 280.996414 7.562355 
L 281.261975 6.525364 
L 281.360331 6.527483 
L 281.380003 6.553028 
L 281.517701 6.965803 
L 281.74392 8.524751 
L 282.068495 12.614528 
L 282.511097 21.427259 
L 283.120905 38.539039 
L 284.379862 82.080113 
L 285.255231 108.103876 
L 285.806025 118.6912 
L 286.199449 122.638052 
L 286.445339 123.441659 
L 286.55353 123.381483 
L 286.701065 122.891959 
L 286.937119 121.141798 
L 287.27153 116.696091 
L 287.723967 107.333544 
L 288.363282 88.881491 
L 290.753333 14.755403 
L 291.205771 8.504156 
L 291.520511 6.647819 
L 291.658209 6.504968 
L 291.687716 6.527738 
L 291.815579 6.843855 
L 292.022126 8.095625 
L 292.32703 11.573708 
L 292.740125 19.176515 
L 293.310591 34.274282 
L 294.254809 66.245762 
L 295.444917 104.65443 
L 296.035053 117.216863 
L 296.457984 122.182448 
L 296.733381 123.401077 
L 296.831737 123.440083 
L 296.861244 123.410958 
L 296.998942 123.02635 
L 297.215325 121.601267 
L 297.530065 117.789614 
L 297.962831 109.436792 
L 298.562803 92.949146 
L 299.664391 55.001552 
L 300.657787 24.026014 
L 301.238088 12.118175 
L 301.641347 7.626516 
L 301.906909 6.536081 
L 302.005265 6.51826 
L 302.034771 6.553739 
L 302.17247 6.967904 
L 302.398689 8.5291 
L 302.723264 12.621948 
L 303.165866 21.438381 
L 303.775673 38.553903 
L 305.034631 82.096046 
L 305.91 108.115127 
L 306.460793 118.697782 
L 306.854218 122.640817 
L 307.100108 123.441945 
L 307.208299 123.380672 
L 307.355833 122.88966 
L 307.591888 121.13716 
L 307.926298 116.688315 
L 308.378736 107.322055 
L 309.01805 88.866283 
L 311.408102 14.746869 
L 311.86054 8.499834 
L 312.175279 6.646639 
L 312.312978 6.505182 
L 312.342485 6.528251 
L 312.470348 6.845661 
L 312.676895 8.099493 
L 312.981799 11.580499 
L 313.394894 19.186877 
L 313.965359 34.288464 
L 314.909577 66.262421 
L 316.099685 104.666668 
L 316.689822 117.224347 
L 317.112753 122.185897 
L 317.38815 123.401758 
L 317.486506 123.439768 
L 317.516012 123.410344 
L 317.653711 123.024345 
L 317.870094 121.597108 
L 318.184834 117.782459 
L 318.6176 109.425968 
L 319.217572 92.934512 
L 320.31916 54.985134 
L 321.312556 24.01412 
L 321.892856 12.11105 
L 322.296116 7.623263 
L 322.561677 6.5355 
L 322.660033 6.518676 
L 322.68954 6.554454 
L 322.827239 6.970009 
L 323.053458 8.533453 
L 323.378033 12.629373 
L 323.820635 21.449506 
L 324.430442 38.568769 
L 325.6894 82.111978 
L 326.564768 108.126374 
L 327.115562 118.70436 
L 327.508986 122.643578 
L 327.754876 123.442226 
L 327.863068 123.379857 
L 328.010602 122.887355 
L 328.246657 121.132517 
L 328.581067 116.680534 
L 329.033505 107.310563 
L 329.672819 88.851074 
L 332.062871 14.738339 
L 332.515309 8.495516 
L 332.830048 6.645463 
L 332.967747 6.505401 
L 332.997253 6.528769 
L 333.125116 6.847472 
L 333.331664 8.103366 
L 333.636568 11.587294 
L 334.049663 19.197243 
L 334.620128 34.30265 
L 335.564346 66.27908 
L 336.754454 104.678902 
L 337.344591 117.231827 
L 337.767521 122.189341 
L 338.042918 123.402435 
L 338.141274 123.439448 
L 338.170781 123.409725 
L 338.30848 123.022335 
L 338.524863 121.592944 
L 338.839602 117.7753 
L 339.272369 109.415139 
L 339.872341 92.919876 
L 340.973928 54.968716 
L 341.967324 24.00223 
L 342.547625 12.10393 
L 342.950885 7.620016 
L 343.216446 6.534924 
L 343.314802 6.519097 
L 343.344309 6.555173 
L 343.482008 6.97212 
L 343.708226 8.537812 
L 344.032801 12.636801 
L 344.475404 21.460636 
L 345.085211 38.583637 
L 346.344168 82.127909 
L 347.219537 108.137617 
L 347.770331 118.710934 
L 348.163755 122.646334 
L 348.409645 123.442502 
L 348.517837 123.379036 
L 348.665371 122.885046 
L 348.901425 121.12787 
L 349.235836 116.67275 
L 349.688274 107.299067 
L 350.327588 88.835862 
L 352.707804 14.909708 
L 353.160242 8.582746 
L 353.474981 6.669882 
L 353.622515 6.505625 
L 353.642187 6.519309 
L 353.760214 6.777099 
L 353.956926 7.872006 
L 354.242159 10.903887 
L 354.635583 17.723629 
L 355.176541 31.393789 
L 356.022403 59.30633 
L 357.428894 105.201935 
L 358.019031 117.549432 
L 358.432126 122.263937 
L 358.707523 123.41613 
L 358.805879 123.431209 
L 358.835386 123.394909 
L 358.973084 122.97692 
L 359.199303 121.409542 
L 359.523878 117.308249 
L 359.96648 108.48164 
L 360.576288 91.355835 
L 361.845081 47.476571 
L 362.710614 21.804577 
L 363.261408 11.234764 
L 363.654832 7.302227 
L 363.900722 6.50792 
L 364.008913 6.572207 
L 364.156448 7.067314 
L 364.392502 8.826244 
L 364.726913 13.283717 
L 365.17935 22.660183 
L 365.818665 41.126173 
L 368.198881 115.047372 
L 368.651319 121.371183 
L 368.966058 123.281693 
L 369.113592 123.444829 
L 369.133263 123.430995 
L 369.251291 123.17231 
L 369.448003 122.075927 
L 369.733235 119.041979 
L 370.126659 112.219633 
L 370.667618 98.546604 
L 371.513479 70.631856 
L 372.919971 24.739621 
L 373.510107 12.395723 
L 373.923203 7.684185 
L 374.198599 6.534069 
L 374.296955 6.519737 
L 374.326462 6.556262 
L 374.464161 6.975294 
L 374.69038 8.544357 
L 375.014955 12.647953 
L 375.457557 21.477336 
L 376.067364 38.605944 
L 377.336157 82.485978 
L 378.20169 108.154476 
L 378.752484 118.720786 
L 379.145908 122.65046 
L 379.391798 123.442907 
L 379.49999 123.377796 
L 379.647524 122.881574 
L 379.883579 121.12089 
L 380.217989 116.661065 
L 380.670427 107.281816 
L 381.309741 88.813041 
L 383.689957 14.896799 
L 384.142395 8.57614 
L 384.457135 6.667985 
L 384.594833 6.502118 
L 384.62434 6.519953 
L 384.742367 6.779534 
L 384.939079 7.877393 
L 385.224312 10.913407 
L 385.617736 17.738358 
L 386.158694 31.414254 
L 387.004556 59.331207 
L 388.411047 105.220072 
L 389.001184 117.560369 
L 389.414279 122.268941 
L 389.689676 123.41698 
L 389.788032 123.430564 
L 389.817539 123.393815 
L 389.955237 122.97374 
L 390.181456 121.402991 
L 390.506031 117.297093 
L 390.948633 108.464936 
L 391.558441 91.333526 
L 392.827234 47.452724 
L 393.692767 21.787723 
L 394.243561 11.224917 
L 394.636985 7.298107 
L 394.882875 6.50752 
L 394.991067 6.573452 
L 395.138601 7.070791 
L 395.374655 8.833228 
L 395.709066 13.295406 
L 396.161504 22.677437 
L 396.800818 41.148996 
L 399.181034 115.060277 
L 399.633472 121.377784 
L 399.948211 123.283584 
L 400.08591 123.448406 
L 400.115416 123.430346 
L 400.233444 123.16987 
L 400.430156 122.070534 
L 400.715388 119.032453 
L 401.108813 112.2049 
L 401.649771 98.526136 
L 402.495633 70.606979 
L 403.902124 24.721488 
L 404.49226 12.384791 
L 404.905356 7.679186 
L 405.180753 6.533224 
L 405.279109 6.520388 
L 405.308616 6.557361 
L 405.446314 6.978479 
L 405.672533 8.550913 
L 405.997108 12.659113 
L 406.43971 21.494044 
L 407.049517 38.628255 
L 408.31831 82.509824 
L 409.183844 108.171327 
L 409.734637 118.730629 
L 410.128062 122.654574 
L 410.373952 123.443301 
L 410.482143 123.376546 
L 410.629677 122.878091 
L 410.865732 121.113901 
L 411.200142 116.649371 
L 411.65258 107.264558 
L 412.291894 88.790215 
L 414.672111 14.883899 
L 415.124548 8.569544 
L 415.439288 6.666099 
L 415.576986 6.502324 
L 415.606493 6.520607 
L 415.72452 6.781979 
L 415.921232 7.882791 
L 416.206465 10.922938 
L 416.599889 17.753095 
L 417.140847 31.434725 
L 417.986709 59.356086 
L 419.383365 104.983721 
L 419.973501 117.417439 
L 420.386597 122.203071 
L 420.661994 123.405096 
L 420.76035 123.438121 
L 420.789857 123.407202 
L 420.927555 123.014247 
L 421.143938 121.576241 
L 421.458678 117.746623 
L 421.891444 109.37179 
L 422.491416 92.86131 
L 423.593004 54.903054 
L 424.5864 23.954703 
L 425.1667 12.075493 
L 425.56996 7.607072 
L 425.835521 6.532667 
L 425.933878 6.520828 
L 425.963384 6.5581 
L 426.101083 6.980608 
L 426.327302 8.55529 
L 426.651877 12.666559 
L 427.094479 21.505188 
L 427.704286 38.643132 
L 428.973079 82.525719 
L 429.838612 108.182556 
L 430.389406 118.737185 
L 430.78283 122.657312 
L 431.02872 123.443558 
L 431.136912 123.375707 
L 431.284446 122.875763 
L 431.520501 121.109235 
L 431.854911 116.641569 
L 432.307349 107.253048 
L 432.946663 88.774996 
L 435.32688 14.875304 
L 435.779317 8.565153 
L 436.094057 6.664847 
L 436.231755 6.502467 
L 436.261262 6.521049 
L 436.379289 6.783615 
L 436.576001 7.886395 
L 436.861234 10.929297 
L 437.264494 17.970227 
L 437.815287 32.024151 
L 438.680821 60.767392 
L 440.028298 104.740028 
L 440.618435 117.269162 
L 441.041366 122.206492 
L 441.316762 123.405749 
L 441.415119 123.437777 
L 441.444625 123.406559 
L 441.582324 123.012213 
L 441.798707 121.572054 
L 442.113446 117.739442 
L 442.546213 109.360944 
L 443.146185 92.846663 
L 444.247773 54.886641 
L 445.241169 23.94283 
L 445.821469 12.068394 
L 446.224729 7.603847 
L 446.49029 6.532114 
L 446.588646 6.521272 
L 446.608318 6.544227 
L 446.746016 6.938921 
L 446.962399 8.379618 
L 447.277139 12.212978 
L 447.709905 20.592393 
L 448.309877 37.107625 
L 449.411465 75.068088 
L 450.404861 106.010763 
L 450.985161 117.884005 
L 451.388421 122.347583 
L 451.653982 123.418648 
L 451.752339 123.429241 
L 451.77201 123.406236 
L 451.909708 123.011195 
L 452.126091 121.569959 
L 452.440831 117.735851 
L 452.873597 109.35552 
L 453.473569 92.839338 
L 454.289924 64.975312 
L 454.289924 64.975312 
" style="fill:none;stroke:#2ca02c;stroke-linecap:square;stroke-width:2;"/>
   </g>
   <g id="line2d_2">
    <path clip-path="url(#p44984efd75)" d="M 20.549615 64.975313 
L 22.556078 32.865297 
L 23.569145 20.099838 
L 24.346158 12.863527 
L 24.965801 8.96429 
L 25.447746 7.171832 
L 25.801828 6.570768 
L 26.047718 6.514545 
L 26.264101 6.710415 
L 26.549334 7.318118 
L 26.923087 8.709078 
L 27.395196 11.40534 
L 27.985332 16.175155 
L 28.723002 24.1183 
L 29.657384 36.793197 
L 31.024533 58.742733 
L 33.463763 97.988392 
L 34.457159 110.330457 
L 35.224336 117.350925 
L 35.834144 121.105733 
L 36.306253 122.816649 
L 36.650499 123.384087 
L 36.886554 123.437777 
L 37.102937 123.246861 
L 37.388169 122.645646 
L 37.761922 121.263044 
L 38.234031 118.576968 
L 38.824168 113.819032 
L 39.552002 106.007795 
L 40.486385 93.372529 
L 41.843698 71.617792 
L 44.32227 31.752807 
L 45.315666 19.460206 
L 46.082843 12.487198 
L 46.692651 8.774187 
L 47.16476 7.097212 
L 47.509006 6.554993 
L 47.745061 6.518676 
L 47.971279 6.740345 
L 48.266348 7.404998 
L 48.649936 8.89655 
L 49.131881 11.748234 
L 49.731853 16.737784 
L 50.479359 24.966904 
L 51.433412 38.123725 
L 52.879246 61.573826 
L 55.102093 97.304337 
L 56.105324 109.912155 
L 56.882337 117.130493 
L 57.50198 121.01378 
L 57.983925 122.793195 
L 58.338006 123.384483 
L 58.574061 123.437603 
L 58.790444 123.246166 
L 59.075677 122.644268 
L 59.44943 121.260786 
L 59.921539 118.573637 
L 60.511675 113.814451 
L 61.23951 106.001859 
L 62.173892 93.365246 
L 63.531205 71.609514 
L 66.009778 31.745951 
L 67.003174 19.454976 
L 67.770351 12.483527 
L 68.380158 8.771887 
L 68.852267 7.096025 
L 69.196513 6.554633 
L 69.432568 6.518886 
L 69.658787 6.7411 
L 69.953855 7.406459 
L 70.337443 8.898911 
L 70.819388 11.751685 
L 71.41936 16.742494 
L 72.166866 24.97298 
L 73.120919 38.131127 
L 74.566753 61.582144 
L 76.7896 97.311279 
L 77.792831 109.917486 
L 78.569844 117.13426 
L 79.189487 121.016159 
L 79.671432 122.79444 
L 80.025514 123.384877 
L 80.261568 123.437429 
L 80.477951 123.24547 
L 80.763184 122.642888 
L 81.136937 121.258527 
L 81.609046 118.570306 
L 82.199182 113.809868 
L 82.927017 105.995922 
L 83.861399 93.357962 
L 85.218713 71.601236 
L 87.697285 31.739096 
L 88.690681 19.449747 
L 89.457858 12.479856 
L 90.067665 8.769588 
L 90.539774 7.094839 
L 90.884021 6.554274 
L 91.120075 6.519097 
L 91.346294 6.741856 
L 91.641362 7.40792 
L 92.024951 8.901274 
L 92.506895 11.755136 
L 93.106867 16.747205 
L 93.854373 24.979057 
L 94.818262 38.286682 
L 96.273932 61.923214 
L 98.477107 97.318221 
L 99.480339 109.922815 
L 100.257351 117.138026 
L 100.876994 121.018538 
L 101.358939 122.795684 
L 101.713021 123.385271 
L 101.949075 123.437253 
L 102.165459 123.244772 
L 102.450691 122.641508 
L 102.824444 121.256267 
L 103.296553 118.566973 
L 103.886689 113.805285 
L 104.614524 105.989984 
L 105.548906 93.350678 
L 106.90622 71.592959 
L 109.384792 31.732241 
L 110.378188 19.444519 
L 111.145365 12.476186 
L 111.755173 8.76729 
L 112.227282 7.093655 
L 112.571528 6.553917 
L 112.807582 6.519309 
L 113.033801 6.742613 
L 113.328869 7.409383 
L 113.712458 8.903637 
L 114.194403 11.758588 
L 114.794374 16.751916 
L 115.54188 24.985136 
L 116.50577 38.294095 
L 117.961439 61.931535 
L 120.154779 97.186222 
L 121.167846 109.928144 
L 121.944859 117.14179 
L 122.564502 121.020915 
L 123.046446 122.796927 
L 123.400528 123.385664 
L 123.636583 123.437076 
L 123.852966 123.244074 
L 124.138198 122.640127 
L 124.511951 121.254005 
L 124.98406 118.56364 
L 125.574197 113.800701 
L 126.311867 105.865095 
L 127.246249 93.19757 
L 128.613398 71.253452 
L 131.062464 31.862592 
L 132.05586 19.544014 
L 132.823037 12.546092 
L 133.432844 8.811146 
L 133.904953 7.116361 
L 134.249199 6.560912 
L 134.485254 6.515481 
L 134.711473 6.728429 
L 134.996705 7.353198 
L 135.370458 8.766141 
L 135.852403 11.556749 
L 136.452375 16.475601 
L 137.190045 24.507472 
L 138.134263 37.41575 
L 139.540755 60.111192 
L 141.871793 97.609164 
L 142.875024 110.145839 
L 143.652037 117.295233 
L 144.261845 121.070571 
L 144.733954 122.798168 
L 145.088035 123.386055 
L 145.32409 123.436897 
L 145.540473 123.243374 
L 145.825706 122.638744 
L 146.199459 121.251743 
L 146.671568 118.560305 
L 147.261704 113.796116 
L 147.999374 105.859138 
L 148.933757 93.190273 
L 150.300906 71.245168 
L 152.749971 31.855725 
L 153.743367 19.538769 
L 154.510544 12.542403 
L 155.120352 8.808827 
L 155.592461 7.115156 
L 155.936707 6.560533 
L 156.172761 6.515672 
L 156.39898 6.729164 
L 156.684213 7.354617 
L 157.057966 8.768439 
L 157.53991 11.560138 
L 158.139882 16.480256 
L 158.877552 24.513487 
L 159.82177 37.423099 
L 161.228262 60.119495 
L 163.5593 97.616077 
L 164.562532 110.151129 
L 165.339544 117.298953 
L 165.949352 121.072924 
L 166.421461 122.799409 
L 166.775543 123.386445 
L 167.011597 123.436718 
L 167.22798 123.242673 
L 167.513213 122.63736 
L 167.886966 121.249479 
L 168.359075 118.556969 
L 168.949211 113.79153 
L 169.686881 105.853181 
L 170.621264 93.182975 
L 171.988413 71.236885 
L 174.437478 31.848859 
L 175.430874 19.533525 
L 176.198051 12.538716 
L 176.807859 8.80651 
L 177.279968 7.113951 
L 177.624214 6.560156 
L 177.860268 6.515864 
L 178.086487 6.729902 
L 178.37172 7.356036 
L 178.745473 8.770737 
L 179.227417 11.563529 
L 179.827389 16.484912 
L 180.56506 24.519502 
L 181.509278 37.430448 
L 182.915769 60.127798 
L 185.246807 97.622989 
L 186.250039 110.156419 
L 187.027052 117.302672 
L 187.636859 121.075274 
L 188.108968 122.800648 
L 188.46305 123.386834 
L 188.699104 123.436537 
L 188.915488 123.241971 
L 189.20072 122.635975 
L 189.574473 121.247214 
L 190.046582 118.553632 
L 190.636718 113.786943 
L 191.374389 105.847223 
L 192.308771 93.175677 
L 193.67592 71.228601 
L 196.124985 31.841994 
L 197.118382 19.528282 
L 197.885559 12.535029 
L 198.495366 8.804194 
L 198.967475 7.112748 
L 199.311721 6.559779 
L 199.547776 6.516057 
L 199.773995 6.73064 
L 200.059227 7.357457 
L 200.43298 8.773037 
L 200.914925 11.566921 
L 201.514897 16.489569 
L 202.252567 24.525518 
L 203.196785 37.437797 
L 204.603276 60.136101 
L 206.934314 97.629901 
L 207.937546 110.161708 
L 208.714559 117.306391 
L 209.324366 121.077624 
L 209.796475 122.801886 
L 210.150557 123.387222 
L 210.386612 123.436355 
L 210.602995 123.241267 
L 210.888227 122.634589 
L 211.26198 121.244948 
L 211.734089 118.550294 
L 212.324226 113.782354 
L 213.061896 105.841265 
L 213.996278 93.168378 
L 215.363427 71.220317 
L 217.812493 31.835129 
L 218.805889 19.52304 
L 219.573066 12.531343 
L 220.182873 8.801879 
L 220.654982 7.111546 
L 220.999228 6.559404 
L 221.235283 6.516252 
L 221.461502 6.731379 
L 221.746734 7.358879 
L 222.120487 8.775338 
L 222.602432 11.570314 
L 223.202404 16.494226 
L 223.940074 24.531535 
L 224.884292 37.445147 
L 226.290784 60.144404 
L 228.621822 97.636812 
L 229.625053 110.166995 
L 230.402066 117.310108 
L 231.011874 121.079973 
L 231.483983 122.803122 
L 231.838064 123.387608 
L 232.074119 123.436172 
L 232.290502 123.240563 
L 232.575735 122.633201 
L 232.949488 121.242681 
L 233.421597 118.546955 
L 234.011733 113.777765 
L 234.749403 105.835305 
L 235.683786 93.161078 
L 237.050935 71.212033 
L 239.490164 31.965672 
L 240.48356 19.622798 
L 241.250738 12.601553 
L 241.860545 8.84606 
L 242.332654 7.134587 
L 242.6769 6.566737 
L 242.912955 6.512762 
L 243.129338 6.703417 
L 243.41457 7.304291 
L 243.788323 8.686453 
L 244.260432 11.371993 
L 244.850569 16.129303 
L 245.578403 23.939862 
L 246.512786 36.574454 
L 247.870099 58.328694 
L 250.348671 98.19439 
L 251.342067 110.487803 
L 252.109245 117.46159 
L 252.719052 121.175287 
L 253.191161 122.852819 
L 253.535407 123.395452 
L 253.771462 123.432053 
L 253.997681 123.210657 
L 254.292749 122.546357 
L 254.676337 121.055255 
L 255.158282 118.204115 
L 255.758254 113.215195 
L 256.50576 104.986759 
L 257.459813 91.8306 
L 258.905647 68.380958 
L 261.128494 32.649759 
L 262.131725 20.041136 
L 262.908738 12.822016 
L 263.528381 8.938035 
L 264.010326 7.158053 
L 264.364407 6.56634 
L 264.600462 6.512935 
L 264.816845 6.704111 
L 265.102078 7.305668 
L 265.475831 8.68871 
L 265.94794 11.375322 
L 266.538076 16.133884 
L 267.265911 23.945798 
L 268.200293 36.581737 
L 269.557606 58.336972 
L 272.036179 98.201246 
L 273.029575 110.493034 
L 273.796752 117.465263 
L 274.406559 121.177588 
L 274.878668 122.854007 
L 275.222914 123.395812 
L 275.458969 123.431844 
L 275.685188 123.209903 
L 275.980256 122.544897 
L 276.363845 121.052895 
L 276.845789 118.200666 
L 277.445761 113.210486 
L 278.193267 104.980683 
L 279.14732 91.823199 
L 280.593154 68.37264 
L 282.816001 32.642817 
L 283.819232 20.035805 
L 284.596245 12.818248 
L 285.215888 8.935655 
L 285.697833 7.156807 
L 286.051915 6.565945 
L 286.287969 6.513109 
L 286.504352 6.704807 
L 286.789585 7.307047 
L 287.163338 8.690968 
L 287.635447 11.378653 
L 288.225583 16.138465 
L 288.953418 23.951735 
L 289.8878 36.589021 
L 291.245114 58.34525 
L 293.723686 98.208102 
L 294.717082 110.498263 
L 295.484259 117.468934 
L 296.094067 121.179888 
L 296.566176 122.855193 
L 296.910422 123.396171 
L 297.146476 123.431633 
L 297.372695 123.209147 
L 297.667763 122.543436 
L 298.051352 121.050533 
L 298.533296 118.197215 
L 299.133268 113.205776 
L 299.880774 104.974606 
L 300.834828 91.815797 
L 302.280662 68.364323 
L 304.503508 32.635875 
L 305.50674 20.030474 
L 306.283752 12.814482 
L 306.903396 8.933276 
L 307.38534 7.155563 
L 307.739422 6.565551 
L 307.975476 6.513284 
L 308.19186 6.705504 
L 308.477092 7.308427 
L 308.850845 8.693228 
L 309.322954 11.381985 
L 309.91309 16.143048 
L 310.640925 23.957672 
L 311.575308 36.596305 
L 312.932621 58.353527 
L 315.411193 98.214957 
L 316.404589 110.503492 
L 317.171766 117.472604 
L 317.781574 121.182186 
L 318.253683 122.856378 
L 318.597929 123.396529 
L 318.833983 123.431422 
L 319.060202 123.208391 
L 319.35527 122.541973 
L 319.738859 121.04817 
L 320.220804 118.193763 
L 320.820775 113.201065 
L 321.568281 104.968529 
L 322.532171 91.660236 
L 323.98784 68.023251 
L 326.191015 32.628934 
L 327.194247 20.025145 
L 327.97126 12.810717 
L 328.590903 8.930899 
L 329.072847 7.154319 
L 329.426929 6.565158 
L 329.662984 6.513461 
L 329.879367 6.706202 
L 330.164599 7.309808 
L 330.538352 8.695489 
L 331.010461 11.385319 
L 331.600598 16.147632 
L 332.338268 24.082553 
L 333.27265 36.749407 
L 334.639799 58.693032 
L 337.088865 98.0846 
L 338.082261 110.403988 
L 338.849438 117.402688 
L 339.459245 121.138319 
L 339.931354 122.83366 
L 340.275601 123.389523 
L 340.511655 123.435239 
L 340.737874 123.222564 
L 341.023106 122.598136 
L 341.396859 121.185632 
L 341.878804 118.395571 
L 342.478776 113.477351 
L 343.216446 105.44616 
L 344.160664 92.538549 
L 345.567156 69.843584 
L 347.898194 32.344918 
L 348.901425 19.807431 
L 349.678438 12.657252 
L 350.288246 8.88123 
L 350.760355 7.153077 
L 351.114436 6.564766 
L 351.350491 6.513638 
L 351.566874 6.706901 
L 351.852107 7.31119 
L 352.22586 8.697751 
L 352.697969 11.388653 
L 353.288105 16.152216 
L 354.025775 24.088508 
L 354.960158 36.756704 
L 356.327307 58.701315 
L 358.776372 98.091467 
L 359.769768 110.409234 
L 360.536945 117.406377 
L 361.146753 121.140639 
L 361.618862 122.834867 
L 361.963108 123.389903 
L 362.199162 123.435049 
L 362.425381 123.221829 
L 362.710614 122.596718 
L 363.084367 121.183335 
L 363.566311 118.392182 
L 364.166283 113.472697 
L 364.903953 105.440146 
L 365.848171 92.531201 
L 367.254663 69.835281 
L 369.585701 32.338005 
L 370.588933 19.802141 
L 371.365945 12.653532 
L 371.975753 8.878877 
L 372.447862 7.151836 
L 372.801944 6.564375 
L 373.037998 6.513817 
L 373.254381 6.707602 
L 373.539614 7.312573 
L 373.913367 8.700014 
L 374.385476 11.391988 
L 374.975612 16.156802 
L 375.713282 24.094465 
L 376.647665 36.764001 
L 378.014814 58.709598 
L 380.463879 98.098333 
L 381.457275 110.414478 
L 382.224452 117.410066 
L 382.83426 121.142956 
L 383.306369 122.836072 
L 383.650615 123.390281 
L 383.88667 123.434857 
L 384.112888 123.221092 
L 384.398121 122.595299 
L 384.771874 121.181037 
L 385.253819 118.388791 
L 385.85379 113.468041 
L 386.591461 105.434131 
L 387.535679 92.523852 
L 388.94217 69.826979 
L 391.273208 32.331092 
L 392.27644 19.796851 
L 393.053453 12.649812 
L 393.66326 8.876526 
L 394.135369 7.150597 
L 394.489451 6.563985 
L 394.725505 6.513997 
L 394.941889 6.708303 
L 395.227121 7.313958 
L 395.600874 8.702278 
L 396.072983 11.395324 
L 396.663119 16.161389 
L 397.40079 24.100423 
L 398.335172 36.771299 
L 399.702321 58.717882 
L 402.151387 98.105198 
L 403.144783 110.419722 
L 403.91196 117.413753 
L 404.521767 121.145273 
L 404.993876 122.837276 
L 405.338122 123.390658 
L 405.574177 123.434665 
L 405.800396 123.220354 
L 406.085628 122.593878 
L 406.459381 121.178738 
L 406.941326 118.3854 
L 407.541298 113.463385 
L 408.278968 105.428115 
L 409.223186 92.516503 
L 410.629677 69.818676 
L 412.960716 32.32418 
L 413.963947 19.791562 
L 414.74096 12.646093 
L 415.350767 8.874175 
L 415.822876 7.149358 
L 416.176958 6.563597 
L 416.413013 6.514179 
L 416.629396 6.709006 
L 416.914628 7.315343 
L 417.288381 8.704544 
L 417.76049 11.398662 
L 418.350627 16.165976 
L 419.088297 24.106381 
L 420.022679 36.778598 
L 421.389828 58.726166 
L 423.838894 98.112063 
L 424.83229 110.424964 
L 425.599467 117.417439 
L 426.209274 121.147589 
L 426.681383 122.838478 
L 427.02563 123.391034 
L 427.261684 123.434471 
L 427.487903 123.219616 
L 427.773135 122.592457 
L 428.146888 121.176438 
L 428.628833 118.382008 
L 429.228805 113.458728 
L 429.966475 105.422099 
L 430.910693 92.509153 
L 432.317185 69.810373 
L 434.648223 32.317269 
L 435.651454 19.786274 
L 436.428467 12.642376 
L 437.038275 8.871826 
L 437.510384 7.148121 
L 437.864465 6.56321 
L 438.10052 6.514361 
L 438.316903 6.70971 
L 438.602136 7.31673 
L 438.975889 8.70681 
L 439.447998 11.402 
L 440.038134 16.170565 
L 440.775804 24.11234 
L 441.710187 36.785897 
L 443.077336 58.73445 
L 445.516565 97.981515 
L 446.509961 110.325198 
L 447.277139 117.347219 
L 447.886946 121.103397 
L 448.359055 122.815426 
L 448.703301 123.383689 
L 448.939356 123.437949 
L 449.155739 123.247555 
L 449.440972 122.647023 
L 449.814724 121.265301 
L 450.286833 118.580297 
L 450.87697 113.823612 
L 451.604804 106.013731 
L 452.539187 93.379812 
L 453.8965 71.626069 
L 454.289924 64.975313 
L 454.289924 64.975313 
" style="fill:none;stroke:#1f77b4;stroke-dasharray:7.4,3.2;stroke-dashoffset:0;stroke-width:2;"/>
   </g>
   <g id="patch_3">
    <path d="M 20.549615 123.450385 
L 20.549615 6.50024 
" style="fill:none;stroke:#000000;stroke-linecap:square;stroke-linejoin:miter;stroke-width:0.8;"/>
   </g>
   <g id="patch_4">
    <path d="M 20.549615 123.450385 
L 454.29976 123.450385 
" style="fill:none;stroke:#000000;stroke-linecap:square;stroke-linejoin:miter;stroke-width:0.8;"/>
   </g>
  </g>
 </g>
 <defs>
  <clipPath id="p44984efd75">
   <rect height="116.950145" width="433.750145" x="20.549615" y="6.50024"/>
  </clipPath>
 </defs>
</svg>
