<?xml version="1.0" encoding="utf-8" standalone="no"?>
<!DOCTYPE svg PUBLIC "-//W3C//DTD SVG 1.1//EN"
  "http://www.w3.org/Graphics/SVG/1.1/DTD/svg11.dtd">
<!-- Created with matplotlib (https://matplotlib.org/) -->
<svg height="144pt" version="1.1" viewBox="0 0 460.8 144" width="460.8pt" xmlns="http://www.w3.org/2000/svg" xmlns:xlink="http://www.w3.org/1999/xlink">
 <defs>
  <style type="text/css">
*{stroke-linecap:butt;stroke-linejoin:round;}
  </style>
 </defs>
 <g id="figure_1">
  <g id="patch_1">
   <path d="M 0 144 
L 460.8 144 
L 460.8 0 
L 0 0 
z
" style="fill:none;"/>
  </g>
  <g id="axes_1">
   <g id="patch_2">
    <path d="M 20.549615 123.450385 
L 454.29976 123.450385 
L 454.29976 6.50024 
L 20.549615 6.50024 
z
" style="fill:none;"/>
   </g>
   <g id="matplotlib.axis_1">
    <g id="text_1">
     <!-- Time -->
     <defs>
      <path d="M -0.296875 72.90625 
L 61.375 72.90625 
L 61.375 64.59375 
L 35.5 64.59375 
L 35.5 0 
L 25.59375 0 
L 25.59375 64.59375 
L -0.296875 64.59375 
z
" id="DejaVuSans-84"/>
      <path d="M 9.421875 54.6875 
L 18.40625 54.6875 
L 18.40625 0 
L 9.421875 0 
z
M 9.421875 75.984375 
L 18.40625 75.984375 
L 18.40625 64.59375 
L 9.421875 64.59375 
z
" id="DejaVuSans-105"/>
      <path d="M 52 44.1875 
Q 55.375 50.25 60.0625 53.125 
Q 64.75 56 71.09375 56 
Q 79.640625 56 84.28125 50.015625 
Q 88.921875 44.046875 88.921875 33.015625 
L 88.921875 0 
L 79.890625 0 
L 79.890625 32.71875 
Q 79.890625 40.578125 77.09375 44.375 
Q 74.3125 48.1875 68.609375 48.1875 
Q 61.625 48.1875 57.5625 43.546875 
Q 53.515625 38.921875 53.515625 30.90625 
L 53.515625 0 
L 44.484375 0 
L 44.484375 32.71875 
Q 44.484375 40.625 41.703125 44.40625 
Q 38.921875 48.1875 33.109375 48.1875 
Q 26.21875 48.1875 22.15625 43.53125 
Q 18.109375 38.875 18.109375 30.90625 
L 18.109375 0 
L 9.078125 0 
L 9.078125 54.6875 
L 18.109375 54.6875 
L 18.109375 46.1875 
Q 21.1875 51.21875 25.484375 53.609375 
Q 29.78125 56 35.6875 56 
Q 41.65625 56 45.828125 52.96875 
Q 50 49.953125 52 44.1875 
z
" id="DejaVuSans-109"/>
      <path d="M 56.203125 29.59375 
L 56.203125 25.203125 
L 14.890625 25.203125 
Q 15.484375 15.921875 20.484375 11.0625 
Q 25.484375 6.203125 34.421875 6.203125 
Q 39.59375 6.203125 44.453125 7.46875 
Q 49.3125 8.734375 54.109375 11.28125 
L 54.109375 2.78125 
Q 49.265625 0.734375 44.1875 -0.34375 
Q 39.109375 -1.421875 33.890625 -1.421875 
Q 20.796875 -1.421875 13.15625 6.1875 
Q 5.515625 13.8125 5.515625 26.8125 
Q 5.515625 40.234375 12.765625 48.109375 
Q 20.015625 56 32.328125 56 
Q 43.359375 56 49.78125 48.890625 
Q 56.203125 41.796875 56.203125 29.59375 
z
M 47.21875 32.234375 
Q 47.125 39.59375 43.09375 43.984375 
Q 39.0625 48.390625 32.421875 48.390625 
Q 24.90625 48.390625 20.390625 44.140625 
Q 15.875 39.890625 15.1875 32.171875 
z
" id="DejaVuSans-101"/>
     </defs>
     <g transform="translate(220.082188 138.088198)scale(0.14 -0.14)">
      <use xlink:href="#DejaVuSans-84"/>
      <use x="61.037109" xlink:href="#DejaVuSans-105"/>
      <use x="88.820312" xlink:href="#DejaVuSans-109"/>
      <use x="186.232422" xlink:href="#DejaVuSans-101"/>
     </g>
    </g>
   </g>
   <g id="matplotlib.axis_2">
    <g id="text_2">
     <!-- Pressure -->
     <defs>
      <path d="M 19.671875 64.796875 
L 19.671875 37.40625 
L 32.078125 37.40625 
Q 38.96875 37.40625 42.71875 40.96875 
Q 46.484375 44.53125 46.484375 51.125 
Q 46.484375 57.671875 42.71875 61.234375 
Q 38.96875 64.796875 32.078125 64.796875 
z
M 9.8125 72.90625 
L 32.078125 72.90625 
Q 44.34375 72.90625 50.609375 67.359375 
Q 56.890625 61.8125 56.890625 51.125 
Q 56.890625 40.328125 50.609375 34.8125 
Q 44.34375 29.296875 32.078125 29.296875 
L 19.671875 29.296875 
L 19.671875 0 
L 9.8125 0 
z
" id="DejaVuSans-80"/>
      <path d="M 41.109375 46.296875 
Q 39.59375 47.171875 37.8125 47.578125 
Q 36.03125 48 33.890625 48 
Q 26.265625 48 22.1875 43.046875 
Q 18.109375 38.09375 18.109375 28.8125 
L 18.109375 0 
L 9.078125 0 
L 9.078125 54.6875 
L 18.109375 54.6875 
L 18.109375 46.1875 
Q 20.953125 51.171875 25.484375 53.578125 
Q 30.03125 56 36.53125 56 
Q 37.453125 56 38.578125 55.875 
Q 39.703125 55.765625 41.0625 55.515625 
z
" id="DejaVuSans-114"/>
      <path d="M 44.28125 53.078125 
L 44.28125 44.578125 
Q 40.484375 46.53125 36.375 47.5 
Q 32.28125 48.484375 27.875 48.484375 
Q 21.1875 48.484375 17.84375 46.4375 
Q 14.5 44.390625 14.5 40.28125 
Q 14.5 37.15625 16.890625 35.375 
Q 19.28125 33.59375 26.515625 31.984375 
L 29.59375 31.296875 
Q 39.15625 29.25 43.1875 25.515625 
Q 47.21875 21.78125 47.21875 15.09375 
Q 47.21875 7.46875 41.1875 3.015625 
Q 35.15625 -1.421875 24.609375 -1.421875 
Q 20.21875 -1.421875 15.453125 -0.5625 
Q 10.6875 0.296875 5.421875 2 
L 5.421875 11.28125 
Q 10.40625 8.6875 15.234375 7.390625 
Q 20.0625 6.109375 24.8125 6.109375 
Q 31.15625 6.109375 34.5625 8.28125 
Q 37.984375 10.453125 37.984375 14.40625 
Q 37.984375 18.0625 35.515625 20.015625 
Q 33.0625 21.96875 24.703125 23.78125 
L 21.578125 24.515625 
Q 13.234375 26.265625 9.515625 29.90625 
Q 5.8125 33.546875 5.8125 39.890625 
Q 5.8125 47.609375 11.28125 51.796875 
Q 16.75 56 26.8125 56 
Q 31.78125 56 36.171875 55.265625 
Q 40.578125 54.546875 44.28125 53.078125 
z
" id="DejaVuSans-115"/>
      <path d="M 8.5 21.578125 
L 8.5 54.6875 
L 17.484375 54.6875 
L 17.484375 21.921875 
Q 17.484375 14.15625 20.5 10.265625 
Q 23.53125 6.390625 29.59375 6.390625 
Q 36.859375 6.390625 41.078125 11.03125 
Q 45.3125 15.671875 45.3125 23.6875 
L 45.3125 54.6875 
L 54.296875 54.6875 
L 54.296875 0 
L 45.3125 0 
L 45.3125 8.40625 
Q 42.046875 3.421875 37.71875 1 
Q 33.40625 -1.421875 27.6875 -1.421875 
Q 18.265625 -1.421875 13.375 4.4375 
Q 8.5 10.296875 8.5 21.578125 
z
M 31.109375 56 
z
" id="DejaVuSans-117"/>
     </defs>
     <g transform="translate(13.638053 95.289687)rotate(-90)scale(0.14 -0.14)">
      <use xlink:href="#DejaVuSans-80"/>
      <use x="60.287109" xlink:href="#DejaVuSans-114"/>
      <use x="101.369141" xlink:href="#DejaVuSans-101"/>
      <use x="162.892578" xlink:href="#DejaVuSans-115"/>
      <use x="214.992188" xlink:href="#DejaVuSans-115"/>
      <use x="267.091797" xlink:href="#DejaVuSans-117"/>
      <use x="330.470703" xlink:href="#DejaVuSans-114"/>
      <use x="371.552734" xlink:href="#DejaVuSans-101"/>
     </g>
    </g>
   </g>
   <g id="line2d_1">
    <path clip-path="url(#p2334da71dc)" d="M 20.549615 64.975313 
L 22.556078 32.865297 
L 23.569145 20.099838 
L 24.346158 12.863527 
L 24.965801 8.96429 
L 25.447746 7.171832 
L 25.801828 6.570768 
L 26.047718 6.514545 
L 26.264101 6.710415 
L 26.549334 7.318118 
L 26.923087 8.709078 
L 27.395196 11.40534 
L 27.985332 16.175155 
L 28.723002 24.1183 
L 29.657384 36.793197 
L 31.024533 58.742733 
L 33.463763 97.988392 
L 34.457159 110.330457 
L 35.224336 117.350925 
L 35.834144 121.105733 
L 36.306253 122.816649 
L 36.650499 123.384087 
L 36.886554 123.437777 
L 37.102937 123.246861 
L 37.388169 122.645646 
L 37.761922 121.263044 
L 38.234031 118.576968 
L 38.824168 113.819032 
L 39.552002 106.007795 
L 40.486385 93.372529 
L 41.843698 71.617792 
L 44.32227 31.752807 
L 45.315666 19.460206 
L 46.082843 12.487198 
L 46.692651 8.774187 
L 47.16476 7.097212 
L 47.509006 6.554993 
L 47.745061 6.518676 
L 47.971279 6.740345 
L 48.266348 7.404998 
L 48.649936 8.89655 
L 49.131881 11.748234 
L 49.731853 16.737784 
L 50.479359 24.966904 
L 51.433412 38.123725 
L 52.879246 61.573826 
L 55.102093 97.304337 
L 56.105324 109.912155 
L 56.882337 117.130493 
L 57.50198 121.01378 
L 57.983925 122.793195 
L 58.338006 123.384483 
L 58.574061 123.437603 
L 58.790444 123.246166 
L 59.075677 122.644268 
L 59.44943 121.260786 
L 59.921539 118.573637 
L 60.511675 113.814451 
L 61.23951 106.001859 
L 62.173892 93.365246 
L 63.531205 71.609514 
L 66.009778 31.745951 
L 67.003174 19.454976 
L 67.770351 12.483527 
L 68.380158 8.771887 
L 68.852267 7.096025 
L 69.196513 6.554633 
L 69.432568 6.518886 
L 69.658787 6.7411 
L 69.953855 7.406459 
L 70.337443 8.898911 
L 70.819388 11.751685 
L 71.41936 16.742494 
L 72.166866 24.97298 
L 73.120919 38.131127 
L 74.566753 61.582144 
L 76.7896 97.311279 
L 77.792831 109.917486 
L 78.569844 117.13426 
L 79.189487 121.016159 
L 79.671432 122.79444 
L 80.025514 123.384877 
L 80.261568 123.437429 
L 80.477951 123.24547 
L 80.763184 122.642888 
L 81.136937 121.258527 
L 81.609046 118.570306 
L 82.199182 113.809868 
L 82.927017 105.995922 
L 83.861399 93.357962 
L 85.218713 71.601236 
L 87.697285 31.739096 
L 88.690681 19.449747 
L 89.457858 12.479856 
L 90.067665 8.769588 
L 90.539774 7.094839 
L 90.884021 6.554274 
L 91.120075 6.519097 
L 91.346294 6.741856 
L 91.641362 7.40792 
L 92.024951 8.901274 
L 92.506895 11.755136 
L 93.106867 16.747205 
L 93.854373 24.979057 
L 94.818262 38.286682 
L 96.273932 61.923214 
L 98.477107 97.318221 
L 99.480339 109.922815 
L 100.257351 117.138026 
L 100.876994 121.018538 
L 101.358939 122.795684 
L 101.713021 123.385271 
L 101.949075 123.437253 
L 102.165459 123.244772 
L 102.450691 122.641508 
L 102.824444 121.256267 
L 103.296553 118.566973 
L 103.886689 113.805285 
L 104.614524 105.989984 
L 105.548906 93.350678 
L 106.90622 71.592959 
L 109.384792 31.732241 
L 110.378188 19.444519 
L 111.145365 12.476186 
L 111.755173 8.76729 
L 112.227282 7.093655 
L 112.571528 6.553917 
L 112.807582 6.519309 
L 113.033801 6.742613 
L 113.328869 7.409383 
L 113.712458 8.903637 
L 114.194403 11.758588 
L 114.794374 16.751916 
L 115.54188 24.985136 
L 116.50577 38.294095 
L 117.961439 61.931535 
L 120.154779 97.186222 
L 121.167846 109.928144 
L 121.944859 117.14179 
L 122.564502 121.020915 
L 123.046446 122.796927 
L 123.400528 123.385664 
L 123.636583 123.437076 
L 123.852966 123.244074 
L 124.138198 122.640127 
L 124.511951 121.254005 
L 124.98406 118.56364 
L 125.574197 113.800701 
L 126.311867 105.865095 
L 127.246249 93.19757 
L 128.613398 71.253452 
L 131.062464 31.862592 
L 132.05586 19.544014 
L 132.823037 12.546092 
L 133.432844 8.811146 
L 133.904953 7.116361 
L 134.249199 6.560912 
L 134.485254 6.515481 
L 134.711473 6.728429 
L 134.996705 7.353198 
L 135.370458 8.766141 
L 135.852403 11.556749 
L 136.452375 16.475601 
L 137.190045 24.507472 
L 138.134263 37.41575 
L 139.540755 60.111192 
L 141.871793 97.609164 
L 142.875024 110.145839 
L 143.652037 117.295233 
L 144.261845 121.070571 
L 144.733954 122.798168 
L 145.088035 123.386055 
L 145.32409 123.436897 
L 145.540473 123.243374 
L 145.825706 122.638744 
L 146.199459 121.251743 
L 146.671568 118.560305 
L 147.261704 113.796116 
L 147.999374 105.859138 
L 148.933757 93.190273 
L 150.300906 71.245168 
L 152.749971 31.855725 
L 153.743367 19.538769 
L 154.510544 12.542403 
L 155.120352 8.808827 
L 155.592461 7.115156 
L 155.936707 6.560533 
L 156.172761 6.515672 
L 156.39898 6.729164 
L 156.684213 7.354617 
L 157.057966 8.768439 
L 157.53991 11.560138 
L 158.139882 16.480256 
L 158.877552 24.513487 
L 159.82177 37.423099 
L 161.228262 60.119495 
L 163.5593 97.616077 
L 164.562532 110.151129 
L 165.339544 117.298953 
L 165.949352 121.072924 
L 166.421461 122.799409 
L 166.775543 123.386445 
L 167.011597 123.436718 
L 167.22798 123.242673 
L 167.513213 122.63736 
L 167.886966 121.249479 
L 168.359075 118.556969 
L 168.949211 113.79153 
L 169.686881 105.853181 
L 170.621264 93.182975 
L 171.988413 71.236885 
L 174.437478 31.848859 
L 175.430874 19.533525 
L 176.198051 12.538716 
L 176.807859 8.80651 
L 177.279968 7.113951 
L 177.624214 6.560156 
L 177.860268 6.515864 
L 178.086487 6.729902 
L 178.37172 7.356036 
L 178.745473 8.770737 
L 179.227417 11.563529 
L 179.827389 16.484912 
L 180.56506 24.519502 
L 181.509278 37.430448 
L 182.915769 60.127798 
L 185.246807 97.622989 
L 186.250039 110.156419 
L 187.027052 117.302672 
L 187.636859 121.075274 
L 188.108968 122.800648 
L 188.46305 123.386834 
L 188.699104 123.436537 
L 188.915488 123.241971 
L 189.20072 122.635975 
L 189.574473 121.247214 
L 190.046582 118.553632 
L 190.636718 113.786943 
L 191.374389 105.847223 
L 192.308771 93.175677 
L 193.67592 71.228601 
L 196.124985 31.841994 
L 197.118382 19.528282 
L 197.885559 12.535029 
L 198.495366 8.804194 
L 198.967475 7.112748 
L 199.311721 6.559779 
L 199.547776 6.516057 
L 199.773995 6.73064 
L 200.059227 7.357457 
L 200.43298 8.773037 
L 200.914925 11.566921 
L 201.514897 16.489569 
L 202.252567 24.525518 
L 203.196785 37.437797 
L 204.603276 60.136101 
L 206.934314 97.629901 
L 207.937546 110.161708 
L 208.714559 117.306391 
L 209.324366 121.077624 
L 209.796475 122.801886 
L 210.150557 123.387222 
L 210.386612 123.436355 
L 210.602995 123.241267 
L 210.888227 122.634589 
L 211.26198 121.244948 
L 211.734089 118.550294 
L 212.324226 113.782354 
L 213.061896 105.841265 
L 213.996278 93.168378 
L 215.363427 71.220317 
L 217.812493 31.835129 
L 218.805889 19.52304 
L 219.573066 12.531343 
L 220.182873 8.801879 
L 220.654982 7.111546 
L 220.999228 6.559404 
L 221.235283 6.516252 
L 221.461502 6.731379 
L 221.746734 7.358879 
L 222.120487 8.775338 
L 222.602432 11.570314 
L 223.202404 16.494226 
L 223.940074 24.531535 
L 224.884292 37.445147 
L 226.290784 60.144404 
L 228.621822 97.636812 
L 229.625053 110.166995 
L 230.402066 117.310108 
L 231.011874 121.079973 
L 231.483983 122.803122 
L 231.838064 123.387608 
L 232.074119 123.436172 
L 232.290502 123.240563 
L 232.575735 122.633201 
L 232.949488 121.242681 
L 233.421597 118.546955 
L 234.011733 113.777765 
L 234.749403 105.835305 
L 235.683786 93.161078 
L 237.050935 71.212033 
L 239.490164 31.965672 
L 240.48356 19.622798 
L 241.250738 12.601553 
L 241.860545 8.84606 
L 242.332654 7.134587 
L 242.6769 6.566737 
L 242.912955 6.512762 
L 243.129338 6.703417 
L 243.41457 7.304291 
L 243.788323 8.686453 
L 244.260432 11.371993 
L 244.850569 16.129303 
L 245.578403 23.939862 
L 246.512786 36.574454 
L 247.870099 58.328694 
L 250.348671 98.19439 
L 251.342067 110.487803 
L 252.109245 117.46159 
L 252.719052 121.175287 
L 253.191161 122.852819 
L 253.535407 123.395452 
L 253.771462 123.432053 
L 253.997681 123.210657 
L 254.292749 122.546357 
L 254.676337 121.055255 
L 255.158282 118.204115 
L 255.758254 113.215195 
L 256.50576 104.986759 
L 257.459813 91.8306 
L 258.905647 68.380958 
L 261.128494 32.649759 
L 262.131725 20.041136 
L 262.908738 12.822016 
L 263.528381 8.938035 
L 264.010326 7.158053 
L 264.364407 6.56634 
L 264.600462 6.512935 
L 264.816845 6.704111 
L 265.102078 7.305668 
L 265.475831 8.68871 
L 265.94794 11.375322 
L 266.538076 16.133884 
L 267.265911 23.945798 
L 268.200293 36.581737 
L 269.557606 58.336972 
L 272.036179 98.201246 
L 273.029575 110.493034 
L 273.796752 117.465263 
L 274.406559 121.177588 
L 274.878668 122.854007 
L 275.222914 123.395812 
L 275.458969 123.431844 
L 275.685188 123.209903 
L 275.980256 122.544897 
L 276.363845 121.052895 
L 276.845789 118.200666 
L 277.445761 113.210486 
L 278.193267 104.980683 
L 279.14732 91.823199 
L 280.593154 68.37264 
L 282.816001 32.642817 
L 283.819232 20.035805 
L 284.596245 12.818248 
L 285.215888 8.935655 
L 285.697833 7.156807 
L 286.051915 6.565945 
L 286.287969 6.513109 
L 286.504352 6.704807 
L 286.789585 7.307047 
L 287.163338 8.690968 
L 287.635447 11.378653 
L 288.225583 16.138465 
L 288.953418 23.951735 
L 289.8878 36.589021 
L 291.245114 58.34525 
L 293.723686 98.208102 
L 294.717082 110.498263 
L 295.484259 117.468934 
L 296.094067 121.179888 
L 296.566176 122.855193 
L 296.910422 123.396171 
L 297.146476 123.431633 
L 297.372695 123.209147 
L 297.667763 122.543436 
L 298.051352 121.050533 
L 298.533296 118.197215 
L 299.133268 113.205776 
L 299.880774 104.974606 
L 300.834828 91.815797 
L 302.280662 68.364323 
L 304.503508 32.635875 
L 305.50674 20.030474 
L 306.283752 12.814482 
L 306.903396 8.933276 
L 307.38534 7.155563 
L 307.739422 6.565551 
L 307.975476 6.513284 
L 308.19186 6.705504 
L 308.477092 7.308427 
L 308.850845 8.693228 
L 309.322954 11.381985 
L 309.91309 16.143048 
L 310.640925 23.957672 
L 311.575308 36.596305 
L 312.932621 58.353527 
L 315.411193 98.214957 
L 316.404589 110.503492 
L 317.171766 117.472604 
L 317.781574 121.182186 
L 318.253683 122.856378 
L 318.597929 123.396529 
L 318.833983 123.431422 
L 319.060202 123.208391 
L 319.35527 122.541973 
L 319.738859 121.04817 
L 320.220804 118.193763 
L 320.820775 113.201065 
L 321.568281 104.968529 
L 322.532171 91.660236 
L 323.98784 68.023251 
L 326.191015 32.628934 
L 327.194247 20.025145 
L 327.97126 12.810717 
L 328.590903 8.930899 
L 329.072847 7.154319 
L 329.426929 6.565158 
L 329.662984 6.513461 
L 329.879367 6.706202 
L 330.164599 7.309808 
L 330.538352 8.695489 
L 331.010461 11.385319 
L 331.600598 16.147632 
L 332.338268 24.082553 
L 333.27265 36.749407 
L 334.639799 58.693032 
L 337.088865 98.0846 
L 338.082261 110.403988 
L 338.849438 117.402688 
L 339.459245 121.138319 
L 339.931354 122.83366 
L 340.275601 123.389523 
L 340.511655 123.435239 
L 340.737874 123.222564 
L 341.023106 122.598136 
L 341.396859 121.185632 
L 341.878804 118.395571 
L 342.478776 113.477351 
L 343.216446 105.44616 
L 344.160664 92.538549 
L 345.567156 69.843584 
L 347.898194 32.344918 
L 348.901425 19.807431 
L 349.678438 12.657252 
L 350.288246 8.88123 
L 350.760355 7.153077 
L 351.114436 6.564766 
L 351.350491 6.513638 
L 351.566874 6.706901 
L 351.852107 7.31119 
L 352.22586 8.697751 
L 352.697969 11.388653 
L 353.288105 16.152216 
L 354.025775 24.088508 
L 354.960158 36.756704 
L 356.327307 58.701315 
L 358.776372 98.091467 
L 359.769768 110.409234 
L 360.536945 117.406377 
L 361.146753 121.140639 
L 361.618862 122.834867 
L 361.963108 123.389903 
L 362.199162 123.435049 
L 362.425381 123.221829 
L 362.710614 122.596718 
L 363.084367 121.183335 
L 363.566311 118.392182 
L 364.166283 113.472697 
L 364.903953 105.440146 
L 365.848171 92.531201 
L 367.254663 69.835281 
L 369.585701 32.338005 
L 370.588933 19.802141 
L 371.365945 12.653532 
L 371.975753 8.878877 
L 372.447862 7.151836 
L 372.801944 6.564375 
L 373.037998 6.513817 
L 373.254381 6.707602 
L 373.539614 7.312573 
L 373.913367 8.700014 
L 374.385476 11.391988 
L 374.975612 16.156802 
L 375.713282 24.094465 
L 376.647665 36.764001 
L 378.014814 58.709598 
L 380.463879 98.098333 
L 381.457275 110.414478 
L 382.224452 117.410066 
L 382.83426 121.142956 
L 383.306369 122.836072 
L 383.650615 123.390281 
L 383.88667 123.434857 
L 384.112888 123.221092 
L 384.398121 122.595299 
L 384.771874 121.181037 
L 385.253819 118.388791 
L 385.85379 113.468041 
L 386.591461 105.434131 
L 387.535679 92.523852 
L 388.94217 69.826979 
L 391.273208 32.331092 
L 392.27644 19.796851 
L 393.053453 12.649812 
L 393.66326 8.876526 
L 394.135369 7.150597 
L 394.489451 6.563985 
L 394.725505 6.513997 
L 394.941889 6.708303 
L 395.227121 7.313958 
L 395.600874 8.702278 
L 396.072983 11.395324 
L 396.663119 16.161389 
L 397.40079 24.100423 
L 398.335172 36.771299 
L 399.702321 58.717882 
L 402.151387 98.105198 
L 403.144783 110.419722 
L 403.91196 117.413753 
L 404.521767 121.145273 
L 404.993876 122.837276 
L 405.338122 123.390658 
L 405.574177 123.434665 
L 405.800396 123.220354 
L 406.085628 122.593878 
L 406.459381 121.178738 
L 406.941326 118.3854 
L 407.541298 113.463385 
L 408.278968 105.428115 
L 409.223186 92.516503 
L 410.629677 69.818676 
L 412.960716 32.32418 
L 413.963947 19.791562 
L 414.74096 12.646093 
L 415.350767 8.874175 
L 415.822876 7.149358 
L 416.176958 6.563597 
L 416.413013 6.514179 
L 416.629396 6.709006 
L 416.914628 7.315343 
L 417.288381 8.704544 
L 417.76049 11.398662 
L 418.350627 16.165976 
L 419.088297 24.106381 
L 420.022679 36.778598 
L 421.389828 58.726166 
L 423.838894 98.112063 
L 424.83229 110.424964 
L 425.599467 117.417439 
L 426.209274 121.147589 
L 426.681383 122.838478 
L 427.02563 123.391034 
L 427.261684 123.434471 
L 427.487903 123.219616 
L 427.773135 122.592457 
L 428.146888 121.176438 
L 428.628833 118.382008 
L 429.228805 113.458728 
L 429.966475 105.422099 
L 430.910693 92.509153 
L 432.317185 69.810373 
L 434.648223 32.317269 
L 435.651454 19.786274 
L 436.428467 12.642376 
L 437.038275 8.871826 
L 437.510384 7.148121 
L 437.864465 6.56321 
L 438.10052 6.514361 
L 438.316903 6.70971 
L 438.602136 7.31673 
L 438.975889 8.70681 
L 439.447998 11.402 
L 440.038134 16.170565 
L 440.775804 24.11234 
L 441.710187 36.785897 
L 443.077336 58.73445 
L 445.516565 97.981515 
L 446.509961 110.325198 
L 447.277139 117.347219 
L 447.886946 121.103397 
L 448.359055 122.815426 
L 448.703301 123.383689 
L 448.939356 123.437949 
L 449.155739 123.247555 
L 449.440972 122.647023 
L 449.814724 121.265301 
L 450.286833 118.580297 
L 450.87697 113.823612 
L 451.604804 106.013731 
L 452.539187 93.379812 
L 453.8965 71.626069 
L 454.289924 64.975313 
L 454.289924 64.975313 
" style="fill:none;stroke:#1f77b4;stroke-linecap:square;stroke-width:2;"/>
   </g>
   <g id="patch_3">
    <path d="M 20.549615 123.450385 
L 20.549615 6.50024 
" style="fill:none;stroke:#000000;stroke-linecap:square;stroke-linejoin:miter;stroke-width:0.8;"/>
   </g>
   <g id="patch_4">
    <path d="M 20.549615 123.450385 
L 454.29976 123.450385 
" style="fill:none;stroke:#000000;stroke-linecap:square;stroke-linejoin:miter;stroke-width:0.8;"/>
   </g>
  </g>
 </g>
 <defs>
  <clipPath id="p2334da71dc">
   <rect height="116.950145" width="433.750145" x="20.549615" y="6.50024"/>
  </clipPath>
 </defs>
</svg>
