<?xml version="1.0" encoding="utf-8" standalone="no"?>
<!DOCTYPE svg PUBLIC "-//W3C//DTD SVG 1.1//EN"
  "http://www.w3.org/Graphics/SVG/1.1/DTD/svg11.dtd">
<!-- Created with matplotlib (https://matplotlib.org/) -->
<svg height="144pt" version="1.1" viewBox="0 0 460.8 144" width="460.8pt" xmlns="http://www.w3.org/2000/svg" xmlns:xlink="http://www.w3.org/1999/xlink">
 <defs>
  <style type="text/css">
*{stroke-linecap:butt;stroke-linejoin:round;}
  </style>
 </defs>
 <g id="figure_1">
  <g id="patch_1">
   <path d="M 0 144 
L 460.8 144 
L 460.8 0 
L 0 0 
z
" style="fill:none;"/>
  </g>
  <g id="axes_1">
   <g id="patch_2">
    <path d="M 20.549615 123.450385 
L 454.29976 123.450385 
L 454.29976 6.50024 
L 20.549615 6.50024 
z
" style="fill:none;"/>
   </g>
   <g id="matplotlib.axis_1">
    <g id="text_1">
     <!-- Time -->
     <defs>
      <path d="M -0.296875 72.90625 
L 61.375 72.90625 
L 61.375 64.59375 
L 35.5 64.59375 
L 35.5 0 
L 25.59375 0 
L 25.59375 64.59375 
L -0.296875 64.59375 
z
" id="DejaVuSans-84"/>
      <path d="M 9.421875 54.6875 
L 18.40625 54.6875 
L 18.40625 0 
L 9.421875 0 
z
M 9.421875 75.984375 
L 18.40625 75.984375 
L 18.40625 64.59375 
L 9.421875 64.59375 
z
" id="DejaVuSans-105"/>
      <path d="M 52 44.1875 
Q 55.375 50.25 60.0625 53.125 
Q 64.75 56 71.09375 56 
Q 79.640625 56 84.28125 50.015625 
Q 88.921875 44.046875 88.921875 33.015625 
L 88.921875 0 
L 79.890625 0 
L 79.890625 32.71875 
Q 79.890625 40.578125 77.09375 44.375 
Q 74.3125 48.1875 68.609375 48.1875 
Q 61.625 48.1875 57.5625 43.546875 
Q 53.515625 38.921875 53.515625 30.90625 
L 53.515625 0 
L 44.484375 0 
L 44.484375 32.71875 
Q 44.484375 40.625 41.703125 44.40625 
Q 38.921875 48.1875 33.109375 48.1875 
Q 26.21875 48.1875 22.15625 43.53125 
Q 18.109375 38.875 18.109375 30.90625 
L 18.109375 0 
L 9.078125 0 
L 9.078125 54.6875 
L 18.109375 54.6875 
L 18.109375 46.1875 
Q 21.1875 51.21875 25.484375 53.609375 
Q 29.78125 56 35.6875 56 
Q 41.65625 56 45.828125 52.96875 
Q 50 49.953125 52 44.1875 
z
" id="DejaVuSans-109"/>
      <path d="M 56.203125 29.59375 
L 56.203125 25.203125 
L 14.890625 25.203125 
Q 15.484375 15.921875 20.484375 11.0625 
Q 25.484375 6.203125 34.421875 6.203125 
Q 39.59375 6.203125 44.453125 7.46875 
Q 49.3125 8.734375 54.109375 11.28125 
L 54.109375 2.78125 
Q 49.265625 0.734375 44.1875 -0.34375 
Q 39.109375 -1.421875 33.890625 -1.421875 
Q 20.796875 -1.421875 13.15625 6.1875 
Q 5.515625 13.8125 5.515625 26.8125 
Q 5.515625 40.234375 12.765625 48.109375 
Q 20.015625 56 32.328125 56 
Q 43.359375 56 49.78125 48.890625 
Q 56.203125 41.796875 56.203125 29.59375 
z
M 47.21875 32.234375 
Q 47.125 39.59375 43.09375 43.984375 
Q 39.0625 48.390625 32.421875 48.390625 
Q 24.90625 48.390625 20.390625 44.140625 
Q 15.875 39.890625 15.1875 32.171875 
z
" id="DejaVuSans-101"/>
     </defs>
     <g transform="translate(220.082188 138.088198)scale(0.14 -0.14)">
      <use xlink:href="#DejaVuSans-84"/>
      <use x="61.037109" xlink:href="#DejaVuSans-105"/>
      <use x="88.820312" xlink:href="#DejaVuSans-109"/>
      <use x="186.232422" xlink:href="#DejaVuSans-101"/>
     </g>
    </g>
   </g>
   <g id="matplotlib.axis_2">
    <g id="text_2">
     <!-- Pressure -->
     <defs>
      <path d="M 19.671875 64.796875 
L 19.671875 37.40625 
L 32.078125 37.40625 
Q 38.96875 37.40625 42.71875 40.96875 
Q 46.484375 44.53125 46.484375 51.125 
Q 46.484375 57.671875 42.71875 61.234375 
Q 38.96875 64.796875 32.078125 64.796875 
z
M 9.8125 72.90625 
L 32.078125 72.90625 
Q 44.34375 72.90625 50.609375 67.359375 
Q 56.890625 61.8125 56.890625 51.125 
Q 56.890625 40.328125 50.609375 34.8125 
Q 44.34375 29.296875 32.078125 29.296875 
L 19.671875 29.296875 
L 19.671875 0 
L 9.8125 0 
z
" id="DejaVuSans-80"/>
      <path d="M 41.109375 46.296875 
Q 39.59375 47.171875 37.8125 47.578125 
Q 36.03125 48 33.890625 48 
Q 26.265625 48 22.1875 43.046875 
Q 18.109375 38.09375 18.109375 28.8125 
L 18.109375 0 
L 9.078125 0 
L 9.078125 54.6875 
L 18.109375 54.6875 
L 18.109375 46.1875 
Q 20.953125 51.171875 25.484375 53.578125 
Q 30.03125 56 36.53125 56 
Q 37.453125 56 38.578125 55.875 
Q 39.703125 55.765625 41.0625 55.515625 
z
" id="DejaVuSans-114"/>
      <path d="M 44.28125 53.078125 
L 44.28125 44.578125 
Q 40.484375 46.53125 36.375 47.5 
Q 32.28125 48.484375 27.875 48.484375 
Q 21.1875 48.484375 17.84375 46.4375 
Q 14.5 44.390625 14.5 40.28125 
Q 14.5 37.15625 16.890625 35.375 
Q 19.28125 33.59375 26.515625 31.984375 
L 29.59375 31.296875 
Q 39.15625 29.25 43.1875 25.515625 
Q 47.21875 21.78125 47.21875 15.09375 
Q 47.21875 7.46875 41.1875 3.015625 
Q 35.15625 -1.421875 24.609375 -1.421875 
Q 20.21875 -1.421875 15.453125 -0.5625 
Q 10.6875 0.296875 5.421875 2 
L 5.421875 11.28125 
Q 10.40625 8.6875 15.234375 7.390625 
Q 20.0625 6.109375 24.8125 6.109375 
Q 31.15625 6.109375 34.5625 8.28125 
Q 37.984375 10.453125 37.984375 14.40625 
Q 37.984375 18.0625 35.515625 20.015625 
Q 33.0625 21.96875 24.703125 23.78125 
L 21.578125 24.515625 
Q 13.234375 26.265625 9.515625 29.90625 
Q 5.8125 33.546875 5.8125 39.890625 
Q 5.8125 47.609375 11.28125 51.796875 
Q 16.75 56 26.8125 56 
Q 31.78125 56 36.171875 55.265625 
Q 40.578125 54.546875 44.28125 53.078125 
z
" id="DejaVuSans-115"/>
      <path d="M 8.5 21.578125 
L 8.5 54.6875 
L 17.484375 54.6875 
L 17.484375 21.921875 
Q 17.484375 14.15625 20.5 10.265625 
Q 23.53125 6.390625 29.59375 6.390625 
Q 36.859375 6.390625 41.078125 11.03125 
Q 45.3125 15.671875 45.3125 23.6875 
L 45.3125 54.6875 
L 54.296875 54.6875 
L 54.296875 0 
L 45.3125 0 
L 45.3125 8.40625 
Q 42.046875 3.421875 37.71875 1 
Q 33.40625 -1.421875 27.6875 -1.421875 
Q 18.265625 -1.421875 13.375 4.4375 
Q 8.5 10.296875 8.5 21.578125 
z
M 31.109375 56 
z
" id="DejaVuSans-117"/>
     </defs>
     <g transform="translate(13.638053 95.289687)rotate(-90)scale(0.14 -0.14)">
      <use xlink:href="#DejaVuSans-80"/>
      <use x="60.287109" xlink:href="#DejaVuSans-114"/>
      <use x="101.369141" xlink:href="#DejaVuSans-101"/>
      <use x="162.892578" xlink:href="#DejaVuSans-115"/>
      <use x="214.992188" xlink:href="#DejaVuSans-115"/>
      <use x="267.091797" xlink:href="#DejaVuSans-117"/>
      <use x="330.470703" xlink:href="#DejaVuSans-114"/>
      <use x="371.552734" xlink:href="#DejaVuSans-101"/>
     </g>
    </g>
   </g>
   <g id="line2d_1">
    <path clip-path="url(#p5503372201)" d="M 20.549615 64.975313 
L 22.403099 31.759663 
L 23.338583 18.84434 
L 24.046754 11.846989 
L 24.597553 8.338979 
L 25.01721 6.884203 
L 25.305724 6.512676 
L 25.498067 6.551972 
L 25.716638 6.875201 
L 26.013895 7.787229 
L 26.407323 9.81699 
L 26.905665 13.682446 
L 27.53515 20.478678 
L 28.330749 31.694553 
L 29.432348 50.71141 
L 32.404916 103.640041 
L 33.244229 114.053621 
L 33.899943 119.679717 
L 34.407028 122.333042 
L 34.782971 123.293494 
L 35.02777 123.449143 
L 35.220113 123.310396 
L 35.464913 122.802504 
L 35.797141 121.525693 
L 36.22554 118.904502 
L 36.767597 114.092086 
L 37.449539 105.888911 
L 38.332567 92.347316 
L 39.687708 67.632138 
L 41.68982 31.615818 
L 42.616562 18.839221 
L 43.324732 11.843509 
L 43.875532 8.336907 
L 44.295189 6.88325 
L 44.583702 6.512504 
L 44.776045 6.552323 
L 44.994616 6.876143 
L 45.291873 7.788968 
L 45.685301 9.819756 
L 46.183644 13.686447 
L 46.813129 20.484084 
L 47.608728 31.701404 
L 48.710326 50.71949 
L 51.682895 103.64629 
L 52.522208 114.05815 
L 53.177921 119.68266 
L 53.685007 122.334662 
L 54.060949 123.294104 
L 54.305749 123.449088 
L 54.498091 123.309819 
L 54.742891 122.801267 
L 55.075119 121.523572 
L 55.503519 118.90128 
L 56.045575 114.087565 
L 56.727518 105.882958 
L 57.610545 92.339954 
L 58.965686 67.623815 
L 60.967799 31.608976 
L 61.89454 18.834102 
L 62.602711 11.84003 
L 63.15351 8.334836 
L 63.573167 6.882299 
L 63.861681 6.512334 
L 64.054024 6.552675 
L 64.272595 6.877087 
L 64.569852 7.790708 
L 64.96328 9.822524 
L 65.461622 13.690449 
L 66.091107 20.489491 
L 66.886706 31.708256 
L 67.988305 50.72757 
L 70.960873 103.65254 
L 71.800186 114.062678 
L 72.4559 119.685602 
L 72.962985 122.336281 
L 73.330185 123.282324 
L 73.583727 123.449032 
L 73.77607 123.309241 
L 74.02087 122.800028 
L 74.353098 121.52145 
L 74.781497 118.898058 
L 75.323554 114.083042 
L 76.005496 105.877005 
L 76.888524 92.332591 
L 78.243665 67.615492 
L 80.245777 31.602134 
L 81.172519 18.828985 
L 81.880689 11.836552 
L 82.431489 8.332766 
L 82.851146 6.881348 
L 83.13966 6.512165 
L 83.332002 6.553028 
L 83.550573 6.878032 
L 83.84783 7.792449 
L 84.241258 9.825293 
L 84.739601 13.694452 
L 85.369086 20.494898 
L 86.164685 31.715108 
L 87.266283 50.735651 
L 90.238852 103.658788 
L 91.078165 114.067205 
L 91.725136 119.629519 
L 92.232221 122.305318 
L 92.608163 123.282955 
L 92.852963 123.449894 
L 93.045306 123.320019 
L 93.290105 122.82336 
L 93.622334 121.561566 
L 94.050733 118.959095 
L 94.59279 114.1688 
L 95.274732 105.989984 
L 96.157759 92.472396 
L 97.504158 67.940046 
L 99.523756 31.595293 
L 100.450497 18.823868 
L 101.158668 11.833076 
L 101.709467 8.330697 
L 102.129124 6.880399 
L 102.417638 6.511998 
L 102.609981 6.553383 
L 102.828552 6.878978 
L 103.125809 7.794191 
L 103.519237 9.828063 
L 104.017579 13.698456 
L 104.647064 20.500307 
L 105.442663 31.721961 
L 106.544262 50.743732 
L 109.51683 103.665035 
L 110.356143 114.071731 
L 111.003114 119.632481 
L 111.510199 122.306958 
L 111.886142 123.283584 
L 112.130941 123.44986 
L 112.323284 123.319462 
L 112.568084 122.822142 
L 112.900312 121.559465 
L 113.328712 118.955893 
L 113.870768 114.164295 
L 114.55271 105.984045 
L 115.435738 92.465042 
L 116.782136 67.931725 
L 118.801734 31.588453 
L 119.728476 18.818752 
L 120.436646 11.8296 
L 120.987446 8.328629 
L 121.407103 6.879452 
L 121.695617 6.511831 
L 121.887959 6.553739 
L 122.10653 6.879925 
L 122.403787 7.795935 
L 122.797215 9.830834 
L 123.295558 13.702461 
L 123.925043 20.505717 
L 124.720642 31.728814 
L 125.82224 50.751813 
L 128.794809 103.671282 
L 129.634122 114.076256 
L 130.281093 119.635442 
L 130.788178 122.308597 
L 131.16412 123.284213 
L 131.40892 123.449824 
L 131.601263 123.318905 
L 131.846062 122.820924 
L 132.178291 121.557363 
L 132.60669 118.952689 
L 133.148747 114.15979 
L 133.830689 105.978105 
L 134.713716 92.457689 
L 136.060115 67.923404 
L 138.079713 31.581613 
L 139.006454 18.813638 
L 139.714625 11.826126 
L 140.265424 8.326563 
L 140.685081 6.878505 
L 140.973595 6.511666 
L 141.165938 6.554096 
L 141.384509 6.880874 
L 141.681766 7.79768 
L 142.075194 9.833606 
L 142.573536 13.706467 
L 143.203021 20.511127 
L 143.99862 31.735668 
L 145.100219 50.759894 
L 148.072787 103.677528 
L 148.9121 114.08078 
L 149.559071 119.638401 
L 150.066156 122.310235 
L 150.442099 123.28484 
L 150.686898 123.449787 
L 150.879241 123.318346 
L 151.124041 122.819704 
L 151.456269 121.55526 
L 151.884669 118.949484 
L 152.426725 114.155283 
L 153.108667 105.972165 
L 153.991695 92.450334 
L 155.338093 67.915083 
L 157.357691 31.574774 
L 158.284433 18.808524 
L 158.992604 11.822652 
L 159.543403 8.324497 
L 159.96306 6.877559 
L 160.251574 6.511502 
L 160.443916 6.554454 
L 160.662487 6.881823 
L 160.959744 7.799426 
L 161.353172 9.83638 
L 161.851515 13.710475 
L 162.481 20.516539 
L 163.276599 31.742523 
L 164.378198 50.767976 
L 167.342023 103.558721 
L 168.181336 113.994653 
L 168.83705 119.641359 
L 169.344135 122.311872 
L 169.720077 123.285466 
L 169.964877 123.449748 
L 170.15722 123.317786 
L 170.402019 122.818483 
L 170.734248 121.553155 
L 171.162647 118.946278 
L 171.704704 114.150776 
L 172.386646 105.966224 
L 173.269673 92.44298 
L 174.616072 67.906762 
L 176.63567 31.567936 
L 177.562411 18.803411 
L 178.270582 11.81918 
L 178.821381 8.322433 
L 179.241038 6.876615 
L 179.529552 6.511339 
L 179.721895 6.554813 
L 179.940466 6.882774 
L 180.237723 7.801173 
L 180.631151 9.839154 
L 181.129493 13.714483 
L 181.758978 20.521951 
L 182.554577 31.749379 
L 183.656176 50.776058 
L 186.620001 103.564981 
L 187.459315 113.999195 
L 188.115028 119.644317 
L 188.622113 122.313507 
L 188.998056 123.28609 
L 189.242856 123.449709 
L 189.435198 123.317224 
L 189.679998 122.817261 
L 190.012226 121.55105 
L 190.440626 118.943071 
L 190.982682 114.146267 
L 191.664624 105.960282 
L 192.547652 92.435624 
L 193.89405 67.898441 
L 195.913648 31.561098 
L 196.84039 18.798299 
L 197.548561 11.815708 
L 198.09936 8.32037 
L 198.519017 6.875672 
L 198.807531 6.511177 
L 198.999873 6.555173 
L 199.218444 6.883726 
L 199.515701 7.802921 
L 199.909129 9.84193 
L 200.407472 13.718492 
L 201.036957 20.527364 
L 201.832556 31.756235 
L 202.934155 50.78414 
L 205.89798 103.571241 
L 206.737293 114.003736 
L 207.393007 119.647273 
L 207.900092 122.315141 
L 208.276034 123.286714 
L 208.520834 123.449668 
L 208.713177 123.316662 
L 208.957976 122.816038 
L 209.290205 121.548943 
L 209.718604 118.939863 
L 210.260661 114.141757 
L 210.942603 105.954339 
L 211.82563 92.428268 
L 213.172029 67.89012 
L 215.191627 31.554261 
L 216.118368 18.793188 
L 216.826539 11.812238 
L 217.377338 8.318308 
L 217.796995 6.87473 
L 218.085509 6.511017 
L 218.277852 6.555535 
L 218.496423 6.88468 
L 218.79368 7.80467 
L 219.187108 9.844706 
L 219.68545 13.722503 
L 220.314935 20.532778 
L 221.110534 31.763092 
L 222.212133 50.792223 
L 225.175958 103.577499 
L 226.015272 114.008276 
L 226.670985 119.650228 
L 227.17807 122.316775 
L 227.554013 123.287336 
L 227.798813 123.449626 
L 227.991155 123.316098 
L 228.235955 122.814813 
L 228.568183 121.546835 
L 228.996583 118.936654 
L 229.538639 114.137247 
L 230.220581 105.948395 
L 231.103609 92.420912 
L 232.450007 67.881799 
L 234.469605 31.547425 
L 235.396347 18.788078 
L 236.104518 11.808769 
L 236.655317 8.316247 
L 237.074974 6.873789 
L 237.363488 6.510857 
L 237.55583 6.555898 
L 237.774401 6.885634 
L 238.071658 7.806421 
L 238.465086 9.847484 
L 238.963429 13.726514 
L 239.592914 20.538193 
L 240.388513 31.769949 
L 241.490112 50.800306 
L 244.453937 103.583757 
L 245.29325 114.012815 
L 245.948964 119.653182 
L 246.456049 122.318407 
L 246.831991 123.287957 
L 247.076791 123.449583 
L 247.269134 123.315533 
L 247.513933 122.813588 
L 247.846162 121.544726 
L 248.274561 118.933444 
L 248.816618 114.132735 
L 249.49856 105.94245 
L 250.381587 92.413555 
L 251.727986 67.873478 
L 253.747584 31.540589 
L 254.674325 18.782969 
L 255.382496 11.805301 
L 255.933295 8.314188 
L 256.352952 6.872849 
L 256.641466 6.510699 
L 256.833809 6.556262 
L 257.05238 6.886589 
L 257.349637 7.808172 
L 257.743065 9.850263 
L 258.241407 13.730527 
L 258.870892 20.543609 
L 259.666491 31.776807 
L 260.76809 50.808389 
L 263.731915 103.590014 
L 264.571229 114.017353 
L 265.226942 119.656135 
L 265.734027 122.320037 
L 266.10997 123.288577 
L 266.35477 123.449539 
L 266.547112 123.314967 
L 266.791912 122.812361 
L 267.12414 121.542616 
L 267.55254 118.930232 
L 268.094596 114.128223 
L 268.776538 105.936505 
L 269.659566 92.406197 
L 271.005964 67.865157 
L 273.025562 31.533755 
L 273.952304 18.777861 
L 274.660475 11.801834 
L 275.211274 8.312129 
L 275.630931 6.871911 
L 275.919445 6.510542 
L 276.111787 6.556627 
L 276.330358 6.887546 
L 276.627615 7.809925 
L 277.021043 9.853043 
L 277.519386 13.73454 
L 278.148871 20.549026 
L 278.94447 31.783666 
L 280.046069 50.816472 
L 283.009894 103.59627 
L 283.849207 114.02189 
L 284.504921 119.659086 
L 285.012006 122.321667 
L 285.387948 123.289196 
L 285.632748 123.449494 
L 285.825091 123.3144 
L 286.06989 122.811133 
L 286.402119 121.540504 
L 286.830518 118.92702 
L 287.372575 114.123709 
L 288.054517 105.930558 
L 288.937544 92.398839 
L 290.283943 67.856835 
L 292.303541 31.52692 
L 293.230282 18.772754 
L 293.938453 11.798368 
L 294.489252 8.310072 
L 294.908909 6.870974 
L 295.197423 6.510386 
L 295.389766 6.556993 
L 295.608337 6.888504 
L 295.905594 7.811679 
L 296.299022 9.855824 
L 296.797364 13.738555 
L 297.426849 20.554444 
L 298.222448 31.790526 
L 299.324047 50.824556 
L 302.287872 103.602525 
L 303.127186 114.026426 
L 303.782899 119.662037 
L 304.289984 122.323295 
L 304.665927 123.289814 
L 304.910727 123.449447 
L 305.103069 123.313831 
L 305.347869 122.809904 
L 305.680097 121.538392 
L 306.108497 118.923806 
L 306.650553 114.119195 
L 307.332495 105.924611 
L 308.215523 92.39148 
L 309.561921 67.848514 
L 311.572776 31.656886 
L 312.499518 18.869951 
L 313.207689 11.864405 
L 313.758488 8.349358 
L 314.178145 6.888983 
L 314.466659 6.513549 
L 314.659001 6.550235 
L 314.877573 6.870505 
L 315.174829 7.778551 
L 315.568258 9.803174 
L 316.0666 13.662456 
L 316.696085 20.451661 
L 317.491684 31.66031 
L 318.593283 50.671015 
L 321.574594 103.733706 
L 322.413907 114.121452 
L 323.060878 119.664986 
L 323.567963 122.324923 
L 323.943905 123.29043 
L 324.188705 123.449399 
L 324.381048 123.313262 
L 324.625847 122.808673 
L 324.958076 121.536278 
L 325.386475 118.920591 
L 325.928532 114.114679 
L 326.610474 105.918663 
L 327.493501 92.384121 
L 328.8399 67.840193 
L 330.850755 31.65004 
L 331.777497 18.864827 
L 332.485667 11.860919 
L 333.036467 8.34728 
L 333.456123 6.888025 
L 333.744637 6.513372 
L 333.93698 6.55058 
L 334.155551 6.871442 
L 334.452808 7.780285 
L 334.846236 9.805935 
L 335.344578 13.666452 
L 335.974063 20.457063 
L 336.769662 31.667157 
L 337.871261 50.679093 
L 340.852572 103.739944 
L 341.691886 114.125966 
L 342.338856 119.667935 
L 342.845941 122.326549 
L 343.221884 123.291045 
L 343.466684 123.44935 
L 343.659026 123.312691 
L 343.903826 122.807442 
L 344.236054 121.534163 
L 344.664454 118.917376 
L 345.20651 114.110162 
L 345.888452 105.912715 
L 346.77148 92.376761 
L 348.117878 67.831871 
L 350.128733 31.643194 
L 351.055475 18.859704 
L 351.763646 11.857435 
L 352.314445 8.345203 
L 352.734102 6.887068 
L 353.022616 6.513196 
L 353.214958 6.550926 
L 353.43353 6.87238 
L 353.730786 7.782019 
L 354.124215 9.808697 
L 354.622557 13.670449 
L 355.252042 20.462465 
L 356.047641 31.674005 
L 357.14924 50.687172 
L 360.121808 103.621286 
L 360.961121 114.040028 
L 361.616835 119.670882 
L 362.12392 122.328174 
L 362.499862 123.291659 
L 362.744662 123.4493 
L 362.937005 123.312119 
L 363.181804 122.806209 
L 363.514033 121.532047 
L 363.942432 118.914159 
L 364.484489 114.105645 
L 365.166431 105.906765 
L 366.049458 92.369401 
L 367.395857 67.823549 
L 369.406712 31.636349 
L 370.333454 18.854582 
L 371.041624 11.853952 
L 371.592424 8.343127 
L 372.01208 6.886112 
L 372.300594 6.513022 
L 372.492937 6.551274 
L 372.711508 6.873319 
L 373.008765 7.783754 
L 373.402193 9.81146 
L 373.900535 13.674447 
L 374.53002 20.467868 
L 375.325619 31.680854 
L 376.427218 50.695251 
L 379.399786 103.627539 
L 380.2391 114.04456 
L 380.894813 119.673828 
L 381.401898 122.329798 
L 381.777841 123.292272 
L 382.022641 123.449249 
L 382.214983 123.311546 
L 382.459783 122.804975 
L 382.792011 121.52993 
L 383.220411 118.910941 
L 383.762467 114.101126 
L 384.444409 105.900815 
L 385.327437 92.36204 
L 386.673835 67.815228 
L 388.68469 31.629505 
L 389.611432 18.84946 
L 390.319603 11.85047 
L 390.870402 8.341053 
L 391.290059 6.885157 
L 391.578573 6.512848 
L 391.770915 6.551622 
L 391.989487 6.874259 
L 392.286743 7.785491 
L 392.680172 9.814224 
L 393.178514 13.678446 
L 393.807999 20.473273 
L 394.603598 31.687703 
L 395.705197 50.703331 
L 398.677765 103.63379 
L 399.517078 114.049091 
L 400.172792 119.676773 
L 400.679877 122.33142 
L 401.055819 123.292884 
L 401.300619 123.449196 
L 401.492962 123.310971 
L 401.737761 122.80374 
L 402.06999 121.527812 
L 402.498389 118.907722 
L 403.040446 114.096607 
L 403.722388 105.894863 
L 404.605415 92.354678 
L 405.960557 67.640461 
L 407.927697 32.303186 
L 408.871925 19.145054 
L 409.588838 11.980073 
L 410.148381 8.375838 
L 410.568037 6.901021 
L 410.865294 6.512213 
L 411.057637 6.552966 
L 411.276208 6.877984 
L 411.573465 7.792656 
L 411.966893 9.826244 
L 412.465235 13.696965 
L 413.09472 20.500237 
L 413.890319 31.724984 
L 414.991918 50.752377 
L 417.964486 103.682315 
L 418.8038 114.086414 
L 419.45077 119.643178 
L 419.957855 122.31335 
L 420.333798 123.286164 
L 420.578598 123.449699 
L 420.77094 123.317017 
L 421.01574 122.81664 
L 421.347968 121.54958 
L 421.776368 118.940049 
L 422.318424 114.140623 
L 423.000366 105.95053 
L 423.883394 92.419847 
L 425.229792 67.8742 
L 427.24939 31.533304 
L 428.176132 18.774823 
L 428.884303 11.798372 
L 429.435102 8.309427 
L 429.854759 6.870456 
L 430.143273 6.510275 
L 430.335615 6.557297 
L 430.554186 6.889417 
L 430.851443 7.813648 
L 431.244871 9.85957 
L 431.743214 13.745104 
L 432.372699 20.565228 
L 433.168298 31.807294 
L 434.269897 50.849398 
L 437.224979 103.507106 
L 438.064292 113.959367 
L 438.720006 119.619479 
L 439.227091 122.30023 
L 439.603034 123.281134 
L 439.856576 123.449129 
L 440.048919 123.310182 
L 440.293718 122.801872 
L 440.625947 121.524207 
L 441.054346 118.901457 
L 441.596403 114.086414 
L 442.278345 105.879126 
L 443.161372 92.331503 
L 444.516514 67.607825 
L 446.518626 31.588016 
L 447.445368 18.81572 
L 448.153538 11.826136 
L 448.704338 8.325919 
L 449.123994 6.877984 
L 449.412508 6.511548 
L 449.604851 6.554391 
L 449.823422 6.881776 
L 450.120679 7.799635 
L 450.514107 9.837335 
L 451.012449 13.712995 
L 451.641934 20.521886 
L 452.437534 31.75241 
L 453.539132 50.784713 
L 454.291017 64.975312 
L 454.291017 64.975312 
" style="fill:none;stroke:#ff7f0e;stroke-linecap:square;stroke-width:2;"/>
   </g>
   <g id="line2d_2">
    <path clip-path="url(#p5503372201)" d="M 20.549615 64.975313 
L 22.403099 31.759663 
L 23.338583 18.84434 
L 24.046754 11.846989 
L 24.597553 8.338979 
L 25.01721 6.884203 
L 25.305724 6.512676 
L 25.498067 6.551972 
L 25.716638 6.875201 
L 26.013895 7.787229 
L 26.407323 9.81699 
L 26.905665 13.682446 
L 27.53515 20.478678 
L 28.330749 31.694553 
L 29.432348 50.71141 
L 32.404916 103.640041 
L 33.244229 114.053621 
L 33.899943 119.679717 
L 34.407028 122.333042 
L 34.782971 123.293494 
L 35.02777 123.449143 
L 35.220113 123.310396 
L 35.464913 122.802504 
L 35.797141 121.525693 
L 36.22554 118.904502 
L 36.767597 114.092086 
L 37.449539 105.888911 
L 38.332567 92.347316 
L 39.687708 67.632138 
L 41.68982 31.615818 
L 42.616562 18.839221 
L 43.324732 11.843509 
L 43.875532 8.336907 
L 44.295189 6.88325 
L 44.583702 6.512504 
L 44.776045 6.552323 
L 44.994616 6.876143 
L 45.291873 7.788968 
L 45.685301 9.819756 
L 46.183644 13.686447 
L 46.813129 20.484084 
L 47.608728 31.701404 
L 48.710326 50.71949 
L 51.682895 103.64629 
L 52.522208 114.05815 
L 53.177921 119.68266 
L 53.685007 122.334662 
L 54.060949 123.294104 
L 54.305749 123.449088 
L 54.498091 123.309819 
L 54.742891 122.801267 
L 55.075119 121.523572 
L 55.503519 118.90128 
L 56.045575 114.087565 
L 56.727518 105.882958 
L 57.610545 92.339954 
L 58.965686 67.623815 
L 60.967799 31.608976 
L 61.89454 18.834102 
L 62.602711 11.84003 
L 63.15351 8.334836 
L 63.573167 6.882299 
L 63.861681 6.512334 
L 64.054024 6.552675 
L 64.272595 6.877087 
L 64.569852 7.790708 
L 64.96328 9.822524 
L 65.461622 13.690449 
L 66.091107 20.489491 
L 66.886706 31.708256 
L 67.988305 50.72757 
L 70.960873 103.65254 
L 71.800186 114.062678 
L 72.4559 119.685602 
L 72.962985 122.336281 
L 73.330185 123.282324 
L 73.583727 123.449032 
L 73.77607 123.309241 
L 74.02087 122.800028 
L 74.353098 121.52145 
L 74.781497 118.898058 
L 75.323554 114.083042 
L 76.005496 105.877005 
L 76.888524 92.332591 
L 78.243665 67.615492 
L 80.245777 31.602134 
L 81.172519 18.828985 
L 81.880689 11.836552 
L 82.431489 8.332766 
L 82.851146 6.881348 
L 83.13966 6.512165 
L 83.332002 6.553028 
L 83.550573 6.878032 
L 83.84783 7.792449 
L 84.241258 9.825293 
L 84.739601 13.694452 
L 85.369086 20.494898 
L 86.164685 31.715108 
L 87.266283 50.735651 
L 90.238852 103.658788 
L 91.078165 114.067205 
L 91.725136 119.629519 
L 92.232221 122.305318 
L 92.608163 123.282955 
L 92.852963 123.449894 
L 93.045306 123.320019 
L 93.290105 122.82336 
L 93.622334 121.561566 
L 94.050733 118.959095 
L 94.59279 114.1688 
L 95.274732 105.989984 
L 96.157759 92.472396 
L 97.504158 67.940046 
L 99.523756 31.595293 
L 100.450497 18.823868 
L 101.158668 11.833076 
L 101.709467 8.330697 
L 102.129124 6.880399 
L 102.417638 6.511998 
L 102.609981 6.553383 
L 102.828552 6.878978 
L 103.125809 7.794191 
L 103.519237 9.828063 
L 104.017579 13.698456 
L 104.647064 20.500307 
L 105.442663 31.721961 
L 106.544262 50.743732 
L 109.51683 103.665035 
L 110.356143 114.071731 
L 111.003114 119.632481 
L 111.510199 122.306958 
L 111.886142 123.283584 
L 112.130941 123.44986 
L 112.323284 123.319462 
L 112.568084 122.822142 
L 112.900312 121.559465 
L 113.328712 118.955893 
L 113.870768 114.164295 
L 114.55271 105.984045 
L 115.435738 92.465042 
L 116.782136 67.931725 
L 118.801734 31.588453 
L 119.728476 18.818752 
L 120.436646 11.8296 
L 120.987446 8.328629 
L 121.407103 6.879452 
L 121.695617 6.511831 
L 121.887959 6.553739 
L 122.10653 6.879925 
L 122.403787 7.795935 
L 122.797215 9.830834 
L 123.295558 13.702461 
L 123.925043 20.505717 
L 124.720642 31.728814 
L 125.82224 50.751813 
L 128.794809 103.671282 
L 129.634122 114.076256 
L 130.281093 119.635442 
L 130.788178 122.308597 
L 131.16412 123.284213 
L 131.40892 123.449824 
L 131.601263 123.318905 
L 131.846062 122.820924 
L 132.178291 121.557363 
L 132.60669 118.952689 
L 133.148747 114.15979 
L 133.830689 105.978105 
L 134.713716 92.457689 
L 136.060115 67.923404 
L 138.079713 31.581613 
L 139.006454 18.813638 
L 139.714625 11.826126 
L 140.265424 8.326563 
L 140.685081 6.878505 
L 140.973595 6.511666 
L 141.165938 6.554096 
L 141.384509 6.880874 
L 141.681766 7.79768 
L 142.075194 9.833606 
L 142.573536 13.706467 
L 143.203021 20.511127 
L 143.99862 31.735668 
L 145.100219 50.759894 
L 148.072787 103.677528 
L 148.9121 114.08078 
L 149.559071 119.638401 
L 150.066156 122.310235 
L 150.442099 123.28484 
L 150.686898 123.449787 
L 150.879241 123.318346 
L 151.124041 122.819704 
L 151.456269 121.55526 
L 151.884669 118.949484 
L 152.426725 114.155283 
L 153.108667 105.972165 
L 153.991695 92.450334 
L 155.338093 67.915083 
L 157.357691 31.574774 
L 158.284433 18.808524 
L 158.992604 11.822652 
L 159.543403 8.324497 
L 159.96306 6.877559 
L 160.251574 6.511502 
L 160.443916 6.554454 
L 160.662487 6.881823 
L 160.959744 7.799426 
L 161.353172 9.83638 
L 161.851515 13.710475 
L 162.481 20.516539 
L 163.276599 31.742523 
L 164.378198 50.767976 
L 167.342023 103.558721 
L 168.181336 113.994653 
L 168.83705 119.641359 
L 169.344135 122.311872 
L 169.720077 123.285466 
L 169.964877 123.449748 
L 170.15722 123.317786 
L 170.402019 122.818483 
L 170.734248 121.553155 
L 171.162647 118.946278 
L 171.704704 114.150776 
L 172.386646 105.966224 
L 173.269673 92.44298 
L 174.616072 67.906762 
L 176.63567 31.567936 
L 177.562411 18.803411 
L 178.270582 11.81918 
L 178.821381 8.322433 
L 179.241038 6.876615 
L 179.529552 6.511339 
L 179.721895 6.554813 
L 179.940466 6.882774 
L 180.237723 7.801173 
L 180.631151 9.839154 
L 181.129493 13.714483 
L 181.758978 20.521951 
L 182.554577 31.749379 
L 183.656176 50.776058 
L 186.620001 103.564981 
L 187.459315 113.999195 
L 188.115028 119.644317 
L 188.622113 122.313507 
L 188.998056 123.28609 
L 189.242856 123.449709 
L 189.435198 123.317224 
L 189.679998 122.817261 
L 190.012226 121.55105 
L 190.440626 118.943071 
L 190.982682 114.146267 
L 191.664624 105.960282 
L 192.547652 92.435624 
L 193.89405 67.898441 
L 195.913648 31.561098 
L 196.84039 18.798299 
L 197.548561 11.815708 
L 198.09936 8.32037 
L 198.519017 6.875672 
L 198.807531 6.511177 
L 198.999873 6.555173 
L 199.218444 6.883726 
L 199.515701 7.802921 
L 199.909129 9.84193 
L 200.407472 13.718492 
L 201.036957 20.527364 
L 201.832556 31.756235 
L 202.934155 50.78414 
L 205.89798 103.571241 
L 206.737293 114.003736 
L 207.393007 119.647273 
L 207.900092 122.315141 
L 208.276034 123.286714 
L 208.520834 123.449668 
L 208.713177 123.316662 
L 208.957976 122.816038 
L 209.290205 121.548943 
L 209.718604 118.939863 
L 210.260661 114.141757 
L 210.942603 105.954339 
L 211.82563 92.428268 
L 213.172029 67.89012 
L 215.191627 31.554261 
L 216.118368 18.793188 
L 216.826539 11.812238 
L 217.377338 8.318308 
L 217.796995 6.87473 
L 218.085509 6.511017 
L 218.277852 6.555535 
L 218.496423 6.88468 
L 218.79368 7.80467 
L 219.187108 9.844706 
L 219.68545 13.722503 
L 220.314935 20.532778 
L 221.110534 31.763092 
L 222.212133 50.792223 
L 225.175958 103.577499 
L 226.015272 114.008276 
L 226.670985 119.650228 
L 227.17807 122.316775 
L 227.554013 123.287336 
L 227.798813 123.449626 
L 227.991155 123.316098 
L 228.235955 122.814813 
L 228.568183 121.546835 
L 228.996583 118.936654 
L 229.538639 114.137247 
L 230.220581 105.948395 
L 231.103609 92.420912 
L 232.450007 67.881799 
L 234.469605 31.547425 
L 235.396347 18.788078 
L 236.104518 11.808769 
L 236.655317 8.316247 
L 237.074974 6.873789 
L 237.363488 6.510857 
L 237.55583 6.555898 
L 237.774401 6.885634 
L 238.071658 7.806421 
L 238.465086 9.847484 
L 238.963429 13.726514 
L 239.592914 20.538193 
L 240.388513 31.769949 
L 241.490112 50.800306 
L 244.453937 103.583757 
L 245.29325 114.012815 
L 245.948964 119.653182 
L 246.456049 122.318407 
L 246.831991 123.287957 
L 247.076791 123.449583 
L 247.269134 123.315533 
L 247.513933 122.813588 
L 247.846162 121.544726 
L 248.274561 118.933444 
L 248.816618 114.132735 
L 249.49856 105.94245 
L 250.381587 92.413555 
L 251.727986 67.873478 
L 253.747584 31.540589 
L 254.674325 18.782969 
L 255.382496 11.805301 
L 255.933295 8.314188 
L 256.352952 6.872849 
L 256.641466 6.510699 
L 256.833809 6.556262 
L 257.05238 6.886589 
L 257.349637 7.808172 
L 257.743065 9.850263 
L 258.241407 13.730527 
L 258.870892 20.543609 
L 259.666491 31.776807 
L 260.76809 50.808389 
L 263.731915 103.590014 
L 264.571229 114.017353 
L 265.226942 119.656135 
L 265.734027 122.320037 
L 266.10997 123.288577 
L 266.35477 123.449539 
L 266.547112 123.314967 
L 266.791912 122.812361 
L 267.12414 121.542616 
L 267.55254 118.930232 
L 268.094596 114.128223 
L 268.776538 105.936505 
L 269.659566 92.406197 
L 271.005964 67.865157 
L 273.025562 31.533755 
L 273.952304 18.777861 
L 274.660475 11.801834 
L 275.211274 8.312129 
L 275.630931 6.871911 
L 275.919445 6.510542 
L 276.111787 6.556627 
L 276.330358 6.887546 
L 276.627615 7.809925 
L 277.021043 9.853043 
L 277.519386 13.73454 
L 278.148871 20.549026 
L 278.94447 31.783666 
L 280.046069 50.816472 
L 283.009894 103.59627 
L 283.849207 114.02189 
L 284.504921 119.659086 
L 285.012006 122.321667 
L 285.387948 123.289196 
L 285.632748 123.449494 
L 285.825091 123.3144 
L 286.06989 122.811133 
L 286.402119 121.540504 
L 286.830518 118.92702 
L 287.372575 114.123709 
L 288.054517 105.930558 
L 288.937544 92.398839 
L 290.283943 67.856835 
L 292.303541 31.52692 
L 293.230282 18.772754 
L 293.938453 11.798368 
L 294.489252 8.310072 
L 294.908909 6.870974 
L 295.197423 6.510386 
L 295.389766 6.556993 
L 295.608337 6.888504 
L 295.905594 7.811679 
L 296.299022 9.855824 
L 296.797364 13.738555 
L 297.426849 20.554444 
L 298.222448 31.790526 
L 299.324047 50.824556 
L 302.287872 103.602525 
L 303.127186 114.026426 
L 303.782899 119.662037 
L 304.289984 122.323295 
L 304.665927 123.289814 
L 304.910727 123.449447 
L 305.103069 123.313831 
L 305.347869 122.809904 
L 305.680097 121.538392 
L 306.108497 118.923806 
L 306.650553 114.119195 
L 307.332495 105.924611 
L 308.215523 92.39148 
L 309.561921 67.848514 
L 311.572776 31.656886 
L 312.499518 18.869951 
L 313.207689 11.864405 
L 313.758488 8.349358 
L 314.178145 6.888983 
L 314.466659 6.513549 
L 314.659001 6.550235 
L 314.877573 6.870505 
L 315.174829 7.778551 
L 315.568258 9.803174 
L 316.0666 13.662456 
L 316.696085 20.451661 
L 317.491684 31.66031 
L 318.593283 50.671015 
L 321.574594 103.733706 
L 322.413907 114.121452 
L 323.060878 119.664986 
L 323.567963 122.324923 
L 323.943905 123.29043 
L 324.188705 123.449399 
L 324.381048 123.313262 
L 324.625847 122.808673 
L 324.958076 121.536278 
L 325.386475 118.920591 
L 325.928532 114.114679 
L 326.610474 105.918663 
L 327.493501 92.384121 
L 328.8399 67.840193 
L 330.850755 31.65004 
L 331.777497 18.864827 
L 332.485667 11.860919 
L 333.036467 8.34728 
L 333.456123 6.888025 
L 333.744637 6.513372 
L 333.93698 6.55058 
L 334.155551 6.871442 
L 334.452808 7.780285 
L 334.846236 9.805935 
L 335.344578 13.666452 
L 335.974063 20.457063 
L 336.769662 31.667157 
L 337.871261 50.679093 
L 340.852572 103.739944 
L 341.691886 114.125966 
L 342.338856 119.667935 
L 342.845941 122.326549 
L 343.221884 123.291045 
L 343.466684 123.44935 
L 343.659026 123.312691 
L 343.903826 122.807442 
L 344.236054 121.534163 
L 344.664454 118.917376 
L 345.20651 114.110162 
L 345.888452 105.912715 
L 346.77148 92.376761 
L 348.117878 67.831871 
L 350.128733 31.643194 
L 351.055475 18.859704 
L 351.763646 11.857435 
L 352.314445 8.345203 
L 352.734102 6.887068 
L 353.022616 6.513196 
L 353.214958 6.550926 
L 353.43353 6.87238 
L 353.730786 7.782019 
L 354.124215 9.808697 
L 354.622557 13.670449 
L 355.252042 20.462465 
L 356.047641 31.674005 
L 357.14924 50.687172 
L 360.121808 103.621286 
L 360.961121 114.040028 
L 361.616835 119.670882 
L 362.12392 122.328174 
L 362.499862 123.291659 
L 362.744662 123.4493 
L 362.937005 123.312119 
L 363.181804 122.806209 
L 363.514033 121.532047 
L 363.942432 118.914159 
L 364.484489 114.105645 
L 365.166431 105.906765 
L 366.049458 92.369401 
L 367.395857 67.823549 
L 369.406712 31.636349 
L 370.333454 18.854582 
L 371.041624 11.853952 
L 371.592424 8.343127 
L 372.01208 6.886112 
L 372.300594 6.513022 
L 372.492937 6.551274 
L 372.711508 6.873319 
L 373.008765 7.783754 
L 373.402193 9.81146 
L 373.900535 13.674447 
L 374.53002 20.467868 
L 375.325619 31.680854 
L 376.427218 50.695251 
L 379.399786 103.627539 
L 380.2391 114.04456 
L 380.894813 119.673828 
L 381.401898 122.329798 
L 381.777841 123.292272 
L 382.022641 123.449249 
L 382.214983 123.311546 
L 382.459783 122.804975 
L 382.792011 121.52993 
L 383.220411 118.910941 
L 383.762467 114.101126 
L 384.444409 105.900815 
L 385.327437 92.36204 
L 386.673835 67.815228 
L 388.68469 31.629505 
L 389.611432 18.84946 
L 390.319603 11.85047 
L 390.870402 8.341053 
L 391.290059 6.885157 
L 391.578573 6.512848 
L 391.770915 6.551622 
L 391.989487 6.874259 
L 392.286743 7.785491 
L 392.680172 9.814224 
L 393.178514 13.678446 
L 393.807999 20.473273 
L 394.603598 31.687703 
L 395.705197 50.703331 
L 398.677765 103.63379 
L 399.517078 114.049091 
L 400.172792 119.676773 
L 400.679877 122.33142 
L 401.055819 123.292884 
L 401.300619 123.449196 
L 401.492962 123.310971 
L 401.737761 122.80374 
L 402.06999 121.527812 
L 402.498389 118.907722 
L 403.040446 114.096607 
L 403.722388 105.894863 
L 404.605415 92.354678 
L 405.960557 67.640461 
L 406.100442 64.975313 
L 406.100442 64.975313 
" style="fill:none;stroke:#1f77b4;stroke-dasharray:7.4,3.2;stroke-dashoffset:0;stroke-width:2;"/>
   </g>
   <g id="patch_3">
    <path d="M 20.549615 123.450385 
L 20.549615 6.50024 
" style="fill:none;stroke:#000000;stroke-linecap:square;stroke-linejoin:miter;stroke-width:0.8;"/>
   </g>
   <g id="patch_4">
    <path d="M 20.549615 123.450385 
L 454.29976 123.450385 
" style="fill:none;stroke:#000000;stroke-linecap:square;stroke-linejoin:miter;stroke-width:0.8;"/>
   </g>
  </g>
 </g>
 <defs>
  <clipPath id="p5503372201">
   <rect height="116.950145" width="433.750145" x="20.549615" y="6.50024"/>
  </clipPath>
 </defs>
</svg>
