<?xml version="1.0" encoding="utf-8" standalone="no"?>
<!DOCTYPE svg PUBLIC "-//W3C//DTD SVG 1.1//EN"
  "http://www.w3.org/Graphics/SVG/1.1/DTD/svg11.dtd">
<!-- Created with matplotlib (https://matplotlib.org/) -->
<svg height="216pt" version="1.1" viewBox="0 0 460.8 216" width="460.8pt" xmlns="http://www.w3.org/2000/svg" xmlns:xlink="http://www.w3.org/1999/xlink">
 <defs>
  <style type="text/css">
*{stroke-linecap:butt;stroke-linejoin:round;white-space:pre;}
  </style>
 </defs>
 <g id="figure_1">
  <g id="patch_1">
   <path d="M 0 216 
L 460.8 216 
L 460.8 0 
L 0 0 
z
" style="fill:none;"/>
  </g>
  <g id="axes_1">
   <g id="patch_2">
    <path d="M 20.549615 174.90101 
L 457.79976 174.90101 
L 457.79976 3.00024 
L 20.549615 3.00024 
z
" style="fill:none;"/>
   </g>
   <g id="PolyCollection_1">
    <path clip-path="url(#pc4d43b71fd)" d="M 230.850286 174.90101 
L 230.850286 62.294708 
L 231.726539 64.12923 
L 232.602792 65.977618 
L 233.479044 67.838169 
L 234.355297 69.709193 
L 235.23155 71.589019 
L 236.107803 73.475992 
L 236.984056 75.36848 
L 237.860308 77.264876 
L 238.736561 79.163595 
L 239.612814 81.063084 
L 240.489067 82.961817 
L 241.365319 84.858299 
L 242.241572 86.75107 
L 243.117825 88.638703 
L 243.994078 90.51981 
L 244.870331 92.393038 
L 245.746583 94.257075 
L 246.622836 96.110648 
L 247.499089 97.952526 
L 248.375342 99.781521 
L 249.251595 101.596488 
L 250.127847 103.396326 
L 251.0041 105.179978 
L 251.880353 106.946435 
L 252.756606 108.69473 
L 253.632859 110.423946 
L 254.509111 112.13321 
L 255.385364 113.821697 
L 256.261617 115.488628 
L 257.13787 117.13327 
L 258.014123 118.754939 
L 258.890375 120.352995 
L 259.766628 121.926846 
L 260.642881 123.475943 
L 261.519134 124.999786 
L 262.395387 126.497917 
L 263.271639 127.969922 
L 264.147892 129.415432 
L 265.024145 130.834121 
L 265.900398 132.225703 
L 266.776651 133.589935 
L 267.652903 134.926612 
L 268.529156 136.235571 
L 269.405409 137.516685 
L 270.281662 138.769864 
L 271.157915 139.995056 
L 272.034167 141.192243 
L 272.91042 142.36144 
L 273.786673 143.502695 
L 274.662926 144.616089 
L 275.539179 145.701729 
L 276.415431 146.759757 
L 277.291684 147.790337 
L 278.167937 148.793662 
L 279.04419 149.769951 
L 279.920442 150.719444 
L 280.796695 151.642407 
L 281.672948 152.539124 
L 282.549201 153.409902 
L 283.425454 154.255065 
L 284.301706 155.074954 
L 285.177959 155.869929 
L 286.054212 156.640362 
L 286.930465 157.386641 
L 287.806718 158.109166 
L 288.68297 158.808349 
L 289.559223 159.484612 
L 290.435476 160.138385 
L 291.311729 160.770111 
L 292.187982 161.380234 
L 293.064234 161.969209 
L 293.940487 162.537493 
L 294.81674 163.085551 
L 295.692993 163.613848 
L 296.569246 164.122853 
L 297.445498 164.613037 
L 298.321751 165.08487 
L 299.198004 165.538824 
L 300.074257 165.975371 
L 300.95051 166.394978 
L 301.826762 166.798114 
L 302.703015 167.185243 
L 303.579268 167.556826 
L 304.455521 167.913322 
L 305.331774 168.255181 
L 306.208026 168.582854 
L 307.084279 168.896783 
L 307.960532 169.197405 
L 308.836785 169.485151 
L 309.713038 169.760444 
L 310.58929 170.023704 
L 311.465543 170.275339 
L 312.341796 170.515754 
L 313.218049 170.745342 
L 314.094302 170.964492 
L 314.970554 171.173581 
L 315.846807 171.372983 
L 316.72306 171.563057 
L 317.599313 171.74416 
L 318.475566 171.916636 
L 319.351818 172.080821 
L 320.228071 172.237043 
L 321.104324 172.385622 
L 321.980577 172.526868 
L 322.856829 172.661082 
L 323.733082 172.788558 
L 324.609335 172.909579 
L 325.485588 173.02442 
L 326.361841 173.133349 
L 327.238093 173.236623 
L 328.114346 173.334493 
L 328.990599 173.4272 
L 329.866852 173.514977 
L 330.743105 173.59805 
L 331.619357 173.676636 
L 332.49561 173.750944 
L 333.371863 173.821175 
L 334.248116 173.887525 
L 335.124369 173.95018 
L 336.000621 174.00932 
L 336.876874 174.065118 
L 337.753127 174.117738 
L 338.62938 174.16734 
L 339.505633 174.214078 
L 340.381885 174.258096 
L 341.258138 174.299535 
L 342.134391 174.338529 
L 343.010644 174.375207 
L 343.886897 174.40969 
L 344.763149 174.442096 
L 345.639402 174.472536 
L 346.515655 174.501118 
L 347.391908 174.527944 
L 348.268161 174.553109 
L 349.144413 174.576708 
L 350.020666 174.598827 
L 350.896919 174.61955 
L 351.773172 174.638958 
L 352.649425 174.657125 
L 353.525677 174.674124 
L 354.40193 174.690023 
L 355.278183 174.704886 
L 356.154436 174.718776 
L 357.030689 174.73175 
L 357.906941 174.743863 
L 358.783194 174.755168 
L 359.659447 174.765714 
L 360.5357 174.775548 
L 361.411952 174.784714 
L 362.288205 174.793254 
L 363.164458 174.801206 
L 364.040711 174.808609 
L 364.916964 174.815497 
L 365.793216 174.821903 
L 366.669469 174.827859 
L 367.545722 174.833394 
L 368.421975 174.838534 
L 369.298228 174.843308 
L 370.17448 174.847738 
L 371.050733 174.851847 
L 371.926986 174.855658 
L 372.803239 174.85919 
L 373.679492 174.862463 
L 374.555744 174.865493 
L 375.431997 174.868299 
L 376.30825 174.870895 
L 377.184503 174.873296 
L 378.060756 174.875516 
L 378.937008 174.877568 
L 379.813261 174.879463 
L 380.689514 174.881213 
L 381.565767 174.882828 
L 382.44202 174.884318 
L 383.318272 174.885692 
L 384.194525 174.886958 
L 385.070778 174.888125 
L 385.947031 174.8892 
L 386.823284 174.89019 
L 387.699536 174.8911 
L 388.575789 174.891938 
L 389.452042 174.892708 
L 390.328295 174.893416 
L 391.204548 174.894066 
L 392.0808 174.894663 
L 392.957053 174.895212 
L 393.833306 174.895714 
L 394.709559 174.896176 
L 395.585812 174.896598 
L 396.462064 174.896986 
L 397.338317 174.897341 
L 398.21457 174.897666 
L 399.090823 174.897963 
L 399.967075 174.898235 
L 400.843328 174.898484 
L 401.719581 174.898711 
L 402.595834 174.898919 
L 403.472087 174.899109 
L 404.348339 174.899282 
L 405.224592 174.89944 
L 406.100845 174.899584 
L 406.977098 174.899716 
L 407.853351 174.899836 
L 408.729603 174.899945 
L 409.605856 174.900044 
L 410.482109 174.900135 
L 411.358362 174.900217 
L 412.234615 174.900292 
L 413.110867 174.90036 
L 413.98712 174.900422 
L 414.863373 174.900478 
L 415.739626 174.900529 
L 416.615879 174.900575 
L 417.492131 174.900617 
L 418.368384 174.900655 
L 419.244637 174.90069 
L 420.12089 174.900721 
L 420.997143 174.900749 
L 421.873395 174.900775 
L 422.749648 174.900798 
L 423.625901 174.900819 
L 424.502154 174.900838 
L 425.378407 174.900855 
L 426.254659 174.900871 
L 427.130912 174.900885 
L 428.007165 174.900897 
L 428.883418 174.900909 
L 429.759671 174.900919 
L 430.635923 174.900928 
L 431.512176 174.900937 
L 432.388429 174.900944 
L 433.264682 174.900951 
L 434.140935 174.900957 
L 435.017187 174.900963 
L 435.89344 174.900968 
L 436.769693 174.900972 
L 437.645946 174.900976 
L 438.522198 174.90098 
L 439.398451 174.900983 
L 440.274704 174.900986 
L 441.150957 174.900988 
L 442.02721 174.900991 
L 442.903462 174.900993 
L 443.779715 174.900995 
L 444.655968 174.900996 
L 445.532221 174.900998 
L 446.408474 174.900999 
L 447.284726 174.901 
L 448.160979 174.901001 
L 449.037232 174.901002 
L 449.913485 174.901003 
L 450.789738 174.901004 
L 451.66599 174.901005 
L 452.542243 174.901005 
L 453.418496 174.901006 
L 454.294749 174.901006 
L 455.171002 174.901007 
L 456.047254 174.901007 
L 456.923507 174.901007 
L 457.79976 174.901008 
L 457.79976 174.90101 
L 457.79976 174.90101 
L 456.923507 174.90101 
L 456.047254 174.90101 
L 455.171002 174.90101 
L 454.294749 174.90101 
L 453.418496 174.90101 
L 452.542243 174.90101 
L 451.66599 174.90101 
L 450.789738 174.90101 
L 449.913485 174.90101 
L 449.037232 174.90101 
L 448.160979 174.90101 
L 447.284726 174.90101 
L 446.408474 174.90101 
L 445.532221 174.90101 
L 444.655968 174.90101 
L 443.779715 174.90101 
L 442.903462 174.90101 
L 442.02721 174.90101 
L 441.150957 174.90101 
L 440.274704 174.90101 
L 439.398451 174.90101 
L 438.522198 174.90101 
L 437.645946 174.90101 
L 436.769693 174.90101 
L 435.89344 174.90101 
L 435.017187 174.90101 
L 434.140935 174.90101 
L 433.264682 174.90101 
L 432.388429 174.90101 
L 431.512176 174.90101 
L 430.635923 174.90101 
L 429.759671 174.90101 
L 428.883418 174.90101 
L 428.007165 174.90101 
L 427.130912 174.90101 
L 426.254659 174.90101 
L 425.378407 174.90101 
L 424.502154 174.90101 
L 423.625901 174.90101 
L 422.749648 174.90101 
L 421.873395 174.90101 
L 420.997143 174.90101 
L 420.12089 174.90101 
L 419.244637 174.90101 
L 418.368384 174.90101 
L 417.492131 174.90101 
L 416.615879 174.90101 
L 415.739626 174.90101 
L 414.863373 174.90101 
L 413.98712 174.90101 
L 413.110867 174.90101 
L 412.234615 174.90101 
L 411.358362 174.90101 
L 410.482109 174.90101 
L 409.605856 174.90101 
L 408.729603 174.90101 
L 407.853351 174.90101 
L 406.977098 174.90101 
L 406.100845 174.90101 
L 405.224592 174.90101 
L 404.348339 174.90101 
L 403.472087 174.90101 
L 402.595834 174.90101 
L 401.719581 174.90101 
L 400.843328 174.90101 
L 399.967075 174.90101 
L 399.090823 174.90101 
L 398.21457 174.90101 
L 397.338317 174.90101 
L 396.462064 174.90101 
L 395.585812 174.90101 
L 394.709559 174.90101 
L 393.833306 174.90101 
L 392.957053 174.90101 
L 392.0808 174.90101 
L 391.204548 174.90101 
L 390.328295 174.90101 
L 389.452042 174.90101 
L 388.575789 174.90101 
L 387.699536 174.90101 
L 386.823284 174.90101 
L 385.947031 174.90101 
L 385.070778 174.90101 
L 384.194525 174.90101 
L 383.318272 174.90101 
L 382.44202 174.90101 
L 381.565767 174.90101 
L 380.689514 174.90101 
L 379.813261 174.90101 
L 378.937008 174.90101 
L 378.060756 174.90101 
L 377.184503 174.90101 
L 376.30825 174.90101 
L 375.431997 174.90101 
L 374.555744 174.90101 
L 373.679492 174.90101 
L 372.803239 174.90101 
L 371.926986 174.90101 
L 371.050733 174.90101 
L 370.17448 174.90101 
L 369.298228 174.90101 
L 368.421975 174.90101 
L 367.545722 174.90101 
L 366.669469 174.90101 
L 365.793216 174.90101 
L 364.916964 174.90101 
L 364.040711 174.90101 
L 363.164458 174.90101 
L 362.288205 174.90101 
L 361.411952 174.90101 
L 360.5357 174.90101 
L 359.659447 174.90101 
L 358.783194 174.90101 
L 357.906941 174.90101 
L 357.030689 174.90101 
L 356.154436 174.90101 
L 355.278183 174.90101 
L 354.40193 174.90101 
L 353.525677 174.90101 
L 352.649425 174.90101 
L 351.773172 174.90101 
L 350.896919 174.90101 
L 350.020666 174.90101 
L 349.144413 174.90101 
L 348.268161 174.90101 
L 347.391908 174.90101 
L 346.515655 174.90101 
L 345.639402 174.90101 
L 344.763149 174.90101 
L 343.886897 174.90101 
L 343.010644 174.90101 
L 342.134391 174.90101 
L 341.258138 174.90101 
L 340.381885 174.90101 
L 339.505633 174.90101 
L 338.62938 174.90101 
L 337.753127 174.90101 
L 336.876874 174.90101 
L 336.000621 174.90101 
L 335.124369 174.90101 
L 334.248116 174.90101 
L 333.371863 174.90101 
L 332.49561 174.90101 
L 331.619357 174.90101 
L 330.743105 174.90101 
L 329.866852 174.90101 
L 328.990599 174.90101 
L 328.114346 174.90101 
L 327.238093 174.90101 
L 326.361841 174.90101 
L 325.485588 174.90101 
L 324.609335 174.90101 
L 323.733082 174.90101 
L 322.856829 174.90101 
L 321.980577 174.90101 
L 321.104324 174.90101 
L 320.228071 174.90101 
L 319.351818 174.90101 
L 318.475566 174.90101 
L 317.599313 174.90101 
L 316.72306 174.90101 
L 315.846807 174.90101 
L 314.970554 174.90101 
L 314.094302 174.90101 
L 313.218049 174.90101 
L 312.341796 174.90101 
L 311.465543 174.90101 
L 310.58929 174.90101 
L 309.713038 174.90101 
L 308.836785 174.90101 
L 307.960532 174.90101 
L 307.084279 174.90101 
L 306.208026 174.90101 
L 305.331774 174.90101 
L 304.455521 174.90101 
L 303.579268 174.90101 
L 302.703015 174.90101 
L 301.826762 174.90101 
L 300.95051 174.90101 
L 300.074257 174.90101 
L 299.198004 174.90101 
L 298.321751 174.90101 
L 297.445498 174.90101 
L 296.569246 174.90101 
L 295.692993 174.90101 
L 294.81674 174.90101 
L 293.940487 174.90101 
L 293.064234 174.90101 
L 292.187982 174.90101 
L 291.311729 174.90101 
L 290.435476 174.90101 
L 289.559223 174.90101 
L 288.68297 174.90101 
L 287.806718 174.90101 
L 286.930465 174.90101 
L 286.054212 174.90101 
L 285.177959 174.90101 
L 284.301706 174.90101 
L 283.425454 174.90101 
L 282.549201 174.90101 
L 281.672948 174.90101 
L 280.796695 174.90101 
L 279.920442 174.90101 
L 279.04419 174.90101 
L 278.167937 174.90101 
L 277.291684 174.90101 
L 276.415431 174.90101 
L 275.539179 174.90101 
L 274.662926 174.90101 
L 273.786673 174.90101 
L 272.91042 174.90101 
L 272.034167 174.90101 
L 271.157915 174.90101 
L 270.281662 174.90101 
L 269.405409 174.90101 
L 268.529156 174.90101 
L 267.652903 174.90101 
L 266.776651 174.90101 
L 265.900398 174.90101 
L 265.024145 174.90101 
L 264.147892 174.90101 
L 263.271639 174.90101 
L 262.395387 174.90101 
L 261.519134 174.90101 
L 260.642881 174.90101 
L 259.766628 174.90101 
L 258.890375 174.90101 
L 258.014123 174.90101 
L 257.13787 174.90101 
L 256.261617 174.90101 
L 255.385364 174.90101 
L 254.509111 174.90101 
L 253.632859 174.90101 
L 252.756606 174.90101 
L 251.880353 174.90101 
L 251.0041 174.90101 
L 250.127847 174.90101 
L 249.251595 174.90101 
L 248.375342 174.90101 
L 247.499089 174.90101 
L 246.622836 174.90101 
L 245.746583 174.90101 
L 244.870331 174.90101 
L 243.994078 174.90101 
L 243.117825 174.90101 
L 242.241572 174.90101 
L 241.365319 174.90101 
L 240.489067 174.90101 
L 239.612814 174.90101 
L 238.736561 174.90101 
L 237.860308 174.90101 
L 236.984056 174.90101 
L 236.107803 174.90101 
L 235.23155 174.90101 
L 234.355297 174.90101 
L 233.479044 174.90101 
L 232.602792 174.90101 
L 231.726539 174.90101 
L 230.850286 174.90101 
z
" style="fill:#1f77b4;fill-opacity:0.3;"/>
   </g>
   <g id="matplotlib.axis_1">
    <g id="xtick_1">
     <g id="line2d_1">
      <defs>
       <path d="M 0 0 
L 0 3.5 
" id="m31733f9e97" style="stroke:#000000;stroke-width:0.8;"/>
      </defs>
      <g>
       <use style="stroke:#000000;stroke-width:0.8;" x="195.449673" xlink:href="#m31733f9e97" y="174.90101"/>
      </g>
     </g>
     <g id="text_1">
      <!-- 0 -->
      <defs>
       <path d="M 31.78125 66.40625 
Q 24.171875 66.40625 20.328125 58.90625 
Q 16.5 51.421875 16.5 36.375 
Q 16.5 21.390625 20.328125 13.890625 
Q 24.171875 6.390625 31.78125 6.390625 
Q 39.453125 6.390625 43.28125 13.890625 
Q 47.125 21.390625 47.125 36.375 
Q 47.125 51.421875 43.28125 58.90625 
Q 39.453125 66.40625 31.78125 66.40625 
z
M 31.78125 74.21875 
Q 44.046875 74.21875 50.515625 64.515625 
Q 56.984375 54.828125 56.984375 36.375 
Q 56.984375 17.96875 50.515625 8.265625 
Q 44.046875 -1.421875 31.78125 -1.421875 
Q 19.53125 -1.421875 13.0625 8.265625 
Q 6.59375 17.96875 6.59375 36.375 
Q 6.59375 54.828125 13.0625 64.515625 
Q 19.53125 74.21875 31.78125 74.21875 
z
" id="DejaVuSans-48"/>
      </defs>
      <g transform="translate(190.995923 192.538823)scale(0.14 -0.14)">
       <use xlink:href="#DejaVuSans-48"/>
      </g>
     </g>
    </g>
    <g id="xtick_2">
     <g id="line2d_2">
      <g>
       <use style="stroke:#000000;stroke-width:0.8;" x="230.429685" xlink:href="#m31733f9e97" y="174.90101"/>
      </g>
     </g>
     <g id="text_2">
      <!-- $k$ -->
      <defs>
       <path d="M 18.3125 75.984375 
L 27.296875 75.984375 
L 18.703125 31.6875 
L 49.515625 54.6875 
L 61.1875 54.6875 
L 26.8125 28.515625 
L 51.90625 0 
L 41.015625 0 
L 17.671875 26.703125 
L 12.5 0 
L 3.515625 0 
z
" id="DejaVuSans-Oblique-107"/>
      </defs>
      <g transform="translate(226.369685 192.538823)scale(0.14 -0.14)">
       <use transform="translate(0 0.015625)" xlink:href="#DejaVuSans-Oblique-107"/>
      </g>
     </g>
    </g>
    <g id="xtick_3">
     <g id="line2d_3">
      <g>
       <use style="stroke:#000000;stroke-width:0.8;" x="282.899702" xlink:href="#m31733f9e97" y="174.90101"/>
      </g>
     </g>
     <g id="text_3">
      <!-- $d$ -->
      <defs>
       <path d="M 41.796875 8.203125 
Q 38.1875 3.46875 33.25 1.015625 
Q 28.328125 -1.421875 22.3125 -1.421875 
Q 14.109375 -1.421875 9.34375 4.171875 
Q 4.59375 9.765625 4.59375 19.484375 
Q 4.59375 27.59375 7.46875 34.9375 
Q 10.359375 42.28125 15.828125 48.09375 
Q 19.4375 51.953125 23.96875 53.96875 
Q 28.515625 56 33.5 56 
Q 38.765625 56 42.796875 53.453125 
Q 46.828125 50.921875 49.03125 46.1875 
L 54.890625 75.984375 
L 63.921875 75.984375 
L 49.125 0 
L 40.09375 0 
z
M 13.921875 21.09375 
Q 13.921875 14.015625 17.109375 10.0625 
Q 20.3125 6.109375 25.984375 6.109375 
Q 30.171875 6.109375 33.765625 8.125 
Q 37.359375 10.15625 40.09375 14.109375 
Q 42.96875 18.21875 44.625 23.578125 
Q 46.296875 28.953125 46.296875 34.1875 
Q 46.296875 40.96875 43.09375 44.765625 
Q 39.890625 48.578125 34.28125 48.578125 
Q 30.03125 48.578125 26.359375 46.578125 
Q 22.703125 44.578125 20.125 40.828125 
Q 17.28125 36.765625 15.59375 31.390625 
Q 13.921875 26.03125 13.921875 21.09375 
z
" id="DejaVuSans-Oblique-100"/>
      </defs>
      <g transform="translate(278.419702 192.538823)scale(0.14 -0.14)">
       <use transform="translate(0 0.015625)" xlink:href="#DejaVuSans-Oblique-100"/>
      </g>
     </g>
    </g>
    <g id="text_4">
     <!-- $\Psi$ -->
     <defs>
      <path d="M 34.46875 0 
Q 34.515625 6.546875 34.46875 15.140625 
Q 24.03125 15.140625 14.84375 25.390625 
Q 5.859375 35.359375 5.609375 52.9375 
L 5.609375 72.90625 
L 16.015625 72.90625 
L 16.015625 52.9375 
Q 16.015625 39.15625 22.359375 31.15625 
Q 27.734375 24.3125 34.46875 23.640625 
L 34.46875 72.90625 
L 44.34375 72.90625 
L 44.34375 23.640625 
Q 51.078125 24.3125 56.453125 31.15625 
Q 62.796875 39.15625 62.796875 52.9375 
L 62.796875 72.90625 
L 73.1875 72.90625 
L 73.1875 52.9375 
Q 72.953125 35.359375 63.96875 25.390625 
Q 54.78125 15.140625 44.34375 15.140625 
Q 44.28125 11.625 44.34375 0 
z
" id="DejaVuSans-936"/>
     </defs>
     <g transform="translate(233.644687 210.088198)scale(0.14 -0.14)">
      <use transform="translate(0 0.09375)" xlink:href="#DejaVuSans-936"/>
     </g>
    </g>
   </g>
   <g id="matplotlib.axis_2">
    <g id="text_5">
     <!-- Probability density -->
     <defs>
      <path d="M 19.671875 64.796875 
L 19.671875 37.40625 
L 32.078125 37.40625 
Q 38.96875 37.40625 42.71875 40.96875 
Q 46.484375 44.53125 46.484375 51.125 
Q 46.484375 57.671875 42.71875 61.234375 
Q 38.96875 64.796875 32.078125 64.796875 
z
M 9.8125 72.90625 
L 32.078125 72.90625 
Q 44.34375 72.90625 50.609375 67.359375 
Q 56.890625 61.8125 56.890625 51.125 
Q 56.890625 40.328125 50.609375 34.8125 
Q 44.34375 29.296875 32.078125 29.296875 
L 19.671875 29.296875 
L 19.671875 0 
L 9.8125 0 
z
" id="DejaVuSans-80"/>
      <path d="M 41.109375 46.296875 
Q 39.59375 47.171875 37.8125 47.578125 
Q 36.03125 48 33.890625 48 
Q 26.265625 48 22.1875 43.046875 
Q 18.109375 38.09375 18.109375 28.8125 
L 18.109375 0 
L 9.078125 0 
L 9.078125 54.6875 
L 18.109375 54.6875 
L 18.109375 46.1875 
Q 20.953125 51.171875 25.484375 53.578125 
Q 30.03125 56 36.53125 56 
Q 37.453125 56 38.578125 55.875 
Q 39.703125 55.765625 41.0625 55.515625 
z
" id="DejaVuSans-114"/>
      <path d="M 30.609375 48.390625 
Q 23.390625 48.390625 19.1875 42.75 
Q 14.984375 37.109375 14.984375 27.296875 
Q 14.984375 17.484375 19.15625 11.84375 
Q 23.34375 6.203125 30.609375 6.203125 
Q 37.796875 6.203125 41.984375 11.859375 
Q 46.1875 17.53125 46.1875 27.296875 
Q 46.1875 37.015625 41.984375 42.703125 
Q 37.796875 48.390625 30.609375 48.390625 
z
M 30.609375 56 
Q 42.328125 56 49.015625 48.375 
Q 55.71875 40.765625 55.71875 27.296875 
Q 55.71875 13.875 49.015625 6.21875 
Q 42.328125 -1.421875 30.609375 -1.421875 
Q 18.84375 -1.421875 12.171875 6.21875 
Q 5.515625 13.875 5.515625 27.296875 
Q 5.515625 40.765625 12.171875 48.375 
Q 18.84375 56 30.609375 56 
z
" id="DejaVuSans-111"/>
      <path d="M 48.6875 27.296875 
Q 48.6875 37.203125 44.609375 42.84375 
Q 40.53125 48.484375 33.40625 48.484375 
Q 26.265625 48.484375 22.1875 42.84375 
Q 18.109375 37.203125 18.109375 27.296875 
Q 18.109375 17.390625 22.1875 11.75 
Q 26.265625 6.109375 33.40625 6.109375 
Q 40.53125 6.109375 44.609375 11.75 
Q 48.6875 17.390625 48.6875 27.296875 
z
M 18.109375 46.390625 
Q 20.953125 51.265625 25.265625 53.625 
Q 29.59375 56 35.59375 56 
Q 45.5625 56 51.78125 48.09375 
Q 58.015625 40.1875 58.015625 27.296875 
Q 58.015625 14.40625 51.78125 6.484375 
Q 45.5625 -1.421875 35.59375 -1.421875 
Q 29.59375 -1.421875 25.265625 0.953125 
Q 20.953125 3.328125 18.109375 8.203125 
L 18.109375 0 
L 9.078125 0 
L 9.078125 75.984375 
L 18.109375 75.984375 
z
" id="DejaVuSans-98"/>
      <path d="M 34.28125 27.484375 
Q 23.390625 27.484375 19.1875 25 
Q 14.984375 22.515625 14.984375 16.5 
Q 14.984375 11.71875 18.140625 8.90625 
Q 21.296875 6.109375 26.703125 6.109375 
Q 34.1875 6.109375 38.703125 11.40625 
Q 43.21875 16.703125 43.21875 25.484375 
L 43.21875 27.484375 
z
M 52.203125 31.203125 
L 52.203125 0 
L 43.21875 0 
L 43.21875 8.296875 
Q 40.140625 3.328125 35.546875 0.953125 
Q 30.953125 -1.421875 24.3125 -1.421875 
Q 15.921875 -1.421875 10.953125 3.296875 
Q 6 8.015625 6 15.921875 
Q 6 25.140625 12.171875 29.828125 
Q 18.359375 34.515625 30.609375 34.515625 
L 43.21875 34.515625 
L 43.21875 35.40625 
Q 43.21875 41.609375 39.140625 45 
Q 35.0625 48.390625 27.6875 48.390625 
Q 23 48.390625 18.546875 47.265625 
Q 14.109375 46.140625 10.015625 43.890625 
L 10.015625 52.203125 
Q 14.9375 54.109375 19.578125 55.046875 
Q 24.21875 56 28.609375 56 
Q 40.484375 56 46.34375 49.84375 
Q 52.203125 43.703125 52.203125 31.203125 
z
" id="DejaVuSans-97"/>
      <path d="M 9.421875 54.6875 
L 18.40625 54.6875 
L 18.40625 0 
L 9.421875 0 
z
M 9.421875 75.984375 
L 18.40625 75.984375 
L 18.40625 64.59375 
L 9.421875 64.59375 
z
" id="DejaVuSans-105"/>
      <path d="M 9.421875 75.984375 
L 18.40625 75.984375 
L 18.40625 0 
L 9.421875 0 
z
" id="DejaVuSans-108"/>
      <path d="M 18.3125 70.21875 
L 18.3125 54.6875 
L 36.8125 54.6875 
L 36.8125 47.703125 
L 18.3125 47.703125 
L 18.3125 18.015625 
Q 18.3125 11.328125 20.140625 9.421875 
Q 21.96875 7.515625 27.59375 7.515625 
L 36.8125 7.515625 
L 36.8125 0 
L 27.59375 0 
Q 17.1875 0 13.234375 3.875 
Q 9.28125 7.765625 9.28125 18.015625 
L 9.28125 47.703125 
L 2.6875 47.703125 
L 2.6875 54.6875 
L 9.28125 54.6875 
L 9.28125 70.21875 
z
" id="DejaVuSans-116"/>
      <path d="M 32.171875 -5.078125 
Q 28.375 -14.84375 24.75 -17.8125 
Q 21.140625 -20.796875 15.09375 -20.796875 
L 7.90625 -20.796875 
L 7.90625 -13.28125 
L 13.1875 -13.28125 
Q 16.890625 -13.28125 18.9375 -11.515625 
Q 21 -9.765625 23.484375 -3.21875 
L 25.09375 0.875 
L 2.984375 54.6875 
L 12.5 54.6875 
L 29.59375 11.921875 
L 46.6875 54.6875 
L 56.203125 54.6875 
z
" id="DejaVuSans-121"/>
      <path id="DejaVuSans-32"/>
      <path d="M 45.40625 46.390625 
L 45.40625 75.984375 
L 54.390625 75.984375 
L 54.390625 0 
L 45.40625 0 
L 45.40625 8.203125 
Q 42.578125 3.328125 38.25 0.953125 
Q 33.9375 -1.421875 27.875 -1.421875 
Q 17.96875 -1.421875 11.734375 6.484375 
Q 5.515625 14.40625 5.515625 27.296875 
Q 5.515625 40.1875 11.734375 48.09375 
Q 17.96875 56 27.875 56 
Q 33.9375 56 38.25 53.625 
Q 42.578125 51.265625 45.40625 46.390625 
z
M 14.796875 27.296875 
Q 14.796875 17.390625 18.875 11.75 
Q 22.953125 6.109375 30.078125 6.109375 
Q 37.203125 6.109375 41.296875 11.75 
Q 45.40625 17.390625 45.40625 27.296875 
Q 45.40625 37.203125 41.296875 42.84375 
Q 37.203125 48.484375 30.078125 48.484375 
Q 22.953125 48.484375 18.875 42.84375 
Q 14.796875 37.203125 14.796875 27.296875 
z
" id="DejaVuSans-100"/>
      <path d="M 56.203125 29.59375 
L 56.203125 25.203125 
L 14.890625 25.203125 
Q 15.484375 15.921875 20.484375 11.0625 
Q 25.484375 6.203125 34.421875 6.203125 
Q 39.59375 6.203125 44.453125 7.46875 
Q 49.3125 8.734375 54.109375 11.28125 
L 54.109375 2.78125 
Q 49.265625 0.734375 44.1875 -0.34375 
Q 39.109375 -1.421875 33.890625 -1.421875 
Q 20.796875 -1.421875 13.15625 6.1875 
Q 5.515625 13.8125 5.515625 26.8125 
Q 5.515625 40.234375 12.765625 48.109375 
Q 20.015625 56 32.328125 56 
Q 43.359375 56 49.78125 48.890625 
Q 56.203125 41.796875 56.203125 29.59375 
z
M 47.21875 32.234375 
Q 47.125 39.59375 43.09375 43.984375 
Q 39.0625 48.390625 32.421875 48.390625 
Q 24.90625 48.390625 20.390625 44.140625 
Q 15.875 39.890625 15.1875 32.171875 
z
" id="DejaVuSans-101"/>
      <path d="M 54.890625 33.015625 
L 54.890625 0 
L 45.90625 0 
L 45.90625 32.71875 
Q 45.90625 40.484375 42.875 44.328125 
Q 39.84375 48.1875 33.796875 48.1875 
Q 26.515625 48.1875 22.3125 43.546875 
Q 18.109375 38.921875 18.109375 30.90625 
L 18.109375 0 
L 9.078125 0 
L 9.078125 54.6875 
L 18.109375 54.6875 
L 18.109375 46.1875 
Q 21.34375 51.125 25.703125 53.5625 
Q 30.078125 56 35.796875 56 
Q 45.21875 56 50.046875 50.171875 
Q 54.890625 44.34375 54.890625 33.015625 
z
" id="DejaVuSans-110"/>
      <path d="M 44.28125 53.078125 
L 44.28125 44.578125 
Q 40.484375 46.53125 36.375 47.5 
Q 32.28125 48.484375 27.875 48.484375 
Q 21.1875 48.484375 17.84375 46.4375 
Q 14.5 44.390625 14.5 40.28125 
Q 14.5 37.15625 16.890625 35.375 
Q 19.28125 33.59375 26.515625 31.984375 
L 29.59375 31.296875 
Q 39.15625 29.25 43.1875 25.515625 
Q 47.21875 21.78125 47.21875 15.09375 
Q 47.21875 7.46875 41.1875 3.015625 
Q 35.15625 -1.421875 24.609375 -1.421875 
Q 20.21875 -1.421875 15.453125 -0.5625 
Q 10.6875 0.296875 5.421875 2 
L 5.421875 11.28125 
Q 10.40625 8.6875 15.234375 7.390625 
Q 20.0625 6.109375 24.8125 6.109375 
Q 31.15625 6.109375 34.5625 8.28125 
Q 37.984375 10.453125 37.984375 14.40625 
Q 37.984375 18.0625 35.515625 20.015625 
Q 33.0625 21.96875 24.703125 23.78125 
L 21.578125 24.515625 
Q 13.234375 26.265625 9.515625 29.90625 
Q 5.8125 33.546875 5.8125 39.890625 
Q 5.8125 47.609375 11.28125 51.796875 
Q 16.75 56 26.8125 56 
Q 31.78125 56 36.171875 55.265625 
Q 40.578125 54.546875 44.28125 53.078125 
z
" id="DejaVuSans-115"/>
     </defs>
     <g transform="translate(13.638053 154.118438)rotate(-90)scale(0.14 -0.14)">
      <use xlink:href="#DejaVuSans-80"/>
      <use x="60.287109" xlink:href="#DejaVuSans-114"/>
      <use x="101.369141" xlink:href="#DejaVuSans-111"/>
      <use x="162.550781" xlink:href="#DejaVuSans-98"/>
      <use x="226.027344" xlink:href="#DejaVuSans-97"/>
      <use x="287.306641" xlink:href="#DejaVuSans-98"/>
      <use x="350.783203" xlink:href="#DejaVuSans-105"/>
      <use x="378.566406" xlink:href="#DejaVuSans-108"/>
      <use x="406.349609" xlink:href="#DejaVuSans-105"/>
      <use x="434.132812" xlink:href="#DejaVuSans-116"/>
      <use x="473.341797" xlink:href="#DejaVuSans-121"/>
      <use x="532.521484" xlink:href="#DejaVuSans-32"/>
      <use x="564.308594" xlink:href="#DejaVuSans-100"/>
      <use x="627.785156" xlink:href="#DejaVuSans-101"/>
      <use x="689.308594" xlink:href="#DejaVuSans-110"/>
      <use x="752.6875" xlink:href="#DejaVuSans-115"/>
      <use x="804.787109" xlink:href="#DejaVuSans-105"/>
      <use x="832.570312" xlink:href="#DejaVuSans-116"/>
      <use x="871.779297" xlink:href="#DejaVuSans-121"/>
     </g>
    </g>
   </g>
   <g id="line2d_4">
    <path clip-path="url(#pc4d43b71fd)" d="M 20.549615 174.848584 
L 38.074671 174.660616 
L 48.589704 174.346046 
L 56.47598 173.900346 
L 62.609749 173.35344 
L 67.867266 172.687107 
L 73.124783 171.779334 
L 77.506047 170.789995 
L 81.887311 169.541192 
L 85.392322 168.321837 
L 88.897333 166.876806 
L 92.402344 165.177076 
L 95.907355 163.192776 
L 99.412367 160.893849 
L 102.917378 158.250857 
L 106.422389 155.23593 
L 109.051147 152.715345 
L 112.556159 148.991075 
L 116.06117 144.835433 
L 119.566181 140.236734 
L 123.071192 135.190626 
L 126.576203 129.701326 
L 130.081214 123.782748 
L 133.586226 117.459463 
L 137.96749 109.042128 
L 142.348754 100.145672 
L 148.482523 87.129053 
L 160.750062 60.838225 
L 165.131326 52.016284 
L 168.636337 45.409412 
L 172.141349 39.321319 
L 174.770107 35.158651 
L 177.398865 31.387837 
L 180.027624 28.047026 
L 182.656382 25.170617 
L 184.408888 23.526048 
L 186.161393 22.109062 
L 187.913899 20.926358 
L 189.666405 19.983561 
L 191.41891 19.285177 
L 193.171416 18.834554 
L 194.923921 18.633859 
L 196.676427 18.684057 
L 198.428933 18.984907 
L 200.181438 19.534961 
L 201.933944 20.331577 
L 203.686449 21.370941 
L 205.438955 22.648094 
L 207.19146 24.156976 
L 208.943966 25.89047 
L 211.572724 28.893848 
L 214.201483 32.352855 
L 216.830241 36.232035 
L 219.459 40.492341 
L 222.964011 46.692721 
L 226.469022 53.390374 
L 230.850286 62.294708 
L 236.984056 75.36848 
L 248.375342 99.781521 
L 253.632859 110.423946 
L 258.014123 118.754939 
L 261.519134 124.999786 
L 265.024145 130.834121 
L 268.529156 136.235571 
L 272.034167 141.192243 
L 275.539179 145.701729 
L 279.04419 149.769951 
L 282.549201 153.409902 
L 286.054212 156.640362 
L 289.559223 159.484612 
L 293.064234 161.969209 
L 296.569246 164.122853 
L 300.074257 165.975371 
L 303.579268 167.556826 
L 307.084279 168.896783 
L 310.58929 170.023704 
L 314.970554 171.173581 
L 319.351818 172.080821 
L 324.609335 172.909579 
L 329.866852 173.514977 
L 336.000621 174.00932 
L 343.886897 174.40969 
L 354.40193 174.690023 
L 370.17448 174.847738 
L 404.348339 174.899282 
L 457.79976 174.901008 
L 457.79976 174.901008 
" style="fill:none;stroke:#1f77b4;stroke-linecap:square;stroke-width:2;"/>
   </g>
   <g id="line2d_5">
    <path clip-path="url(#pc4d43b71fd)" d="M 20.549615 174.901008 
L 116.06117 174.793254 
L 130.081214 174.553109 
L 139.719995 174.16734 
L 146.730018 173.676636 
L 152.863787 173.02442 
L 158.121304 172.237043 
L 162.502568 171.372983 
L 166.883832 170.275339 
L 170.388843 169.197405 
L 173.893854 167.913322 
L 177.398865 166.394978 
L 180.903877 164.613037 
L 184.408888 162.537493 
L 187.913899 160.138385 
L 191.41891 157.386641 
L 194.047669 155.074954 
L 196.676427 152.539124 
L 200.181438 148.793662 
L 203.686449 144.616089 
L 207.19146 139.995056 
L 210.696472 134.926612 
L 214.201483 129.415432 
L 217.706494 123.475943 
L 221.211505 117.13327 
L 225.592769 108.69473 
L 229.974033 99.781521 
L 236.107803 86.75107 
L 248.375342 60.475766 
L 252.756606 51.675289 
L 256.261617 45.091796 
L 259.766628 39.03243 
L 262.395387 34.894633 
L 265.024145 31.151336 
L 267.652903 27.84046 
L 270.281662 24.996131 
L 272.034167 23.373989 
L 273.786673 21.980147 
L 275.539179 20.821199 
L 277.291684 19.90266 
L 279.04419 19.22892 
L 280.796695 18.803212 
L 282.549201 18.627583 
L 284.301706 18.702877 
L 286.054212 19.028732 
L 287.806718 19.603581 
L 289.559223 20.424663 
L 291.311729 21.488047 
L 293.064234 22.788664 
L 294.81674 24.320344 
L 296.569246 26.075869 
L 299.198004 29.110644 
L 301.826762 32.598809 
L 304.455521 36.504648 
L 307.084279 40.788899 
L 310.58929 47.016692 
L 314.094302 53.736355 
L 318.475566 62.660421 
L 324.609335 75.747498 
L 336.000621 100.145672 
L 341.258138 110.767422 
L 345.639402 119.076459 
L 349.144413 125.301483 
L 352.649425 131.114614 
L 356.154436 136.494025 
L 359.659447 141.428321 
L 363.164458 145.915539 
L 366.669469 149.961985 
L 370.17448 153.580973 
L 373.679492 156.791537 
L 377.184503 159.617152 
L 380.689514 162.084506 
L 384.194525 164.222381 
L 387.699536 166.060632 
L 391.204548 167.629318 
L 394.709559 168.957958 
L 398.21457 170.074948 
L 402.595834 171.214225 
L 406.977098 172.112692 
L 412.234615 172.933033 
L 417.492131 173.531961 
L 423.625901 174.020742 
L 431.512176 174.416333 
L 442.02721 174.693076 
L 457.79976 174.848584 
L 457.79976 174.848584 
" style="fill:none;stroke:#ff7f0e;stroke-linecap:square;stroke-width:2;"/>
   </g>
   <g id="patch_3">
    <path d="M 20.549615 174.90101 
L 20.549615 3.00024 
" style="fill:none;stroke:#000000;stroke-linecap:square;stroke-linejoin:miter;stroke-width:0.8;"/>
   </g>
   <g id="patch_4">
    <path d="M 20.549615 174.90101 
L 457.79976 174.90101 
" style="fill:none;stroke:#000000;stroke-linecap:square;stroke-linejoin:miter;stroke-width:0.8;"/>
   </g>
   <g id="legend_1">
    <g id="patch_5">
     <path d="M 364.69976 55.29899 
L 450.79976 55.29899 
L 450.79976 10.00024 
L 364.69976 10.00024 
z
" style="fill:none;opacity:0;"/>
    </g>
    <g id="line2d_6">
     <path d="M 370.29976 21.338053 
L 398.29976 21.338053 
" style="fill:none;stroke:#1f77b4;stroke-linecap:square;stroke-width:2;"/>
    </g>
    <g id="line2d_7"/>
    <g id="text_6">
     <!-- $X=0$ -->
     <defs>
      <path d="M 13.71875 72.90625 
L 23.6875 72.90625 
L 36.1875 46.578125 
L 58.796875 72.90625 
L 70.3125 72.90625 
L 40.28125 38.09375 
L 58.40625 0 
L 48.484375 0 
L 33.796875 30.71875 
L 7.171875 0 
L -4.296875 0 
L 29.78125 39.203125 
z
" id="DejaVuSans-Oblique-88"/>
      <path d="M 10.59375 45.40625 
L 73.1875 45.40625 
L 73.1875 37.203125 
L 10.59375 37.203125 
z
M 10.59375 25.484375 
L 73.1875 25.484375 
L 73.1875 17.1875 
L 10.59375 17.1875 
z
" id="DejaVuSans-61"/>
     </defs>
     <g transform="translate(409.49976 26.238053)scale(0.14 -0.14)">
      <use transform="translate(0 0.78125)" xlink:href="#DejaVuSans-Oblique-88"/>
      <use transform="translate(87.988281 0.78125)" xlink:href="#DejaVuSans-61"/>
      <use transform="translate(191.259766 0.78125)" xlink:href="#DejaVuSans-48"/>
     </g>
    </g>
    <g id="line2d_8">
     <path d="M 370.29976 41.887428 
L 398.29976 41.887428 
" style="fill:none;stroke:#ff7f0e;stroke-linecap:square;stroke-width:2;"/>
    </g>
    <g id="line2d_9"/>
    <g id="text_7">
     <!-- $X=1$ -->
     <defs>
      <path d="M 12.40625 8.296875 
L 28.515625 8.296875 
L 28.515625 63.921875 
L 10.984375 60.40625 
L 10.984375 69.390625 
L 28.421875 72.90625 
L 38.28125 72.90625 
L 38.28125 8.296875 
L 54.390625 8.296875 
L 54.390625 0 
L 12.40625 0 
z
" id="DejaVuSans-49"/>
     </defs>
     <g transform="translate(409.49976 46.787428)scale(0.14 -0.14)">
      <use transform="translate(0 0.09375)" xlink:href="#DejaVuSans-Oblique-88"/>
      <use transform="translate(87.988281 0.09375)" xlink:href="#DejaVuSans-61"/>
      <use transform="translate(191.259766 0.09375)" xlink:href="#DejaVuSans-49"/>
     </g>
    </g>
   </g>
   <g id="LineCollection_1">
    <path clip-path="url(#pc4d43b71fd)" d="M 230.429685 174.90101 
L 230.429685 18.627583 
" style="fill:none;stroke:#000000;stroke-width:2;"/>
   </g>
  </g>
 </g>
 <defs>
  <clipPath id="pc4d43b71fd">
   <rect height="171.90077" width="437.250145" x="20.549615" y="3.00024"/>
  </clipPath>
 </defs>
</svg>
