<?xml version="1.0" encoding="UTF-8" standalone="no"?>
<svg
   xmlns:dc="http://purl.org/dc/elements/1.1/"
   xmlns:cc="http://creativecommons.org/ns#"
   xmlns:rdf="http://www.w3.org/1999/02/22-rdf-syntax-ns#"
   xmlns:svg="http://www.w3.org/2000/svg"
   xmlns="http://www.w3.org/2000/svg"
   xmlns:sodipodi="http://sodipodi.sourceforge.net/DTD/sodipodi-0.dtd"
   xmlns:inkscape="http://www.inkscape.org/namespaces/inkscape"
   viewBox="0 0 67.000053 67.000053"
   x="0px"
   y="0px"
   id="svg2"
   version="1.1"
   inkscape:version="0.91 r13725"
   sodipodi:docname="noun_bassoon_1852002.svg"
   width="67.000053"
   height="67.000053">
  <metadata
     id="metadata14">
    <rdf:RDF>
      <cc:Work
         rdf:about="">
        <dc:format>image/svg+xml</dc:format>
        <dc:type
           rdf:resource="http://purl.org/dc/dcmitype/StillImage" />
        <dc:title></dc:title>
      </cc:Work>
    </rdf:RDF>
  </metadata>
  <defs
     id="defs12" />
  <sodipodi:namedview
     pagecolor="#ffffff"
     bordercolor="#666666"
     borderopacity="1"
     objecttolerance="10"
     gridtolerance="10"
     guidetolerance="10"
     inkscape:pageopacity="0"
     inkscape:pageshadow="2"
     inkscape:window-width="1268"
     inkscape:window-height="669"
     id="namedview10"
     showgrid="false"
     fit-margin-top="0"
     fit-margin-left="0"
     fit-margin-right="0"
     fit-margin-bottom="0"
     inkscape:zoom="2.8179104"
     inkscape:cx="33.50005"
     inkscape:cy="25.12505"
     inkscape:window-x="823"
     inkscape:window-y="188"
     inkscape:window-maximized="0"
     inkscape:current-layer="svg2" />
  <path
     d="M 51.17162,4 50.58584,3.41421 c -0.78105,-0.78104 -0.78105,-2.04738 0,-2.82842 0.78105,-0.78105 2.04737,-0.78105 2.82842,0 l 13,13 c 0.78105,0.78104 0.78105,2.04738 0,2.82842 -0.78105,0.78105 -2.04737,0.78105 -2.82842,0 L 63.00005,15.82843 56.82848,22 45.00005,10.17157 51.17162,4 Z M 39.82848,39 28.00005,27.17157 42.17162,13 54.00005,24.82843 39.82848,39 Z M 18.41426,60.41421 c -0.78105,0.78105 -2.04737,0.78105 -2.82842,0 l -9.0000002,-9 c -0.78105,-0.78104 -0.78105,-2.04738 0,-2.82842 L 25.17162,30 37.00005,41.82843 18.41426,60.41421 Z M 32.00005,18 c 0,-4.41828 -3.58172,-8 -8,-8 -0.49745,0 -0.98811,0.0452 -1.46828,0.13409 -0.64759,0.11992 -1.31271,-0.0867 -1.77841,-0.55235 L 16.58584,5.41421 c -0.78105,-0.78104 -0.78105,-2.04738 0,-2.82842 0.78105,-0.78105 2.04737,-0.78105 2.82842,0 L 22.88017,6.0517 C 23.25094,6.01731 23.62452,6 24.00005,6 c 5.67988,0 10.43808,3.94614 11.68257,9.24636 l -3.74293,3.74293 C 31.97979,18.66331 32.00005,18.33318 32.00005,18 Z M 4.7895798,53.8606 13.13945,62.21047 4.9713398,66.74831 c -0.78059,0.43367 -1.75408,0.29732 -2.3855,-0.3341 l -2.00000003,-2 c -0.63142,-0.63141 -0.76776,-1.60491 -0.33411,-2.3855 L 4.7895798,53.8606 Z"
     id="path4"
     inkscape:connector-curvature="0"
     style="fill:#000000;fill-rule:evenodd" />
</svg>
